<?xml version="1.0" encoding="utf-8"?>
<!-- Generator: Adobe Illustrator 24.3.0, SVG Export Plug-In . SVG Version: 6.00 Build 0)  -->
<svg version="1.1" id="Camada_1" xmlns="http://www.w3.org/2000/svg" xmlns:xlink="http://www.w3.org/1999/xlink" x="0px" y="0px"
	 viewBox="0 0 1087 316" style="enable-background:new 0 0 1087 316;" xml:space="preserve">
<style type="text/css">
	.st0{fill-rule:evenodd;clip-rule:evenodd;}
</style>
<g id="Layer_5_">
	<path id="Layer" d="M295,280.4V106.1c0-2.5-2.3-4.5-5-4.2l-28.3,3.3c-2.2,0.3-3.9,2.1-3.9,4.2v170.9v31.1c0,2.5,2.1,4.5,4.7,4.5
		H295h107.7c2.6,0,4.7-2,4.7-4.5v-26.6c0-2.5-2.1-4.5-4.7-4.5H295V280.4z"/>
	<path id="Layer_1_" class="st0" d="M155.3,313.3L143.5,286l-97.7,1.7l-9.3,25.4c-0.7,1.7-2.3,2.8-4.2,2.8H4.5
		c-3.1,0-5.2-2.9-4.2-5.6l67.6-178.7c0.5-1.5,1.9-2.5,3.5-2.7l33.4-3.9c1.9-0.2,3.7,0.8,4.4,2.5l81.7,182.6c1.2,2.8-0.9,5.9-4.1,5.9
		h-27.6C157.4,316,155.8,314.9,155.3,313.3z M127.6,250.8l-37.2-81.7l-31.9,84.2L127.6,250.8z"/>
	<path id="Layer_2_" d="M1041.9,11.5l-139,172.9l-133-139.5c-1-1-2.3-1.4-3.7-1.3l-30.4,3.7c-2.2,0.3-3.8,2-3.8,4.1v260.1
		c0,2.4,2,4.4,4.5,4.4H767c2.5,0,4.5-1.9,4.5-4.4V111.1L888.3,230c0.9,0.9,2.1,1.4,3.4,1.3l27.6-1.1c1.2-0.1,2.3-0.7,3.1-1.6
		l124.8-153.7v236.7c0,2.4,2,4.4,4.5,4.4h30.5c2.5,0,4.5-1.9,4.5-4.4V9.6c0-2.5-2.3-4.4-4.9-4.1l-37.2,4.5
		C1043.7,10.1,1042.6,10.6,1041.9,11.5z"/>
	<path id="Layer_3_" d="M665.4,94.6V60.7c0-2.5-2.3-4.5-4.9-4.2L477.7,79.8c0,0,0,0-0.1,0c-2.1,0.3-3.6,2.1-3.6,4.3v224.3
		c0,5.9,1.9,7.7,4.2,7.7H661c2.4,0,4.4-1.9,4.4-4.2v-31c0-2.3-2-4.2-4.5-4.2l-149.7,3.1v-65.2l87.4-4.1c2.3-0.1,4.2-1.9,4.2-4.2V174
		c0-2.4-2.2-4.4-4.7-4.2l-86.9,6v-61.3l150.3-15.6C663.7,98.6,665.4,96.8,665.4,94.6z"/>
	<path id="Layer_4_" d="M538.8,44.9l63.3-11.2c2.2-0.4,3.8-2.3,3.8-4.5V4.6c0-3.3-3.3-5.5-6.3-4.3l-63.3,25.8
		c-1.7,0.7-2.9,2.4-2.9,4.3v10C533.4,43.3,536,45.4,538.8,44.9z"/>
</g>
</svg>
