<svg xmlns="http://www.w3.org/2000/svg" viewBox="0 0 1087 316" width="1087" height="316">
	<style>
		tspan { white-space:pre }
		.shp0 { fill: #3d4247 } 
	</style>
	<g id="Layer">
		<path id="Layer" class="shp0" d="M295 280.4L295 106.1C295 103.6 292.7 101.6 290 101.9L261.7 105.2C259.5 105.5 257.8 107.3 257.8 109.4L257.8 280.3L257.8 311.4C257.8 313.9 259.9 315.9 262.5 315.9L295 315.9L402.7 315.9C405.3 315.9 407.4 313.9 407.4 311.4L407.4 284.8C407.4 282.3 405.3 280.3 402.7 280.3L295 280.3L295 280.4Z" />
		<path id="Layer" fill-rule="evenodd" class="shp0" d="M155.3 313.3L143.5 286L45.8 287.7L36.5 313.1C35.8 314.8 34.2 315.9 32.3 315.9L4.5 315.9C1.4 315.9 -0.7 313 0.3 310.3L67.9 131.6C68.4 130.1 69.8 129.1 71.4 128.9L104.8 125C106.7 124.8 108.5 125.8 109.2 127.5L190.9 310.1C192.1 312.9 190 316 186.8 316L159.2 316C157.4 316 155.8 314.9 155.3 313.3ZM127.6 250.8L90.4 169.1L58.5 253.3L127.6 250.8Z" />
		<path id="Layer" class="shp0" d="M1041.9 11.5L902.9 184.4L769.9 44.9C768.9 43.9 767.6 43.5 766.2 43.6L735.8 47.3C733.6 47.6 732 49.3 732 51.4L732 311.5C732 313.9 734 315.9 736.5 315.9L767 315.9C769.5 315.9 771.5 314 771.5 311.5L771.5 111.1L888.3 230C889.2 230.9 890.4 231.4 891.7 231.3L919.3 230.2C920.5 230.1 921.6 229.5 922.4 228.6L1047.2 74.9L1047.2 311.6C1047.2 314 1049.2 316 1051.7 316L1082.2 316C1084.7 316 1086.7 314.1 1086.7 311.6L1086.7 9.6C1086.7 7.1 1084.4 5.2 1081.8 5.5L1044.6 10C1043.7 10.1 1042.6 10.6 1041.9 11.5Z" />
		<path id="Layer" class="shp0" d="M665.4 94.6L665.4 60.7C665.4 58.2 663.1 56.2 660.5 56.5L477.7 79.8C477.7 79.8 477.7 79.8 477.6 79.8C475.5 80.1 474 81.9 474 84.1L474 308.4C474 314.3 475.9 316.1 478.2 316.1L661 316.1C663.4 316.1 665.4 314.2 665.4 311.9L665.4 280.9C665.4 278.6 663.4 276.7 660.9 276.7L511.2 279.8L511.2 214.6L598.6 210.5C600.9 210.4 602.8 208.6 602.8 206.3L602.8 174C602.8 171.6 600.6 169.6 598.1 169.8L511.2 175.8L511.2 114.5L661.5 98.9C663.7 98.6 665.4 96.8 665.4 94.6Z" />
		<path id="Layer" class="shp0" d="M538.8 44.9L602.1 33.7C604.3 33.3 605.9 31.4 605.9 29.2L605.9 4.6C605.9 1.3 602.6 -0.9 599.6 0.3L536.3 26.1C534.6 26.8 533.4 28.5 533.4 30.4L533.4 40.4C533.4 43.3 536 45.4 538.8 44.9Z" />
	</g>
</svg>