<?xml version="1.0" encoding="utf-8"?>
<!-- Generator: Adobe Illustrator 24.3.0, SVG Export Plug-In . SVG Version: 6.00 Build 0)  -->
<svg version="1.1" id="Layer_1" xmlns="http://www.w3.org/2000/svg" xmlns:xlink="http://www.w3.org/1999/xlink" x="0px" y="0px"
	 viewBox="0 0 420.9 39" style="enable-background:new 0 0 420.9 39;" xml:space="preserve">
<style type="text/css">
	.st0{clip-path:url(#SVGID_2_);}
	.st1{clip-path:url(#SVGID_4_);}
	.st2{clip-path:url(#SVGID_6_);}
	.st3{clip-path:url(#SVGID_8_);}
	.st4{clip-path:url(#SVGID_10_);}
	.st5{clip-path:url(#SVGID_12_);}
	.st6{clip-path:url(#SVGID_14_);}
	.st7{clip-path:url(#SVGID_16_);}
	.st8{clip-path:url(#SVGID_18_);}
	.st9{clip-path:url(#SVGID_20_);}
	.st10{clip-path:url(#SVGID_22_);}
	.st11{clip-path:url(#SVGID_24_);}
	.st12{clip-path:url(#SVGID_26_);}
	.st13{clip-path:url(#SVGID_28_);}
</style>
<polygon points="49.3,26.5 49.3,13.4 54.7,13.4 54.7,24 71.8,24 71.8,26.5 "/>
<g>
	<g>
		<defs>
			<rect id="SVGID_1_" width="420.9" height="39"/>
		</defs>
		<clipPath id="SVGID_2_">
			<use xlink:href="#SVGID_1_"  style="overflow:visible;"/>
		</clipPath>
		<path class="st0" d="M79.3,16.4c0-1.2,0.4-2,1.2-2.4c0.8-0.4,2.3-0.6,4.5-0.6h16.9c2.3,0,3.8,0.2,4.5,0.6c0.8,0.4,1.2,1.2,1.2,2.4
			v6.9c0,1.2-0.4,2-1.2,2.5c-0.8,0.4-2.3,0.6-4.5,0.6H85c-2.2,0-3.8-0.2-4.5-0.6c-0.8-0.4-1.2-1.3-1.2-2.5V16.4z M84.6,23.9h17.6
			v-8.2H84.6V23.9z"/>
	</g>
	<g>
		<defs>
			<rect id="SVGID_3_" width="420.9" height="39"/>
		</defs>
		<clipPath id="SVGID_4_">
			<use xlink:href="#SVGID_3_"  style="overflow:visible;"/>
		</clipPath>
		<path class="st1" d="M115.8,26.5V13.4h19.7c1.8,0,3.1,0.2,3.9,0.6s1.2,1,1.2,1.9V19c0,0.9-0.4,1.5-1.2,1.9s-2.1,0.6-3.9,0.6h-3
			l10.4,5h-7.7l-9.2-5h-5v5H115.8z M133.3,15.6h-12.2v3.6h12.2c0.9,0,1.6-0.1,1.9-0.2c0.3-0.2,0.5-0.4,0.5-0.8v-1.5
			c0-0.4-0.2-0.7-0.5-0.8C134.9,15.7,134.2,15.6,133.3,15.6"/>
	</g>
	<g>
		<defs>
			<rect id="SVGID_5_" width="420.9" height="39"/>
		</defs>
		<clipPath id="SVGID_6_">
			<use xlink:href="#SVGID_5_"  style="overflow:visible;"/>
		</clipPath>
		<rect x="151.5" y="13.4" class="st2" width="5.3" height="13.1"/>
	</g>
	<g>
		<defs>
			<rect id="SVGID_7_" width="420.9" height="39"/>
		</defs>
		<clipPath id="SVGID_8_">
			<use xlink:href="#SVGID_7_"  style="overflow:visible;"/>
		</clipPath>
		<path class="st3" d="M165.2,26.5l13-13.1h5.1l13.2,13.1h-6l-2.8-2.9h-14.5l-2.8,2.9H165.2z M175.6,21.2h10l-5.1-5.5L175.6,21.2z"
			/>
	</g>
	<g>
		<defs>
			<rect id="SVGID_9_" width="420.9" height="39"/>
		</defs>
		<clipPath id="SVGID_10_">
			<use xlink:href="#SVGID_9_"  style="overflow:visible;"/>
		</clipPath>
		<path class="st4" d="M249.9,16.4c0-1.2,0.4-2,1.2-2.4c0.8-0.4,2.3-0.6,4.5-0.6h16.9c2.3,0,3.8,0.2,4.5,0.6
			c0.8,0.4,1.2,1.2,1.2,2.4v6.9c0,1.2-0.4,2-1.2,2.5c-0.8,0.4-2.3,0.6-4.5,0.6h-16.9c-2.2,0-3.8-0.2-4.5-0.6s-1.2-1.3-1.2-2.5
			L249.9,16.4L249.9,16.4z M255.2,23.9h17.6v-8.2h-17.6V23.9z"/>
	</g>
	<g>
		<defs>
			<rect id="SVGID_11_" width="420.9" height="39"/>
		</defs>
		<clipPath id="SVGID_12_">
			<use xlink:href="#SVGID_11_"  style="overflow:visible;"/>
		</clipPath>
		<polygon class="st5" points="286.4,26.5 286.4,13.4 309.9,13.4 309.9,15.7 291.8,15.7 291.8,18.5 302.4,18.5 302.4,20.8 
			291.8,20.8 291.8,24 310.2,24 310.2,26.5 		"/>
	</g>
	<g>
		<defs>
			<rect id="SVGID_13_" width="420.9" height="39"/>
		</defs>
		<clipPath id="SVGID_14_">
			<use xlink:href="#SVGID_13_"  style="overflow:visible;"/>
		</clipPath>
		<polygon class="st6" points="317.9,26.5 317.9,13.4 323.3,13.4 323.3,24 340.5,24 340.5,26.5 		"/>
	</g>
	<g>
		<defs>
			<rect id="SVGID_15_" width="420.9" height="39"/>
		</defs>
		<clipPath id="SVGID_16_">
			<use xlink:href="#SVGID_15_"  style="overflow:visible;"/>
		</clipPath>
		<polygon class="st7" points="348.5,26.5 348.5,13.4 353.9,13.4 353.9,18.3 370.5,18.3 370.5,13.4 375.9,13.4 375.9,26.5 
			370.5,26.5 370.5,20.9 353.9,20.9 353.9,26.5 		"/>
	</g>
	<g>
		<defs>
			<rect id="SVGID_17_" width="420.9" height="39"/>
		</defs>
		<clipPath id="SVGID_18_">
			<use xlink:href="#SVGID_17_"  style="overflow:visible;"/>
		</clipPath>
		<path class="st8" d="M384.1,16.4c0-1.2,0.4-2,1.2-2.4c0.8-0.4,2.3-0.6,4.5-0.6h16.9c2.3,0,3.8,0.2,4.5,0.6
			c0.8,0.4,1.1,1.2,1.1,2.4v6.9c0,1.2-0.4,2-1.2,2.5s-2.3,0.6-4.5,0.6h-16.9c-2.2,0-3.8-0.2-4.5-0.6s-1.2-1.3-1.2-2.5L384.1,16.4
			L384.1,16.4z M389.4,23.9h17.6v-8.2h-17.6V23.9z"/>
	</g>
	<g>
		<defs>
			<rect id="SVGID_19_" width="420.9" height="39"/>
		</defs>
		<clipPath id="SVGID_20_">
			<use xlink:href="#SVGID_19_"  style="overflow:visible;"/>
		</clipPath>
		<path class="st9" d="M240.4,15.7v-2.4c0,0-2.2,0-4.5,0h-13.7c-2.2,0-3.7,0.2-4.5,0.6c-0.8,0.4-1.2,1.2-1.2,2.4v6.9
			c0,1.2,0.4,2,1.2,2.5c0.8,0.4,2.3,0.6,4.5,0.6h13.7h4.6c0.6-0.4-0.2-1.5,0-2.4h-4.1H235h-13.2v-8.3"/>
	</g>
	<g>
		<defs>
			<rect id="SVGID_21_" width="420.9" height="39"/>
		</defs>
		<clipPath id="SVGID_22_">
			<use xlink:href="#SVGID_21_"  style="overflow:visible;"/>
		</clipPath>
		<path class="st10" d="M30.5,18.8v2.3h3.4v2.8H17.2v-8.2h15v0H38c-0.1-0.8,0-0.9,0-1.7c0-0.9,0-0.5,0-0.6H17.6
			c-2.2,0-3.7,0.2-4.5,0.7c-0.8,0.4-1.2,1.2-1.2,2.4v6.9c0,1.2,0.4,2,1.2,2.4s2.3,0.6,4.5,0.6h15.9c2.2,0,3.7-0.2,4.5-0.6
			c0.8-0.4,1.2-1.3,1.2-2.4v-4.5L30.5,18.8L30.5,18.8z"/>
	</g>
	<g>
		<defs>
			<rect id="SVGID_23_" width="420.9" height="39"/>
		</defs>
		<clipPath id="SVGID_24_">
			<use xlink:href="#SVGID_23_"  style="overflow:visible;"/>
		</clipPath>
		<path class="st11" d="M241.5,14.5c0,0.7-0.5,1.2-1.2,1.2s-1.2-0.5-1.2-1.2c0-0.7,0.5-1.2,1.2-1.2S241.5,13.9,241.5,14.5"/>
	</g>
	<g>
		<defs>
			<rect id="SVGID_25_" width="420.9" height="39"/>
		</defs>
		<clipPath id="SVGID_26_">
			<use xlink:href="#SVGID_25_"  style="overflow:visible;"/>
		</clipPath>
		<path class="st12" d="M241.6,25.3c0,0.7-0.5,1.2-1.2,1.2c-0.7,0-1.2-0.5-1.2-1.2c0-0.7,0.5-1.2,1.2-1.2
			C241.1,24.1,241.6,24.6,241.6,25.3"/>
	</g>
	<g>
		<defs>
			<rect id="SVGID_27_" width="420.9" height="39"/>
		</defs>
		<clipPath id="SVGID_28_">
			<use xlink:href="#SVGID_27_"  style="overflow:visible;"/>
		</clipPath>
		<path class="st13" d="M39.1,14.5c0,0.7-0.5,1.2-1.2,1.2c-0.7,0-1.2-0.5-1.2-1.2c0-0.7,0.5-1.2,1.2-1.2
			C38.6,13.4,39.1,13.9,39.1,14.5"/>
	</g>
</g>
</svg>
