<?xml version="1.0" encoding="utf-8"?>
<!-- Generator: Adobe Illustrator 16.0.0, SVG Export Plug-In . SVG Version: 6.00 Build 0)  -->
<!DOCTYPE svg PUBLIC "-//W3C//DTD SVG 1.1//EN" "http://www.w3.org/Graphics/SVG/1.1/DTD/svg11.dtd">
<svg version="1.1" id="Layer_1" xmlns="http://www.w3.org/2000/svg" xmlns:xlink="http://www.w3.org/1999/xlink" x="0px" y="0px"
	 width="420.945px" height="39px" viewBox="0 0 420.945 39" enable-background="new 0 0 420.945 39" xml:space="preserve">
<polygon fill="#928E8B" points="49.268,26.45 49.268,13.354 54.653,13.354 54.653,24 71.82,24 71.82,26.45 "/>
<g>
	<defs>
		<rect id="SVGID_1_" width="420.945" height="39"/>
	</defs>
	<clipPath id="SVGID_2_">
		<use xlink:href="#SVGID_1_"  overflow="visible"/>
	</clipPath>
	<path clip-path="url(#SVGID_2_)" fill="#928E8B" d="M79.306,16.439c0-1.19,0.388-2.001,1.163-2.435
		c0.775-0.433,2.284-0.65,4.526-0.65h16.939c2.258,0,3.771,0.217,4.538,0.65c0.767,0.434,1.15,1.245,1.15,2.435v6.911
		c0,1.2-0.392,2.017-1.175,2.45c-0.784,0.434-2.289,0.65-4.513,0.65H84.995c-2.242,0-3.751-0.217-4.526-0.65
		c-0.775-0.434-1.163-1.25-1.163-2.45V16.439z M84.641,23.94h17.647v-8.182H84.641V23.94z"/>
	<path clip-path="url(#SVGID_2_)" fill="#928E8B" d="M115.85,26.45V13.354h19.72c1.804,0,3.11,0.199,3.919,0.597
		s1.214,1.046,1.214,1.943v3.085c0,0.888-0.405,1.528-1.214,1.921c-0.809,0.393-2.115,0.59-3.919,0.59h-3.008l10.416,4.96h-7.66
		l-9.178-4.96h-5.031v4.96H115.85z M133.295,15.607h-12.186v3.629h12.186c0.927,0,1.563-0.08,1.909-0.242
		c0.345-0.161,0.518-0.433,0.518-0.816v-1.512c0-0.384-0.173-0.656-0.518-0.817C134.858,15.688,134.222,15.607,133.295,15.607"/>
	<rect x="151.501" y="13.354" clip-path="url(#SVGID_2_)" fill="#928E8B" width="5.31" height="13.096"/>
	<path clip-path="url(#SVGID_2_)" fill="#928E8B" d="M165.232,26.45l12.996-13.097h5.131l13.197,13.097h-5.991l-2.756-2.874h-14.486
		l-2.757,2.874H165.232z M175.598,21.188h10.037l-5.107-5.46L175.598,21.188z"/>
	<path clip-path="url(#SVGID_2_)" fill="#928E8B" d="M249.883,16.439c0-1.19,0.389-2.001,1.164-2.435
		c0.775-0.433,2.283-0.65,4.525-0.65h16.938c2.258,0,3.771,0.217,4.538,0.65c0.768,0.434,1.151,1.245,1.151,2.435v6.911
		c0,1.2-0.393,2.017-1.176,2.45c-0.784,0.434-2.288,0.65-4.514,0.65h-16.938c-2.242,0-3.75-0.217-4.525-0.65s-1.164-1.25-1.164-2.45
		V16.439z M255.217,23.94h17.648v-8.182h-17.648V23.94z"/>
	<polygon clip-path="url(#SVGID_2_)" fill="#928E8B" points="286.427,26.45 286.427,13.354 309.915,13.354 309.915,15.667 
		291.812,15.667 291.812,18.526 302.355,18.526 302.355,20.779 291.812,20.779 291.812,24 310.191,24 310.191,26.45 	"/>
	<polygon clip-path="url(#SVGID_2_)" fill="#928E8B" points="317.903,26.45 317.903,13.354 323.288,13.354 323.288,24 340.455,24 
		340.455,26.45 	"/>
	<polygon clip-path="url(#SVGID_2_)" fill="#928E8B" points="348.473,26.45 348.473,13.354 353.857,13.354 353.857,18.329 
		370.519,18.329 370.519,13.354 375.854,13.354 375.854,26.45 370.519,26.45 370.519,20.93 353.857,20.93 353.857,26.45 	"/>
	<path clip-path="url(#SVGID_2_)" fill="#928E8B" d="M384.107,16.439c0-1.19,0.387-2.001,1.162-2.435
		c0.775-0.433,2.283-0.65,4.525-0.65h16.939c2.258,0,3.771,0.217,4.539,0.65c0.766,0.434,1.149,1.245,1.149,2.435v6.911
		c0,1.2-0.392,2.017-1.176,2.45s-2.288,0.65-4.513,0.65h-16.939c-2.242,0-3.75-0.217-4.525-0.65s-1.162-1.25-1.162-2.45V16.439z
		 M389.441,23.94h17.646v-8.182h-17.646V23.94z"/>
	<path clip-path="url(#SVGID_2_)" fill="#928E8B" d="M240.357,15.726v-2.367c0,0-2.197-0.005-4.456-0.005h-13.678
		c-2.225,0-3.729,0.217-4.513,0.65c-0.784,0.434-1.177,1.245-1.177,2.435v6.911c0,1.2,0.396,2.017,1.189,2.45
		c0.792,0.434,2.292,0.65,4.5,0.65h13.678h4.551c0.65-0.36-0.165-1.501-0.049-2.366h-4.147h-1.224h-13.163v-8.326"/>
	<path clip-path="url(#SVGID_2_)" fill="#928E8B" d="M30.533,18.828v2.329h3.375v2.782H17.247v-8.181H32.2v-0.03h5.758
		c-0.118-0.805-0.005-0.916-0.005-1.739c0-0.899,0.005-0.531,0.005-0.636H17.601c-2.225,0-3.729,0.217-4.513,0.651
		c-0.784,0.433-1.176,1.245-1.176,2.435v6.912c0,1.198,0.392,2.016,1.176,2.449s2.288,0.65,4.513,0.65h15.852
		c2.225,0,3.729-0.217,4.513-0.65c0.783-0.434,1.175-1.251,1.175-2.449v-4.522H30.533z"/>
	<path clip-path="url(#SVGID_2_)" fill="#928E8B" d="M241.541,14.542c0,0.654-0.53,1.183-1.184,1.183s-1.184-0.529-1.184-1.183
		c0-0.654,0.53-1.183,1.184-1.183S241.541,13.889,241.541,14.542"/>
	<path clip-path="url(#SVGID_2_)" fill="#928E8B" d="M241.587,25.267c0,0.654-0.53,1.184-1.183,1.184
		c-0.654,0-1.185-0.529-1.185-1.184c0-0.653,0.53-1.183,1.185-1.183C241.057,24.084,241.587,24.613,241.587,25.267"/>
	<path clip-path="url(#SVGID_2_)" fill="#928E8B" d="M39.142,14.537c0,0.654-0.53,1.183-1.183,1.183
		c-0.654,0-1.184-0.529-1.184-1.183c0-0.654,0.53-1.183,1.184-1.183C38.611,13.354,39.142,13.883,39.142,14.537"/>
</g>
</svg>
