<svg id="Layer_1" data-name="Layer 1" xmlns="http://www.w3.org/2000/svg" viewBox="0 0 326.66126 107.24909"><defs><style>.cls-1{fill:none;}</style></defs><title>LOGO_KEUNE-big</title><rect id="bounding_box" data-name="bounding box" class="cls-1" width="326.66126" height="107.24796"/><path d="M325.81953,13.85669a4.902,4.902,0,0,0-8.666,4.43555l-5.911,3.98712a14.79865,14.79865,0,0,0-3.57944-3.22064l3.34122-6.2851a4.84665,4.84665,0,0,0,1.201.15436,4.93055,4.93055,0,0,0,1.44288-.2168,4.91995,4.91995,0,1,0-4.7-1.04672l-3.34286,6.28812a14.58314,14.58314,0,0,0-4.67642-1.1597V9.66422a4.91128,4.91128,0,1,0-2.33789.00018v7.12848a14.58151,14.58151,0,0,0-4.67652,1.15988l-3.344-6.28821a4.89176,4.89176,0,1,0-4.70023,1.04663,4.93054,4.93054,0,0,0,1.44287.2168,4.84319,4.84319,0,0,0,1.201-.15463l3.34259,6.28546A14.799,14.799,0,0,0,288.277,22.28l-5.912-3.98776a4.88711,4.88711,0,1,0-1.3,1.94247l5.90268,3.98145a14.70124,14.70124,0,1,0,25.58432-.00064l5.902-3.98108a4.90667,4.90667,0,0,0,7.3656-6.37775ZM309.93916,6.8064a2.57354,2.57354,0,1,1,1.06348,3.48047A2.5573,2.5573,0,0,1,309.93916,6.8064ZM286.5544,10.47583a2.57353,2.57353,0,1,1,1.96142-.189A2.55849,2.55849,0,0,1,286.5544,10.47583Zm-10.22461,8.26025a2.5743,2.5743,0,1,1,3.57421-.69433A2.57772,2.57772,0,0,1,276.32979,18.73608ZM297.18623,4.91016A2.573,2.573,0,1,1,299.76,7.48389,2.57677,2.57677,0,0,1,297.18623,4.91016Zm2.57373,37.719A11.19434,11.19434,0,1,1,310.9543,31.43481,11.20666,11.20666,0,0,1,299.76,42.62915Zm24.51563-25.53589a2.57464,2.57464,0,0,1-4.66114.94849,2.57419,2.57419,0,1,1,4.66114-.94849Z"/><path d="M152.525,107.24909c-15.3794,0-27.89063-11.47266-27.89063-25.57617V25.05305h3.50684V81.67292c0,12.16846,10.938,22.06934,24.38379,22.06934s24.38378-9.90088,24.38378-22.06934V25.05305h3.50684V81.67292C180.41561,95.77643,167.90438,107.24909,152.525,107.24909Z"/><polygon points="256.703 25.058 256.703 105.758 187.433 33.758 187.433 105.773 183.923 105.773 183.923 25.058 253.193 97.058 253.193 25.058 256.703 25.058"/><polygon points="121.127 28.56 121.127 25.053 84.607 25.053 84.607 105.767 121.127 105.767 121.127 102.26 88.114 102.26 88.114 63.529 121.127 63.529 121.127 60.022 88.114 60.022 88.114 28.56 121.127 28.56"/><polygon points="278.47 28.56 278.47 25.053 260.21 25.053 260.21 105.767 296.73 105.767 296.73 102.26 263.717 102.26 263.717 63.529 296.73 63.529 296.73 60.022 263.717 60.022 263.717 28.56 278.47 28.56"/><polygon points="77.902 105.767 82.854 105.767 40.027 62.931 77.901 25.053 72.941 25.053 33.438 64.56 33.438 25.053 29.931 25.053 29.931 105.767 33.438 105.767 33.438 69.52 37.547 65.411 77.902 105.767"/></svg>