<?xml version="1.0" encoding="utf-8"?>
<!-- Generator: Adobe Illustrator 24.3.0, SVG Export Plug-In . SVG Version: 6.00 Build 0)  -->
<svg version="1.1" id="Layer_1" xmlns="http://www.w3.org/2000/svg" xmlns:xlink="http://www.w3.org/1999/xlink" x="0px" y="0px"
	 viewBox="0 0 326.7 107.2" style="enable-background:new 0 0 326.7 107.2;" xml:space="preserve">
<style type="text/css">
	.st0{fill:none;}
</style>
<rect id="bounding_box" class="st0" width="326.7" height="107.2"/>
<path d="M325.8,13.9c-1.5-2.2-4.6-2.8-6.8-1.3c-1.9,1.3-2.6,3.6-1.9,5.8l-5.9,4c-1-1.3-2.2-2.3-3.6-3.2l3.3-6.3
	c0.4,0.1,0.8,0.2,1.2,0.2c0.5,0,1-0.1,1.4-0.2c2.6-0.8,4.1-3.5,3.3-6.1c-0.8-2.6-3.5-4.1-6.1-3.3s-4.1,3.5-3.3,6.1
	c0.3,0.9,0.8,1.6,1.4,2.2l-3.3,6.3c-1.5-0.6-3.1-1-4.7-1.2V9.7c2.6-0.6,4.2-3.3,3.6-5.9s-3.3-4.2-5.9-3.6s-4.2,3.3-3.6,5.9
	c0.4,1.8,1.8,3.2,3.6,3.6v7.1c-1.6,0.1-3.2,0.5-4.7,1.2l-3.3-6.3c2-1.8,2.2-4.9,0.4-6.9S286,2.6,284,4.4s-2.2,4.9-0.4,6.9
	c0.6,0.7,1.4,1.1,2.2,1.4c0.5,0.1,1,0.2,1.4,0.2c0.4,0,0.8-0.1,1.2-0.2l3.3,6.3c-1.4,0.9-2.6,2-3.6,3.2l-5.9-4
	c0.9-2.5-0.4-5.3-2.9-6.3c-2.5-0.9-5.3,0.4-6.3,2.9s0.4,5.3,2.9,6.3c1.7,0.6,3.6,0.2,5-1l5.9,4c-4,7.1-1.5,16,5.5,20
	c7.1,4,16,1.5,20-5.5c2.5-4.5,2.5-10,0-14.5l5.9-4c2,1.8,5.1,1.7,6.9-0.3C326.9,18.2,327.1,15.7,325.8,13.9L325.8,13.9z M309.9,6.8
	c0.7-1.3,2.2-1.7,3.5-1.1c1.3,0.7,1.7,2.2,1.1,3.5c-0.7,1.3-2.2,1.7-3.5,1.1c0,0,0,0,0,0C309.8,9.6,309.3,8.1,309.9,6.8
	C309.9,6.8,309.9,6.8,309.9,6.8z M286.6,10.5c-1.4-0.4-2.1-1.9-1.7-3.2c0.4-1.4,1.9-2.1,3.2-1.7c1.4,0.4,2.1,1.9,1.7,3.2
	c-0.2,0.7-0.6,1.2-1.3,1.5C287.9,10.6,287.2,10.7,286.6,10.5z M276.3,18.7c-1.2-0.8-1.5-2.4-0.7-3.6c0.8-1.2,2.4-1.5,3.6-0.7
	c1.2,0.8,1.5,2.4,0.7,3.6C279.1,19.2,277.5,19.5,276.3,18.7z M297.2,4.9c0-1.4,1.2-2.6,2.6-2.6s2.6,1.2,2.6,2.6
	c0,1.4-1.2,2.6-2.6,2.6C298.3,7.5,297.2,6.3,297.2,4.9z M299.8,42.6c-6.2,0-11.2-5-11.2-11.2c0-6.2,5-11.2,11.2-11.2
	c6.2,0,11.2,5,11.2,11.2C310.9,37.6,305.9,42.6,299.8,42.6L299.8,42.6z M324.3,17.1c-0.3,1.4-1.6,2.3-3,2c-0.7-0.1-1.3-0.5-1.6-1.1
	c-0.8-1.2-0.5-2.8,0.7-3.6c1.2-0.8,2.8-0.5,3.6,0.7C324.3,15.7,324.4,16.4,324.3,17.1z"/>
<path d="M152.5,107.2c-15.4,0-27.9-11.5-27.9-25.6V25.1h3.5v56.6c0,12.2,10.9,22.1,24.4,22.1s24.4-9.9,24.4-22.1V25.1h3.5v56.6
	C180.4,95.8,167.9,107.2,152.5,107.2z"/>
<polygon points="256.7,25.1 256.7,105.8 187.4,33.8 187.4,105.8 183.9,105.8 183.9,25.1 253.2,97.1 253.2,25.1 "/>
<polygon points="121.1,28.6 121.1,25.1 84.6,25.1 84.6,105.8 121.1,105.8 121.1,102.3 88.1,102.3 88.1,63.5 121.1,63.5 121.1,60 
	88.1,60 88.1,28.6 "/>
<polygon points="278.5,28.6 278.5,25.1 260.2,25.1 260.2,105.8 296.7,105.8 296.7,102.3 263.7,102.3 263.7,63.5 296.7,63.5 
	296.7,60 263.7,60 263.7,28.6 "/>
<polygon points="77.9,105.8 82.9,105.8 40,62.9 77.9,25.1 72.9,25.1 33.4,64.6 33.4,25.1 29.9,25.1 29.9,105.8 33.4,105.8 
	33.4,69.5 37.5,65.4 "/>
</svg>
