<?xml version="1.0" encoding="utf-8"?>
<!-- Generator: Adobe Illustrator 18.1.1, SVG Export Plug-In . SVG Version: 6.00 Build 0)  -->
<svg version="1.1" x="0px" y="0px" width="457px" height="43px" xmlns="http://www.w3.org/2000/svg" xmlns:xlink="http://www.w3.org/1999/xlink" viewBox="0 0 457 43" enable-background="new 0 0 457 43" xml:space="preserve">

		<g>
			<g>
				<path d="M451,30.7c2.8,0,5.2,2.3,5.2,5.1c0,2.8-2.3,5.2-5.2,5.2c-2.8,0-5.1-2.3-5.1-5.2C445.8,33,448.1,30.7,451,30.7z
					 M455.2,35.8c0-2.4-1.9-4.3-4.2-4.3c-2.3,0-4.2,1.9-4.2,4.3c0,2.4,1.9,4.3,4.2,4.3C453.3,40.1,455.2,38.2,455.2,35.8z
					 M448.9,32.8h2.3c1.3,0,2.1,0.6,2.1,1.8c0,1.1-0.7,1.6-1.6,1.7l1.7,2.6h-0.9l-1.7-2.5h-1v2.5h-0.9V32.8z M450.8,35.5
					c0.8,0,1.6,0,1.6-0.9c0-0.8-0.7-0.9-1.3-0.9h-1.2v1.8H450.8z"/>
			</g>
			<g>
				<path stroke="#000000" stroke-width="0.4044" stroke-miterlimit="10" d="M18.5,7.4v34h-6v-34H0.9V1.6h29.2v5.9H18.5z"/>
				<path stroke="#000000" stroke-width="0.4044" stroke-miterlimit="10" d="M61.8,41.4V23.5H43.5v17.9h-6V1.6h6v16.1h18.3V1.6h6
					v39.8H61.8z"/>
				<path stroke="#000000" stroke-width="0.4044" stroke-miterlimit="10" d="M78.2,41.4V1.6h25.7v5.8H84.2v9.8h11.4V23H84.2v12.6
					h20.5v5.8H78.2z"/>
				<path stroke="#000000" stroke-width="0.4044" stroke-miterlimit="10" d="M160.9,29.2c0,4.1-1.2,7.1-3.6,9.2
					c-2.4,2.1-5.7,3.1-10.1,3.1h-15.8V1.6h16.4c3.5,0,6.3,0.9,8.3,2.6c2.1,1.8,3.1,4.3,3.1,7.7c0,2-0.5,3.7-1.5,5
					c-1,1.3-2.2,2.3-3.6,3c0.8,0.2,1.6,0.6,2.4,1.1c0.8,0.5,1.5,1.1,2.2,1.9c0.6,0.8,1.2,1.7,1.6,2.7
					C160.7,26.6,160.9,27.8,160.9,29.2z M153.3,12.2c0-1.5-0.4-2.7-1.3-3.7c-0.8-1-2.3-1.5-4.3-1.5h-10.7v10.2h10.7
					c1,0,1.8-0.1,2.5-0.4c0.7-0.3,1.3-0.7,1.7-1.1c0.4-0.5,0.8-1,1-1.6C153.2,13.5,153.3,12.9,153.3,12.2z M155,29.4
					c0-2-0.6-3.7-1.8-4.8c-1.2-1.2-3-1.8-5.2-1.8h-10.8V36h10.6c2.7,0,4.5-0.6,5.6-1.8C154.4,32.9,155,31.3,155,29.4z"/>
				<path stroke="#000000" stroke-width="0.4044" stroke-miterlimit="10" d="M201.5,21.5c0,3-0.4,5.8-1.2,8.3
					c-0.8,2.5-1.9,4.7-3.4,6.5c-1.5,1.8-3.2,3.2-5.3,4.2c-2.1,1-4.4,1.5-7,1.5c-2.6,0-4.9-0.5-7-1.5c-2.1-1-3.8-2.4-5.3-4.2
					c-1.5-1.8-2.6-4-3.4-6.5c-0.8-2.5-1.2-5.3-1.2-8.3c0-3,0.4-5.8,1.2-8.3c0.8-2.5,1.9-4.7,3.4-6.5c1.5-1.8,3.2-3.2,5.3-4.2
					c2.1-1,4.4-1.5,7-1.5c2.6,0,4.9,0.5,7,1.5c2.1,1,3.9,2.4,5.3,4.2c1.5,1.8,2.6,4,3.4,6.5C201.1,15.7,201.5,18.5,201.5,21.5z
					 M195.4,21.5c0-4.5-0.9-8-2.8-10.6c-1.8-2.6-4.5-3.9-8.1-3.9c-3.5,0-6.2,1.3-8,3.9c-1.8,2.6-2.8,6.2-2.8,10.6
					c0,4.5,0.9,8,2.8,10.6c1.8,2.6,4.5,3.9,8,3.9c3.5,0,6.2-1.3,8.1-3.9C194.5,29.5,195.4,26,195.4,21.5z"/>
				<path stroke="#000000" stroke-width="0.4044" stroke-miterlimit="10" d="M240.4,21.5c0,3.5-0.5,6.5-1.6,9
					c-1,2.5-2.5,4.6-4.2,6.2c-1.8,1.6-3.8,2.8-6.2,3.6c-2.3,0.8-4.8,1.1-7.4,1.1h-10.9V1.6H221c2.7,0,5.2,0.4,7.5,1.1
					c2.4,0.8,4.4,1.9,6.2,3.6c1.7,1.6,3.1,3.7,4.2,6.2C239.9,15,240.4,18,240.4,21.5z M234.3,21.5c0-2.1-0.2-4-0.7-5.7
					c-0.5-1.7-1.3-3.2-2.4-4.5c-1.1-1.3-2.5-2.2-4.2-2.9c-1.7-0.7-3.7-1-6.1-1h-4.9v28.2h4.9c2.4,0,4.4-0.3,6.1-1
					c1.7-0.7,3.1-1.7,4.2-2.9c1.1-1.3,1.9-2.7,2.4-4.5C234.1,25.5,234.3,23.6,234.3,21.5z"/>
				<path stroke="#000000" stroke-width="0.4044" stroke-miterlimit="10" d="M263.2,25.7v15.8h-6V25.7L242.9,1.6h7l6.2,11
					c0.3,0.6,0.7,1.3,1.1,2c0.4,0.8,0.8,1.5,1.2,2.2c0.4,0.7,0.7,1.4,1.1,2.1c0.3,0.6,0.5,1.2,0.7,1.5c0.2-0.4,0.4-0.9,0.7-1.5
					c0.3-0.6,0.7-1.3,1.1-2c0.4-0.7,0.8-1.5,1.2-2.2c0.4-0.8,0.8-1.5,1.1-2.1l6.3-11h6.9L263.2,25.7z"/>
				<path stroke="#000000" stroke-width="0.4044" stroke-miterlimit="10" d="M323.1,30c0,1.8-0.3,3.4-0.9,4.9
					c-0.6,1.5-1.5,2.8-2.7,3.8c-1.2,1.1-2.7,1.9-4.6,2.5c-1.9,0.6-4.1,0.9-6.6,0.9c-2.9,0-5.6-0.6-8-1.7c-2.4-1.2-4.5-2.7-6.2-4.7
					l4.3-4.2c1.3,1.4,2.9,2.6,4.8,3.4c1.8,0.9,3.7,1.3,5.6,1.3c5.5,0,8.3-1.9,8.3-5.8c0-0.8-0.2-1.4-0.5-2c-0.3-0.6-0.8-1.2-1.5-1.7
					c-0.7-0.5-1.7-1-2.8-1.5c-1.1-0.5-2.5-0.9-4.2-1.4c-2.1-0.6-4-1.2-5.5-1.9c-1.6-0.6-2.8-1.4-3.9-2.2c-1-0.9-1.8-1.9-2.3-3.1
					c-0.5-1.2-0.8-2.7-0.8-4.5c0-1.7,0.3-3.3,1-4.6c0.7-1.4,1.6-2.6,2.8-3.5c1.2-0.9,2.6-1.7,4.2-2.2c1.6-0.5,3.3-0.8,5.2-0.8
					c2.7,0,5.1,0.5,7.2,1.4c2.1,0.9,4,2.3,5.8,4l-4.2,4.3c-1.3-1.3-2.6-2.2-4.1-2.9c-1.5-0.6-3.2-0.9-5.2-0.9
					c-2.4,0-4.1,0.5-5.1,1.5c-1,1-1.6,2.1-1.6,3.5c0,0.7,0.1,1.3,0.4,1.9c0.3,0.6,0.7,1.1,1.4,1.5c0.6,0.5,1.5,0.9,2.7,1.4
					c1.1,0.5,2.6,0.9,4.3,1.4c2,0.6,3.7,1.2,5.3,1.9c1.6,0.6,2.9,1.4,4,2.3c1.1,0.9,1.9,2,2.5,3.2C322.8,26.7,323.1,28.2,323.1,30z"
					/>
				<path stroke="#000000" stroke-width="0.4044" stroke-miterlimit="10" d="M355.8,41.4V23.5h-18.3v17.9h-6V1.6h6v16.1h18.3V1.6h6
					v39.8H355.8z"/>
				<path stroke="#000000" stroke-width="0.4044" stroke-miterlimit="10" d="M404.2,21.5c0,3-0.4,5.8-1.2,8.3
					c-0.8,2.5-1.9,4.7-3.4,6.5c-1.5,1.8-3.2,3.2-5.3,4.2c-2.1,1-4.4,1.5-7,1.5c-2.6,0-4.9-0.5-7-1.5c-2.1-1-3.8-2.4-5.3-4.2
					c-1.5-1.8-2.6-4-3.4-6.5c-0.8-2.5-1.2-5.3-1.2-8.3c0-3,0.4-5.8,1.2-8.3c0.8-2.5,1.9-4.7,3.4-6.5c1.5-1.8,3.2-3.2,5.3-4.2
					c2.1-1,4.4-1.5,7-1.5c2.6,0,4.9,0.5,7,1.5c2.1,1,3.9,2.4,5.3,4.2c1.5,1.8,2.6,4,3.4,6.5C403.8,15.7,404.2,18.5,404.2,21.5z
					 M398.1,21.5c0-4.5-0.9-8-2.8-10.6c-1.8-2.6-4.5-3.9-8.1-3.9c-3.5,0-6.2,1.3-8,3.9c-1.8,2.6-2.8,6.2-2.8,10.6
					c0,4.5,0.9,8,2.8,10.6c1.8,2.6,4.5,3.9,8,3.9c3.5,0,6.2-1.3,8.1-3.9C397.2,29.5,398.1,26,398.1,21.5z"/>
				<path stroke="#000000" stroke-width="0.4044" stroke-miterlimit="10" d="M442.3,14c0,2-0.3,3.9-1,5.4c-0.6,1.6-1.6,2.9-2.7,3.9
					c-1.2,1.1-2.6,1.9-4.2,2.4c-1.6,0.5-3.4,0.8-5.3,0.8h-10.4v14.9h-5.9V1.6h16.7c1.8,0,3.5,0.3,5.1,0.8c1.6,0.5,2.9,1.3,4.1,2.4
					c1.1,1,2,2.3,2.7,3.9C441.9,10.2,442.3,12,442.3,14z M436.2,14c0-2.2-0.6-3.9-1.9-5.1c-1.2-1.2-2.9-1.8-5-1.8h-10.7v13.7h10.7
					c2.3,0,4-0.6,5.1-1.8C435.6,17.9,436.2,16.2,436.2,14z"/>
			</g>
		</g>

</svg>
