<svg width="545.88977" height="72.27557" xmlns="http://www.w3.org/2000/svg">
 <metadata id="metadata10">image/svg+xml</metadata>

 <g>
  <title>background</title>
  <rect fill="none" id="canvas_background" height="74.27557" width="547.88977" y="-1" x="-1"/>
 </g>
 <g>
  <title>Layer 1</title>
  <path stroke="null" fill="#d2b29a" fill-rule="evenodd" d="m0.348755,47.712544l6.63355,-0.710404c0.363082,3.581206 1.163965,6.361724 2.418214,8.341165c1.254249,1.995007 3.036777,3.596772 5.3793,4.805296c2.326957,1.208912 4.956288,1.813466 7.872427,1.813466c4.201131,0 7.449804,-1.012583 9.761389,-3.067715c2.327152,-2.055132 3.47594,-4.714233 3.47594,-7.99326c0,-1.919316 -0.423596,-3.596578 -1.254249,-5.016996c-0.846608,-1.435596 -2.115645,-2.613765 -3.807889,-3.520498c-1.707616,-0.921715 -5.364513,-2.206319 -11.00085,-3.853226c-5.016413,-1.480932 -8.597813,-2.976847 -10.713459,-4.473151c-2.130823,-1.510703 -3.77773,-3.414647 -4.956288,-5.741799c-1.193735,-2.312169 -1.783306,-4.925934 -1.783306,-7.857445c0,-5.24368 1.707616,-9.534901 5.092493,-12.874441c3.39986,-3.339735 7.978472,-5.001625 13.735643,-5.001625c3.944094,0 7.404662,0.785511 10.381314,2.34194c2.961476,1.571411 5.258662,3.807889 6.905569,6.724612c1.632119,2.931511 2.508498,6.361141 2.629331,10.320217l-6.769949,0.619925c-0.362304,-4.216114 -1.616553,-7.343953 -3.792518,-9.384103c-2.160982,-2.03976 -5.213326,-3.052343 -9.142048,-3.052343c-3.973864,0 -7.026208,0.89175 -9.111694,2.675057c-2.100468,1.782528 -3.143406,4.094697 -3.143406,6.935145c0,2.614543 0.755741,4.654692 2.297187,6.105271c1.541057,1.450578 4.986253,2.901156 10.366137,4.382089c5.243096,1.450773 8.930347,2.704438 11.060975,3.762358c3.248673,1.646907 5.696462,3.822677 7.34337,6.527699c1.662474,2.704827 2.478144,5.923729 2.478144,9.670911c0,3.717605 -0.861007,7.101899 -2.598977,10.169614c-1.752758,3.052343 -4.110069,5.363929 -7.11727,6.966278c-2.991635,1.586199 -6.603195,2.387082 -10.818726,2.387082c-6.588408,0 -11.832087,-1.979441 -15.745438,-5.923146c-3.898952,-3.959076 -5.938712,-9.323589 -6.074916,-16.077971zm76.128018,15.050406c-2.175965,2.281815 -4.442992,3.988847 -6.815091,5.137829c-2.357506,1.148399 -4.805296,1.722404 -7.344148,1.722404c-4.019201,0 -7.222537,-1.208912 -9.610397,-3.626348c-2.387082,-2.41802 -3.581206,-5.681675 -3.581206,-9.776955c0,-2.71981 0.559217,-5.122458 1.677261,-7.222731c1.118628,-2.100274 2.659685,-3.732393 4.608967,-4.911146c1.949087,-1.178558 4.896164,-2.055132 8.85524,-2.614349c5.303804,-0.770528 9.202172,-1.677261 11.680316,-2.749969l0.045337,-2.024778c0,-3.218513 -0.574199,-5.485345 -1.722598,-6.784737c-1.617137,-1.888573 -4.110263,-2.82566 -7.479769,-2.82566c-3.037361,0 -5.319176,0.619341 -6.815091,1.873591c-1.511287,1.254249 -2.614349,3.61156 -3.324169,7.072128l-6.422433,-1.072903c0.921715,-5.047156 2.765536,-8.719035 5.560842,-11.015638c2.780518,-2.297187 6.784737,-3.460568 11.967708,-3.460568c4.049555,0 7.223315,0.770528 9.519918,2.281815c2.311585,1.526269 3.762358,3.39986 4.366717,5.65132c0.604554,2.236673 0.906733,5.5157 0.906733,9.822098l0,10.622591c0,7.434432 0.136399,12.133683 0.423207,14.053194c0.271825,1.934299 0.831042,3.822872 1.662279,5.65132l-6.829879,0c-0.68005,-1.616748 -1.118628,-3.551047 -1.329745,-5.802507zm-0.529057,-17.800375c-2.387665,1.193541 -5.938712,2.190753 -10.668317,3.021989c-2.735181,0.468154 -4.653914,1.012583 -5.757171,1.617137c-1.08769,0.60397 -1.934299,1.450578 -2.538852,2.568623c-0.603775,1.103062 -0.906149,2.372294 -0.906149,3.822872c0,2.236478 0.695032,4.034573 2.084902,5.3793c1.375082,1.345312 3.294398,2.009795 5.742383,2.009795c2.34194,0 4.457585,-0.604359 6.36153,-1.813466c1.904139,-1.208523 3.324363,-2.82566 4.276238,-4.850438c0.937087,-2.009211 1.405436,-4.956288 1.405436,-8.824302l0,-2.931511zm16.727083,23.602882l0,-47.009436l5.89357,0l0,7.11727c1.510703,-3.294398 2.886174,-5.485345 4.139839,-6.573425c1.254249,-1.072903 2.659685,-1.616748 4.231096,-1.616748c2.175965,0 4.412443,0.861007 6.67947,2.568623l-2.206319,7.404273c-1.632119,-1.163381 -3.20353,-1.737581 -4.744977,-1.737581c-1.390064,0 -2.659685,0.498703 -3.808084,1.465561c-1.148399,0.967441 -1.964069,2.326957 -2.432418,4.064927c-0.831042,3.052343 -1.239267,6.286228 -1.239267,9.700876l0,24.61566l-6.512911,0zm49.895804,-5.802507c-2.175965,2.281815 -4.442797,3.988847 -6.815091,5.137829c-2.357311,1.148399 -4.805101,1.722404 -7.343953,1.722404c-4.019201,0 -7.222731,-1.208912 -9.610397,-3.626348c-2.387082,-2.41802 -3.581206,-5.681675 -3.581206,-9.776955c0,-2.71981 0.559217,-5.122458 1.677261,-7.222731c1.118434,-2.100274 2.659491,-3.732393 4.608772,-4.911146c1.949281,-1.178558 4.896164,-2.055132 8.85524,-2.614349c5.303804,-0.770528 9.202172,-1.677261 11.680511,-2.749969l0.045142,-2.024778c0,-3.218513 -0.574199,-5.485345 -1.722598,-6.784737c-1.617137,-1.888573 -4.110069,-2.82566 -7.479574,-2.82566c-3.037556,0 -5.31937,0.619341 -6.815091,1.873591c-1.511287,1.254249 -2.614349,3.61156 -3.324363,7.072128l-6.422238,-1.072903c0.921715,-5.047156 2.765536,-8.719035 5.560842,-11.015638c2.780324,-2.297187 6.784737,-3.460568 11.967708,-3.460568c4.049555,0 7.223121,0.770528 9.519918,2.281815c2.311585,1.526269 3.762164,3.39986 4.366717,5.65132c0.604554,2.236673 0.906733,5.5157 0.906733,9.822098l0,10.622591c0,7.434432 0.136205,12.133683 0.423012,14.053194c0.27202,1.934299 0.831237,3.822872 1.662474,5.65132l-6.830073,0c-0.68005,-1.616748 -1.118434,-3.551047 -1.329745,-5.802507zm-0.528863,-17.800375c-2.38786,1.193541 -5.938712,2.190753 -10.668317,3.021989c-2.735181,0.468154 -4.654109,1.012583 -5.757171,1.617137c-1.08769,0.60397 -1.934299,1.450578 -2.538852,2.568623c-0.60397,1.103062 -0.906149,2.372294 -0.906149,3.822872c0,2.236478 0.694838,4.034573 2.084902,5.3793c1.374887,1.345312 3.294398,2.009795 5.742188,2.009795c2.34194,0 4.45778,-0.604359 6.361724,-1.813466c1.903945,-1.208523 3.324169,-2.82566 4.276238,-4.850438c0.937087,-2.009211 1.405436,-4.956288 1.405436,-8.824302l0,-2.931511zm16.727083,23.602882l0,-64.900484l6.512717,0l0,23.28572c1.541057,-2.146 3.264239,-3.762747 5.197954,-4.850827c1.934299,-1.072903 4.064927,-1.616748 6.406866,-1.616748c4.095281,0 7.329166,1.314374 9.716247,3.928917c2.372877,2.598782 3.566418,7.389096 3.566418,14.35479l0,29.798632l-6.512717,0l0,-29.798632c0,-4.064343 -0.725386,-6.996048 -2.175965,-8.763788c-1.43579,-1.768324 -3.430214,-2.659491 -5.969066,-2.659491c-2.840448,0 -5.243096,1.148204 -7.237519,3.414647c-1.995007,2.266832 -2.992219,6.3016 -2.992219,12.088541l0,25.718722l-6.512717,0zm100.757688,-22.756858l7.087111,2.175965c-1.571411,7.283245 -4.306593,12.723254 -8.219943,16.304655c-3.913934,3.595994 -8.673893,5.3793 -14.279877,5.3793c-4.925934,0 -9.142048,-1.193541 -12.632386,-3.61156c-3.50571,-2.402648 -6.361724,-6.255874 -8.582831,-11.574466c-2.236478,-5.303804 -3.354523,-11.57505 -3.354523,-18.813153c0,-7.132253 1.118045,-13.176231 3.354523,-18.117732c2.221107,-4.956288 5.243096,-8.688681 9.05118,-11.211967c3.807889,-2.523481 8.053774,-3.77773 12.738236,-3.77773c5.137635,0 9.550272,1.601765 13.236745,4.805296c3.702623,3.203336 6.271246,7.902587 7.752178,14.098336l-6.905375,1.994423c-2.357506,-9.036197 -7.102482,-13.554491 -14.204381,-13.554491c-3.550852,0 -6.618762,0.906733 -9.217739,2.720199c-2.598782,1.812882 -4.668897,4.638542 -6.210537,8.476981c-1.555845,3.838244 -2.326957,8.703469 -2.326957,14.566685c0,8.88501 1.556429,15.548914 4.684463,19.991711c3.12784,4.442213 7.298617,6.663515 12.496571,6.663515c3.822872,0 7.147041,-1.35971 9.927559,-4.094892c2.79589,-2.735181 4.654109,-6.875215 5.605984,-12.421075zm14.914201,22.756858l0,-64.900484l6.512911,0l0,23.28572c1.541057,-2.146 3.264044,-3.762747 5.197759,-4.850827c1.934299,-1.072903 4.065121,-1.616748 6.406866,-1.616748c4.095476,0 7.329166,1.314374 9.716442,3.928917c2.372683,2.598782 3.566224,7.389096 3.566224,14.35479l0,29.798632l-6.512717,0l0,-29.798632c0,-4.064343 -0.725386,-6.996048 -2.175965,-8.763788c-1.435596,-1.768324 -3.430019,-2.659491 -5.968872,-2.659491c-2.840643,0 -5.243096,1.148204 -7.237714,3.414647c-1.994813,2.266832 -2.992024,6.3016 -2.992024,12.088541l0,25.718722l-6.512911,0zm38.909742,-23.512404c0,-8.114677 1.707616,-14.234151 5.122847,-18.359397c3.39986,-4.140423 7.721435,-6.210537 12.949548,-6.210537c5.122847,0 9.429439,2.070114 12.874441,6.210537c3.460568,4.125246 5.183166,10.078746 5.183166,17.876066c0,8.446626 -1.692244,14.732854 -5.092687,18.857906c-3.399665,4.140618 -7.72124,6.195555 -12.96492,6.195555c-5.1676,0 -9.474192,-2.070503 -12.904211,-6.210537c-3.445002,-4.155406 -5.168183,-10.275464 -5.168183,-18.359592zm6.694258,0c0,6.089704 1.103062,10.607998 3.309381,13.569279c2.221107,2.976847 4.971271,4.45778 8.235315,4.45778c3.067326,0 5.712029,-1.49572 7.902781,-4.502922c2.206319,-2.991635 3.309381,-7.495141 3.309381,-13.524137c0,-6.044173 -1.118045,-10.547095 -3.324363,-13.523747c-2.22169,-2.961865 -4.956288,-4.442797 -8.235315,-4.442797c-3.098069,0 -5.742188,1.49572 -7.932941,4.472567c-2.175965,2.976653 -3.264239,7.480158 -3.264239,13.493977zm38.940096,23.512404l0,-40.813881l-5.787525,0l0,-6.195555l5.787525,0l0,-5.001625c0,-3.702039 0.392658,-6.467575 1.16377,-8.310811c0.755157,-1.84382 1.93391,-3.248673 3.520692,-4.216114c1.571411,-0.98184 3.550852,-1.465561 5.9535,-1.465561c1.858803,0 3.88358,0.257037 6.104687,0.800883l-0.982424,6.950712c-1.344728,-0.302179 -2.629137,-0.453366 -3.83766,-0.453366c-1.949281,0 -3.354523,0.514075 -4.18576,1.526269c-0.846219,1.027566 -1.269232,2.961865 -1.269232,5.832667l0,4.336947l7.524911,0l0,6.195555l-7.524911,0l0,40.813881l-6.467575,0zm43.957092,-5.802507c-2.175965,2.281815 -4.442797,3.988847 -6.815091,5.137829c-2.357311,1.148399 -4.805101,1.722404 -7.343953,1.722404c-4.019201,0 -7.222731,-1.208912 -9.610397,-3.626348c-2.387082,-2.41802 -3.581206,-5.681675 -3.581206,-9.776955c0,-2.71981 0.559217,-5.122458 1.677261,-7.222731c1.118628,-2.100274 2.659685,-3.732393 4.608772,-4.911146c1.949281,-1.178558 4.896164,-2.055132 8.85524,-2.614349c5.303804,-0.770528 9.202367,-1.677261 11.680511,-2.749969l0.045142,-2.024778c0,-3.218513 -0.574199,-5.485345 -1.722404,-6.784737c-1.617331,-1.888573 -4.110263,-2.82566 -7.479769,-2.82566c-3.037361,0 -5.319176,0.619341 -6.815091,1.873591c-1.511287,1.254249 -2.614349,3.61156 -3.324169,7.072128l-6.422433,-1.072903c0.921715,-5.047156 2.765536,-8.719035 5.560842,-11.015638c2.780324,-2.297187 6.784737,-3.460568 11.967708,-3.460568c4.049555,0 7.223315,0.770528 9.519918,2.281815c2.311585,1.526269 3.762164,3.39986 4.366717,5.65132c0.604554,2.236673 0.906733,5.5157 0.906733,9.822098l0,10.622591c0,7.434432 0.136205,12.133683 0.423012,14.053194c0.27202,1.934299 0.831237,3.822872 1.662474,5.65132l-6.830073,0c-0.68005,-1.616748 -1.118434,-3.551047 -1.329745,-5.802507zm-0.528863,-17.800375c-2.387665,1.193541 -5.938712,2.190753 -10.668317,3.021989c-2.735181,0.468154 -4.654109,1.012583 -5.757171,1.617137c-1.08769,0.60397 -1.934299,1.450578 -2.538852,2.568623c-0.60397,1.103062 -0.906149,2.372294 -0.906149,3.822872c0,2.236478 0.694838,4.034573 2.084902,5.3793c1.374887,1.345312 3.294398,2.009795 5.742188,2.009795c2.34194,0 4.45778,-0.604359 6.361724,-1.813466c1.903945,-1.208523 3.324169,-2.82566 4.276238,-4.850438c0.937087,-2.009211 1.405436,-4.956288 1.405436,-8.824302l0,-2.931511zm16.908624,23.602882l0,-64.900484l6.512717,0l0,37.005797l15.4884,-19.114749l8.461998,0l-14.748226,17.437487l16.198804,29.571948l-8.008632,0l-12.798945,-24.041461l-4.5934,5.409655l0,18.631806l-6.512717,0zm37.005602,-55.728471l0,-9.172013l6.512911,0l0,9.172013l-6.512911,0zm0,55.728471l0,-47.009436l6.512911,0l0,47.009436l-6.512911,0zm41.660489,-5.802507c-2.175965,2.281815 -4.442797,3.988847 -6.815091,5.137829c-2.357311,1.148399 -4.805101,1.722404 -7.343953,1.722404c-4.019201,0 -7.222731,-1.208912 -9.610397,-3.626348c-2.387082,-2.41802 -3.581206,-5.681675 -3.581206,-9.776955c0,-2.71981 0.559217,-5.122458 1.677261,-7.222731c1.118434,-2.100274 2.659491,-3.732393 4.608772,-4.911146c1.949281,-1.178558 4.896164,-2.055132 8.85524,-2.614349c5.303804,-0.770528 9.202172,-1.677261 11.680316,-2.749969l0.045337,-2.024778c0,-3.218513 -0.574199,-5.485345 -1.722598,-6.784737c-1.617137,-1.888573 -4.110069,-2.82566 -7.479574,-2.82566c-3.037556,0 -5.31937,0.619341 -6.815091,1.873591c-1.511287,1.254249 -2.614349,3.61156 -3.324363,7.072128l-6.422238,-1.072903c0.921521,-5.047156 2.765536,-8.719035 5.560842,-11.015638c2.780324,-2.297187 6.784737,-3.460568 11.967708,-3.460568c4.049555,0 7.223121,0.770528 9.519918,2.281815c2.311585,1.526269 3.762164,3.39986 4.366717,5.65132c0.604359,2.236673 0.906733,5.5157 0.906733,9.822098l0,10.622591c0,7.434432 0.136205,12.133683 0.423012,14.053194c0.27202,1.934299 0.831237,3.822872 1.662474,5.65132l-6.830073,0c-0.68005,-1.616748 -1.118434,-3.551047 -1.329745,-5.802507zm-0.529057,-17.800375c-2.387665,1.193541 -5.938517,2.190753 -10.668122,3.021989c-2.735181,0.468154 -4.654109,1.012583 -5.757171,1.617137c-1.08769,0.60397 -1.934299,1.450578 -2.538852,2.568623c-0.60397,1.103062 -0.906149,2.372294 -0.906149,3.822872c0,2.236478 0.694838,4.034573 2.084902,5.3793c1.374887,1.345312 3.294398,2.009795 5.742188,2.009795c2.34194,0 4.45778,-0.604359 6.361724,-1.813466c1.903945,-1.208523 3.324169,-2.82566 4.276238,-4.850438c0.937087,-2.009211 1.405242,-4.956288 1.405242,-8.824302l0,-2.931511zm16.727278,23.602882l0,-47.009436l5.893375,0l0,6.678692c1.420224,-2.598782 3.158194,-4.533081 5.197954,-5.817295c2.055132,-1.284409 4.412443,-1.934299 7.072128,-1.934299c2.054937,0 3.973864,0.408224 5.726817,1.223895c1.752758,0.815865 3.172982,1.873785 4.245884,3.188743c1.08808,1.314374 1.888962,3.021989 2.41802,5.107281c0.528279,2.100468 0.800883,5.318787 0.800883,9.655733l0,28.906687l-6.558053,0l0,-28.604507c0,-3.445585 -0.287392,-5.968872 -0.891945,-7.570637c-0.588987,-1.586394 -1.510703,-2.82566 -2.764952,-3.687251c-1.254249,-0.876379 -2.704827,-1.314374 -4.351735,-1.314374c-3.128034,0 -5.62155,1.178753 -7.480353,3.50571c-1.858219,2.327152 -2.795306,6.33137 -2.795306,11.998062l0,25.672997l-6.512717,0z" id="path2"/>
 </g>
</svg>