<?xml version="1.0" encoding="utf-8"?>
<!-- Generator: Adobe Illustrator 24.3.0, SVG Export Plug-In . SVG Version: 6.00 Build 0)  -->
<svg version="1.1" id="Camada_1" xmlns="http://www.w3.org/2000/svg" xmlns:xlink="http://www.w3.org/1999/xlink" x="0px" y="0px"
	 viewBox="0 0 545.9 72.3" style="enable-background:new 0 0 545.9 72.3;" xml:space="preserve">
<style type="text/css">
	.st0{fill:none;}
	.st1{fill-rule:evenodd;clip-rule:evenodd;}
</style>
<g>
	<rect id="canvas_background" x="-1" y="-1" class="st0" width="547.9" height="74.3"/>
</g>
<g>
	<path id="path2" class="st1" d="M0.3,47.7L7,47c0.4,3.6,1.2,6.4,2.4,8.3c1.3,2,3,3.6,5.4,4.8c2.3,1.2,5,1.8,7.9,1.8
		c4.2,0,7.4-1,9.8-3.1c2.3-2.1,3.5-4.7,3.5-8c0-1.9-0.4-3.6-1.3-5c-0.8-1.4-2.1-2.6-3.8-3.5c-1.7-0.9-5.4-2.2-11-3.9
		c-5-1.5-8.6-3-10.7-4.5c-2.1-1.5-3.8-3.4-5-5.7C3,26,2.4,23.4,2.4,20.4c0-5.2,1.7-9.5,5.1-12.9c3.4-3.3,8-5,13.7-5
		c3.9,0,7.4,0.8,10.4,2.3c3,1.6,5.3,3.8,6.9,6.7c1.6,2.9,2.5,6.4,2.6,10.3l-6.8,0.6c-0.4-4.2-1.6-7.3-3.8-9.4
		c-2.2-2-5.2-3.1-9.1-3.1c-4,0-7,0.9-9.1,2.7c-2.1,1.8-3.1,4.1-3.1,6.9c0,2.6,0.8,4.7,2.3,6.1c1.5,1.5,5,2.9,10.4,4.4
		c5.2,1.5,8.9,2.7,11.1,3.8c3.2,1.6,5.7,3.8,7.3,6.5c1.7,2.7,2.5,5.9,2.5,9.7c0,3.7-0.9,7.1-2.6,10.2c-1.8,3.1-4.1,5.4-7.1,7
		c-3,1.6-6.6,2.4-10.8,2.4c-6.6,0-11.8-2-15.7-5.9C2.5,59.8,0.5,54.5,0.3,47.7L0.3,47.7z M76.5,62.8c-2.2,2.3-4.4,4-6.8,5.1
		c-2.4,1.1-4.8,1.7-7.3,1.7c-4,0-7.2-1.2-9.6-3.6c-2.4-2.4-3.6-5.7-3.6-9.8c0-2.7,0.6-5.1,1.7-7.2c1.1-2.1,2.7-3.7,4.6-4.9
		c1.9-1.2,4.9-2.1,8.9-2.6c5.3-0.8,9.2-1.7,11.7-2.7l0-2c0-3.2-0.6-5.5-1.7-6.8c-1.6-1.9-4.1-2.8-7.5-2.8c-3,0-5.3,0.6-6.8,1.9
		c-1.5,1.3-2.6,3.6-3.3,7.1L50.2,35c0.9-5,2.8-8.7,5.6-11c2.8-2.3,6.8-3.5,12-3.5c4,0,7.2,0.8,9.5,2.3c2.3,1.5,3.8,3.4,4.4,5.7
		c0.6,2.2,0.9,5.5,0.9,9.8v10.6c0,7.4,0.1,12.1,0.4,14.1c0.3,1.9,0.8,3.8,1.7,5.7h-6.8C77.1,66.9,76.7,65,76.5,62.8z M75.9,45
		c-2.4,1.2-5.9,2.2-10.7,3c-2.7,0.5-4.7,1-5.8,1.6c-1.1,0.6-1.9,1.5-2.5,2.6c-0.6,1.1-0.9,2.4-0.9,3.8c0,2.2,0.7,4,2.1,5.4
		c1.4,1.3,3.3,2,5.7,2c2.3,0,4.5-0.6,6.4-1.8c1.9-1.2,3.3-2.8,4.3-4.9c0.9-2,1.4-5,1.4-8.8C75.9,47.9,75.9,45,75.9,45z M92.7,68.6
		v-47h5.9v7.1c1.5-3.3,2.9-5.5,4.1-6.6c1.3-1.1,2.7-1.6,4.2-1.6c2.2,0,4.4,0.9,6.7,2.6l-2.2,7.4c-1.6-1.2-3.2-1.7-4.7-1.7
		c-1.4,0-2.7,0.5-3.8,1.5c-1.1,1-2,2.3-2.4,4.1c-0.8,3.1-1.2,6.3-1.2,9.7v24.6H92.7z M142.6,62.8c-2.2,2.3-4.4,4-6.8,5.1
		c-2.4,1.1-4.8,1.7-7.3,1.7c-4,0-7.2-1.2-9.6-3.6c-2.4-2.4-3.6-5.7-3.6-9.8c0-2.7,0.6-5.1,1.7-7.2c1.1-2.1,2.7-3.7,4.6-4.9
		c1.9-1.2,4.9-2.1,8.9-2.6c5.3-0.8,9.2-1.7,11.7-2.7l0-2c0-3.2-0.6-5.5-1.7-6.8c-1.6-1.9-4.1-2.8-7.5-2.8c-3,0-5.3,0.6-6.8,1.9
		c-1.5,1.3-2.6,3.6-3.3,7.1l-6.4-1.1c0.9-5,2.8-8.7,5.6-11c2.8-2.3,6.8-3.5,12-3.5c4,0,7.2,0.8,9.5,2.3c2.3,1.5,3.8,3.4,4.4,5.7
		c0.6,2.2,0.9,5.5,0.9,9.8v10.6c0,7.4,0.1,12.1,0.4,14.1c0.3,1.9,0.8,3.8,1.7,5.7h-6.8C143.2,66.9,142.8,65,142.6,62.8L142.6,62.8z
		 M142,45c-2.4,1.2-5.9,2.2-10.7,3c-2.7,0.5-4.7,1-5.8,1.6c-1.1,0.6-1.9,1.5-2.5,2.6c-0.6,1.1-0.9,2.4-0.9,3.8c0,2.2,0.7,4,2.1,5.4
		c1.4,1.3,3.3,2,5.7,2c2.3,0,4.5-0.6,6.4-1.8c1.9-1.2,3.3-2.8,4.3-4.9c0.9-2,1.4-5,1.4-8.8L142,45L142,45z M158.8,68.6V3.7h6.5V27
		c1.5-2.1,3.3-3.8,5.2-4.9c1.9-1.1,4.1-1.6,6.4-1.6c4.1,0,7.3,1.3,9.7,3.9c2.4,2.6,3.6,7.4,3.6,14.4v29.8h-6.5V38.8
		c0-4.1-0.7-7-2.2-8.8c-1.4-1.8-3.4-2.7-6-2.7c-2.8,0-5.2,1.1-7.2,3.4c-2,2.3-3,6.3-3,12.1v25.7H158.8z M259.5,45.8l7.1,2.2
		c-1.6,7.3-4.3,12.7-8.2,16.3c-3.9,3.6-8.7,5.4-14.3,5.4c-4.9,0-9.1-1.2-12.6-3.6c-3.5-2.4-6.4-6.3-8.6-11.6
		c-2.2-5.3-3.4-11.6-3.4-18.8c0-7.1,1.1-13.2,3.4-18.1c2.2-5,5.2-8.7,9.1-11.2c3.8-2.5,8.1-3.8,12.7-3.8c5.1,0,9.6,1.6,13.2,4.8
		c3.7,3.2,6.3,7.9,7.8,14.1l-6.9,2c-2.4-9-7.1-13.6-14.2-13.6c-3.6,0-6.6,0.9-9.2,2.7c-2.6,1.8-4.7,4.6-6.2,8.5
		c-1.6,3.8-2.3,8.7-2.3,14.6c0,8.9,1.6,15.5,4.7,20c3.1,4.4,7.3,6.7,12.5,6.7c3.8,0,7.1-1.4,9.9-4.1
		C256.7,55.5,258.6,51.4,259.5,45.8L259.5,45.8z M274.4,68.6V3.7h6.5V27c1.5-2.1,3.3-3.8,5.2-4.9c1.9-1.1,4.1-1.6,6.4-1.6
		c4.1,0,7.3,1.3,9.7,3.9c2.4,2.6,3.6,7.4,3.6,14.4v29.8h-6.5V38.8c0-4.1-0.7-7-2.2-8.8c-1.4-1.8-3.4-2.7-6-2.7
		c-2.8,0-5.2,1.1-7.2,3.4c-2,2.3-3,6.3-3,12.1v25.7H274.4L274.4,68.6z M313.4,45.1c0-8.1,1.7-14.2,5.1-18.4
		c3.4-4.1,7.7-6.2,12.9-6.2c5.1,0,9.4,2.1,12.9,6.2c3.5,4.1,5.2,10.1,5.2,17.9c0,8.4-1.7,14.7-5.1,18.9c-3.4,4.1-7.7,6.2-13,6.2
		c-5.2,0-9.5-2.1-12.9-6.2C315.1,59.3,313.4,53.1,313.4,45.1L313.4,45.1z M320,45.1c0,6.1,1.1,10.6,3.3,13.6c2.2,3,5,4.5,8.2,4.5
		c3.1,0,5.7-1.5,7.9-4.5c2.2-3,3.3-7.5,3.3-13.5c0-6-1.1-10.5-3.3-13.5c-2.2-3-5-4.4-8.2-4.4c-3.1,0-5.7,1.5-7.9,4.5
		C321.1,34.5,320,39,320,45.1L320,45.1z M359,68.6V27.8h-5.8v-6.2h5.8v-5c0-3.7,0.4-6.5,1.2-8.3c0.8-1.8,1.9-3.2,3.5-4.2
		c1.6-1,3.6-1.5,6-1.5c1.9,0,3.9,0.3,6.1,0.8l-1,7c-1.3-0.3-2.6-0.5-3.8-0.5c-1.9,0-3.4,0.5-4.2,1.5c-0.8,1-1.3,3-1.3,5.8v4.3h7.5
		v6.2h-7.5v40.8H359L359,68.6z M402.9,62.8c-2.2,2.3-4.4,4-6.8,5.1c-2.4,1.1-4.8,1.7-7.3,1.7c-4,0-7.2-1.2-9.6-3.6
		c-2.4-2.4-3.6-5.7-3.6-9.8c0-2.7,0.6-5.1,1.7-7.2c1.1-2.1,2.7-3.7,4.6-4.9c1.9-1.2,4.9-2.1,8.9-2.6c5.3-0.8,9.2-1.7,11.7-2.7l0-2
		c0-3.2-0.6-5.5-1.7-6.8c-1.6-1.9-4.1-2.8-7.5-2.8c-3,0-5.3,0.6-6.8,1.9c-1.5,1.3-2.6,3.6-3.3,7.1l-6.4-1.1c0.9-5,2.8-8.7,5.6-11
		c2.8-2.3,6.8-3.5,12-3.5c4,0,7.2,0.8,9.5,2.3c2.3,1.5,3.8,3.4,4.4,5.7c0.6,2.2,0.9,5.5,0.9,9.8v10.6c0,7.4,0.1,12.1,0.4,14.1
		c0.3,1.9,0.8,3.8,1.7,5.7h-6.8C403.6,66.9,403.2,65,402.9,62.8L402.9,62.8z M402.4,45c-2.4,1.2-5.9,2.2-10.7,3
		c-2.7,0.5-4.7,1-5.8,1.6c-1.1,0.6-1.9,1.5-2.5,2.6c-0.6,1.1-0.9,2.4-0.9,3.8c0,2.2,0.7,4,2.1,5.4c1.4,1.3,3.3,2,5.7,2
		c2.3,0,4.5-0.6,6.4-1.8c1.9-1.2,3.3-2.8,4.3-4.9c0.9-2,1.4-5,1.4-8.8V45z M419.3,68.6V3.7h6.5v37l15.5-19.1h8.5L435,39l16.2,29.6
		h-8l-12.8-24l-4.6,5.4v18.6H419.3L419.3,68.6z M456.3,12.8V3.7h6.5v9.2H456.3z M456.3,68.6v-47h6.5v47H456.3z M498,62.8
		c-2.2,2.3-4.4,4-6.8,5.1c-2.4,1.1-4.8,1.7-7.3,1.7c-4,0-7.2-1.2-9.6-3.6c-2.4-2.4-3.6-5.7-3.6-9.8c0-2.7,0.6-5.1,1.7-7.2
		c1.1-2.1,2.7-3.7,4.6-4.9c1.9-1.2,4.9-2.1,8.9-2.6c5.3-0.8,9.2-1.7,11.7-2.7l0-2c0-3.2-0.6-5.5-1.7-6.8c-1.6-1.9-4.1-2.8-7.5-2.8
		c-3,0-5.3,0.6-6.8,1.9c-1.5,1.3-2.6,3.6-3.3,7.1l-6.4-1.1c0.9-5,2.8-8.7,5.6-11c2.8-2.3,6.8-3.5,12-3.5c4,0,7.2,0.8,9.5,2.3
		c2.3,1.5,3.8,3.4,4.4,5.7c0.6,2.2,0.9,5.5,0.9,9.8v10.6c0,7.4,0.1,12.1,0.4,14.1c0.3,1.9,0.8,3.8,1.7,5.7h-6.8
		C498.6,66.9,498.2,65,498,62.8z M497.5,45c-2.4,1.2-5.9,2.2-10.7,3c-2.7,0.5-4.7,1-5.8,1.6c-1.1,0.6-1.9,1.5-2.5,2.6
		c-0.6,1.1-0.9,2.4-0.9,3.8c0,2.2,0.7,4,2.1,5.4c1.4,1.3,3.3,2,5.7,2c2.3,0,4.5-0.6,6.4-1.8c1.9-1.2,3.3-2.8,4.3-4.9
		c0.9-2,1.4-5,1.4-8.8V45z M514.2,68.6v-47h5.9v6.7c1.4-2.6,3.2-4.5,5.2-5.8c2.1-1.3,4.4-1.9,7.1-1.9c2.1,0,4,0.4,5.7,1.2
		c1.8,0.8,3.2,1.9,4.2,3.2c1.1,1.3,1.9,3,2.4,5.1c0.5,2.1,0.8,5.3,0.8,9.7v28.9H539V40c0-3.4-0.3-6-0.9-7.6
		c-0.6-1.6-1.5-2.8-2.8-3.7c-1.3-0.9-2.7-1.3-4.4-1.3c-3.1,0-5.6,1.2-7.5,3.5c-1.9,2.3-2.8,6.3-2.8,12v25.7H514.2L514.2,68.6z"/>
</g>
</svg>
