<svg xmlns="http://www.w3.org/2000/svg" xmlns:xlink="http://www.w3.org/1999/xlink" width="502" height="431.817" viewBox="0 0 502 431.817"><defs><style>.a{fill:#8ef9f3;}.b{fill:#a2b2b2;}.c,.i,.j,.s{fill:#fff;}.d{fill:#404041;opacity:0.4;}.e{fill:#dddddc;}.f{fill:#c8d8d8;}.g{fill:#a4baba;}.g,.s,.t{opacity:0.5;}.h{fill:#ffa000;}.i{opacity:0.3;}.j{opacity:0.2;}.k{fill:#cccbcb;}.l{fill:#878f8c;}.m{fill:#aa784b;}.n{clip-path:url(#a);}.o{fill:#c28f5f;}.p{fill:url(#b);}.q{fill:#131416;}.r{fill:#b18661;}.u,.v{fill:#f9f9f9;}.v{opacity:0.7;}</style><clipPath id="a"><path d="M384.516,149.2c0,23.851-65.63,43.1-146.558,43.1S91.4,172.882,91.4,149.2c0-23.851,65.63-43.1,146.558-43.1C318.886,105.936,384.516,125.345,384.516,149.2Z" transform="translate(-91.4 -106.099)"/></clipPath><radialGradient id="b" cx="0.507" cy="0.495" r="2.13" gradientTransform="translate(0.389 16.232) scale(0.256 0.26)" gradientUnits="objectBoundingBox"><stop offset="0.267" stop-color="#131416"/><stop offset="0.451" stop-color="#151617"/><stop offset="0.552" stop-color="#1d1b1a"/><stop offset="0.633" stop-color="#2b2520"/><stop offset="0.703" stop-color="#3f3328"/><stop offset="0.766" stop-color="#584433"/><stop offset="0.825" stop-color="#775a40"/><stop offset="0.878" stop-color="#9b744f"/><stop offset="0.925" stop-color="#c28f5f"/></radialGradient></defs><g transform="translate(-24.446 -20.444)"><g transform="translate(24.446 20.444)"><path class="a" d="M148.393,78.929C197.575,41.261,248.731,12.312,292.155,22.51s79.118,59.051,119.418,99.021,85.533,71.058,104.285,117.444c19.081,46.879,12.008,108.89-18.258,146.393-30.266,37.668-84.217,51.32-131.59,58.886s-88.33,9.376-142.446,7.073c-54.281-2.8-121.556-9.869-160.21-50.333-38.654-40.957-48.359-115.141-29.772-176C52,164.462,99.541,117.09,148.393,78.929Z" transform="translate(-24.446 -20.444)"/></g><g transform="translate(62.833 33.859)"><g transform="translate(0 112.697)"><g transform="translate(57.913 166.266)"><path class="b" d="M392.077,259.2c-1.316,32.9-71.387,59.051-156.756,58.722-85.369-.493-153.466-27.3-152.315-60.2,1.316-32.9,71.387-59.051,156.756-58.722S393.393,226.306,392.077,259.2Z" transform="translate(-82.991 -197.678)"/><path class="c" d="M389.523,256.925C388.371,289,318.958,314.66,234.576,314.166S82.754,287.519,83.906,255.444s70.565-57.735,154.947-57.242C323.4,198.532,390.839,224.85,389.523,256.925Z" transform="translate(-82.411 -198.196)"/><path class="d" d="M309.963,241.752c-.822,19.9-43.754,35.694-95.9,35.529-52.307-.329-93.922-16.613-93.264-36.352.822-19.9,43.754-35.694,95.9-35.529C268.841,205.729,310.621,222.014,309.963,241.752Z" transform="translate(-58.613 -193.55)"/></g><path class="e" d="M179.071,223.026h0a13.446,13.446,0,0,0-3.29-1.974,25.02,25.02,0,0,0-7.073-1.974c-4.112-.493-8.224-.987-12.337-1.645a236.026,236.026,0,0,1-26.482-5.428c-15.3-4.112-44.74-12.172-51.155-25.331-5.593-11.021,3.783-25.331,20.067-22.206,8.389,1.645,15.3,9.047,23.851,11.185,30.759,8.06,11.514-28.292-.658-35.036-11.35-6.415-27.3-6.579-40.464-3.29-34.049,8.553-39.148,36.187-29.279,56.748,9.376,19.738,33.062,31.582,56.419,39.312a223.783,223.783,0,0,0,34.871,8.06c12.172,1.809,24.673,3.948,35.529-1.809C186.8,235.2,186.473,227.138,179.071,223.026Z" transform="translate(-47.783 -72.543)"/><path class="f" d="M101.833,179.3A16.479,16.479,0,0,1,102,189.827a9.763,9.763,0,0,1-2.3,3.783c-3.619,2.3-8.553,3.619-13.817,3.948A76.117,76.117,0,0,1,69.1,194.1,175.77,175.77,0,0,0,94.76,204.8a215.406,215.406,0,0,0,34.213,7.9c1.316-9.047-4.935-19.738-9.54-26.811-.493-.658-.822-1.316-1.316-1.974-.658-.164-1.316-.329-2.138-.493C112.2,182.261,107.261,180.945,101.833,179.3Z" transform="translate(-34.037 -44.115)"/><path class="g" d="M75.122,193.963a20.626,20.626,0,0,1-4.935-6.086c-5.593-11.021,3.783-25.331,20.067-22.206,8.389,1.645,15.3,9.047,23.851,11.185,2.3.658,9.047,2.467,11.185.658,1.974-1.645-.658-4.77-.987-6.744-1.645-7.566-3.29-14.146-6.908-21.548-2.467-5.1-5.757-16.449-14.968-16.12-7.073.164-8.224,8.224-8.553,12.337-.329,4.606,1.151,7.9-5.757,9.7-4.112,1.151-8.553.329-12.665,1.645-8.224,2.632-13.323,9.211-14.31,16.12C60.154,180.64,66.24,190.509,75.122,193.963Z" transform="translate(-39.237 -73.911)"/><path class="e" d="M393.307,150.385c-3.29-10.692-14.146-21.219-23.193-27.14-15.626-10.034-34.707-14.146-52.636-17.929a395.717,395.717,0,0,0-121.391-6.086c-31.253,3.125-67.111,7.073-92.606,27.3a55.688,55.688,0,0,0-20.232,36.187c-1.151,8.224.493,16.778,2.467,24.673,2.632,10.692,5.593,21.548,8.06,32.239,9.7,41.122,26.647,81.092,72.868,104.285,43.26,21.548,98.857,20.89,142.446.658,18.587-8.553,34.871-20.067,45.892-34.871,10.034-13.488,17.107-27.963,23.357-42.6C390.84,217.5,403.177,181.8,393.307,150.385Z" transform="translate(-25.158 -97.114)"/><path class="h" d="M376.746,196.943c3.454-8.389,6.744-17.271,9.54-26.318C230.023,258.3,112.909,185.1,88.4,167.5c.493,2.3,1.151,4.606,1.645,6.908q2.221,9.376,4.935,18.752C128.864,215.2,236.109,270.633,376.746,196.943Z" transform="translate(-21.591 -51.724)"/><path class="i" d="M92.413,140.526c-15.955-3.783-32.733,5.922-37.832,17.765A35.6,35.6,0,0,0,52.443,180.5c1.316,6.251,5.593,14.475,12.172,18.258,2.467,1.48,5.757-.493,5.757-2.632.164-4.935-4.606-9.7-6.579-14.31-2.632-6.251-1.974-12.994.329-19.245,2.3-6.086,7.566-10.692,14.8-13.159,5.1-1.809,10.2-2.632,14.475-5.593C95.045,142.828,94.058,140.854,92.413,140.526Z" transform="translate(-45.342 -69.655)"/><path class="j" d="M246.8,178.475s51.156-8.06,74.513-32.075c0,0-16.284,143.433-132.412,151.986C188.9,298.386,232,267.627,246.8,178.475Z" transform="translate(43.219 -65.331)"/><g transform="translate(64.507 5.405)"><g transform="translate(4.886 3.454)"><path class="k" d="M91.17,156.945c.493,1.316,9.376-7.237,10.034-8.389,2.3-4.935,4.935-5.428,12.172-9.211,7.9-4.112,19.081-6.744,29.772-8.718,24.344-4.277,50.991-9.869,76.815-10.527,29.937-.658,58.557.493,87.343,5.1a346.052,346.052,0,0,1,44.083,10.2,93,93,0,0,1,17.765,7.237c4.935,2.8,5.264,5.922,5.593,9.376.164,2.3,8.224,6.251,10.527,3.619,0,0,20.89-53.129-143.926-53.129C74.886,102.5,89.032,153.162,91.17,156.945Z" transform="translate(-89.97 -102.5)"/><path class="l" d="M290.988,138.22c-8.389,17.929-43.754,25.824-65.3,35.365a1.568,1.568,0,0,0-.987,1.151,202.57,202.57,0,0,0,20.232-5.264c17.6-5.428,35.694-11.843,46.714-21.383s8.06-18.423-1.48-25.989C292.8,127.364,293.456,132.627,290.988,138.22Z" transform="translate(-3.087 -89.861)"/></g><g transform="translate(7.237 9.375)"><path class="m" d="M384.516,149.2c0,23.851-65.63,43.1-146.558,43.1S91.4,172.882,91.4,149.2c0-23.851,65.63-43.1,146.558-43.1C318.886,105.936,384.516,125.345,384.516,149.2Z" transform="translate(-91.4 -106.099)"/><path class="m" d="M384.516,149.2c0,23.851-65.63,43.1-146.558,43.1S91.4,172.882,91.4,149.2c0-23.851,65.63-43.1,146.558-43.1C318.886,105.936,384.516,125.345,384.516,149.2Z" transform="translate(-91.4 -106.099)"/><g class="n"><path class="m" d="M113.955,124.23a157.107,157.107,0,0,1,35.858-11.514c25.989-4.935,54.445-7.237,81.586-7.4,34.378-.329,66.946,1.645,99.515,7.237,24.509,4.112,52.965,13.323,57.57,29.772,4.441,16.12-13.652,27.963-34.871,36.352-38.325,14.968-89.81,20.561-135.044,18.423-25.5-1.151-50.826-4.77-73.2-12.172-17.929-5.922-36.516-12.994-47.866-23.357C81.716,147.093,94.217,133.605,113.955,124.23Z" transform="translate(-92.078 -106.629)"/><path class="o" d="M231.437,179.558c-5.922,0-11.843-.165-17.765-.329-26.811-1.316-50.662-5.428-70.565-12.337-16.284-5.593-34.213-12.666-44.083-22.206a10.953,10.953,0,0,1-3.125-4.112c.658-1.809,4.606-7.073,17.107-13.323a136.342,136.342,0,0,1,33.555-11.185c23.686-4.77,51.32-7.4,79.941-7.566h6.415c33.555,0,63.492,2.467,91.455,7.4,33.062,5.922,47.372,16.613,49.017,22.535,1.151,4.606-7.073,13.488-28.127,22.206C315.161,172.485,273.875,179.558,231.437,179.558Z" transform="translate(-88.498 -104.551)"/><path class="p" d="M232.456,182.59q-9.869,0-19.738-.493c-29.608-1.809-57.735-3.619-79.776-13.323C118.96,162.523,101.853,161.7,93.3,140.81a89.557,89.557,0,0,1,8.224-6.086,127.246,127.246,0,0,1,35.858-15.133c26.318-6.744,57.077-10.363,88.988-10.692h7.073c37.5,0,70.894,3.454,102.146,10.527,25.824,5.922,39.312,14.639,45.069,20.067-3.619,3.948-9.047,14.31-21.712,20.89C326.872,177.327,279.5,182.59,232.456,182.59Z" transform="translate(-90.175 -104.293)"/><path class="q" d="M226.994,186.719c-6.58,0-13.159-.165-19.574-.658-29.279-2.138-54.774-9.54-77.638-18.258a126.994,126.994,0,0,1-19.245-8.882c-4.77-2.8-15.791-9.869-12.5-18.094,1.809-4.77,21.219-11.843,27.14-13.488,24.18-6.908,46.714-11.679,70.565-13.488,8.553-.658,16.942-.987,25.5-1.151h7.073c30.924,0,62.012,2.8,92.277,10.034,8.224,1.974,16.284,3.783,24.344,6.415,4.935,1.645,22.37,5.757,21.054,14.31-.987,6.251-7.566,10.527-11.679,12.994C322.068,176.192,273.544,186.719,226.994,186.719Z" transform="translate(-87.509 -101.843)"/></g><path class="r" d="M117.4,116.8s-15.955,5.922-22.7,13.323l1.151,1.151C95.687,131.275,110.655,119.267,117.4,116.8Z" transform="translate(-89.272 -99.199)"/><path class="r" d="M257.5,119s7.073,3.454,10.856,6.744l-.329.822Z" transform="translate(15.713 -97.78)"/></g><path class="e" d="M238.493,100.4C154.933,100.4,87,121.454,87,147.608c0,33.062,67.769,51.155,151.493,51.155,83.559,0,151.493-11.185,151.493-51.155C389.985,121.619,322.052,100.4,238.493,100.4Zm0,84.382c-76.651,0-138.663-17.929-138.663-40.135s62.012-40.135,138.663-40.135,138.663,17.929,138.663,40.135S315.144,184.782,238.493,184.782Z" transform="translate(-87 -100.4)"/><path class="s" d="M215.255,180.575a1.422,1.422,0,0,1-.493.987c-2.467,4.112-16.613.822-20.4.493-14.146-1.645-28.292-3.29-42.273-6.251-7.073-1.48-14.146-3.29-20.89-5.428-26.976-8.389-42.6-19.738-42.6-30.924,0-9.211,10.363-18.423,28.95-26.153C103.568,120.044,96,127.939,96,136.328c0,12.008,15.133,22.864,42.438,30.759,21.383,6.251,43.589,9.047,65.795,10.692C206.208,177.943,215.913,177.779,215.255,180.575Z" transform="translate(-85.968 -92.081)"/><path class="j" d="M293.652,138.883c0,11.843-36.516,21.383-81.586,21.383s-25.66-19.245-15.462-21.383C251.379,127.2,167,117.5,212.066,117.5S293.652,131.646,293.652,138.883Z" transform="translate(-24.716 -89.373)"/><path class="s" d="M216.051,159.941s-12.337.987-14.8,3.454c-2.632,2.467,8.553,5.428,32.733.822s51.813-12.83,58.228-20.725c6.25-7.9-4.606-1.974-18.751,3.948C258.983,153.032,216.051,159.941,216.051,159.941Z" transform="translate(-13.568 -75.065)"/></g></g></g></g></svg>
