<?xml version="1.0" encoding="utf-8"?>
<!-- Generator: Adobe Illustrator 24.3.0, SVG Export Plug-In . SVG Version: 6.00 Build 0)  -->
<svg version="1.1" id="Camada_1" xmlns="http://www.w3.org/2000/svg" xmlns:xlink="http://www.w3.org/1999/xlink" x="0px" y="0px"
	 viewBox="0 0 400 459" style="enable-background:new 0 0 400 459;" xml:space="preserve">
<style type="text/css">
	.st0{fill:#E9EBED;}
	.st1{fill:#263238;}
	.st2{fill:#F7AD7C;}
	.st3{fill:#FF6D00;}
	.st4{fill:#BF4D00;}
	.st5{fill:#FFFFFF;}
	.st6{fill:#F9B95A;}
	.st7{fill:#FFA000;}
	.st8{fill:#D37E02;}
	.st9{fill:#D3EFED;}
	.st10{fill:#8EF9F3;}
	.st11{fill:#70C1BB;}
	.st12{clip-path:url(#SVGID_2_);}
	.st13{fill:#B24D19;}
	.st14{fill:#F88D5B;}
</style>
<rect x="-7.2" y="-11" class="st0" width="414.2" height="481"/>
<path class="st1" d="M199,441c0,0,11.2,6.2,25.1-0.9S320,384,320,384s9-6,3-13l-10.5-6.7L192,439L199,441z"/>
<path class="st2" d="M106.6,360.9l16.8-12c0,0,71.1,39.3,72.4,39.1s72.2-39.9,72.2-39.9l17.3,12.7L194,417L106.6,360.9z"/>
<path class="st3" d="M78.5,369.9c0,0-0.5,6.1,3.5,9.1s102,58,102,58s10.4,7,24.7,0c14.3-7,97.3-56,97.3-56s7.8-5.7,6.9-7.8
	c-0.9-2.2,0-28.7,0-28.7L206,408l-18,1L78.6,343.2L78.5,369.9z"/>
<polygon class="st4" points="82.5,344.5 108.1,360.9 120.6,352.7 94.5,335.5 "/>
<polygon class="st4" points="270,352 287.1,361.9 310,345 298,336 "/>
<path class="st5" d="M87,334l6.5,3.5l-6.5,4.4c0,0-3.5,2.6-0.5,4.6s94.1,54.8,98,57c7,4,16,4,20.9,1.5c6.9-3.5,99.1-57.5,99.1-57.5
	s3.5-2.5-0.5-5.5s-5.5-4.5-5.5-4.5l5-3.5l5.5,4c0,0,10,7-2,14s-86.2,50.3-92.5,54.5c-9,6-22,8-32,3c-14.7-7.3-96-55-99.5-57.5
	s-7.5-8.5-1-14C85.3,335.2,87,334,87,334z"/>
<g>
	<path class="st2" d="M106.6,360.9l16.8-12c0,0,71.1,39.3,72.4,39.1s72.2-39.9,72.2-39.9l17.3,12.7L194,417L106.6,360.9z"/>
	<path class="st3" d="M78.5,369.9c0,0-0.5,6.1,3.5,9.1s102,58,102,58s10.4,7,24.7,0c14.3-7,97.3-56,97.3-56s7.8-5.7,6.9-7.8
		c-0.9-2.2,0-28.7,0-28.7L206,408l-18,1L78.6,343.2L78.5,369.9z"/>
	<polygon class="st4" points="82.5,344.5 108.1,360.9 120.6,352.7 94.5,335.5 	"/>
	<polygon class="st4" points="270,352 287.1,361.9 310,345 298,336 	"/>
	<path class="st5" d="M87,334l6.5,3.5l-6.5,4.4c0,0-3.5,2.6-0.5,4.6s94.1,54.8,98,57c7,4,16,4,20.9,1.5c6.9-3.5,99.1-57.5,99.1-57.5
		s3.5-2.5-0.5-5.5s-5.5-4.5-5.5-4.5l5-3.5l5.5,4c0,0,10,7-2,14s-86.2,50.3-92.5,54.5c-9,6-22,8-32,3c-14.7-7.3-96-55-99.5-57.5
		s-7.5-8.5-1-14C85.3,335.2,87,334,87,334z"/>
</g>
<g>
	<path class="st6" d="M106.9,312.8l16.8-12c0,0,71.1,39.3,72.4,39.1s72.2-39.9,72.2-39.9l17.3,12.7l-91.2,56.1L106.9,312.8z"/>
	<path class="st7" d="M78.9,321.8c0,0-0.5,6.1,3.5,9.1s102,58,102,58s10.4,7,24.7,0c14.3-7,97.3-56,97.3-56s7.8-5.7,6.9-7.8
		s0-28.7,0-28.7l-106.9,63.5l-18,1L79,295.1L78.9,321.8z"/>
	<polygon class="st8" points="82.9,296.4 108.5,312.8 120.9,304.6 94.9,287.4 	"/>
	<polygon class="st8" points="270.4,303.9 287.5,313.8 310.4,296.9 298.4,287.9 	"/>
	<path class="st5" d="M87.4,285.9l6.5,3.5l-6.5,4.4c0,0-3.5,2.6-0.5,4.6s94.1,54.8,98,57c7,4,16,4,20.9,1.5
		c6.9-3.5,99.1-57.5,99.1-57.5s3.5-2.5-0.5-5.5s-5.5-4.5-5.5-4.5l5-3.5l5.5,4c0,0,10,7-2,14s-86.2,50.3-92.5,54.5c-9,6-22,8-32,3
		c-14.7-7.3-96-55-99.5-57.5s-7.5-8.5-1-14C85.6,287.1,87.4,285.9,87.4,285.9z"/>
</g>
<g>
	<path class="st9" d="M106.9,268.8l16.8-12c0,0,71.1,39.3,72.4,39.1s72.2-39.9,72.2-39.9l17.3,12.7l-91.2,56.1L106.9,268.8z"/>
	<path class="st10" d="M78.9,277.8c0,0-0.5,6.1,3.5,9.1s102,58,102,58s10.4,7,24.7,0c14.3-7,97.3-56,97.3-56s7.8-5.7,6.9-7.8
		s0-28.7,0-28.7l-106.9,63.5l-18,1L79,251.1L78.9,277.8z"/>
	<polygon class="st11" points="82.9,252.4 108.5,268.8 120.9,260.6 94.9,243.4 	"/>
	<polygon class="st11" points="270.4,259.9 287.5,269.8 310.4,252.9 298.4,243.9 	"/>
	<path class="st5" d="M87.4,241.9l6.5,3.5l-6.5,4.4c0,0-3.5,2.6-0.5,4.6s94.1,54.8,98,57c7,4,16,4,20.9,1.5
		c6.9-3.5,99.1-57.5,99.1-57.5s3.5-2.5-0.5-5.5s-5.5-4.5-5.5-4.5l5-3.5l5.5,4c0,0,10,7-2,14s-86.2,50.3-92.5,54.5c-9,6-22,8-32,3
		c-14.7-7.3-96-55-99.5-57.5s-7.5-8.5-1-14C85.6,243.1,87.4,241.9,87.4,241.9z"/>
</g>
<g>
	<path class="st2" d="M106.9,221.2l16.8-12c0,0,71.1,39.3,72.4,39.1c1.3-0.1,72.2-39.9,72.2-39.9l17.3,12.7l-91.2,56.1L106.9,221.2z
		"/>
	<path class="st3" d="M78.9,230.2c0,0-0.5,6.1,3.5,9.1s102,58,102,58s10.4,7,24.7,0c14.3-7,97.3-56,97.3-56s7.8-5.7,6.9-7.8
		s0-28.7,0-28.7l-106.9,63.5l-18,1L79,203.5L78.9,230.2z"/>
	<polygon class="st4" points="82.9,204.8 108.5,221.2 120.9,213 94.9,195.8 	"/>
	<polygon class="st4" points="270.4,212.3 287.5,222.2 310.4,205.3 298.4,196.3 	"/>
	<path class="st5" d="M87.4,194.3l6.5,3.5l-6.5,4.4c0,0-3.5,2.6-0.5,4.6s94.1,54.8,98,57c7,4,16,4,20.9,1.5
		c6.9-3.5,99.1-57.5,99.1-57.5s3.5-2.5-0.5-5.5s-5.5-4.5-5.5-4.5l5-3.5l5.5,4c0,0,10,7-2,14s-86.2,50.3-92.5,54.5c-9,6-22,8-32,3
		c-14.7-7.3-96-55-99.5-57.5s-7.5-8.5-1-14C85.6,195.5,87.4,194.3,87.4,194.3z"/>
</g>
<g>
	<path class="st6" d="M106.9,173.1l16.8-12c0,0,71.1,39.3,72.4,39.1s72.2-39.9,72.2-39.9l17.3,12.7l-91.2,56.1L106.9,173.1z"/>
	<path class="st7" d="M78.9,182.1c0,0-0.5,6.1,3.5,9.1s102,58,102,58s10.4,7,24.7,0c14.3-7,97.3-56,97.3-56s7.8-5.7,6.9-7.8
		s0-28.7,0-28.7l-106.9,63.5l-18,1L79,155.3L78.9,182.1z"/>
	<polygon class="st8" points="82.9,156.6 108.5,173.1 120.9,164.8 94.9,147.6 	"/>
	<polygon class="st8" points="270.4,164.1 287.5,174.1 310.4,157.1 298.4,148.1 	"/>
	<path class="st5" d="M87.4,146.1l6.5,3.5l-6.5,4.4c0,0-3.5,2.6-0.5,4.6s94.1,54.8,98,57c7,4,16,4,20.9,1.5
		c6.9-3.5,99.1-57.5,99.1-57.5s3.5-2.5-0.5-5.5s-5.5-4.5-5.5-4.5l5-3.5l5.5,4c0,0,10,7-2,14s-86.2,50.3-92.5,54.5c-9,6-22,8-32,3
		c-14.7-7.3-96-55-99.5-57.5s-7.5-8.5-1-14C85.6,147.3,87.4,146.1,87.4,146.1z"/>
</g>
<g>
	<path class="st9" d="M106.9,124.1l16.8-12c0,0,71.1,39.3,72.4,39.1s72.2-39.9,72.2-39.9l17.3,12.7l-91.2,56.1L106.9,124.1z"/>
	<path class="st10" d="M78.9,133.1c0,0-0.5,6.1,3.5,9.1s102,58,102,58s10.4,7,24.7,0c14.3-7,97.3-56,97.3-56s7.8-5.7,6.9-7.8
		s0-28.7,0-28.7l-106.9,63.5l-18,1L79,106.3L78.9,133.1z"/>
	<polygon class="st11" points="82.9,107.6 108.5,124.1 120.9,115.8 94.9,98.6 	"/>
	<polygon class="st11" points="270.4,115.1 287.5,125.1 310.4,108.1 298.4,99.1 	"/>
	<path class="st5" d="M87.4,97.1l6.5,3.5l-6.5,4.4c0,0-3.5,2.6-0.5,4.6s94.1,54.8,98,57c7,4,16,4,20.9,1.5
		c6.9-3.5,99.1-57.5,99.1-57.5s3.5-2.5-0.5-5.5s-5.5-4.5-5.5-4.5l5-3.5l5.5,4c0,0,10,7-2,14s-86.2,50.3-92.5,54.5c-9,6-22,8-32,3
		c-14.7-7.3-96-55-99.5-57.5s-7.5-8.5-1-14C85.6,98.3,87.4,97.1,87.4,97.1z"/>
</g>
<g>
	<path class="st1" d="M95.6,139.9l1.6-2.9l-2.7,1.6l-0.5-0.3l-0.2-3.2l-1.5,2.9l-1.1-0.6l2.6-4.9l0.9,0.6l0.2,4.1l3.4-2l0.9,0.6
		l-2.6,4.9L95.6,139.9z"/>
	<path class="st1" d="M102.2,142.5l-0.5,0.9l-3.8-2.3l2.6-4.9l3.7,2.2l-0.5,0.9l-2.6-1.5l-0.6,1.1l2.3,1.4l-0.5,0.9l-2.3-1.4
		l-0.6,1.1L102.2,142.5z"/>
	<path class="st1" d="M105.3,139.1l1.1,0.7l-2.6,4.9l-1.1-0.7L105.3,139.1z"/>
	<path class="st1" d="M106.1,145.7c-0.3-0.5-0.5-1-0.5-1.5c0-0.5,0.1-1,0.3-1.5c0.3-0.5,0.6-0.8,1-1.1c0.4-0.2,0.9-0.4,1.5-0.3
		c0.5,0,1.1,0.2,1.6,0.5c0.5,0.3,0.9,0.7,1.2,1.1c0.3,0.5,0.5,1,0.5,1.5c0,0.5-0.1,1-0.3,1.5c-0.3,0.5-0.6,0.8-1,1.1
		c-0.4,0.2-0.9,0.4-1.5,0.3c-0.5,0-1-0.2-1.6-0.5C106.8,146.5,106.4,146.2,106.1,145.7z M108.8,146.1c0.3,0,0.6-0.1,0.9-0.2
		c0.3-0.2,0.5-0.4,0.6-0.7c0.2-0.3,0.2-0.6,0.2-0.9c0-0.3-0.1-0.6-0.3-0.9c-0.2-0.3-0.4-0.5-0.7-0.7s-0.6-0.3-0.9-0.3
		c-0.3,0-0.6,0.1-0.9,0.2c-0.3,0.2-0.5,0.4-0.6,0.7c-0.2,0.3-0.2,0.6-0.2,0.9c0,0.3,0.1,0.6,0.3,0.9c0.2,0.3,0.4,0.5,0.7,0.7
		S108.5,146.1,108.8,146.1z"/>
	<path class="st1" d="M111.5,149.1c-0.3-0.3-0.5-0.6-0.7-0.9l0.8-0.6c0.1,0.3,0.3,0.6,0.6,0.8c0.2,0.3,0.5,0.5,0.8,0.7
		c0.3,0.2,0.6,0.3,0.8,0.3c0.2,0,0.4-0.1,0.4-0.2c0.1-0.1,0.1-0.2,0-0.4c-0.1-0.1-0.1-0.3-0.3-0.4c-0.1-0.1-0.3-0.3-0.5-0.5
		c-0.3-0.3-0.6-0.6-0.8-0.8s-0.3-0.5-0.4-0.8c-0.1-0.3,0-0.6,0.2-0.9c0.2-0.3,0.4-0.5,0.6-0.6c0.3-0.1,0.6-0.2,1-0.1
		c0.4,0,0.8,0.2,1.3,0.5c0.3,0.2,0.6,0.4,0.9,0.7c0.3,0.3,0.5,0.5,0.6,0.8l-0.8,0.7c-0.3-0.5-0.7-0.9-1.2-1.2
		c-0.3-0.2-0.6-0.3-0.8-0.3c-0.2,0-0.4,0.1-0.4,0.3c-0.1,0.2-0.1,0.3,0.1,0.5c0.1,0.2,0.4,0.4,0.7,0.7c0.3,0.3,0.6,0.6,0.8,0.8
		c0.2,0.2,0.3,0.5,0.4,0.8s0,0.6-0.2,0.9c-0.1,0.3-0.4,0.5-0.6,0.6c-0.3,0.1-0.6,0.2-1,0.1c-0.4-0.1-0.8-0.2-1.3-0.5
		C112.2,149.7,111.8,149.4,111.5,149.1z"/>
	<path class="st1" d="M120.1,147.8l2.3,1.3c0.5,0.3,1,0.7,1.3,1.1c0.3,0.4,0.5,0.9,0.5,1.4c0,0.5-0.1,1-0.3,1.5
		c-0.3,0.5-0.6,0.8-1,1.1s-0.9,0.3-1.4,0.3c-0.5,0-1.1-0.2-1.6-0.5l-2.3-1.3L120.1,147.8z M120.2,153.1c0.5,0.3,1,0.4,1.4,0.3
		c0.4-0.1,0.8-0.4,1-0.8c0.2-0.5,0.3-0.9,0.1-1.4c-0.1-0.4-0.5-0.8-1-1.1l-1-0.6l-1.6,3L120.2,153.1z"/>
	<path class="st1" d="M127.7,157.5l-0.5,0.9l-3.8-2.3l2.6-4.9l3.7,2.2l-0.5,0.9l-2.6-1.5l-0.6,1.1l2.3,1.4l-0.5,0.9l-2.3-1.4
		l-0.6,1.1L127.7,157.5z"/>
	<path class="st1" d="M135.9,157.4c0.2,0.3,0.4,0.7,0.4,1.1c0,0.4,0,0.7-0.2,1.1c-0.2,0.4-0.4,0.6-0.8,0.8c-0.3,0.2-0.7,0.2-1.1,0.2
		c-0.4,0-0.8-0.2-1.3-0.5l-1-0.6l-0.7,1.3l-1.1-0.7l2.6-4.9l2.1,1.3C135.3,156.7,135.6,157,135.9,157.4z M134.3,159.3
		c0.3,0,0.5-0.2,0.6-0.5c0.1-0.3,0.2-0.5,0.1-0.8s-0.3-0.5-0.7-0.7l-0.9-0.5l-0.9,1.7l0.9,0.5C133.7,159.3,134,159.3,134.3,159.3z"
		/>
	<path class="st1" d="M138.8,163.8l-2.3-1.4l-1,0.8l-1.2-0.7l4.8-3.6l1.1,0.7l-0.4,6.2l-1.2-0.7L138.8,163.8z M138.9,162.8l0.2-2.3
		l-1.8,1.4L138.9,162.8z"/>
	<path class="st1" d="M145,165.6l1,0.6l-1.1,2c-0.4,0-0.8,0-1.2-0.1c-0.4-0.1-0.8-0.3-1.2-0.5c-0.5-0.3-0.9-0.7-1.2-1.1
		c-0.3-0.5-0.5-0.9-0.5-1.5c0-0.5,0.1-1,0.3-1.5c0.3-0.5,0.6-0.8,1-1.1c0.4-0.2,0.9-0.4,1.5-0.3c0.5,0,1.1,0.2,1.6,0.5
		c0.4,0.3,0.8,0.6,1.1,0.9c0.3,0.4,0.5,0.7,0.6,1.2l-1.1,0.2c-0.2-0.6-0.5-1-1-1.3c-0.3-0.2-0.6-0.3-0.9-0.3c-0.3,0-0.6,0.1-0.9,0.2
		c-0.3,0.2-0.5,0.4-0.6,0.7c-0.2,0.3-0.2,0.6-0.2,0.9c0,0.3,0.1,0.6,0.3,0.9c0.2,0.3,0.4,0.5,0.7,0.7c0.3,0.2,0.7,0.3,1,0.3
		L145,165.6z"/>
	<path class="st1" d="M149.6,170.2l-2.3-1.4l-1,0.8l-1.2-0.7l4.8-3.6l1.1,0.7l-0.4,6.2l-1.2-0.7L149.6,170.2z M149.7,169.1l0.2-2.3
		l-1.8,1.4L149.7,169.1z"/>
	<path class="st1" d="M155.7,175.2l1.6-2.9l-2.7,1.6l-0.5-0.3l-0.2-3.2l-1.5,2.9l-1.1-0.6l2.6-4.9l0.9,0.6l0.2,4.1l3.4-2l0.9,0.6
		l-2.6,4.9L155.7,175.2z"/>
	<path class="st1" d="M162.3,177.8l-0.5,0.9l-3.8-2.3l2.6-4.9l3.7,2.2l-0.5,0.9l-2.6-1.5l-0.6,1.1l2.3,1.4l-0.5,0.9l-2.3-1.4
		l-0.6,1.1L162.3,177.8z"/>
	<path class="st1" d="M169.9,177.1l-2.6,4.9l-0.9-0.6l-0.9-4.4l-1.6,3l-1.1-0.7l2.6-4.9l0.9,0.6l0.9,4.4l1.6-3L169.9,177.1z"/>
	<path class="st1" d="M171.6,179.3l-1.6-0.9l0.5-0.9l4.3,2.5l-0.5,0.9l-1.6-0.9l-2.1,4l-1.1-0.7L171.6,179.3z"/>
	<path class="st1" d="M173.9,185.5c-0.3-0.5-0.5-1-0.5-1.5c0-0.5,0.1-1,0.3-1.5c0.3-0.5,0.6-0.8,1-1.1c0.4-0.2,0.9-0.4,1.5-0.3
		s1.1,0.2,1.6,0.5c0.5,0.3,0.9,0.7,1.2,1.1c0.3,0.5,0.5,1,0.5,1.5c0,0.5-0.1,1-0.3,1.5c-0.3,0.5-0.6,0.8-1,1.1
		c-0.4,0.2-0.9,0.4-1.5,0.3c-0.5,0-1-0.2-1.6-0.5C174.6,186.4,174.2,186,173.9,185.5z M176.5,186c0.3,0,0.6-0.1,0.9-0.2
		c0.3-0.2,0.5-0.4,0.6-0.7c0.2-0.3,0.2-0.6,0.2-0.9c0-0.3-0.1-0.6-0.3-0.9c-0.2-0.3-0.4-0.5-0.7-0.7s-0.6-0.3-0.9-0.3
		c-0.3,0-0.6,0.1-0.9,0.2c-0.3,0.2-0.5,0.4-0.6,0.7c-0.2,0.3-0.2,0.6-0.2,0.9c0,0.3,0.1,0.6,0.3,0.9c0.2,0.3,0.4,0.5,0.7,0.7
		S176.2,186,176.5,186z"/>
</g>
<g>
	<path class="st1" d="M90.3,186.3c-0.3-0.3-0.5-0.6-0.7-0.9l0.8-0.6c0.1,0.3,0.3,0.6,0.6,0.8c0.2,0.3,0.5,0.5,0.8,0.7
		c0.3,0.2,0.6,0.3,0.8,0.3c0.2,0,0.4-0.1,0.4-0.2c0.1-0.1,0.1-0.2,0-0.4c-0.1-0.1-0.1-0.3-0.3-0.4c-0.1-0.1-0.3-0.3-0.5-0.5
		c-0.3-0.3-0.6-0.6-0.8-0.8c-0.2-0.2-0.3-0.5-0.4-0.8c-0.1-0.3,0-0.6,0.2-0.9c0.2-0.3,0.4-0.5,0.6-0.6c0.3-0.1,0.6-0.2,1-0.1
		c0.4,0,0.8,0.2,1.3,0.5c0.3,0.2,0.6,0.4,0.9,0.7c0.3,0.3,0.5,0.5,0.6,0.8l-0.8,0.7c-0.3-0.5-0.7-0.9-1.2-1.2
		c-0.3-0.2-0.6-0.3-0.8-0.3c-0.2,0-0.4,0.1-0.4,0.3c-0.1,0.2-0.1,0.3,0.1,0.5c0.1,0.2,0.4,0.4,0.7,0.7c0.3,0.3,0.6,0.6,0.8,0.8
		c0.2,0.2,0.3,0.5,0.4,0.8c0.1,0.3,0,0.6-0.2,0.9c-0.1,0.3-0.4,0.5-0.6,0.6c-0.3,0.1-0.6,0.2-1,0.1c-0.4-0.1-0.8-0.2-1.3-0.5
		C91,186.9,90.6,186.7,90.3,186.3z"/>
	<path class="st1" d="M95.5,189.1c-0.3-0.5-0.5-1-0.5-1.5c0-0.5,0.1-1,0.3-1.5c0.3-0.5,0.6-0.8,1-1.1s0.9-0.4,1.5-0.3
		c0.5,0,1.1,0.2,1.6,0.5c0.5,0.3,0.9,0.7,1.2,1.1c0.3,0.5,0.5,1,0.5,1.5s-0.1,1-0.3,1.5c-0.3,0.5-0.6,0.8-1,1.1s-0.9,0.4-1.5,0.3
		c-0.5,0-1-0.2-1.6-0.5C96.2,190,95.8,189.6,95.5,189.1z M98.1,189.6c0.3,0,0.6-0.1,0.9-0.2c0.3-0.2,0.5-0.4,0.6-0.7
		c0.2-0.3,0.2-0.6,0.2-0.9c0-0.3-0.1-0.6-0.3-0.9c-0.2-0.3-0.4-0.5-0.7-0.7s-0.6-0.3-0.9-0.3c-0.3,0-0.6,0.1-0.9,0.2
		c-0.3,0.2-0.5,0.4-0.6,0.7c-0.2,0.3-0.2,0.6-0.2,0.9c0,0.3,0.1,0.6,0.3,0.9c0.2,0.3,0.4,0.5,0.7,0.7
		C97.5,189.5,97.8,189.6,98.1,189.6z"/>
	<path class="st1" d="M102.9,187.4l1.1,0.7l-2.1,4l2.5,1.5l-0.5,0.9l-3.6-2.1L102.9,187.4z"/>
	<path class="st1" d="M105.3,194.6c-0.2-0.6-0.1-1.3,0.3-2l1.5-2.7l1.1,0.7l-1.4,2.7c-0.5,0.9-0.3,1.5,0.4,2c0.4,0.2,0.7,0.3,1,0.2
		c0.3-0.1,0.6-0.4,0.8-0.8l1.4-2.7l1.1,0.7l-1.5,2.7c-0.4,0.7-0.9,1.2-1.5,1.3c-0.6,0.2-1.3,0-2-0.4
		C106,195.7,105.5,195.2,105.3,194.6z"/>
	<path class="st1" d="M110.9,200.6c-0.1-0.1-0.2-0.2-0.2-0.3l0.4-0.4c0.1,0.2,0.2,0.3,0.4,0.4c0.2,0.1,0.4,0.1,0.5,0
		c0.1-0.1,0-0.3-0.2-0.4l-0.2-0.1l0.6-0.6l0.6,0.3l-0.3,0.3c0.2,0.1,0.3,0.3,0.4,0.5c0,0.2,0,0.3-0.1,0.5c-0.1,0.2-0.3,0.3-0.6,0.3
		c-0.3,0-0.5-0.1-0.9-0.3C111.1,200.8,111,200.7,110.9,200.6z M111.2,198.4c-0.3-0.5-0.5-0.9-0.5-1.5c0-0.5,0.1-1,0.3-1.5
		c0.3-0.5,0.6-0.8,1-1.1c0.4-0.2,0.9-0.4,1.4-0.3c0.5,0,1,0.2,1.5,0.5c0.4,0.3,0.8,0.6,1,0.9c0.3,0.4,0.4,0.7,0.5,1.2l-1.1,0.2
		c-0.1-0.6-0.4-1-0.9-1.3c-0.3-0.2-0.6-0.3-0.9-0.3c-0.3,0-0.6,0.1-0.9,0.2c-0.3,0.2-0.5,0.4-0.6,0.7c-0.2,0.3-0.2,0.6-0.2,0.9
		c0,0.3,0.1,0.6,0.3,0.9c0.2,0.3,0.4,0.5,0.7,0.7c0.5,0.3,1,0.3,1.6,0.2l0.4,1.1c-0.4,0.1-0.8,0.2-1.2,0.1c-0.4-0.1-0.9-0.2-1.3-0.5
		C111.9,199.2,111.5,198.9,111.2,198.4z"/>
	<path class="st1" d="M116.3,201.4c-0.3-0.5-0.5-1-0.5-1.5c0-0.5,0.1-1,0.3-1.5c0.3-0.5,0.6-0.8,1-1.1c0.4-0.2,0.9-0.4,1.5-0.3
		c0.5,0,1.1,0.2,1.6,0.5c0.5,0.3,0.9,0.7,1.2,1.1c0.3,0.5,0.5,1,0.5,1.5c0,0.5-0.1,1-0.3,1.5c-0.3,0.5-0.6,0.8-1,1.1
		c-0.4,0.2-0.9,0.4-1.5,0.3c-0.5,0-1-0.2-1.6-0.5C117,202.2,116.6,201.8,116.3,201.4z M118.9,201.8c0.3,0,0.6-0.1,0.9-0.2
		c0.3-0.2,0.5-0.4,0.6-0.7c0.2-0.3,0.2-0.6,0.2-0.9c0-0.3-0.1-0.6-0.3-0.9c-0.2-0.3-0.4-0.5-0.7-0.7s-0.6-0.3-0.9-0.3
		c-0.3,0-0.6,0.1-0.9,0.2c-0.3,0.2-0.5,0.4-0.6,0.7c-0.2,0.3-0.2,0.6-0.2,0.9c0,0.3,0.1,0.6,0.3,0.9c0.2,0.3,0.4,0.5,0.7,0.7
		S118.6,201.8,118.9,201.8z M120.6,197.2c-0.1-0.1-0.1-0.2-0.2-0.4c0-0.1-0.1-0.2-0.1-0.2c0-0.1-0.1-0.1-0.1-0.1
		c-0.1-0.1-0.2-0.1-0.3,0c-0.1,0-0.2,0.1-0.3,0.2l-0.6-0.3c0.2-0.3,0.4-0.5,0.6-0.6c0.2-0.1,0.5-0.1,0.7,0.1
		c0.1,0.1,0.2,0.2,0.3,0.3c0.1,0.1,0.1,0.2,0.2,0.4c0,0.1,0.1,0.2,0.1,0.2c0,0.1,0.1,0.1,0.1,0.1c0.1,0.1,0.2,0.1,0.3,0
		c0.1,0,0.2-0.1,0.3-0.2l0.6,0.3c-0.2,0.3-0.4,0.5-0.6,0.6c-0.2,0.1-0.5,0.1-0.7-0.1C120.8,197.4,120.7,197.3,120.6,197.2z"/>
	<path class="st1" d="M125.5,205.9l-0.5,0.9l-3.8-2.3l2.6-4.9l3.7,2.2l-0.5,0.9l-2.6-1.5l-0.6,1.1l2.3,1.4l-0.5,0.9l-2.3-1.4
		l-0.6,1.1L125.5,205.9z"/>
	<path class="st1" d="M126.4,207.6c-0.3-0.3-0.5-0.6-0.7-0.9l0.8-0.6c0.1,0.3,0.3,0.6,0.6,0.8c0.2,0.3,0.5,0.5,0.8,0.7
		c0.3,0.2,0.6,0.3,0.8,0.3c0.2,0,0.4-0.1,0.4-0.2c0.1-0.1,0.1-0.2,0-0.4c-0.1-0.1-0.1-0.3-0.3-0.4c-0.1-0.1-0.3-0.3-0.5-0.5
		c-0.3-0.3-0.6-0.6-0.8-0.8s-0.3-0.5-0.4-0.8c-0.1-0.3,0-0.6,0.2-0.9c0.2-0.3,0.4-0.5,0.6-0.6c0.3-0.1,0.6-0.2,1-0.1
		c0.4,0,0.8,0.2,1.3,0.5c0.3,0.2,0.6,0.4,0.9,0.7c0.3,0.3,0.5,0.5,0.6,0.8l-0.8,0.7c-0.3-0.5-0.7-0.9-1.2-1.2
		c-0.3-0.2-0.6-0.3-0.8-0.3c-0.2,0-0.4,0.1-0.4,0.3s-0.1,0.3,0.1,0.5c0.1,0.2,0.4,0.4,0.7,0.7c0.3,0.3,0.6,0.6,0.8,0.8
		c0.2,0.2,0.3,0.5,0.4,0.8s0,0.6-0.2,0.9c-0.1,0.3-0.4,0.5-0.6,0.6c-0.3,0.1-0.6,0.2-1,0.1c-0.4-0.1-0.8-0.2-1.3-0.5
		C127.1,208.2,126.7,207.9,126.4,207.6z"/>
	<path class="st1" d="M135,206.3l1.1,0.7l-2.1,4l2.5,1.5l-0.5,0.9l-3.6-2.1L135,206.3z"/>
	<path class="st1" d="M137.8,214c-0.3-0.5-0.5-1-0.5-1.5c0-0.5,0.1-1,0.3-1.5c0.3-0.5,0.6-0.8,1-1.1c0.4-0.2,0.9-0.4,1.5-0.3
		c0.5,0,1.1,0.2,1.6,0.5c0.5,0.3,0.9,0.7,1.2,1.1c0.3,0.5,0.5,1,0.5,1.5c0,0.5-0.1,1-0.3,1.5c-0.3,0.5-0.6,0.8-1,1.1
		c-0.4,0.2-0.9,0.4-1.5,0.3c-0.5,0-1-0.2-1.6-0.5C138.5,214.8,138.1,214.5,137.8,214z M140.4,214.4c0.3,0,0.6-0.1,0.9-0.2
		s0.5-0.4,0.6-0.7c0.2-0.3,0.2-0.6,0.2-0.9c0-0.3-0.1-0.6-0.3-0.9c-0.2-0.3-0.4-0.5-0.7-0.7s-0.6-0.3-0.9-0.3
		c-0.3,0-0.6,0.1-0.9,0.2c-0.3,0.2-0.5,0.4-0.6,0.7c-0.2,0.3-0.2,0.6-0.2,0.9c0,0.3,0.1,0.6,0.3,0.9c0.2,0.3,0.4,0.5,0.7,0.7
		S140.1,214.4,140.4,214.4z"/>
	<path class="st1" d="M147.3,216.6l1,0.6l-1.1,2c-0.4,0-0.8,0-1.2-0.1c-0.4-0.1-0.8-0.3-1.2-0.5c-0.5-0.3-0.9-0.7-1.2-1.1
		c-0.3-0.5-0.5-0.9-0.5-1.5c0-0.5,0.1-1,0.3-1.5c0.3-0.5,0.6-0.8,1-1.1c0.4-0.2,0.9-0.4,1.5-0.3c0.5,0,1.1,0.2,1.6,0.5
		c0.4,0.3,0.8,0.6,1.1,0.9c0.3,0.4,0.5,0.7,0.6,1.2l-1.1,0.2c-0.2-0.6-0.5-1-1-1.3c-0.3-0.2-0.6-0.3-0.9-0.3c-0.3,0-0.6,0.1-0.9,0.2
		c-0.3,0.2-0.5,0.4-0.6,0.7c-0.2,0.3-0.2,0.6-0.2,0.9s0.1,0.6,0.3,0.9c0.2,0.3,0.4,0.5,0.7,0.7c0.3,0.2,0.7,0.3,1,0.3L147.3,216.6z"
		/>
	<path class="st1" d="M150.7,215.5l1.1,0.7l-2.6,4.9l-1.1-0.7L150.7,215.5z M152.3,214.6l1.2,0.7l-1.8,0.3l-0.9-0.5L152.3,214.6z"/>
	<path class="st1" d="M150.9,222c-0.3-0.3-0.5-0.6-0.7-0.9l0.8-0.6c0.1,0.3,0.3,0.6,0.6,0.8c0.2,0.3,0.5,0.5,0.8,0.7
		c0.3,0.2,0.6,0.3,0.8,0.3c0.2,0,0.4-0.1,0.4-0.2c0.1-0.1,0.1-0.2,0-0.4c-0.1-0.1-0.1-0.3-0.3-0.4c-0.1-0.1-0.3-0.3-0.5-0.5
		c-0.3-0.3-0.6-0.6-0.8-0.8c-0.2-0.2-0.3-0.5-0.4-0.8c-0.1-0.3,0-0.6,0.2-0.9c0.2-0.3,0.4-0.5,0.6-0.6c0.3-0.1,0.6-0.2,1-0.1
		c0.4,0,0.8,0.2,1.3,0.5c0.3,0.2,0.6,0.4,0.9,0.7c0.3,0.3,0.5,0.5,0.6,0.8l-0.8,0.7c-0.3-0.5-0.7-0.9-1.2-1.2
		c-0.3-0.2-0.6-0.3-0.8-0.3s-0.4,0.1-0.4,0.3c-0.1,0.2-0.1,0.3,0.1,0.5c0.1,0.2,0.4,0.4,0.7,0.7c0.3,0.3,0.6,0.6,0.8,0.8
		c0.2,0.2,0.3,0.5,0.4,0.8c0.1,0.3,0,0.6-0.2,0.9c-0.1,0.3-0.4,0.5-0.6,0.6c-0.3,0.1-0.6,0.2-1,0.1c-0.4-0.1-0.8-0.2-1.3-0.5
		C151.6,222.6,151.2,222.3,150.9,222z"/>
	<path class="st1" d="M158,221l-1.6-0.9l0.5-0.9l4.3,2.5l-0.5,0.9l-1.6-0.9l-2.1,4l-1.1-0.7L158,221z"/>
	<path class="st1" d="M161.8,222l1.1,0.7l-2.6,4.9l-1.1-0.7L161.8,222z"/>
	<path class="st1" d="M162.7,228.6c-0.3-0.5-0.5-0.9-0.5-1.5c0-0.5,0.1-1,0.3-1.5s0.6-0.8,1-1.1c0.4-0.2,0.9-0.4,1.4-0.3
		c0.5,0,1,0.2,1.5,0.5c0.4,0.3,0.8,0.6,1,0.9c0.3,0.4,0.4,0.7,0.5,1.2l-1.1,0.2c-0.1-0.6-0.4-1-0.9-1.3c-0.3-0.2-0.6-0.3-0.9-0.3
		c-0.3,0-0.6,0.1-0.9,0.2c-0.3,0.2-0.5,0.4-0.6,0.7c-0.2,0.3-0.2,0.6-0.2,0.9c0,0.3,0.1,0.6,0.3,0.9c0.2,0.3,0.4,0.5,0.7,0.7
		c0.5,0.3,1,0.3,1.6,0.2l0.4,1.1c-0.4,0.1-0.8,0.2-1.2,0.1s-0.9-0.2-1.3-0.5C163.4,229.5,163,229.1,162.7,228.6z"/>
	<path class="st1" d="M170.5,232.2l-2.3-1.4l-1,0.8l-1.2-0.7l4.8-3.6l1.1,0.7l-0.4,6.2l-1.2-0.7L170.5,232.2z M170.6,231.1l0.2-2.3
		l-1.8,1.4L170.6,231.1z"/>
	<path class="st1" d="M172.6,234.7c-0.3-0.3-0.5-0.6-0.7-0.9l0.8-0.6c0.1,0.3,0.3,0.6,0.6,0.8c0.2,0.3,0.5,0.5,0.8,0.7
		c0.3,0.2,0.6,0.3,0.8,0.3c0.2,0,0.4-0.1,0.4-0.2c0.1-0.1,0.1-0.2,0-0.4s-0.1-0.3-0.3-0.4c-0.1-0.1-0.3-0.3-0.5-0.5
		c-0.3-0.3-0.6-0.6-0.8-0.8c-0.2-0.2-0.3-0.5-0.4-0.8c-0.1-0.3,0-0.6,0.2-0.9c0.2-0.3,0.4-0.5,0.6-0.6c0.3-0.1,0.6-0.2,1-0.1
		c0.4,0,0.8,0.2,1.3,0.5c0.3,0.2,0.6,0.4,0.9,0.7c0.3,0.3,0.5,0.5,0.6,0.8l-0.8,0.7c-0.3-0.5-0.7-0.9-1.2-1.2
		c-0.3-0.2-0.6-0.3-0.8-0.3c-0.2,0-0.4,0.1-0.4,0.3c-0.1,0.2-0.1,0.3,0.1,0.5c0.1,0.2,0.4,0.4,0.7,0.7c0.3,0.3,0.6,0.6,0.8,0.8
		c0.2,0.2,0.3,0.5,0.4,0.8c0.1,0.3,0,0.6-0.2,0.9c-0.1,0.3-0.4,0.5-0.6,0.6c-0.3,0.1-0.6,0.2-1,0.1c-0.4-0.1-0.8-0.2-1.3-0.5
		C173.2,235.3,172.9,235,172.6,234.7z"/>
</g>
<g>
	<path class="st5" d="M102.3,238l1,0.6l-1.1,2c-0.4,0-0.8,0-1.2-0.1c-0.4-0.1-0.8-0.3-1.2-0.5c-0.5-0.3-0.9-0.7-1.2-1.1
		c-0.3-0.5-0.5-0.9-0.5-1.5c0-0.5,0.1-1,0.3-1.5c0.3-0.5,0.6-0.8,1-1.1c0.4-0.2,0.9-0.4,1.5-0.3c0.5,0,1.1,0.2,1.6,0.5
		c0.4,0.3,0.8,0.6,1.1,0.9c0.3,0.4,0.5,0.7,0.6,1.2l-1.1,0.2c-0.2-0.6-0.5-1-1-1.3c-0.3-0.2-0.6-0.3-0.9-0.3c-0.3,0-0.6,0.1-0.9,0.2
		c-0.3,0.2-0.5,0.4-0.6,0.7c-0.2,0.3-0.2,0.6-0.2,0.9s0.1,0.6,0.3,0.9c0.2,0.3,0.4,0.5,0.7,0.7c0.3,0.2,0.7,0.3,1,0.3L102.3,238z"/>
	<path class="st5" d="M107.4,243.2l-0.5,0.9l-3.8-2.3l2.6-4.9l3.7,2.2l-0.5,0.9l-2.6-1.5l-0.6,1.1l2.3,1.4l-0.5,0.9l-2.3-1.4
		l-0.6,1.1L107.4,243.2z"/>
	<path class="st5" d="M108.3,244.8c-0.3-0.3-0.5-0.6-0.7-0.9l0.8-0.6c0.1,0.3,0.3,0.6,0.6,0.8c0.2,0.3,0.5,0.5,0.8,0.7
		c0.3,0.2,0.6,0.3,0.8,0.3c0.2,0,0.4-0.1,0.4-0.2c0.1-0.1,0.1-0.2,0-0.4c-0.1-0.1-0.1-0.3-0.3-0.4c-0.1-0.1-0.3-0.3-0.5-0.5
		c-0.3-0.3-0.6-0.6-0.8-0.8c-0.2-0.2-0.3-0.5-0.4-0.8c-0.1-0.3,0-0.6,0.2-0.9c0.2-0.3,0.4-0.5,0.6-0.6c0.3-0.1,0.6-0.2,1-0.1
		c0.4,0,0.8,0.2,1.3,0.5c0.3,0.2,0.6,0.4,0.9,0.7c0.3,0.3,0.5,0.5,0.6,0.8l-0.8,0.7c-0.3-0.5-0.7-0.9-1.2-1.2
		c-0.3-0.2-0.6-0.3-0.8-0.3c-0.2,0-0.4,0.1-0.4,0.3c-0.1,0.2-0.1,0.3,0.1,0.5c0.1,0.2,0.4,0.4,0.7,0.7c0.3,0.3,0.6,0.6,0.8,0.8
		c0.2,0.2,0.3,0.5,0.4,0.8s0,0.6-0.2,0.9c-0.1,0.3-0.4,0.5-0.6,0.6c-0.3,0.1-0.6,0.2-1,0.1c-0.4-0.1-0.8-0.2-1.3-0.5
		C109,245.4,108.6,245.1,108.3,244.8z"/>
	<path class="st5" d="M115.4,243.8l-1.6-0.9l0.5-0.9l4.3,2.5l-0.5,0.9l-1.6-0.9l-2.1,4l-1.1-0.7L115.4,243.8z"/>
	<path class="st5" d="M120.2,250.5l-2.3-1.4l-1,0.8l-1.2-0.7l4.8-3.6l1.1,0.7l-0.4,6.2l-1.2-0.7L120.2,250.5z M120.3,249.4l0.2-2.3
		l-1.8,1.4L120.3,249.4z M121.5,245.7c-0.1-0.1-0.1-0.2-0.2-0.4c0-0.1-0.1-0.2-0.1-0.2c0-0.1-0.1-0.1-0.1-0.1
		c-0.1-0.1-0.2-0.1-0.3,0c-0.1,0-0.2,0.1-0.3,0.2l-0.6-0.3c0.2-0.3,0.4-0.5,0.6-0.6c0.2-0.1,0.5-0.1,0.7,0.1
		c0.1,0.1,0.2,0.2,0.3,0.3c0.1,0.1,0.1,0.2,0.2,0.4c0,0.1,0.1,0.2,0.1,0.2c0,0.1,0.1,0.1,0.1,0.1c0.1,0.1,0.2,0.1,0.3,0
		c0.1,0,0.2-0.1,0.2-0.2l0.6,0.3c-0.2,0.3-0.4,0.5-0.6,0.6c-0.2,0.1-0.5,0.1-0.7-0.1C121.7,245.9,121.6,245.8,121.5,245.7z"/>
	<path class="st5" d="M122.9,253.1c-0.3-0.5-0.5-1-0.5-1.5c0-0.5,0.1-1,0.3-1.5c0.3-0.5,0.6-0.8,1-1.1c0.4-0.2,0.9-0.4,1.5-0.3
		c0.5,0,1.1,0.2,1.6,0.5c0.5,0.3,0.9,0.7,1.2,1.1c0.3,0.5,0.5,1,0.5,1.5c0,0.5-0.1,1-0.3,1.5c-0.3,0.5-0.6,0.8-1,1.1
		c-0.4,0.2-0.9,0.4-1.5,0.3c-0.5,0-1-0.2-1.6-0.5C123.6,254,123.2,253.6,122.9,253.1z M125.5,253.6c0.3,0,0.6-0.1,0.9-0.2
		c0.3-0.2,0.5-0.4,0.6-0.7c0.2-0.3,0.2-0.6,0.2-0.9c0-0.3-0.1-0.6-0.3-0.9c-0.2-0.3-0.4-0.5-0.7-0.7s-0.6-0.3-0.9-0.3
		c-0.3,0-0.6,0.1-0.9,0.2c-0.3,0.2-0.5,0.4-0.6,0.7c-0.2,0.3-0.2,0.6-0.2,0.9c0,0.3,0.1,0.6,0.3,0.9c0.2,0.3,0.4,0.5,0.7,0.7
		C124.9,253.5,125.2,253.6,125.5,253.6z"/>
	<path class="st5" d="M132.3,252.6l2.3,1.3c0.5,0.3,1,0.7,1.3,1.1c0.3,0.4,0.5,0.9,0.5,1.4c0,0.5-0.1,1-0.3,1.5
		c-0.3,0.5-0.6,0.8-1,1.1c-0.4,0.2-0.9,0.3-1.4,0.3c-0.5,0-1.1-0.2-1.6-0.5l-2.3-1.3L132.3,252.6z M132.4,257.8
		c0.5,0.3,1,0.4,1.4,0.3c0.4-0.1,0.8-0.4,1-0.8c0.2-0.5,0.3-0.9,0.1-1.4c-0.1-0.4-0.5-0.8-1-1.1l-1-0.6l-1.6,3L132.4,257.8z"/>
	<path class="st5" d="M139.9,262.3l-0.5,0.9l-3.8-2.3l2.6-4.9l3.7,2.2l-0.5,0.9l-2.6-1.5l-0.6,1.1l2.3,1.4l-0.5,0.9l-2.3-1.4
		l-0.6,1.1L139.9,262.3z"/>
	<path class="st5" d="M145.5,266.7l-0.2-1.9l-0.1,0l-1-0.6l-0.7,1.4l-1.1-0.7l2.6-4.9l2.1,1.3c0.4,0.3,0.8,0.6,1,0.9
		c0.2,0.3,0.4,0.7,0.4,1.1s0,0.7-0.2,1.1c-0.2,0.4-0.4,0.6-0.8,0.8c-0.3,0.2-0.7,0.2-1.1,0.2l0.3,2.2L145.5,266.7z M147.2,262.8
		c-0.1-0.3-0.3-0.5-0.7-0.7l-0.9-0.5l-0.9,1.7l0.9,0.5c0.3,0.2,0.6,0.3,0.9,0.2c0.3,0,0.5-0.2,0.6-0.5
		C147.3,263.3,147.3,263.1,147.2,262.8z"/>
	<path class="st5" d="M150.1,263.1l1.1,0.7l-2.6,4.9l-1.1-0.7L150.1,263.1z"/>
	<path class="st5" d="M150.4,269.5c-0.3-0.3-0.5-0.6-0.7-0.9l0.8-0.6c0.1,0.3,0.3,0.6,0.6,0.8c0.2,0.3,0.5,0.5,0.8,0.7
		c0.3,0.2,0.6,0.3,0.8,0.3c0.2,0,0.4-0.1,0.4-0.2c0.1-0.1,0.1-0.2,0-0.4c-0.1-0.1-0.1-0.3-0.3-0.4c-0.1-0.1-0.3-0.3-0.5-0.5
		c-0.3-0.3-0.6-0.6-0.8-0.8c-0.2-0.2-0.3-0.5-0.4-0.8c-0.1-0.3,0-0.6,0.2-0.9c0.2-0.3,0.4-0.5,0.6-0.6c0.3-0.1,0.6-0.2,1-0.1
		c0.4,0,0.8,0.2,1.3,0.5c0.3,0.2,0.6,0.4,0.9,0.7c0.3,0.3,0.5,0.5,0.6,0.8l-0.8,0.7c-0.3-0.5-0.7-0.9-1.2-1.2
		c-0.3-0.2-0.6-0.3-0.8-0.3c-0.2,0-0.4,0.1-0.4,0.3c-0.1,0.2-0.1,0.3,0.1,0.5c0.1,0.2,0.4,0.4,0.7,0.7c0.3,0.3,0.6,0.6,0.8,0.8
		c0.2,0.2,0.3,0.5,0.4,0.8c0.1,0.3,0,0.6-0.2,0.9c-0.1,0.3-0.4,0.5-0.6,0.6c-0.3,0.1-0.6,0.2-1,0.1c-0.4-0.1-0.8-0.2-1.3-0.5
		C151,270.1,150.7,269.9,150.4,269.5z"/>
	<path class="st5" d="M155.5,272.3c-0.3-0.5-0.5-0.9-0.5-1.5c0-0.5,0.1-1,0.3-1.5c0.3-0.5,0.6-0.8,1-1.1c0.4-0.2,0.9-0.4,1.4-0.3
		c0.5,0,1,0.2,1.5,0.5c0.4,0.3,0.8,0.6,1,0.9c0.3,0.4,0.4,0.7,0.5,1.2l-1.1,0.2c-0.1-0.6-0.4-1-0.9-1.3c-0.3-0.2-0.6-0.3-0.9-0.3
		c-0.3,0-0.6,0.1-0.9,0.2c-0.3,0.2-0.5,0.4-0.6,0.7c-0.2,0.3-0.2,0.6-0.2,0.9c0,0.3,0.1,0.6,0.3,0.9c0.2,0.3,0.4,0.5,0.7,0.7
		c0.5,0.3,1,0.3,1.6,0.2l0.4,1.1c-0.4,0.1-0.8,0.2-1.2,0.1c-0.4-0.1-0.9-0.2-1.3-0.5C156.2,273.2,155.8,272.8,155.5,272.3z"/>
	<path class="st5" d="M160.6,275.3c-0.3-0.5-0.5-1-0.5-1.5c0-0.5,0.1-1,0.3-1.5c0.3-0.5,0.6-0.8,1-1.1c0.4-0.2,0.9-0.4,1.5-0.3
		c0.5,0,1.1,0.2,1.6,0.5c0.5,0.3,0.9,0.7,1.2,1.1c0.3,0.5,0.5,1,0.5,1.5c0,0.5-0.1,1-0.3,1.5c-0.3,0.5-0.6,0.8-1,1.1
		c-0.4,0.2-0.9,0.4-1.5,0.3c-0.5,0-1-0.2-1.6-0.5C161.3,276.1,160.9,275.8,160.6,275.3z M163.2,275.8c0.3,0,0.6-0.1,0.9-0.2
		c0.3-0.2,0.5-0.4,0.6-0.7c0.2-0.3,0.2-0.6,0.2-0.9c0-0.3-0.1-0.6-0.3-0.9c-0.2-0.3-0.4-0.5-0.7-0.7c-0.3-0.2-0.6-0.3-0.9-0.3
		c-0.3,0-0.6,0.1-0.9,0.2c-0.3,0.2-0.5,0.4-0.6,0.7c-0.2,0.3-0.2,0.6-0.2,0.9c0,0.3,0.1,0.6,0.3,0.9c0.2,0.3,0.4,0.5,0.7,0.7
		S162.9,275.7,163.2,275.8z"/>
</g>
<g>
	<path class="st1" d="M106.7,291l1.6-2.9l-2.7,1.6l-0.5-0.3l-0.2-3.2l-1.5,2.9l-1.1-0.6l2.6-4.9l0.9,0.6l0.2,4.1l3.4-2l0.9,0.6
		l-2.6,4.9L106.7,291z"/>
	<path class="st1" d="M112.8,293.2l-2.3-1.4l-1,0.8l-1.2-0.7l4.8-3.6l1.1,0.7l-0.4,6.2l-1.2-0.7L112.8,293.2z M112.9,292.1l0.2-2.3
		l-1.8,1.4L112.9,292.1z"/>
	<path class="st1" d="M117.5,297.3l-0.2-1.9l-0.1,0l-1-0.6l-0.7,1.4l-1.1-0.7l2.6-4.9l2.1,1.3c0.4,0.3,0.8,0.6,1,0.9
		c0.2,0.3,0.4,0.7,0.4,1.1s0,0.7-0.2,1.1c-0.2,0.4-0.4,0.6-0.8,0.8s-0.7,0.2-1.1,0.2l0.3,2.2L117.5,297.3z M119.2,293.4
		c-0.1-0.3-0.3-0.5-0.7-0.7l-0.9-0.5l-0.9,1.7l0.9,0.5c0.3,0.2,0.6,0.3,0.9,0.2c0.3,0,0.5-0.2,0.6-0.5
		C119.3,293.9,119.3,293.7,119.2,293.4z"/>
	<path class="st1" d="M122.4,297.7l-1,0.3l-0.7,1.2l-1.1-0.7l2.6-4.9l1.1,0.7l-1.2,2.3l3.4-1l1.3,0.7l-3.2,1l0.7,4l-1.3-0.8
		L122.4,297.7z"/>
	<path class="st1" d="M129.1,303l-0.5,0.9l-3.8-2.3l2.6-4.9l3.7,2.2l-0.5,0.9l-2.6-1.5l-0.6,1.1l2.3,1.4l-0.5,0.9l-2.3-1.4l-0.6,1.1
		L129.1,303z"/>
	<path class="st1" d="M132.7,301.1l-1.6-0.9l0.5-0.9l4.3,2.5l-0.5,0.9l-1.6-0.9l-2.1,4l-1.1-0.7L132.7,301.1z"/>
	<path class="st1" d="M139.7,304.3c0.2,0.3,0.4,0.7,0.4,1.1c0,0.4,0,0.7-0.2,1.1c-0.2,0.4-0.4,0.6-0.8,0.8c-0.3,0.2-0.7,0.2-1.1,0.2
		c-0.4,0-0.8-0.2-1.3-0.5l-1-0.6l-0.7,1.3l-1.1-0.7l2.6-4.9l2.1,1.3C139.1,303.6,139.5,303.9,139.7,304.3z M138.1,306.2
		c0.3,0,0.5-0.2,0.6-0.5c0.1-0.3,0.2-0.5,0.1-0.8s-0.3-0.5-0.7-0.7l-0.9-0.5l-0.9,1.7l0.9,0.5C137.6,306.2,137.9,306.2,138.1,306.2z
		"/>
	<path class="st1" d="M141.7,305.1l1.1,0.7l-2.1,4l2.5,1.5l-0.5,0.9l-3.6-2.1L141.7,305.1z"/>
	<path class="st1" d="M147.2,313.4l-2.3-1.4l-1,0.8l-1.2-0.7l4.8-3.6l1.1,0.7l-0.4,6.2l-1.2-0.7L147.2,313.4z M147.3,312.3l0.2-2.3
		l-1.8,1.4L147.3,312.3z"/>
	<path class="st1" d="M149.9,316c-0.3-0.5-0.5-0.9-0.5-1.5c0-0.5,0.1-1,0.3-1.5c0.3-0.5,0.6-0.8,1-1.1c0.4-0.2,0.9-0.4,1.4-0.3
		c0.5,0,1,0.2,1.5,0.5c0.4,0.3,0.8,0.6,1,0.9c0.3,0.4,0.4,0.7,0.5,1.2l-1.1,0.2c-0.1-0.6-0.4-1-0.9-1.3c-0.3-0.2-0.6-0.3-0.9-0.3
		s-0.6,0.1-0.9,0.2c-0.3,0.2-0.5,0.4-0.6,0.7c-0.2,0.3-0.2,0.6-0.2,0.9c0,0.3,0.1,0.6,0.3,0.9c0.2,0.3,0.4,0.5,0.7,0.7
		c0.5,0.3,1,0.3,1.6,0.2l0.4,1.1c-0.4,0.1-0.8,0.2-1.2,0.1c-0.4-0.1-0.9-0.2-1.3-0.5C150.6,316.9,150.2,316.5,149.9,316z"/>
	<path class="st1" d="M158.3,320.1l-0.5,0.9l-3.8-2.3l2.6-4.9l3.7,2.2l-0.5,0.9l-2.6-1.5l-0.6,1.1l2.3,1.4l-0.5,0.9l-2.3-1.4
		l-0.6,1.1L158.3,320.1z"/>
	<path class="st1" d="M159.2,321.8c-0.3-0.3-0.5-0.6-0.7-0.9l0.8-0.6c0.1,0.3,0.3,0.5,0.6,0.8c0.2,0.3,0.5,0.5,0.8,0.7
		c0.3,0.2,0.6,0.3,0.8,0.3c0.2,0,0.4-0.1,0.4-0.2c0.1-0.1,0.1-0.2,0-0.4s-0.1-0.3-0.3-0.4c-0.1-0.1-0.3-0.3-0.5-0.5
		c-0.3-0.3-0.6-0.6-0.8-0.8c-0.2-0.2-0.3-0.5-0.4-0.8c-0.1-0.3,0-0.6,0.2-0.9c0.2-0.3,0.4-0.5,0.6-0.6c0.3-0.1,0.6-0.2,1-0.1
		c0.4,0,0.8,0.2,1.3,0.5c0.3,0.2,0.6,0.4,0.9,0.7c0.3,0.3,0.5,0.5,0.6,0.8l-0.8,0.7c-0.3-0.5-0.7-0.9-1.2-1.2
		c-0.3-0.2-0.6-0.3-0.8-0.3c-0.2,0-0.4,0.1-0.4,0.3c-0.1,0.2-0.1,0.3,0.1,0.5c0.1,0.2,0.4,0.4,0.7,0.7c0.3,0.3,0.6,0.6,0.8,0.8
		c0.2,0.2,0.3,0.5,0.4,0.8c0.1,0.3,0,0.6-0.2,0.9c-0.1,0.3-0.4,0.5-0.6,0.6c-0.3,0.1-0.6,0.2-1,0.1c-0.4-0.1-0.8-0.2-1.3-0.5
		C159.9,322.3,159.5,322.1,159.2,321.8z"/>
</g>
<g>
	<path class="st1" d="M117.2,340.4c-0.3-0.5-0.5-0.9-0.5-1.5c0-0.5,0.1-1,0.3-1.5c0.3-0.5,0.6-0.8,1-1.1c0.4-0.2,0.9-0.4,1.4-0.3
		c0.5,0,1,0.2,1.5,0.5c0.4,0.3,0.8,0.6,1,0.9c0.3,0.4,0.4,0.7,0.5,1.2l-1.1,0.2c-0.1-0.6-0.4-1-0.9-1.3c-0.3-0.2-0.6-0.3-0.9-0.3
		c-0.3,0-0.6,0.1-0.9,0.2c-0.3,0.2-0.5,0.4-0.6,0.7c-0.2,0.3-0.2,0.6-0.2,0.9c0,0.3,0.1,0.6,0.3,0.9c0.2,0.3,0.4,0.5,0.7,0.7
		c0.5,0.3,1,0.3,1.6,0.2l0.4,1.1c-0.4,0.1-0.8,0.2-1.2,0.1c-0.4-0.1-0.9-0.2-1.3-0.5C117.9,341.2,117.5,340.8,117.2,340.4z"/>
	<path class="st1" d="M124.4,344.9l-0.2-1.9l-0.1,0l-1-0.6l-0.7,1.4l-1.1-0.7l2.6-4.9l2.1,1.3c0.4,0.3,0.8,0.6,1,0.9
		c0.2,0.3,0.4,0.7,0.4,1.1c0,0.4,0,0.7-0.2,1.1s-0.4,0.6-0.8,0.8c-0.3,0.2-0.7,0.2-1.1,0.2l0.3,2.2L124.4,344.9z M126.1,341
		c-0.1-0.3-0.3-0.5-0.7-0.7l-0.9-0.5l-0.9,1.7l0.9,0.5c0.3,0.2,0.6,0.3,0.9,0.2c0.3,0,0.5-0.2,0.6-0.5
		C126.2,341.5,126.2,341.2,126.1,341z"/>
	<path class="st1" d="M130.9,348.8l1.6-2.9l-2.7,1.6l-0.5-0.3l-0.2-3.2l-1.5,2.9l-1.1-0.6l2.6-4.9l0.9,0.6l0.2,4.1l3.4-2l0.9,0.6
		l-2.6,4.9L130.9,348.8z"/>
	<path class="st1" d="M136.7,345.5c0.1,0.2,0,0.4-0.1,0.6c0,0.1-0.1,0.2-0.2,0.3c-0.1,0.1-0.2,0.2-0.4,0.3l-0.9,0.8l-0.7-0.4
		l0.9-0.9c-0.1-0.1-0.1-0.3-0.2-0.4c0-0.1,0-0.3,0.1-0.4c0.1-0.2,0.3-0.3,0.5-0.4c0.2,0,0.4,0,0.6,0.1
		C136.5,345.2,136.7,345.3,136.7,345.5z"/>
	<path class="st1" d="M135.7,351.5c-0.3-0.3-0.5-0.6-0.7-0.9l0.8-0.6c0.1,0.3,0.3,0.5,0.6,0.8c0.2,0.3,0.5,0.5,0.8,0.7
		c0.3,0.2,0.6,0.3,0.8,0.3c0.2,0,0.4-0.1,0.4-0.2c0.1-0.1,0.1-0.2,0-0.4s-0.1-0.3-0.3-0.4c-0.1-0.1-0.3-0.3-0.5-0.5
		c-0.3-0.3-0.6-0.6-0.8-0.8s-0.3-0.5-0.4-0.8c-0.1-0.3,0-0.6,0.2-0.9c0.2-0.3,0.4-0.5,0.6-0.6c0.3-0.1,0.6-0.2,1-0.1
		c0.4,0,0.8,0.2,1.3,0.5c0.3,0.2,0.6,0.4,0.9,0.7c0.3,0.3,0.5,0.5,0.6,0.8l-0.8,0.7c-0.3-0.5-0.7-0.9-1.2-1.2
		c-0.3-0.2-0.6-0.3-0.8-0.3c-0.2,0-0.4,0.1-0.4,0.3c-0.1,0.2-0.1,0.3,0.1,0.5c0.1,0.2,0.4,0.4,0.7,0.7c0.3,0.3,0.6,0.6,0.8,0.8
		c0.2,0.2,0.3,0.5,0.4,0.8s0,0.6-0.2,0.9c-0.1,0.3-0.4,0.5-0.6,0.6c-0.3,0.1-0.6,0.2-1,0.1c-0.4-0.1-0.8-0.2-1.3-0.5
		C136.3,352,136,351.8,135.7,351.5z"/>
</g>
<g>
	<path class="st5" d="M89.5,373.8c-0.3-0.5-0.5-1-0.5-1.5c0-0.5,0.1-1,0.3-1.5c0.3-0.5,0.6-0.8,1-1.1c0.4-0.2,0.9-0.4,1.5-0.3
		c0.5,0,1.1,0.2,1.6,0.5c0.5,0.3,0.9,0.7,1.2,1.1c0.3,0.5,0.5,1,0.5,1.5c0,0.5-0.1,1-0.3,1.5c-0.3,0.5-0.6,0.8-1,1.1
		c-0.4,0.2-0.9,0.4-1.5,0.3c-0.5,0-1-0.2-1.6-0.5C90.2,374.6,89.8,374.2,89.5,373.8z M92.1,374.2c0.3,0,0.6-0.1,0.9-0.2
		s0.5-0.4,0.6-0.7s0.2-0.6,0.2-0.9c0-0.3-0.1-0.6-0.3-0.9c-0.2-0.3-0.4-0.5-0.7-0.7c-0.3-0.2-0.6-0.3-0.9-0.3
		c-0.3,0-0.6,0.1-0.9,0.2c-0.3,0.2-0.5,0.4-0.6,0.7c-0.2,0.3-0.2,0.6-0.2,0.9c0,0.3,0.1,0.6,0.3,0.9c0.2,0.3,0.4,0.5,0.7,0.7
		C91.5,374.1,91.8,374.2,92.1,374.2z"/>
	<path class="st5" d="M95.2,376.7c-0.2-0.6-0.1-1.3,0.3-2l1.5-2.7l1.1,0.7l-1.4,2.7c-0.5,0.9-0.3,1.5,0.4,2c0.4,0.2,0.7,0.3,1,0.2
		c0.3-0.1,0.6-0.4,0.8-0.8l1.4-2.7l1.1,0.7l-1.5,2.7c-0.4,0.7-0.9,1.2-1.5,1.3c-0.6,0.2-1.3,0-2-0.4
		C95.8,377.9,95.4,377.4,95.2,376.7z"/>
	<path class="st5" d="M103,376.8l-1.6-0.9l0.5-0.9l4.3,2.5l-0.5,0.9l-1.6-0.9l-2.1,4l-1.1-0.7L103,376.8z"/>
	<path class="st5" d="M107.4,384.6l-0.2-1.9l-0.1,0l-1-0.6l-0.7,1.4l-1.1-0.7l2.6-4.9l2.1,1.3c0.4,0.3,0.8,0.6,1,0.9
		c0.2,0.3,0.4,0.7,0.4,1.1c0,0.4,0,0.7-0.2,1.1c-0.2,0.4-0.4,0.6-0.8,0.8c-0.3,0.2-0.7,0.2-1.1,0.2l0.3,2.2L107.4,384.6z
		 M109.1,380.7c-0.1-0.3-0.3-0.5-0.7-0.7l-0.9-0.5l-0.9,1.7l0.9,0.5c0.3,0.2,0.6,0.3,0.9,0.2c0.3,0,0.5-0.2,0.6-0.5
		C109.2,381.2,109.2,380.9,109.1,380.7z"/>
	<path class="st5" d="M113.3,386.7l-2.3-1.4l-1,0.8l-1.2-0.7l4.8-3.6l1.1,0.7l-0.4,6.2l-1.2-0.7L113.3,386.7z M113.4,385.6l0.2-2.3
		l-1.8,1.4L113.4,385.6z"/>
	<path class="st5" d="M115.4,389.2c-0.3-0.3-0.5-0.6-0.7-0.9l0.8-0.6c0.1,0.3,0.3,0.6,0.6,0.8c0.2,0.3,0.5,0.5,0.8,0.7
		c0.3,0.2,0.6,0.3,0.8,0.3c0.2,0,0.4-0.1,0.4-0.2c0.1-0.1,0.1-0.2,0-0.4c-0.1-0.1-0.1-0.3-0.3-0.4c-0.1-0.1-0.3-0.3-0.5-0.5
		c-0.3-0.3-0.6-0.6-0.8-0.8c-0.2-0.2-0.3-0.5-0.4-0.8c-0.1-0.3,0-0.6,0.2-0.9c0.2-0.3,0.4-0.5,0.6-0.6c0.3-0.1,0.6-0.2,1-0.1
		c0.4,0.1,0.8,0.2,1.3,0.5c0.3,0.2,0.6,0.4,0.9,0.7c0.3,0.3,0.5,0.5,0.6,0.8l-0.8,0.7c-0.3-0.5-0.7-0.9-1.2-1.2
		c-0.3-0.2-0.6-0.3-0.8-0.3c-0.2,0-0.4,0.1-0.4,0.3c-0.1,0.2-0.1,0.3,0.1,0.5s0.4,0.4,0.7,0.7c0.3,0.3,0.6,0.6,0.8,0.8
		c0.2,0.2,0.3,0.5,0.4,0.8c0.1,0.3,0,0.6-0.2,0.9c-0.1,0.3-0.4,0.5-0.6,0.6c-0.3,0.1-0.6,0.2-1,0.1c-0.4-0.1-0.8-0.2-1.3-0.5
		C116,389.8,115.7,389.5,115.4,389.2z"/>
	<path class="st5" d="M124.7,389.5l-0.7,1.3l2.3,1.3l-0.5,0.9l-2.3-1.3l-1,1.8l-1.1-0.7l2.6-4.9l3.7,2.2l-0.5,0.9L124.7,389.5z"/>
	<path class="st5" d="M130.2,396.8l-0.5,0.9l-3.8-2.3l2.6-4.9l3.7,2.2l-0.5,0.9l-2.6-1.5l-0.6,1.1l2.3,1.4l-0.5,0.9l-2.3-1.4
		l-0.6,1.1L130.2,396.8z"/>
	<path class="st5" d="M133.8,400.1l-0.2-1.9l-0.1,0l-1-0.6l-0.7,1.4l-1.1-0.7l2.6-4.9l2.1,1.3c0.4,0.3,0.8,0.6,1,0.9
		c0.2,0.3,0.4,0.7,0.4,1.1s0,0.7-0.2,1.1c-0.2,0.4-0.4,0.6-0.8,0.8c-0.3,0.2-0.7,0.2-1.1,0.2l0.3,2.2L133.8,400.1z M135.5,396.2
		c-0.1-0.3-0.3-0.5-0.7-0.7l-0.9-0.5l-0.9,1.7l0.9,0.5c0.3,0.2,0.6,0.3,0.9,0.2c0.3,0,0.5-0.2,0.6-0.5
		C135.6,396.7,135.6,396.5,135.5,396.2z"/>
	<path class="st5" d="M139,403.2l-0.2-1.9l-0.1,0l-1-0.6L137,402l-1.1-0.7l2.6-4.9l2.1,1.3c0.4,0.3,0.8,0.6,1,0.9
		c0.2,0.3,0.4,0.7,0.4,1.1c0,0.4,0,0.7-0.2,1.1c-0.2,0.4-0.4,0.6-0.8,0.8c-0.3,0.2-0.7,0.2-1.1,0.2l0.3,2.2L139,403.2z M140.7,399.3
		c-0.1-0.3-0.3-0.5-0.7-0.7l-0.9-0.5l-0.9,1.7l0.9,0.5c0.3,0.2,0.6,0.3,0.9,0.2c0.3,0,0.5-0.2,0.6-0.5
		C140.8,399.8,140.8,399.5,140.7,399.3z"/>
	<path class="st5" d="M144.9,405.2l-2.3-1.4l-1,0.8l-1.2-0.7l4.8-3.6l1.1,0.7l-0.4,6.2l-1.2-0.7L144.9,405.2z M145,404.2l0.2-2.3
		l-1.8,1.4L145,404.2z"/>
	<path class="st5" d="M151,410.2l1.6-2.9l-2.7,1.6l-0.5-0.3l-0.2-3.2l-1.5,2.9l-1.1-0.6l2.6-4.9l0.9,0.6l0.2,4.1l3.4-2l0.9,0.6
		l-2.6,4.9L151,410.2z"/>
	<path class="st5" d="M157.6,412.9l-0.5,0.9l-3.8-2.3l2.6-4.9l3.7,2.2l-0.5,0.9l-2.6-1.5l-0.6,1.1l2.3,1.4l-0.5,0.9l-2.3-1.4
		l-0.6,1.1L157.6,412.9z"/>
	<path class="st5" d="M165.2,412.1l-2.6,4.9l-0.9-0.6l-0.9-4.4l-1.6,3l-1.1-0.7l2.6-4.9l0.9,0.6l0.9,4.4l1.6-3L165.2,412.1z"/>
	<path class="st5" d="M166.9,414.3l-1.6-0.9l0.5-0.9l4.3,2.5l-0.5,0.9L168,415l-2.1,4l-1.1-0.7L166.9,414.3z"/>
	<path class="st5" d="M171.7,421l-2.3-1.4l-1,0.8l-1.2-0.7l4.8-3.6l1.1,0.7l-0.4,6.2l-1.2-0.7L171.7,421z M171.8,419.9l0.2-2.3
		l-1.8,1.4L171.8,419.9z"/>
	<path class="st5" d="M173.8,423.5c-0.3-0.3-0.5-0.6-0.7-0.9l0.8-0.6c0.1,0.3,0.3,0.6,0.6,0.8c0.2,0.3,0.5,0.5,0.8,0.7
		c0.3,0.2,0.6,0.3,0.8,0.3c0.2,0,0.4-0.1,0.4-0.2c0.1-0.1,0.1-0.2,0-0.4c-0.1-0.1-0.1-0.3-0.3-0.4c-0.1-0.1-0.3-0.3-0.5-0.5
		c-0.3-0.3-0.6-0.6-0.8-0.8c-0.2-0.2-0.3-0.5-0.4-0.8c-0.1-0.3,0-0.6,0.2-0.9c0.2-0.3,0.4-0.5,0.6-0.6c0.3-0.1,0.6-0.2,1-0.1
		c0.4,0,0.8,0.2,1.3,0.5c0.3,0.2,0.6,0.4,0.9,0.7c0.3,0.3,0.5,0.5,0.6,0.8l-0.8,0.7c-0.3-0.5-0.7-0.9-1.2-1.2
		c-0.3-0.2-0.6-0.3-0.8-0.3s-0.4,0.1-0.4,0.3c-0.1,0.2-0.1,0.3,0.1,0.5c0.1,0.2,0.4,0.4,0.7,0.7c0.3,0.3,0.6,0.6,0.8,0.8
		c0.2,0.2,0.3,0.5,0.4,0.8c0.1,0.3,0,0.6-0.2,0.9c-0.1,0.3-0.4,0.5-0.6,0.6c-0.3,0.1-0.6,0.2-1,0.1c-0.4-0.1-0.8-0.2-1.3-0.5
		C174.5,424.1,174.1,423.9,173.8,423.5z"/>
</g>
<g>
	<path class="st1" d="M222.1,184l-1.5-2.9l-0.2,3.3l-0.5,0.3l-2.7-1.4l1.5,2.8l-1.1,0.7l-2.5-4.8l1-0.6l3.4,1.9l0.3-4.1l1-0.6
		l2.5,4.8L222.1,184z"/>
	<path class="st1" d="M227.8,179.4l0.5,0.9l-3.9,2.3l-2.5-4.8l3.8-2.3l0.5,0.9l-2.6,1.6l0.5,1l2.3-1.4l0.5,0.9l-2.3,1.4l0.6,1.1
		L227.8,179.4z"/>
	<path class="st1" d="M226.7,174.9l1.2-0.7l2.5,4.8l-1.2,0.7L226.7,174.9z"/>
	<path class="st1" d="M232.5,177.5c-0.5,0-1-0.1-1.4-0.3c-0.4-0.2-0.8-0.6-1-1.1c-0.2-0.5-0.3-1-0.3-1.5c0-0.5,0.2-1,0.5-1.5
		c0.3-0.5,0.7-0.9,1.2-1.2c0.5-0.3,1-0.5,1.6-0.5c0.5,0,1,0.1,1.4,0.3c0.4,0.2,0.8,0.6,1,1.1c0.2,0.5,0.3,1,0.3,1.5
		c0,0.5-0.2,1-0.5,1.5s-0.7,0.9-1.2,1.2C233.5,177.3,233,177.5,232.5,177.5z M234.3,175.4c0.2-0.3,0.3-0.6,0.3-0.9
		c0-0.3-0.1-0.6-0.2-0.9c-0.2-0.3-0.4-0.5-0.6-0.7c-0.3-0.2-0.5-0.2-0.8-0.2c-0.3,0-0.6,0.1-0.9,0.3c-0.3,0.2-0.5,0.4-0.7,0.7
		c-0.2,0.3-0.3,0.6-0.3,0.9c0,0.3,0.1,0.6,0.2,0.9c0.2,0.3,0.4,0.5,0.6,0.7c0.3,0.2,0.5,0.2,0.8,0.2c0.3,0,0.6-0.1,0.9-0.3
		C233.9,175.8,234.1,175.6,234.3,175.4z"/>
	<path class="st1" d="M238.1,174.4c-0.4,0.1-0.8,0.2-1.1,0.1l0-1.1c0.3,0,0.6,0,1-0.1c0.3-0.1,0.7-0.2,1-0.4
		c0.3-0.2,0.5-0.4,0.7-0.6c0.1-0.2,0.1-0.4,0-0.5c-0.1-0.1-0.2-0.2-0.3-0.2c-0.1,0-0.3,0-0.5,0c-0.2,0-0.4,0.1-0.7,0.2
		c-0.4,0.1-0.8,0.2-1.1,0.3c-0.3,0.1-0.6,0-0.8,0c-0.3-0.1-0.5-0.3-0.7-0.6c-0.1-0.3-0.2-0.6-0.2-0.9c0-0.3,0.2-0.6,0.4-1
		c0.2-0.3,0.6-0.6,1.1-0.9c0.3-0.2,0.7-0.3,1-0.5c0.3-0.1,0.7-0.2,1-0.2l0.1,1.1c-0.6,0-1.1,0.2-1.6,0.5c-0.3,0.2-0.5,0.4-0.6,0.6
		c-0.1,0.2-0.1,0.4,0,0.5c0.1,0.2,0.2,0.2,0.5,0.2c0.2,0,0.5-0.1,0.9-0.3c0.4-0.1,0.8-0.2,1.1-0.3c0.3-0.1,0.6,0,0.8,0
		c0.3,0.1,0.5,0.3,0.7,0.6c0.1,0.3,0.2,0.6,0.2,0.9c0,0.3-0.2,0.6-0.4,1c-0.3,0.3-0.6,0.6-1.1,0.9
		C238.9,174.1,238.5,174.2,238.1,174.4z"/>
	<path class="st1" d="M241.8,166l2.3-1.4c0.5-0.3,1.1-0.5,1.6-0.6c0.5-0.1,1,0,1.4,0.3c0.4,0.2,0.8,0.6,1,1.1c0.3,0.5,0.4,1,0.3,1.5
		s-0.2,1-0.5,1.4c-0.3,0.4-0.7,0.8-1.3,1.2l-2.3,1.4L241.8,166z M246,168.5c0.5-0.3,0.8-0.7,1-1.1c0.2-0.4,0.1-0.9-0.1-1.4
		c-0.2-0.5-0.6-0.7-1-0.8s-0.9,0-1.4,0.3l-1.1,0.6l1.6,3L246,168.5z"/>
	<path class="st1" d="M253.6,164l0.5,0.9l-3.9,2.3l-2.5-4.8l3.8-2.3l0.5,0.9l-2.6,1.6l0.5,1l2.3-1.4l0.5,0.9l-2.3,1.4l0.6,1.1
		L253.6,164z"/>
	<path class="st1" d="M258,156.6c0.4-0.1,0.8,0,1.1,0.2c0.3,0.2,0.6,0.4,0.7,0.8c0.2,0.4,0.3,0.7,0.2,1.1c0,0.4-0.2,0.7-0.4,1.1
		c-0.3,0.3-0.6,0.6-1,0.9l-1,0.6l0.7,1.3l-1.2,0.7l-2.5-4.8l2.2-1.3C257.1,156.8,257.6,156.6,258,156.6z M258.7,159
		c0.1-0.3,0.1-0.5,0-0.8c-0.1-0.3-0.3-0.4-0.6-0.5c-0.3,0-0.6,0.1-0.9,0.3l-0.9,0.6l0.9,1.7l0.9-0.6
		C258.3,159.4,258.6,159.2,258.7,159z"/>
	<path class="st1" d="M264.7,157.2l-2.3,1.4l0.1,1.3l-1.2,0.7l-0.3-6.1l1.1-0.7l4.8,3.5l-1.2,0.7L264.7,157.2z M263.9,156.6
		l-1.8-1.4l0.2,2.3L263.9,156.6z"/>
	<path class="st1" d="M269.5,152.5l1.1-0.6l1,1.9c-0.2,0.4-0.4,0.7-0.7,1c-0.3,0.3-0.6,0.6-1,0.8c-0.5,0.3-1,0.5-1.6,0.5
		c-0.5,0-1-0.1-1.4-0.3c-0.4-0.2-0.8-0.6-1-1.1c-0.2-0.5-0.4-1-0.3-1.5c0-0.5,0.2-1,0.5-1.5s0.7-0.9,1.3-1.2
		c0.4-0.3,0.9-0.4,1.3-0.5c0.4-0.1,0.8,0,1.2,0.1l-0.4,1.1c-0.5-0.1-1.1-0.1-1.6,0.2c-0.3,0.2-0.6,0.4-0.8,0.7
		c-0.2,0.3-0.3,0.6-0.3,0.9c0,0.3,0.1,0.6,0.2,0.9c0.2,0.3,0.4,0.5,0.6,0.7c0.3,0.2,0.5,0.2,0.9,0.2c0.3,0,0.6-0.1,0.9-0.3
		c0.3-0.2,0.6-0.4,0.8-0.7L269.5,152.5z"/>
	<path class="st1" d="M275.7,150.6l-2.3,1.4l0.1,1.3l-1.2,0.7l-0.3-6.1l1.1-0.7l4.8,3.5l-1.2,0.7L275.7,150.6z M274.9,150l-1.8-1.4
		l0.2,2.3L274.9,150z"/>
	<path class="st1" d="M283,147.6l-1.5-2.9l-0.2,3.3l-0.5,0.3l-2.7-1.4l1.5,2.8l-1.1,0.7l-2.5-4.8l1-0.6l3.4,1.9l0.3-4.1l1-0.6
		l2.5,4.8L283,147.6z"/>
	<path class="st1" d="M288.7,143.1l0.5,0.9l-3.9,2.3l-2.5-4.8l3.8-2.3l0.5,0.9l-2.6,1.6l0.5,1l2.3-1.4l0.5,0.9l-2.3,1.4l0.6,1.1
		L288.7,143.1z"/>
	<path class="st1" d="M292.2,135.8l2.5,4.8l-1,0.6l-4-1.4l1.5,2.9l-1.1,0.7l-2.5-4.8l1-0.6l4,1.4l-1.5-2.9L292.2,135.8z"/>
	<path class="st1" d="M294.9,135.4l-1.6,1l-0.5-0.9l4.4-2.6l0.5,0.9l-1.6,1l2,3.9l-1.2,0.7L294.9,135.4z"/>
	<path class="st1" d="M301.2,136.5c-0.5,0-1-0.1-1.4-0.3c-0.4-0.2-0.8-0.6-1-1.1s-0.3-1-0.3-1.5c0-0.5,0.2-1,0.5-1.5
		c0.3-0.5,0.7-0.9,1.2-1.2c0.5-0.3,1-0.5,1.6-0.5c0.5,0,1,0.1,1.4,0.3c0.4,0.2,0.8,0.6,1,1.1c0.2,0.5,0.3,1,0.3,1.5
		c0,0.5-0.2,1-0.5,1.5s-0.7,0.9-1.2,1.2C302.2,136.3,301.7,136.4,301.2,136.5z M302.9,134.3c0.2-0.3,0.3-0.6,0.3-0.9
		c0-0.3-0.1-0.6-0.2-0.9c-0.2-0.3-0.4-0.5-0.6-0.7c-0.3-0.2-0.5-0.2-0.8-0.2c-0.3,0-0.6,0.1-0.9,0.3c-0.3,0.2-0.5,0.4-0.7,0.7
		c-0.2,0.3-0.3,0.6-0.3,0.9c0,0.3,0.1,0.6,0.2,0.9c0.2,0.3,0.4,0.5,0.6,0.7c0.3,0.2,0.5,0.2,0.8,0.2c0.3,0,0.6-0.1,0.9-0.3
		C302.5,134.8,302.8,134.6,302.9,134.3z"/>
</g>
<g>
	<path class="st1" d="M216.8,234.7c-0.4,0.1-0.8,0.2-1.1,0.1l0-1.1c0.3,0,0.6,0,1-0.1c0.3-0.1,0.7-0.2,1-0.4
		c0.3-0.2,0.5-0.4,0.7-0.6c0.1-0.2,0.1-0.4,0-0.5c-0.1-0.1-0.2-0.2-0.3-0.2c-0.1,0-0.3,0-0.5,0c-0.2,0-0.4,0.1-0.7,0.2
		c-0.4,0.1-0.8,0.2-1.1,0.3c-0.3,0.1-0.6,0-0.8,0c-0.3-0.1-0.5-0.3-0.7-0.6c-0.1-0.3-0.2-0.6-0.2-0.9c0-0.3,0.2-0.6,0.4-1
		s0.6-0.6,1.1-0.9c0.3-0.2,0.7-0.3,1-0.5c0.3-0.1,0.7-0.2,1-0.2l0.1,1.1c-0.6,0-1.1,0.2-1.6,0.5c-0.3,0.2-0.5,0.4-0.6,0.6
		c-0.1,0.2-0.1,0.4,0,0.5c0.1,0.2,0.2,0.2,0.5,0.2c0.2,0,0.5-0.1,0.9-0.3c0.4-0.1,0.8-0.2,1.1-0.3c0.3-0.1,0.6,0,0.8,0
		c0.3,0.1,0.5,0.3,0.7,0.6c0.1,0.3,0.2,0.6,0.2,0.9c0,0.3-0.2,0.6-0.4,1c-0.3,0.3-0.6,0.6-1.1,0.9
		C217.7,234.4,217.2,234.6,216.8,234.7z"/>
	<path class="st1" d="M221.8,231.5c-0.5,0-1-0.1-1.4-0.3c-0.4-0.2-0.8-0.6-1-1.1c-0.2-0.5-0.3-1-0.3-1.5c0-0.5,0.2-1,0.5-1.5
		c0.3-0.5,0.7-0.9,1.2-1.2c0.5-0.3,1-0.5,1.6-0.5c0.5,0,1,0.1,1.4,0.3c0.4,0.2,0.8,0.6,1,1.1c0.2,0.5,0.3,1,0.3,1.5
		c0,0.5-0.2,1-0.5,1.5s-0.7,0.9-1.2,1.2C222.9,231.3,222.4,231.5,221.8,231.5z M223.6,229.4c0.2-0.3,0.3-0.6,0.3-0.9
		c0-0.3-0.1-0.6-0.2-0.9c-0.2-0.3-0.4-0.5-0.6-0.7c-0.3-0.2-0.5-0.2-0.8-0.2c-0.3,0-0.6,0.1-0.9,0.3s-0.5,0.4-0.7,0.7
		c-0.2,0.3-0.3,0.6-0.3,0.9c0,0.3,0.1,0.6,0.2,0.9c0.2,0.3,0.4,0.5,0.6,0.7c0.3,0.2,0.5,0.2,0.8,0.2c0.3,0,0.6-0.1,0.9-0.3
		C223.2,229.8,223.4,229.6,223.6,229.4z"/>
	<path class="st1" d="M224.5,223.9l1.2-0.7l2,3.9l2.5-1.5l0.5,0.9l-3.7,2.2L224.5,223.9z"/>
	<path class="st1" d="M231.6,225.4c-0.6-0.1-1.1-0.6-1.4-1.3l-1.4-2.7l1.2-0.7l1.4,2.6c0.4,0.9,1,1.1,1.8,0.6
		c0.4-0.2,0.6-0.5,0.7-0.8c0.1-0.3,0-0.7-0.2-1.1l-1.4-2.6l1.1-0.7l1.4,2.7c0.4,0.7,0.5,1.4,0.2,2c-0.2,0.6-0.7,1.1-1.4,1.6
		S232.2,225.5,231.6,225.4z"/>
	<path class="st1" d="M237.8,222c-0.5,0-1-0.1-1.4-0.3c-0.4-0.2-0.8-0.6-1-1.1c-0.2-0.5-0.4-1-0.3-1.5c0-0.5,0.2-1,0.5-1.5
		c0.3-0.5,0.7-0.8,1.2-1.2c0.4-0.3,0.9-0.4,1.3-0.5c0.4-0.1,0.8,0,1.2,0.1l-0.4,1.1c-0.5-0.2-1.1-0.1-1.6,0.2
		c-0.3,0.2-0.6,0.4-0.7,0.7c-0.2,0.3-0.3,0.6-0.3,0.9c0,0.3,0.1,0.6,0.2,0.9c0.2,0.3,0.4,0.5,0.6,0.7c0.3,0.2,0.5,0.2,0.9,0.2
		c0.3,0,0.6-0.1,0.9-0.3c0.5-0.3,0.8-0.7,1-1.3l1.1,0.2c-0.1,0.4-0.3,0.8-0.6,1.2c-0.3,0.4-0.6,0.7-1.1,0.9
		C238.8,221.8,238.3,221.9,237.8,222z M239.4,223.4c-0.1,0-0.3,0.1-0.4,0.1l-0.1-0.6c0.2,0,0.4-0.1,0.5-0.2c0.2-0.1,0.3-0.3,0.3-0.4
		c-0.1-0.1-0.2-0.1-0.5,0l-0.2,0.1l-0.2-0.8l0.6-0.4l0.1,0.5c0.2-0.1,0.4-0.1,0.6-0.1c0.2,0,0.3,0.1,0.4,0.3c0.1,0.2,0.1,0.4,0,0.7
		c-0.1,0.2-0.4,0.4-0.7,0.6C239.6,223.3,239.5,223.3,239.4,223.4z"/>
	<path class="st1" d="M242,212.9c-0.1,0-0.3,0-0.4,0c-0.1,0-0.2,0-0.3,0c-0.1,0-0.1,0-0.2,0c-0.1,0.1-0.2,0.1-0.2,0.2
		c0,0.1,0,0.2,0,0.3l-0.6,0.3c-0.1-0.3-0.2-0.6-0.1-0.9c0.1-0.3,0.2-0.5,0.5-0.6c0.1-0.1,0.2-0.1,0.4-0.1c0.1,0,0.3,0,0.4,0
		c0.1,0,0.2,0,0.3,0s0.1,0,0.2,0c0.1-0.1,0.2-0.1,0.2-0.2c0-0.1,0-0.2,0-0.3l0.6-0.3c0.1,0.3,0.2,0.6,0.1,0.9
		c-0.1,0.3-0.2,0.5-0.5,0.6C242.2,212.9,242.1,212.9,242,212.9z M243,218.9c-0.5,0-1-0.1-1.4-0.3c-0.4-0.2-0.8-0.6-1-1.1
		c-0.2-0.5-0.3-1-0.3-1.5c0-0.5,0.2-1,0.5-1.5c0.3-0.5,0.7-0.9,1.2-1.2c0.5-0.3,1-0.5,1.6-0.5c0.5,0,1,0.1,1.4,0.3s0.8,0.6,1,1.1
		s0.3,1,0.3,1.5c0,0.5-0.2,1-0.5,1.5c-0.3,0.5-0.7,0.9-1.2,1.2C244,218.7,243.5,218.8,243,218.9z M244.7,216.7
		c0.2-0.3,0.3-0.6,0.3-0.9c0-0.3-0.1-0.6-0.2-0.9c-0.2-0.3-0.4-0.5-0.6-0.7c-0.3-0.2-0.5-0.2-0.8-0.2c-0.3,0-0.6,0.1-0.9,0.3
		c-0.3,0.2-0.5,0.4-0.7,0.7c-0.2,0.3-0.3,0.6-0.3,0.9c0,0.3,0.1,0.6,0.2,0.9c0.2,0.3,0.4,0.5,0.6,0.7c0.3,0.2,0.5,0.2,0.8,0.2
		c0.3,0,0.6-0.1,0.9-0.3C244.3,217.2,244.6,217,244.7,216.7z"/>
	<path class="st1" d="M251.5,212.9l0.5,0.9l-3.9,2.3l-2.5-4.8l3.8-2.3l0.5,0.9l-2.6,1.6l0.5,1l2.3-1.4l0.5,0.9l-2.3,1.4l0.6,1.1
		L251.5,212.9z"/>
	<path class="st1" d="M253.4,212.9c-0.4,0.1-0.8,0.2-1.1,0.1l0-1.1c0.3,0,0.6,0,1-0.1c0.3-0.1,0.7-0.2,1-0.4
		c0.3-0.2,0.5-0.4,0.7-0.6c0.1-0.2,0.1-0.4,0-0.5c-0.1-0.1-0.2-0.2-0.3-0.2c-0.1,0-0.3,0-0.5,0s-0.4,0.1-0.7,0.2
		c-0.4,0.1-0.8,0.2-1.1,0.3c-0.3,0.1-0.6,0-0.8,0c-0.3-0.1-0.5-0.3-0.7-0.6c-0.1-0.3-0.2-0.6-0.2-0.9c0-0.3,0.2-0.6,0.4-1
		s0.6-0.6,1.1-0.9c0.3-0.2,0.7-0.3,1-0.5c0.3-0.1,0.7-0.2,1-0.2l0.1,1.1c-0.6,0-1.1,0.2-1.6,0.5c-0.3,0.2-0.5,0.4-0.6,0.6
		c-0.1,0.2-0.1,0.4,0,0.5c0.1,0.2,0.2,0.2,0.5,0.2c0.2,0,0.5-0.1,0.9-0.3c0.4-0.1,0.8-0.2,1.1-0.3c0.3-0.1,0.6,0,0.8,0
		c0.3,0.1,0.5,0.3,0.7,0.6c0.1,0.3,0.2,0.6,0.2,0.9c0,0.3-0.2,0.6-0.4,1c-0.3,0.3-0.6,0.6-1.1,0.9
		C254.2,212.6,253.8,212.7,253.4,212.9z"/>
	<path class="st1" d="M257,204.5l1.2-0.7l2,3.9l2.5-1.5l0.5,0.9l-3.7,2.2L257,204.5z"/>
	<path class="st1" d="M264.7,205.9c-0.5,0-1-0.1-1.4-0.3c-0.4-0.2-0.8-0.6-1-1.1c-0.2-0.5-0.3-1-0.3-1.5c0-0.5,0.2-1,0.5-1.5
		c0.3-0.5,0.7-0.9,1.2-1.2c0.5-0.3,1-0.5,1.6-0.5c0.5,0,1,0.1,1.4,0.3c0.4,0.2,0.8,0.6,1,1.1c0.2,0.5,0.3,1,0.3,1.5
		c0,0.5-0.2,1-0.5,1.5c-0.3,0.5-0.7,0.9-1.2,1.2C265.8,205.7,265.2,205.9,264.7,205.9z M266.5,203.7c0.2-0.3,0.3-0.6,0.3-0.9
		c0-0.3-0.1-0.6-0.2-0.9c-0.2-0.3-0.4-0.5-0.6-0.7c-0.3-0.2-0.5-0.2-0.8-0.2c-0.3,0-0.6,0.1-0.9,0.3c-0.3,0.2-0.5,0.4-0.7,0.7
		c-0.2,0.3-0.3,0.6-0.3,0.9c0,0.3,0.1,0.6,0.2,0.9c0.2,0.3,0.4,0.5,0.6,0.7c0.3,0.2,0.5,0.2,0.8,0.2c0.3,0,0.6-0.1,0.9-0.3
		C266.1,204.2,266.3,204,266.5,203.7z"/>
	<path class="st1" d="M272,198.6l1.1-0.6l1,1.9c-0.2,0.4-0.4,0.7-0.7,1c-0.3,0.3-0.6,0.6-1,0.8c-0.5,0.3-1,0.5-1.6,0.5
		c-0.5,0-1-0.1-1.4-0.3c-0.4-0.2-0.8-0.6-1-1.1c-0.2-0.5-0.4-1-0.3-1.5c0-0.5,0.2-1,0.5-1.5s0.7-0.9,1.3-1.2
		c0.4-0.3,0.9-0.4,1.3-0.5c0.4-0.1,0.8,0,1.2,0.1l-0.4,1.1c-0.5-0.1-1.1-0.1-1.6,0.2c-0.3,0.2-0.6,0.4-0.8,0.7
		c-0.2,0.3-0.3,0.6-0.3,0.9c0,0.3,0.1,0.6,0.2,0.9c0.2,0.3,0.4,0.5,0.6,0.7c0.3,0.2,0.5,0.2,0.9,0.2c0.3,0,0.6-0.1,0.9-0.3
		c0.3-0.2,0.6-0.4,0.8-0.7L272,198.6z"/>
	<path class="st1" d="M273,193.1l1.2-0.7l-0.8,1.8l-0.9,0.5L273,193.1z M272.9,195l1.2-0.7l2.5,4.8l-1.2,0.7L272.9,195z"/>
	<path class="st1" d="M278.2,198c-0.4,0.1-0.8,0.2-1.1,0.1l0-1.1c0.3,0,0.6,0,1-0.1c0.3-0.1,0.7-0.2,1-0.4c0.3-0.2,0.5-0.4,0.7-0.6
		c0.1-0.2,0.1-0.4,0-0.5c-0.1-0.1-0.2-0.2-0.3-0.2c-0.1,0-0.3,0-0.5,0c-0.2,0-0.4,0.1-0.7,0.2c-0.4,0.1-0.8,0.2-1.1,0.3
		c-0.3,0.1-0.6,0-0.8,0c-0.3-0.1-0.5-0.3-0.7-0.6c-0.1-0.3-0.2-0.6-0.2-0.9c0-0.3,0.2-0.6,0.4-1c0.2-0.3,0.6-0.6,1.1-0.9
		c0.3-0.2,0.7-0.3,1-0.5c0.3-0.1,0.7-0.2,1-0.2l0.1,1.1c-0.6,0-1.1,0.2-1.6,0.5c-0.3,0.2-0.5,0.4-0.6,0.6c-0.1,0.2-0.1,0.4,0,0.5
		c0.1,0.2,0.2,0.2,0.5,0.2c0.2,0,0.5-0.1,0.9-0.3c0.4-0.1,0.8-0.2,1.1-0.3c0.3-0.1,0.6,0,0.8,0c0.3,0.1,0.5,0.3,0.7,0.6
		c0.1,0.3,0.2,0.6,0.2,0.9c0,0.3-0.2,0.6-0.4,1c-0.3,0.3-0.6,0.6-1.1,0.9C279,197.7,278.6,197.9,278.2,198z"/>
	<path class="st1" d="M281.3,191.2l-1.6,1l-0.5-0.9l4.4-2.6l0.5,0.9l-1.6,1l2,3.9l-1.2,0.7L281.3,191.2z"/>
	<path class="st1" d="M284.2,188.3l1.2-0.7l2.5,4.8l-1.2,0.7L284.2,188.3z"/>
	<path class="st1" d="M289.9,190.8c-0.5,0-1-0.1-1.4-0.3c-0.4-0.2-0.8-0.6-1-1.1c-0.2-0.5-0.4-1-0.3-1.5c0-0.5,0.2-1,0.5-1.5
		c0.3-0.5,0.7-0.8,1.2-1.2c0.4-0.3,0.9-0.4,1.3-0.5c0.4-0.1,0.8,0,1.2,0.1l-0.4,1.1c-0.5-0.2-1.1-0.1-1.6,0.2
		c-0.3,0.2-0.6,0.4-0.7,0.7c-0.2,0.3-0.3,0.6-0.3,0.9c0,0.3,0.1,0.6,0.2,0.9c0.2,0.3,0.4,0.5,0.6,0.7c0.3,0.2,0.5,0.2,0.9,0.2
		c0.3,0,0.6-0.1,0.9-0.3c0.5-0.3,0.8-0.7,1-1.3l1.1,0.2c-0.1,0.4-0.3,0.8-0.6,1.2c-0.3,0.4-0.6,0.7-1.1,0.9
		C291,190.6,290.4,190.8,289.9,190.8z"/>
	<path class="st1" d="M297,185.6l-2.3,1.4l0.1,1.3l-1.2,0.7l-0.3-6.1l1.1-0.7l4.8,3.5l-1.2,0.7L297,185.6z M296.2,185l-1.8-1.4
		l0.2,2.3L296.2,185z"/>
	<path class="st1" d="M300.2,184.9c-0.4,0.1-0.8,0.2-1.1,0.1l0-1.1c0.3,0,0.6,0,1-0.1c0.3-0.1,0.7-0.2,1-0.4
		c0.3-0.2,0.5-0.4,0.7-0.6c0.1-0.2,0.1-0.4,0-0.5c-0.1-0.1-0.2-0.2-0.3-0.2c-0.1,0-0.3,0-0.5,0c-0.2,0-0.4,0.1-0.7,0.2
		c-0.4,0.1-0.8,0.2-1.1,0.3c-0.3,0.1-0.6,0-0.8,0c-0.3-0.1-0.5-0.3-0.7-0.6c-0.1-0.3-0.2-0.6-0.2-0.9c0-0.3,0.2-0.6,0.4-1
		c0.2-0.3,0.6-0.6,1.1-0.9c0.3-0.2,0.7-0.3,1-0.5c0.3-0.1,0.7-0.2,1-0.2l0.1,1.1c-0.6,0-1.1,0.2-1.6,0.5c-0.3,0.2-0.5,0.4-0.6,0.6
		c-0.1,0.2-0.1,0.4,0,0.5c0.1,0.2,0.2,0.2,0.5,0.2c0.2,0,0.5-0.1,0.9-0.3c0.4-0.1,0.8-0.2,1.1-0.3c0.3-0.1,0.6,0,0.8,0
		c0.3,0.1,0.5,0.3,0.7,0.6c0.1,0.3,0.2,0.6,0.2,0.9c0,0.3-0.2,0.6-0.4,1c-0.3,0.3-0.6,0.6-1.1,0.9
		C301,184.6,300.6,184.8,300.2,184.9z"/>
</g>
<g>
	<path class="st5" d="M226.6,274.3l1.1-0.6l1,1.9c-0.2,0.4-0.4,0.7-0.7,1s-0.6,0.6-1,0.8c-0.5,0.3-1,0.5-1.6,0.5
		c-0.5,0-1-0.1-1.4-0.3c-0.4-0.2-0.8-0.6-1-1.1c-0.2-0.5-0.4-1-0.3-1.5c0-0.5,0.2-1,0.5-1.5c0.3-0.5,0.7-0.9,1.3-1.2
		c0.4-0.3,0.9-0.4,1.3-0.5c0.4-0.1,0.8,0,1.2,0.1l-0.4,1.1c-0.5-0.1-1.1-0.1-1.6,0.2c-0.3,0.2-0.6,0.4-0.8,0.7
		c-0.2,0.3-0.3,0.6-0.3,0.9c0,0.3,0.1,0.6,0.2,0.9c0.2,0.3,0.4,0.5,0.6,0.7c0.3,0.2,0.5,0.2,0.9,0.2c0.3,0,0.6-0.1,0.9-0.3
		c0.3-0.2,0.6-0.4,0.8-0.7L226.6,274.3z"/>
	<path class="st5" d="M233.4,272.3l0.5,0.9l-3.9,2.3l-2.5-4.8l3.8-2.3l0.5,0.9l-2.6,1.6l0.5,1l2.3-1.4l0.5,0.9l-2.3,1.4l0.6,1.1
		L233.4,272.3z"/>
	<path class="st5" d="M235.3,272.3c-0.4,0.1-0.8,0.2-1.1,0.1l0-1.1c0.3,0,0.6,0,1-0.1c0.3-0.1,0.7-0.2,1-0.4
		c0.3-0.2,0.5-0.4,0.7-0.6c0.1-0.2,0.1-0.4,0-0.5c-0.1-0.1-0.2-0.2-0.3-0.2c-0.1,0-0.3,0-0.5,0c-0.2,0-0.4,0.1-0.7,0.2
		c-0.4,0.1-0.8,0.2-1.1,0.3c-0.3,0.1-0.6,0-0.8,0c-0.3-0.1-0.5-0.3-0.7-0.6c-0.1-0.3-0.2-0.6-0.2-0.9c0-0.3,0.2-0.6,0.4-1
		c0.2-0.3,0.6-0.6,1.1-0.9c0.3-0.2,0.7-0.3,1-0.5c0.3-0.1,0.7-0.2,1-0.2l0.1,1.1c-0.6,0-1.1,0.2-1.6,0.5c-0.3,0.2-0.5,0.4-0.6,0.6
		c-0.1,0.2-0.1,0.4,0,0.5c0.1,0.2,0.2,0.2,0.5,0.2c0.2,0,0.5-0.1,0.9-0.3c0.4-0.1,0.8-0.2,1.1-0.3c0.3-0.1,0.6,0,0.8,0
		c0.3,0.1,0.5,0.3,0.7,0.6c0.1,0.3,0.2,0.6,0.2,0.9c0,0.3-0.2,0.6-0.4,1c-0.3,0.3-0.6,0.6-1.1,0.9
		C236.1,272,235.7,272.2,235.3,272.3z"/>
	<path class="st5" d="M238.4,265.5l-1.6,1l-0.5-0.9l4.4-2.6l0.5,0.9l-1.6,1l2,3.9l-1.2,0.7L238.4,265.5z"/>
	<path class="st5" d="M243.1,260.8c-0.1,0-0.3,0-0.4,0c-0.1,0-0.2,0-0.3,0s-0.1,0-0.2,0c-0.1,0.1-0.2,0.1-0.2,0.2c0,0.1,0,0.2,0,0.3
		l-0.6,0.3c-0.2-0.3-0.2-0.6-0.1-0.9c0.1-0.3,0.2-0.5,0.5-0.6c0.1-0.1,0.2-0.1,0.4-0.1c0.1,0,0.3,0,0.4,0c0.1,0,0.2,0,0.3,0
		c0.1,0,0.1,0,0.2,0c0.1-0.1,0.2-0.1,0.2-0.2c0-0.1,0-0.2,0-0.3l0.6-0.3c0.1,0.3,0.2,0.6,0.1,0.9c-0.1,0.3-0.2,0.5-0.5,0.6
		C243.4,260.8,243.3,260.8,243.1,260.8z M246.3,264.5l-2.3,1.4l0.1,1.3l-1.2,0.7l-0.3-6.1l1.1-0.7l4.8,3.5l-1.2,0.7L246.3,264.5z
		 M245.5,263.8l-1.8-1.4l0.2,2.3L245.5,263.8z"/>
	<path class="st5" d="M249.9,263.4c-0.5,0-1-0.1-1.4-0.3c-0.4-0.2-0.8-0.6-1-1.1c-0.2-0.5-0.3-1-0.3-1.5c0-0.5,0.2-1,0.5-1.5
		c0.3-0.5,0.7-0.9,1.2-1.2c0.5-0.3,1-0.5,1.6-0.5c0.5,0,1,0.1,1.4,0.3c0.4,0.2,0.8,0.6,1,1.1c0.2,0.5,0.3,1,0.3,1.5
		c0,0.5-0.2,1-0.5,1.5c-0.3,0.5-0.7,0.9-1.2,1.2C250.9,263.2,250.4,263.3,249.9,263.4z M251.6,261.2c0.2-0.3,0.3-0.6,0.3-0.9
		c0-0.3-0.1-0.6-0.2-0.9c-0.2-0.3-0.4-0.5-0.6-0.7c-0.3-0.2-0.5-0.2-0.8-0.2c-0.3,0-0.6,0.1-0.9,0.3c-0.3,0.2-0.5,0.4-0.7,0.7
		c-0.2,0.3-0.3,0.6-0.3,0.9c0,0.3,0.1,0.6,0.2,0.9c0.2,0.3,0.4,0.5,0.6,0.7c0.3,0.2,0.5,0.2,0.8,0.2c0.3,0,0.6-0.1,0.9-0.3
		C251.2,261.7,251.5,261.5,251.6,261.2z"/>
	<path class="st5" d="M254.5,254.6l2.3-1.4c0.5-0.3,1.1-0.5,1.6-0.6c0.5-0.1,1,0,1.4,0.3c0.4,0.2,0.8,0.6,1,1.1
		c0.3,0.5,0.4,1,0.3,1.5c0,0.5-0.2,1-0.5,1.4c-0.3,0.4-0.7,0.8-1.3,1.2l-2.3,1.4L254.5,254.6z M258.8,257.2c0.5-0.3,0.8-0.7,1-1.1
		c0.2-0.4,0.1-0.9-0.1-1.4c-0.2-0.5-0.6-0.7-1-0.8s-0.9,0-1.4,0.3l-1.1,0.6l1.6,3L258.8,257.2z"/>
	<path class="st5" d="M266.4,252.6l0.5,0.9l-3.9,2.3l-2.5-4.8l3.8-2.3l0.5,0.9l-2.6,1.6l0.5,1l2.3-1.4l0.5,0.9l-2.3,1.4l0.6,1.1
		L266.4,252.6z"/>
	<path class="st5" d="M273,249.9l-1.7-0.8l-0.1,0l-1,0.6l0.7,1.3l-1.2,0.7l-2.5-4.8l2.2-1.3c0.4-0.3,0.9-0.4,1.3-0.5
		c0.4-0.1,0.8,0,1.1,0.2c0.3,0.2,0.6,0.4,0.7,0.8c0.2,0.4,0.3,0.7,0.2,1.1c0,0.4-0.2,0.7-0.5,1l1.9,0.9L273,249.9z M270.8,246.4
		c-0.3,0-0.6,0.1-0.9,0.3l-0.9,0.6l0.9,1.7l0.9-0.6c0.3-0.2,0.6-0.4,0.7-0.7c0.1-0.3,0.1-0.5,0-0.8
		C271.3,246.5,271.1,246.4,270.8,246.4z"/>
	<path class="st5" d="M272.6,243.8l1.2-0.7l2.5,4.8l-1.2,0.7L272.6,243.8z"/>
	<path class="st5" d="M277.9,246.8c-0.4,0.1-0.8,0.2-1.1,0.1l0-1.1c0.3,0,0.6,0,1-0.1c0.3-0.1,0.7-0.2,1-0.4
		c0.3-0.2,0.5-0.4,0.7-0.6c0.1-0.2,0.1-0.4,0-0.5c-0.1-0.1-0.2-0.2-0.3-0.2c-0.1,0-0.3,0-0.5,0c-0.2,0-0.4,0.1-0.7,0.2
		c-0.4,0.1-0.8,0.2-1.1,0.3c-0.3,0.1-0.6,0-0.8,0c-0.3-0.1-0.5-0.3-0.7-0.6c-0.1-0.3-0.2-0.6-0.2-0.9c0-0.3,0.2-0.6,0.4-1
		s0.6-0.6,1.1-0.9c0.3-0.2,0.7-0.3,1-0.5c0.3-0.1,0.7-0.2,1-0.2l0.1,1.1c-0.6,0-1.1,0.2-1.6,0.5c-0.3,0.2-0.5,0.4-0.6,0.6
		c-0.1,0.2-0.1,0.4,0,0.5c0.1,0.2,0.2,0.2,0.5,0.2s0.5-0.1,0.9-0.3c0.4-0.1,0.8-0.2,1.1-0.3c0.3-0.1,0.6,0,0.8,0
		c0.3,0.1,0.5,0.3,0.7,0.6c0.1,0.3,0.2,0.6,0.2,0.9c0,0.3-0.2,0.6-0.4,1c-0.3,0.3-0.6,0.6-1.1,0.9
		C278.8,246.5,278.3,246.7,277.9,246.8z"/>
	<path class="st5" d="M282.9,243.6c-0.5,0-1-0.1-1.4-0.3s-0.8-0.6-1-1.1c-0.2-0.5-0.4-1-0.3-1.5c0-0.5,0.2-1,0.5-1.5
		c0.3-0.5,0.7-0.8,1.2-1.2c0.4-0.3,0.9-0.4,1.3-0.5c0.4-0.1,0.8,0,1.2,0.1l-0.4,1.1c-0.5-0.2-1.1-0.1-1.6,0.2
		c-0.3,0.2-0.6,0.4-0.7,0.7c-0.2,0.3-0.3,0.6-0.3,0.9c0,0.3,0.1,0.6,0.2,0.9c0.2,0.3,0.4,0.5,0.6,0.7c0.3,0.2,0.5,0.2,0.9,0.2
		c0.3,0,0.6-0.1,0.9-0.3c0.5-0.3,0.8-0.7,1-1.3l1.1,0.2c-0.1,0.4-0.3,0.8-0.6,1.2c-0.3,0.4-0.6,0.7-1.1,0.9
		C284,243.4,283.5,243.6,282.9,243.6z"/>
	<path class="st5" d="M288.1,240.5c-0.5,0-1-0.1-1.4-0.3c-0.4-0.2-0.8-0.6-1-1.1c-0.2-0.5-0.3-1-0.3-1.5c0-0.5,0.2-1,0.5-1.5
		c0.3-0.5,0.7-0.9,1.2-1.2c0.5-0.3,1-0.5,1.6-0.5c0.5,0,1,0.1,1.4,0.3c0.4,0.2,0.8,0.6,1,1.1c0.2,0.5,0.3,1,0.3,1.5s-0.2,1-0.5,1.5
		c-0.3,0.5-0.7,0.9-1.2,1.2C289.1,240.3,288.6,240.5,288.1,240.5z M289.9,238.4c0.2-0.3,0.3-0.6,0.3-0.9c0-0.3-0.1-0.6-0.2-0.9
		c-0.2-0.3-0.4-0.5-0.6-0.7c-0.3-0.2-0.5-0.2-0.8-0.2c-0.3,0-0.6,0.1-0.9,0.3c-0.3,0.2-0.5,0.4-0.7,0.7c-0.2,0.3-0.3,0.6-0.3,0.9
		c0,0.3,0.1,0.6,0.2,0.9c0.2,0.3,0.4,0.5,0.6,0.7c0.3,0.2,0.5,0.2,0.8,0.2c0.3,0,0.6-0.1,0.9-0.3
		C289.5,238.9,289.7,238.7,289.9,238.4z"/>
</g>
<g>
	<path class="st1" d="M231.4,322.3l-1.5-2.9l-0.2,3.3l-0.5,0.3l-2.7-1.4l1.5,2.8l-1.1,0.7l-2.5-4.8l1-0.6l3.4,1.9l0.3-4.1l1-0.6
		l2.5,4.8L231.4,322.3z"/>
	<path class="st1" d="M236.4,317.9l-2.3,1.4l0.1,1.3l-1.2,0.7l-0.3-6.1l1.1-0.7l4.8,3.5l-1.2,0.7L236.4,317.9z M235.6,317.3
		l-1.8-1.4l0.2,2.3L235.6,317.3z"/>
	<path class="st1" d="M242.4,315.7l-1.7-0.8l-0.1,0l-1,0.6l0.7,1.3l-1.2,0.7l-2.5-4.8l2.2-1.3c0.4-0.3,0.9-0.4,1.3-0.5
		c0.4-0.1,0.8,0,1.1,0.2c0.3,0.2,0.6,0.4,0.7,0.8c0.2,0.4,0.3,0.7,0.2,1.1c0,0.4-0.2,0.7-0.5,1l1.9,0.9L242.4,315.7z M240.1,312.2
		c-0.3,0-0.6,0.1-0.9,0.3l-0.9,0.6l0.9,1.7l0.9-0.6c0.3-0.2,0.6-0.4,0.7-0.7c0.1-0.3,0.1-0.5,0-0.8
		C240.6,312.4,240.4,312.3,240.1,312.2z"/>
	<path class="st1" d="M245.3,311.5l-0.3,1.1l0.6,1.2l-1.2,0.7l-2.5-4.8l1.2-0.7l1.2,2.2l1.1-3.6l1.3-0.8l-1,3.4l3.6,1.3l-1.4,0.8
		L245.3,311.5z"/>
	<path class="st1" d="M253.2,308.1l0.5,0.9l-3.9,2.3l-2.5-4.8l3.8-2.3l0.5,0.9l-2.6,1.6l0.5,1l2.3-1.4l0.5,0.9l-2.3,1.4l0.6,1.1
		L253.2,308.1z"/>
	<path class="st1" d="M253.6,303.9l-1.6,1l-0.5-0.9l4.4-2.6l0.5,0.9l-1.6,1l2,3.9l-1.2,0.7L253.6,303.9z"/>
	<path class="st1" d="M259.9,299.2c0.4-0.1,0.8,0,1.1,0.2c0.3,0.2,0.6,0.4,0.7,0.8c0.2,0.4,0.3,0.7,0.2,1.1c0,0.4-0.2,0.7-0.4,1.1
		c-0.3,0.3-0.6,0.6-1,0.9l-1,0.6l0.7,1.3l-1.2,0.7l-2.5-4.8l2.2-1.3C259.1,299.4,259.5,299.3,259.9,299.2z M260.6,301.6
		c0.1-0.3,0.1-0.5,0-0.8c-0.1-0.3-0.3-0.4-0.6-0.5c-0.3,0-0.6,0.1-0.9,0.3l-0.9,0.6l0.9,1.7l0.9-0.6
		C260.3,302.1,260.5,301.9,260.6,301.6z"/>
	<path class="st1" d="M261.7,297.9l1.2-0.7l2,3.9l2.5-1.5l0.5,0.9l-3.7,2.2L261.7,297.9z"/>
	<path class="st1" d="M271.3,297.1l-2.3,1.4l0.1,1.3l-1.2,0.7l-0.3-6.1l1.1-0.7l4.8,3.5l-1.2,0.7L271.3,297.1z M270.5,296.4
		l-1.8-1.4l0.2,2.3L270.5,296.4z"/>
	<path class="st1" d="M274.9,296c-0.5,0-1-0.1-1.4-0.3s-0.8-0.6-1-1.1c-0.2-0.5-0.4-1-0.3-1.5c0-0.5,0.2-1,0.5-1.5
		c0.3-0.5,0.7-0.8,1.2-1.2c0.4-0.3,0.9-0.4,1.3-0.5c0.4-0.1,0.8,0,1.2,0.1l-0.4,1.1c-0.5-0.2-1.1-0.1-1.6,0.2
		c-0.3,0.2-0.6,0.4-0.7,0.7c-0.2,0.3-0.3,0.6-0.3,0.9c0,0.3,0.1,0.6,0.2,0.9c0.2,0.3,0.4,0.5,0.6,0.7c0.3,0.2,0.5,0.2,0.9,0.2
		c0.3,0,0.6-0.1,0.9-0.3c0.5-0.3,0.8-0.7,1-1.3l1.1,0.2c-0.1,0.4-0.3,0.8-0.6,1.2c-0.3,0.4-0.6,0.7-1.1,0.9
		C275.9,295.8,275.4,296,274.9,296z"/>
	<path class="st1" d="M282.7,290.5l0.5,0.9l-3.9,2.3l-2.5-4.8l3.8-2.3l0.5,0.9l-2.6,1.6l0.5,1l2.3-1.4l0.5,0.9l-2.3,1.4l0.6,1.1
		L282.7,290.5z"/>
	<path class="st1" d="M284.5,290.4c-0.4,0.1-0.8,0.2-1.1,0.1l0-1.1c0.3,0,0.6,0,1-0.1c0.3-0.1,0.7-0.2,1-0.4
		c0.3-0.2,0.5-0.4,0.7-0.6c0.1-0.2,0.1-0.4,0-0.5c-0.1-0.1-0.2-0.2-0.3-0.2c-0.1,0-0.3,0-0.5,0c-0.2,0-0.4,0.1-0.7,0.2
		c-0.4,0.1-0.8,0.2-1.1,0.3c-0.3,0.1-0.6,0-0.8,0c-0.3-0.1-0.5-0.3-0.7-0.6c-0.1-0.3-0.2-0.6-0.2-0.9c0-0.3,0.2-0.6,0.4-1
		c0.2-0.3,0.6-0.6,1.1-0.9c0.3-0.2,0.7-0.3,1-0.5c0.3-0.1,0.7-0.2,1-0.2l0.1,1.1c-0.6,0-1.1,0.2-1.6,0.5c-0.3,0.2-0.5,0.4-0.6,0.6
		c-0.1,0.2-0.1,0.4,0,0.5c0.1,0.2,0.2,0.2,0.5,0.2c0.2,0,0.5-0.1,0.9-0.3c0.4-0.1,0.8-0.2,1.1-0.3c0.3-0.1,0.6,0,0.8,0
		c0.3,0.1,0.5,0.3,0.7,0.6c0.1,0.3,0.2,0.6,0.2,0.9c0,0.3-0.2,0.6-0.4,1s-0.6,0.6-1.1,0.9C285.4,290.1,285,290.3,284.5,290.4z"/>
</g>
<g>
	<path class="st1" d="M253,354.1c-0.5,0-1-0.1-1.4-0.3c-0.4-0.2-0.8-0.6-1-1.1c-0.2-0.5-0.4-1-0.3-1.5c0-0.5,0.2-1,0.5-1.5
		c0.3-0.5,0.7-0.8,1.2-1.2c0.4-0.3,0.9-0.4,1.3-0.5c0.4-0.1,0.8,0,1.2,0.1l-0.4,1.1c-0.5-0.2-1.1-0.1-1.6,0.2
		c-0.3,0.2-0.6,0.4-0.7,0.7c-0.2,0.3-0.3,0.6-0.3,0.9c0,0.3,0.1,0.6,0.2,0.9c0.2,0.3,0.4,0.5,0.6,0.7c0.3,0.2,0.5,0.2,0.9,0.2
		c0.3,0,0.6-0.1,0.9-0.3c0.5-0.3,0.8-0.7,1-1.3l1.1,0.2c-0.1,0.4-0.3,0.8-0.6,1.2c-0.3,0.4-0.6,0.7-1.1,0.9
		C254,353.9,253.5,354.1,253,354.1z"/>
	<path class="st1" d="M260.5,349.9l-1.7-0.8l-0.1,0l-1,0.6l0.7,1.3l-1.2,0.7l-2.5-4.8l2.2-1.3c0.4-0.3,0.9-0.4,1.3-0.5
		c0.4-0.1,0.8,0,1.1,0.2c0.3,0.2,0.6,0.4,0.7,0.8c0.2,0.4,0.3,0.7,0.2,1.1c0,0.4-0.2,0.7-0.5,1l1.9,0.9L260.5,349.9z M258.3,346.4
		c-0.3,0-0.6,0.1-0.9,0.3l-0.9,0.6l0.9,1.7l0.9-0.6c0.3-0.2,0.6-0.4,0.7-0.7s0.1-0.5,0-0.8C258.8,346.6,258.6,346.5,258.3,346.4z"/>
	<path class="st1" d="M267.2,346l-1.5-2.9l-0.2,3.3l-0.5,0.3l-2.7-1.4l1.5,2.8l-1.1,0.7l-2.5-4.8l1-0.6l3.4,1.9l0.3-4.1l1-0.6
		l2.5,4.8L267.2,346z"/>
	<path class="st1" d="M267.7,339.1c0.2,0,0.3,0.2,0.4,0.4c0,0.1,0.1,0.2,0.1,0.3c0,0.1,0,0.3,0.1,0.5l0.1,1.2l-0.7,0.4l-0.3-1.3
		c-0.1,0-0.3,0-0.4-0.1c-0.1-0.1-0.2-0.2-0.3-0.3c-0.1-0.2-0.1-0.4-0.1-0.6c0.1-0.2,0.2-0.4,0.4-0.5
		C267.4,339.1,267.6,339.1,267.7,339.1z"/>
	<path class="st1" d="M271.9,343.1c-0.4,0.1-0.8,0.2-1.1,0.1l0-1.1c0.3,0,0.6,0,1-0.1c0.3-0.1,0.7-0.2,1-0.4
		c0.3-0.2,0.5-0.4,0.7-0.6c0.1-0.2,0.1-0.4,0-0.5c-0.1-0.1-0.2-0.2-0.3-0.2c-0.1,0-0.3,0-0.5,0c-0.2,0-0.4,0.1-0.7,0.2
		c-0.4,0.1-0.8,0.2-1.1,0.3c-0.3,0.1-0.6,0-0.8,0c-0.3-0.1-0.5-0.3-0.7-0.6c-0.1-0.3-0.2-0.6-0.2-0.9c0-0.3,0.2-0.6,0.4-1
		c0.2-0.3,0.6-0.6,1.1-0.9c0.3-0.2,0.7-0.3,1-0.5c0.3-0.1,0.7-0.2,1-0.2l0.1,1.1c-0.6,0-1.1,0.2-1.6,0.5c-0.3,0.2-0.5,0.4-0.6,0.6
		c-0.1,0.2-0.1,0.4,0,0.5c0.1,0.2,0.2,0.2,0.5,0.2c0.2,0,0.5-0.1,0.9-0.3c0.4-0.1,0.8-0.2,1.1-0.3c0.3-0.1,0.6,0,0.8,0
		c0.3,0.1,0.5,0.3,0.7,0.6c0.1,0.3,0.2,0.6,0.2,0.9c0,0.3-0.2,0.6-0.4,1c-0.3,0.3-0.6,0.6-1.1,0.9
		C272.7,342.8,272.3,342.9,271.9,343.1z"/>
</g>
<g>
	<path class="st5" d="M219.2,421.7c-0.5,0-1-0.1-1.4-0.3c-0.4-0.2-0.8-0.6-1-1.1c-0.2-0.5-0.3-1-0.3-1.5c0-0.5,0.2-1,0.5-1.5
		c0.3-0.5,0.7-0.9,1.2-1.2c0.5-0.3,1-0.5,1.6-0.5c0.5,0,1,0.1,1.4,0.3c0.4,0.2,0.8,0.6,1,1.1c0.2,0.5,0.3,1,0.3,1.5
		c0,0.5-0.2,1-0.5,1.5c-0.3,0.5-0.7,0.9-1.2,1.2C220.2,421.5,219.7,421.7,219.2,421.7z M220.9,419.5c0.2-0.3,0.3-0.6,0.3-0.9
		c0-0.3-0.1-0.6-0.2-0.9c-0.2-0.3-0.4-0.5-0.6-0.7c-0.3-0.2-0.5-0.2-0.8-0.2c-0.3,0-0.6,0.1-0.9,0.3c-0.3,0.2-0.5,0.4-0.7,0.7
		c-0.2,0.3-0.3,0.6-0.3,0.9c0,0.3,0.1,0.6,0.2,0.9c0.2,0.3,0.4,0.5,0.6,0.7c0.3,0.2,0.5,0.2,0.8,0.2c0.3,0,0.6-0.1,0.9-0.3
		C220.5,420,220.8,419.8,220.9,419.5z"/>
	<path class="st5" d="M224.6,418.1c-0.6-0.1-1.1-0.6-1.4-1.3l-1.4-2.7l1.2-0.7l1.4,2.6c0.4,0.9,1,1.1,1.8,0.6
		c0.4-0.2,0.6-0.5,0.7-0.8c0.1-0.3,0-0.7-0.2-1.1l-1.4-2.6l1.1-0.7l1.4,2.7c0.4,0.7,0.5,1.4,0.2,2c-0.2,0.6-0.7,1.1-1.4,1.6
		C225.9,418.1,225.2,418.2,224.6,418.1z"/>
	<path class="st5" d="M228.9,411.1l-1.6,1l-0.5-0.9l4.4-2.6l0.5,0.9l-1.6,1l2,3.9l-1.2,0.7L228.9,411.1z"/>
	<path class="st5" d="M237.5,411l-1.7-0.8l-0.1,0l-1,0.6l0.7,1.3l-1.2,0.7l-2.5-4.8l2.2-1.3c0.4-0.3,0.9-0.4,1.3-0.5
		c0.4-0.1,0.8,0,1.1,0.2c0.3,0.2,0.6,0.4,0.7,0.8c0.2,0.4,0.3,0.7,0.2,1.1c0,0.4-0.2,0.7-0.5,1l1.9,0.9L237.5,411z M235.3,407.5
		c-0.3,0-0.6,0.1-0.9,0.3l-0.9,0.6l0.9,1.7l0.9-0.6c0.3-0.2,0.6-0.4,0.7-0.7c0.1-0.3,0.1-0.5,0-0.8
		C235.8,407.7,235.6,407.6,235.3,407.5z"/>
	<path class="st5" d="M242.4,406.8l-2.3,1.4l0.1,1.3l-1.2,0.7l-0.3-6.1l1.1-0.7l4.8,3.5l-1.2,0.7L242.4,406.8z M241.6,406.2
		l-1.8-1.4l0.2,2.3L241.6,406.2z"/>
	<path class="st5" d="M245.6,406.1c-0.4,0.1-0.8,0.2-1.1,0.1l0-1.1c0.3,0,0.6,0,1-0.1c0.3-0.1,0.7-0.2,1-0.4
		c0.3-0.2,0.5-0.4,0.7-0.6c0.1-0.2,0.1-0.4,0-0.5c-0.1-0.1-0.2-0.2-0.3-0.2c-0.1,0-0.3,0-0.5,0c-0.2,0-0.4,0.1-0.7,0.2
		c-0.4,0.1-0.8,0.2-1.1,0.3c-0.3,0.1-0.6,0-0.8,0c-0.3-0.1-0.5-0.3-0.7-0.6c-0.1-0.3-0.2-0.6-0.2-0.9c0-0.3,0.2-0.6,0.4-1
		c0.2-0.3,0.6-0.6,1.1-0.9c0.3-0.2,0.7-0.3,1-0.5c0.3-0.1,0.7-0.2,1-0.2l0.1,1.1c-0.6,0-1.1,0.2-1.6,0.5c-0.3,0.2-0.5,0.4-0.6,0.6
		c-0.1,0.2-0.1,0.4,0,0.5c0.1,0.2,0.2,0.2,0.5,0.2c0.2,0,0.5-0.1,0.9-0.3c0.4-0.1,0.8-0.2,1.1-0.3c0.3-0.1,0.6,0,0.8,0
		c0.3,0.1,0.5,0.3,0.7,0.6c0.1,0.3,0.2,0.6,0.2,0.9c0,0.3-0.2,0.6-0.4,1c-0.3,0.3-0.6,0.6-1.1,0.9C246.4,405.8,246,406,245.6,406.1z
		"/>
	<path class="st5" d="M250.8,398l0.7,1.3l2.3-1.4l0.5,0.9l-2.3,1.4l0.9,1.7l-1.2,0.7l-2.5-4.8l3.8-2.3l0.5,0.9L250.8,398z"/>
	<path class="st5" d="M259.7,396.6l0.5,0.9l-3.9,2.3l-2.5-4.8l3.8-2.3l0.5,0.9l-2.6,1.6l0.5,1l2.3-1.4l0.5,0.9l-2.3,1.4l0.6,1.1
		L259.7,396.6z"/>
	<path class="st5" d="M264.3,395l-1.7-0.8l-0.1,0l-1,0.6l0.7,1.3l-1.2,0.7l-2.5-4.8l2.2-1.3c0.4-0.3,0.9-0.4,1.3-0.5
		c0.4-0.1,0.8,0,1.1,0.2c0.3,0.2,0.6,0.4,0.7,0.8c0.2,0.4,0.3,0.7,0.2,1.1c0,0.4-0.2,0.7-0.5,1l1.9,0.9L264.3,395z M262.1,391.5
		c-0.3,0-0.6,0.1-0.9,0.3l-0.9,0.6l0.9,1.7l0.9-0.6c0.3-0.2,0.6-0.4,0.7-0.7c0.1-0.3,0.1-0.5,0-0.8
		C262.5,391.7,262.4,391.6,262.1,391.5z"/>
	<path class="st5" d="M269.6,391.9l-1.7-0.8l-0.1,0l-1,0.6l0.7,1.3l-1.2,0.7l-2.5-4.8l2.2-1.3c0.4-0.3,0.9-0.4,1.3-0.5
		s0.8,0,1.1,0.2c0.3,0.2,0.6,0.4,0.7,0.8c0.2,0.4,0.3,0.7,0.2,1.1c0,0.4-0.2,0.7-0.5,1l1.9,0.9L269.6,391.9z M267.4,388.4
		c-0.3,0-0.6,0.1-0.9,0.3l-0.9,0.6l0.9,1.7l0.9-0.6c0.3-0.2,0.6-0.4,0.7-0.7c0.1-0.3,0.1-0.5,0-0.8
		C267.8,388.6,267.6,388.4,267.4,388.4z"/>
	<path class="st5" d="M274.4,387.6l-2.3,1.4l0.1,1.3L271,391l-0.3-6.1l1.1-0.7l4.8,3.5l-1.2,0.7L274.4,387.6z M273.6,387l-1.8-1.4
		l0.2,2.3L273.6,387z"/>
	<path class="st5" d="M281.7,384.6l-1.5-2.9L280,385l-0.5,0.3l-2.7-1.4l1.5,2.8l-1.1,0.7l-2.5-4.8l1-0.6l3.4,1.9l0.3-4.1l1-0.6
		l2.5,4.8L281.7,384.6z"/>
	<path class="st5" d="M287.4,380.1l0.5,0.9l-3.9,2.3l-2.5-4.8l3.8-2.3l0.5,0.9l-2.6,1.6l0.5,1l2.3-1.4l0.5,0.9l-2.3,1.4l0.6,1.1
		L287.4,380.1z"/>
	<path class="st5" d="M290.9,372.8l2.5,4.8l-1,0.6l-4-1.4l1.5,2.9l-1.1,0.7l-2.5-4.8l1-0.6l4,1.4l-1.5-2.9L290.9,372.8z"/>
	<path class="st5" d="M293.6,372.4l-1.6,1l-0.5-0.9l4.4-2.6l0.5,0.9l-1.6,1l2,3.9l-1.2,0.7L293.6,372.4z"/>
	<path class="st5" d="M301.6,371.4l-2.3,1.4l0.1,1.3l-1.2,0.7l-0.3-6.1l1.1-0.7l4.8,3.5l-1.2,0.7L301.6,371.4z M300.8,370.8
		l-1.8-1.4l0.2,2.3L300.8,370.8z"/>
	<path class="st5" d="M304.8,370.8c-0.4,0.1-0.8,0.2-1.1,0.1l0-1.1c0.3,0,0.6,0,1-0.1c0.3-0.1,0.7-0.2,1-0.4
		c0.3-0.2,0.5-0.4,0.7-0.6c0.1-0.2,0.1-0.4,0-0.5c-0.1-0.1-0.2-0.2-0.3-0.2c-0.1,0-0.3,0-0.5,0c-0.2,0-0.4,0.1-0.7,0.2
		c-0.4,0.1-0.8,0.2-1.1,0.3c-0.3,0.1-0.6,0-0.8,0c-0.3-0.1-0.5-0.3-0.7-0.6c-0.1-0.3-0.2-0.6-0.2-0.9c0-0.3,0.2-0.6,0.4-1
		c0.2-0.3,0.6-0.6,1.1-0.9c0.3-0.2,0.7-0.3,1-0.5c0.3-0.1,0.7-0.2,1-0.2l0.1,1.1c-0.6,0-1.1,0.2-1.6,0.5c-0.3,0.2-0.5,0.4-0.6,0.6
		c-0.1,0.2-0.1,0.4,0,0.5c0.1,0.2,0.2,0.2,0.5,0.2c0.2,0,0.5-0.1,0.9-0.3c0.4-0.1,0.8-0.2,1.1-0.3c0.3-0.1,0.6,0,0.8,0
		c0.3,0.1,0.5,0.3,0.7,0.6c0.1,0.3,0.2,0.6,0.2,0.9c0,0.3-0.2,0.6-0.4,1c-0.3,0.3-0.6,0.6-1.1,0.9
		C305.6,370.5,305.2,370.7,304.8,370.8z"/>
</g>
<path class="st1" d="M192,156c0,0,8.1,6.6,21.9-0.3c13.8-6.9,95.2-54.3,95.2-54.3s8.9-5.8,3-12.6l-10.4-6.5L183,151L192,156z"/>
<g>
	<g>
		<g>
			<path class="st5" d="M176.4,25.8c0,0,12.1-6.6,18.6-6c6.5,0.7,8.3,0.5,20.8,8c12.3,7.5,86.5,49.6,86.5,49.6l7,3.7
				c0,0,3.2,2.2,3.2,7.3c0,5.1-9,9.4-9,9.4l-94.7,55.4c0,0-6.3,3.2-13.3,2.7c-7-0.7-11.8-2-16.2-4.4c-4.4-2.2-97.8-56.7-97.8-56.7
				s-8.3-8.9,0.9-14.6C91.6,74.2,176.4,25.8,176.4,25.8z"/>
		</g>
	</g>
	<g>
		<g>
			<defs>
				<polygon id="SVGID_1_" points="221.7,145.7 98.3,72.2 175.7,26.8 302.6,102.6 				"/>
			</defs>
			<clipPath id="SVGID_2_">
				<use xlink:href="#SVGID_1_"  style="overflow:visible;"/>
			</clipPath>
			<g class="st12">
				<path class="st13" d="M133.9,75.5L165.6,45l6.4,3.8L148,71.2l38.4-13.8l6.2,3.7l-52.6,18L133.9,75.5z"/>
				<path class="st14" d="M172.1,98.2l-5.5-3.3l15.6-8.8c3.3-1.9,5.4-3.2,6.1-3.8c0.7-0.7,1.1-1.3,1.1-2c0-0.6-0.4-1.2-1.1-1.6
					c-1-0.6-2.2-0.9-3.7-0.9c-1.5,0-3.1,0.3-4.6,0.8c-1.6,0.6-4,1.8-7.5,3.7l-13.8,7.8l-5.5-3.3l30.6-17.4l5.2,3.1l-4.5,2.6
					c5.3-0.9,9.4-0.5,12.1,1.1c1.2,0.7,2,1.6,2.4,2.6c0.4,1,0.3,1.9-0.2,2.8c-0.5,0.9-1.3,1.7-2.4,2.6c-1.1,0.8-2.8,1.9-5.2,3.3
					L172.1,98.2z M196.6,112.8l-5.1-3l4.5-2.5c-2.6,0.5-4.9,0.6-6.9,0.4c-2-0.2-3.6-0.7-4.8-1.4c-2.4-1.4-3-3.4-1.9-6
					c1.1-2.6,4.2-5.3,9.3-8.2c5.2-2.9,10.1-4.7,14.5-5.2c4.4-0.5,7.9,0,10.5,1.5c2.3,1.4,2.9,3.4,1.7,6l15.6-8.6l5.6,3.3
					L196.6,112.8z M198,95.2c-3.3,1.8-5.4,3.3-6.2,4.5c-1.2,1.7-1.1,3,0.5,4c1.3,0.8,3.1,1,5.6,0.6c2.5-0.4,5.3-1.4,8.5-3.2
					c3.6-2,5.7-3.6,6.4-5c0.7-1.4,0.4-2.5-1-3.3c-1.3-0.8-3.2-1-5.6-0.7C203.8,92.5,201.1,93.5,198,95.2z M227.6,106.7L224,103
					c3.6-1.3,6.8-2,9.6-2c2.8,0,5.6,0.8,8.3,2.5c2.5,1.5,3.9,2.8,4.2,4c0.3,1.2,0.1,2.3-0.8,3.3c-0.9,1-3.1,2.5-6.7,4.5l-9.7,5.2
					c-2.7,1.5-4.7,2.6-5.8,3.4c-1.1,0.8-2.2,1.7-3.2,2.8l-5.4-3.2c0.4-0.4,1-0.9,1.9-1.6c0.4-0.3,0.7-0.5,0.8-0.6
					c-2.3,0.2-4.3,0.1-6.1-0.1c-1.7-0.3-3.2-0.8-4.4-1.5c-2.1-1.3-2.9-2.7-2.5-4.4c0.5-1.7,2.1-3.2,4.7-4.7c1.7-1,3.6-1.6,5.5-2.1
					c1.9-0.4,3.8-0.5,5.5-0.3c1.7,0.2,3.8,0.7,6.3,1.6c3.3,1.1,5.8,1.8,7.4,2.1l0.8-0.4c1.6-0.9,2.5-1.6,2.6-2.3
					c0.2-0.7-0.5-1.5-1.9-2.3c-1-0.6-2-0.9-3.2-0.9C230.9,105.8,229.4,106.1,227.6,106.7z M228.3,114.7c-1.1-0.2-2.6-0.7-4.6-1.3
					c-2-0.6-3.5-1-4.4-1c-1.5,0-2.8,0.3-4,0.9c-1.1,0.6-1.9,1.3-2.1,2.1c-0.3,0.8,0.1,1.5,0.9,2c1,0.6,2.4,0.9,4.3,0.9
					c1.4,0,2.7-0.2,4-0.7c0.8-0.3,2.3-1,4.2-2.1L228.3,114.7z"/>
			</g>
		</g>
	</g>
</g>
</svg>
