<?xml version="1.0" encoding="utf-8"?>
<!-- Generator: Adobe Illustrator 24.3.0, SVG Export Plug-In . SVG Version: 6.00 Build 0)  -->
<svg version="1.1" id="Camada_1" xmlns="http://www.w3.org/2000/svg" xmlns:xlink="http://www.w3.org/1999/xlink" x="0px" y="0px"
	 viewBox="0 0 1428 1080" style="enable-background:new 0 0 1428 1080;" xml:space="preserve">
<style type="text/css">
	.st0{fill:#E9EBED;}
	.st1{fill:#F2F2F2;}
	.st2{fill:#B0B8BF;}
	.st3{fill:#3F3D56;}
	.st4{fill:#FF6D00;}
	.st5{fill:#A0616A;}
	.st6{fill:#2F2E41;}
	.st7{fill:#8EF9F3;}
	.st8{fill:#FFA000;}
	.st9{fill:#F9A826;}
	.st10{opacity:0.1;enable-background:new    ;}
	.st11{fill:#FFFFFF;}
	.st12{fill:#E6E6E6;}
	.st13{fill:#FFB8B8;}
	.st14{fill:#D0CDE1;}
	.st15{opacity:0.2;enable-background:new    ;}
	.st16{fill:#575A89;}
	.st17{fill:#FFB9B9;}
</style>
<rect class="st0" width="1428" height="1080"/>
<g>
	<path class="st1" d="M29.3,1075.5c-8.1-0.7-15.2-6.5-19.3-13.5c-1.4-2.4-2.3-5.4-0.8-7.7c1.3-1.9,4-2.4,5.9-1.1
		c0.7,0.5,1.3,1.2,1.6,2.1c-0.5-2.8-0.7-5.5-0.6-8.3c0.1-2.4,0.5-5,2.5-6.4c2.3-1.5,5.6-0.3,7.2,1.9c1.7,2.2,2.1,5,2.5,7.8
		c-1.1-3.8,1.1-7.7,4.9-8.8c1-0.3,2-0.3,3-0.2c3.3,0.5,6,3.4,7,6.6c1,3.2,0.7,6.7,0,10c-0.8,3.9-2,7.7-4.3,11
		c-2.3,3.3-5.6,5.9-9.5,6.7L29.3,1075.5z"/>
	<path class="st2" d="M524,812.9c0,29.7-18.8,56.2-46.9,66.1c-0.4,0.2-0.9,0.3-1.3,0.4v-71.1h-91.6c0-0.4,0.1-0.9,0.1-1.3h91.5
		v-13.9c0-1.8-1.5-3.3-3.3-3.3H388c0.2-0.4,0.3-0.9,0.5-1.3c13.5-36.2,53.8-54.6,90-41.1C505.8,757.6,524,783.7,524,812.9z"/>
	<path class="st3" d="M472.5,788.5H151.1c-2.6,0-4.6,2.1-4.6,4.6v217.8c0,2.6,2.1,4.6,4.6,4.6h321.4c2.6,0,4.6-2.1,4.6-4.6V793.1
		C477.1,790.6,475.1,788.5,472.5,788.5z M475.8,1010.9c0,1.8-1.5,3.3-3.3,3.3H151.1c-1.8,0-3.3-1.5-3.3-3.3V793.1
		c0-1.8,1.5-3.3,3.3-3.3h321.4c1.8,0,3.3,1.5,3.3,3.3V1010.9z"/>
	<rect x="147.1" y="807" class="st3" width="329.3" height="1.3"/>
	<circle class="st3" cx="158.4" cy="798.4" r="4"/>
	<circle class="st3" cx="169.7" cy="798.4" r="4"/>
	<circle class="st3" cx="181.1" cy="798.4" r="4"/>
	<path class="st3" d="M236.9,834.1h-58.1c-2.6,0-4.6,2.1-4.6,4.6v58.1c0,2.6,2.1,4.6,4.6,4.6h58.1c2.6,0,4.6-2.1,4.6-4.6v-58.1
		C241.5,836.1,239.5,834.1,236.9,834.1z M240.2,896.8c0,1.8-1.5,3.3-3.3,3.3h-58.1c-1.8,0-3.3-1.5-3.3-3.3v-58.1
		c0-1.8,1.5-3.3,3.3-3.3h58.1c1.8,0,3.3,1.5,3.3,3.3V896.8z"/>
	<path class="st4" d="M341.2,834.4h-58.1c-2.4,0-4.3,1.9-4.3,4.3v58.1c0,2.4,1.9,4.3,4.3,4.3h58.1c2.4,0,4.3-1.9,4.3-4.3v-58.1
		C345.5,836.3,343.5,834.4,341.2,834.4z"/>
	<path class="st2" d="M445.5,834.4h-58.1c-2.4,0-4.3,1.9-4.3,4.3v58.1c0,2.4,1.9,4.3,4.3,4.3h58.1c2.4,0,4.3-1.9,4.3-4.3v-58.1
		C449.7,836.3,447.8,834.4,445.5,834.4z"/>
	<path class="st2" d="M236.9,921.5h-58.1c-2.4,0-4.3,1.9-4.3,4.3v58.1c0,2.4,1.9,4.3,4.3,4.3h58.1c2.4,0,4.3-1.9,4.3-4.3v-58.1
		C241.2,923.4,239.3,921.5,236.9,921.5z"/>
	<path class="st4" d="M341.2,921.5h-58.1c-2.4,0-4.3,1.9-4.3,4.3v58.1c0,2.4,1.9,4.3,4.3,4.3h58.1c2.4,0,4.3-1.9,4.3-4.3v-58.1
		C345.5,923.4,343.5,921.5,341.2,921.5z"/>
	<path class="st2" d="M445.5,921.5h-58.1c-2.4,0-4.3,1.9-4.3,4.3v58.1c0,2.4,1.9,4.3,4.3,4.3h58.1c2.4,0,4.3-1.9,4.3-4.3v-58.1
		C449.7,923.4,447.8,921.5,445.5,921.5z"/>
	<path class="st4" d="M222.7,931.1h-58.1c-2.4,0-4.3-1.9-4.3-4.3v-58.1c0-2.4,1.9-4.3,4.3-4.3h58.1c2.4,0,4.3,1.9,4.3,4.3v58.1
		C227,929.1,225.1,931.1,222.7,931.1z"/>
	<polygon class="st5" points="133.7,1067.7 141.4,1065.4 136,1034.4 124.5,1037.9 	"/>
	<path class="st6" d="M158.6,1068l-24.3,7.5l0,0l-2.9-9.4l0,0l14.9-4.6C151.5,1059.9,157,1062.8,158.6,1068L158.6,1068L158.6,1068z"
		/>
	<polygon class="st5" points="67.7,1067.9 75.8,1067.9 79.6,1036.7 67.7,1036.7 	"/>
	<path class="st6" d="M91.4,1075.4l-25.4,0l0,0l0-9.8l0,0l15.6,0C87,1065.6,91.4,1070,91.4,1075.4L91.4,1075.4L91.4,1075.4
		L91.4,1075.4z"/>
	<path class="st5" d="M67.1,977.5c-2.5-2.2-2.8-6-0.6-8.5c0.2-0.3,0.5-0.5,0.8-0.7l6.3-79l12.8,3.2l-10.2,77.1
		c1.9,2.8,1.2,6.5-1.5,8.5C72.3,979.5,69.2,979.3,67.1,977.5L67.1,977.5z"/>
	<circle class="st5" cx="92.7" cy="842.3" r="16.2"/>
	<path class="st7" d="M78.6,886.8c-3.7-5-3.8-11.9,0.2-16.7c2.6-3.1,6.9-5.6,14.1-5.6c19.1,0,26.4,15.2,26.4,15.2s7.9,14.5,3.3,27.7
		c-4.6,13.2-4.6,14.5-4.6,14.5l-30.4-2.6C87.5,919.2,92.6,906.1,78.6,886.8z"/>
	<path class="st7" d="M69.2,899.9l6.5-21.4c1.7-5.4,7.4-8.4,12.8-6.8c0.6,0.2,1.2,0.4,1.7,0.7l0,0c4.8,2.5,6.8,8.3,4.7,13.2
		l-8.3,18.9L69.2,899.9z"/>
	<path class="st6" d="M117.2,918.5l25.7,133.3l-13.9,4L95.4,968l-15.2,89.8l-14.5,2c0,0-6.4-118.8,21.8-140.6L117.2,918.5z"/>
	<path class="st5" d="M154.3,912.2c-0.2,0.3-0.4,0.6-0.6,0.9l-32.7,1.6l-6.3-19.2l-10.9,5.2l10.3,28.6l40.4-7.9c2.6,2.8,7,3,9.8,0.4
		s3-7,0.4-9.8c-2.6-2.8-7-3-9.8-0.4C154.6,911.8,154.4,912,154.3,912.2L154.3,912.2z"/>
	<path class="st7" d="M99.1,881.5c-0.7-5.6,3.4-10.7,9-11.4c0.6-0.1,1.2-0.1,1.8-0.1l0,0c5.4,0.3,9.6,4.8,9.6,10.2V901l-17.8,2.7
		L99.1,881.5z"/>
	<path class="st6" d="M96.2,858.7c-2.4,0-4.3-2.6-4.2-5c0.1-2.4,1.7-4.6,3.7-6s4.3-2.3,6.5-3.4s4.4-2.4,5.7-4.4
		c1.7-2.7,1.9-6,0.7-8.9c-1.3-2.9-3.4-5.2-6.2-6.7c-8.4-4.9-19.2-2.6-24.8,5.4l-2.8,7.6c-2.8,3.4-3.3,8.5-1.5,12.5
		c1.7,4.1,5.4,7.1,9.6,8.6c4.2,1.4,8.8,1.5,13.1,0.4"/>
	<path class="st6" d="M81.4,833.5c-1.2-1.9-3.3-3.1-5.4-3.8c-8.9-3-18.5,1.8-21.5,10.7c-0.5,1.4-0.8,2.9-0.8,4.5
		c-0.2,4.2,1.1,8.2,1.8,12.3c0.8,4.1,0.9,8.6-1.3,12.1c-1.7,2.7-4.6,4.4-7.4,5.8c-2.4,1.2-4.9,2.3-7.6,2.1c-2.6-0.2-5.3-2.3-5.2-5
		c-0.9,1.9-1.5,3.9-1.8,6c-0.2,2.1,0.3,4.3,1.8,5.8c2.2,2.1,5.7,2,8.7,1.5c6.5-1,13.1-2.8,18.2-6.9s8.6-10.9,7.2-17.3
		c-0.6-2.7-1.9-5.1-3-7.7c-1.1-2.5-1.9-5.3-1.4-8c0.6-2.8,2.4-5.2,4.9-6.6c2.5-1.3,5.4-1.8,8.3-1.3c1.8,0.3,4.2,0.8,5.2-0.7
		c0.6-1,0.6-2.2-0.1-3.2c-0.6-0.9-1.4-1.7-2.4-2.3"/>
	<path class="st3" d="M203.5,1076.5H0.7c-0.4,0-0.8-0.3-0.8-0.8s0.3-0.8,0.8-0.8c0,0,0,0,0,0h202.8c0.4,0,0.8,0.3,0.8,0.8
		C204.3,1076.1,203.9,1076.5,203.5,1076.5C203.5,1076.5,203.5,1076.5,203.5,1076.5z"/>
</g>
<g>
	<circle class="st1" cx="102.6" cy="683.8" r="36.2"/>
	<circle class="st8" cx="108.5" cy="678.5" r="36.2"/>
	<rect x="336.7" y="639.5" class="st3" width="448" height="1.2"/>
	<path class="st3" d="M552.7,377.4c-5.9,0-10.8,4.8-10.8,10.8v217.7c0,5.9,4.8,10.8,10.8,10.8h390.8c5.9,0,10.8-4.8,10.8-10.8V388.1
		c0,0,0,0,0,0c0-5.9-4.8-10.8-10.8-10.8H783.8v-3.3h-72.1v3.3H552.7L552.7,377.4z"/>
	<rect x="556.3" y="396.4" class="st8" width="383.5" height="216.3"/>
	<circle class="st9" cx="748.4" cy="386.5" r="3.9"/>
	<polygon class="st10" points="939.8,396.4 939.8,612.7 666,612.7 	"/>
	<circle class="st1" cx="879.8" cy="559.6" r="36.9"/>
	<rect x="623.1" y="513" class="st3" width="35.8" height="7.5"/>
	<rect x="579.8" y="454.7" class="st3" width="122.4" height="3.2"/>
	<rect x="579.8" y="464.9" class="st3" width="122.4" height="3.2"/>
	<rect x="579.8" y="475.1" class="st3" width="122.4" height="3.2"/>
	<rect x="579.8" y="485.2" class="st3" width="122.4" height="3.2"/>
	<rect x="579.8" y="495.4" class="st3" width="122.4" height="3.2"/>
	<rect x="579.8" y="400.7" class="st1" width="15" height="15"/>
	<path class="st3" d="M572.9,404.5H591v18.2h-18.2V404.5z M590.2,405.3h-16.6v16.6h16.6V405.3z"/>
	<path class="st3" d="M518.3,621.6v5.8c0,7.1,5.7,12.8,12.8,12.8h426.6c7.1,0,12.8-5.7,12.8-12.8v-5.8c0-7.1-5.7-12.8-12.8-12.8
		h-24.6V606l0,0c0-0.3-0.2-0.5-0.5-0.5h-12.8c0,0,0,0,0,0c-0.3,0-0.5,0.2-0.5,0.5v2.7h-8V606c0,0,0,0,0,0c0-0.3-0.2-0.5-0.5-0.5
		h-12.8c0,0,0,0,0,0c-0.3,0-0.5,0.2-0.5,0.5v2.7h-8V606c0,0,0,0,0,0c0-0.3-0.2-0.5-0.5-0.5H876c0,0,0,0,0,0c-0.3,0-0.5,0.2-0.5,0.5
		v2.7h-8V606l0,0c0-0.3-0.2-0.5-0.5-0.5h-12.8c0,0,0,0,0,0c-0.3,0-0.5,0.2-0.5,0.5v2.7h-8V606c0,0,0,0,0,0c0-0.3-0.2-0.5-0.5-0.5
		h-12.8l0,0c-0.3,0-0.5,0.2-0.5,0.5v2.7h-8V606l0,0c0-0.3-0.2-0.5-0.5-0.5h-12.8l0,0c-0.3,0-0.5,0.2-0.5,0.5v2.7h-8V606l0,0
		c0-0.3-0.2-0.5-0.5-0.5H700.6h0c-0.3,0-0.5,0.2-0.5,0.5v2.7h-8V606l0,0c0-0.3-0.2-0.5-0.5-0.5h-12.8h0c-0.3,0-0.5,0.2-0.5,0.5v2.7
		h-8V606l0,0c0-0.3-0.2-0.5-0.5-0.5h-12.8l0,0c-0.3,0-0.5,0.2-0.5,0.5v2.7h-8V606l0,0c0-0.3-0.2-0.5-0.5-0.5h-12.8l0,0
		c-0.3,0-0.5,0.2-0.5,0.5v2.7h-8V606l0,0c0-0.3-0.2-0.5-0.5-0.5h-12.8l0,0c-0.3,0-0.5,0.2-0.5,0.5v2.7h-8V606l0,0
		c0-0.3-0.2-0.5-0.5-0.5H591h0c-0.3,0-0.5,0.2-0.5,0.5v2.7h-8V606l0,0c0-0.3-0.2-0.5-0.5-0.5h-12.8l0,0c-0.3,0-0.5,0.2-0.5,0.5v2.7
		h-37.4C524.1,608.7,518.3,614.5,518.3,621.6z"/>
	<path class="st3" d="M824.4,536.2c0-25.7,20.8-46.5,46.5-46.5s46.5,20.8,46.5,46.5c0,25.7-20.8,46.5-46.5,46.5
		C845.2,582.6,824.5,561.8,824.4,536.2z M825.6,536.2c0,25,20.2,45.2,45.2,45.2c25,0,45.2-20.2,45.2-45.2c0-25-20.2-45.2-45.2-45.2
		C845.9,491,825.7,511.2,825.6,536.2z"/>
	<rect x="456.5" y="385.8" class="st3" width="155.9" height="1.2"/>
	<rect x="200" y="707.5" class="st3" width="448" height="1.2"/>
	<rect x="69.5" y="763.8" class="st3" width="155.9" height="1.2"/>
	<rect x="239.6" y="701.1" class="st9" width="17.1" height="17.1"/>
	<path class="st3" d="M267.1,708.4h-20.8v-20.8h20.8V708.4z M247.2,707.5h19v-19h-19V707.5z"/>
	<rect x="467" y="379.4" class="st9" width="17.1" height="17.1"/>
	<path class="st3" d="M456.6,366h20.8v20.8h-20.8V366z M476.5,366.9h-19v19h19V366.9z"/>
	<rect x="610.6" y="701.1" class="st8" width="17.1" height="17.1"/>
	<path class="st3" d="M638.1,708.4h-20.8v-20.8h20.8V708.4z M618.2,707.5h19v-19h-19V707.5z"/>
	<path class="st3" d="M324.5,536.1h1.5v150.3c0,0,0,0,0,0c0,12.7,10.3,23.1,23.1,23.1h84.4c0,0,0,0,0,0c12.7,0,23.1-10.3,23.1-23.1
		V467.9c0,0,0,0,0,0c0-12.7-10.3-23.1-23.1-23.1H349h0c-12.7,0-23.1,10.3-23.1,23.1v39.8h-1.5L324.5,536.1z"/>
	<path class="st7" d="M348,452h11c-0.4,1-0.6,2-0.6,3.1c0,4.5,3.7,8.2,8.2,8.2H415c1.1,0,2.1-0.2,3.1-0.6c4.2-1.7,6.2-6.5,4.5-10.7
		h10.3c9.5,0,17.2,7.7,17.2,17.2v218.2c0,9.5-7.7,17.2-17.2,17.2H348c-9.5,0-17.2-7.7-17.2-17.2V469.3
		C330.8,459.7,338.5,452,348,452z"/>
	<rect x="377.8" y="595.9" class="st3" width="25.3" height="7.5"/>
	<rect x="347.3" y="537.6" class="st3" width="86.3" height="3.2"/>
	<rect x="347.3" y="547.8" class="st3" width="86.3" height="3.2"/>
	<rect x="347.3" y="557.9" class="st3" width="86.3" height="3.2"/>
	<rect x="347.3" y="568.1" class="st3" width="86.3" height="3.2"/>
	<rect x="347.3" y="578.2" class="st3" width="86.3" height="3.2"/>
	<rect x="387.4" y="495" class="st1" width="15" height="15"/>
	<path class="st3" d="M378.5,498.8v18.2h18.2v-18.2H378.5z M379.3,499.6h16.6v16.6h-16.6V499.6z"/>
	<path class="st10" d="M362.9,638.8l1.2-1l13.3-10.5l1.2-1l71.4-56.4v117.5c0,9.5-7.7,17.2-17.2,17.2H348c-9.5,0-17.2-7.7-17.2-17.2
		v-23.3L362.9,638.8z"/>
	<circle class="st1" cx="397.8" cy="670.8" r="26.8"/>
	<path class="st3" d="M147.4,765c-29.4,0-53.2-23.8-53.2-53.2c0-29.4,23.8-53.2,53.2-53.2s53.2,23.8,53.2,53.2
		C200.5,741.2,176.7,765,147.4,765z M147.4,659.9c-28.7,0-52,23.3-52,52s23.3,52,52,52s52-23.3,52-52
		C199.3,683.1,176.1,659.9,147.4,659.9z"/>
	<path class="st3" d="M356.3,657.8c0-18.6,15.1-33.6,33.6-33.6s33.6,15.1,33.6,33.6c0,18.6-15.1,33.6-33.6,33.6
		C371.3,691.4,356.3,676.4,356.3,657.8z M357.5,657.8L357.5,657.8c0,17.9,14.5,32.4,32.4,32.4s32.4-14.5,32.4-32.4
		s-14.5-32.4-32.4-32.4C372,625.4,357.5,639.9,357.5,657.8z"/>
</g>
<g>
	<ellipse class="st2" cx="139.6" cy="244.9" rx="13.6" ry="14.1"/>
	<ellipse class="st2" cx="180.5" cy="244.9" rx="13.6" ry="14.1"/>
	<ellipse class="st2" cx="221.4" cy="244.9" rx="13.6" ry="14.1"/>
	<ellipse class="st2" cx="262.3" cy="244.9" rx="13.6" ry="14.1"/>
	<ellipse class="st2" cx="303.2" cy="244.9" rx="13.6" ry="14.1"/>
	<ellipse class="st2" cx="344.1" cy="244.9" rx="13.6" ry="14.1"/>
	<ellipse class="st2" cx="385" cy="244.9" rx="13.6" ry="14.1"/>
	<path class="st2" d="M416.5,262H108c-3.1,0-5.5-2.6-5.5-5.7v-22.8c0-3.2,2.5-5.7,5.5-5.7h308.5c3.1,0,5.5,2.6,5.5,5.7v22.8
		C422.1,259.4,419.6,262,416.5,262z M108,230c-1.8,0-3.3,1.5-3.3,3.4v22.8c0,1.9,1.5,3.4,3.3,3.4h308.5c1.8,0,3.3-1.5,3.3-3.4v-22.8
		c0-1.9-1.5-3.4-3.3-3.4L108,230z"/>
	<path class="st2" d="M174.1,133.9c1.8,0,3.2,1.5,3.2,3.3v71.2c0,1.8-1.4,3.3-3.2,3.3h-67.7c-1.8,0-3.2-1.5-3.2-3.3v-71.2
		c0-1.8,1.4-3.3,3.2-3.3L174.1,133.9 M174.1,130.6h-67.7c-3.5,0-6.4,2.9-6.4,6.6v71.2c0,3.6,2.9,6.6,6.4,6.6h67.7
		c3.5,0,6.4-2.9,6.4-6.6v-71.2C180.4,133.6,177.6,130.6,174.1,130.6L174.1,130.6z"/>
	<path class="st8" d="M163.5,152.7h-45.2c-0.9,0-1.6-0.7-1.6-1.6c0-0.9,0.7-1.6,1.6-1.7c0,0,0,0,0,0h45.2c0.9,0,1.6,0.7,1.6,1.6
		C165.1,151.9,164.4,152.6,163.5,152.7C163.5,152.7,163.5,152.7,163.5,152.7L163.5,152.7z"/>
	<path class="st8" d="M163.5,164.3h-45.2c-0.9,0-1.6-0.7-1.6-1.6c0-0.9,0.7-1.6,1.6-1.7c0,0,0,0,0,0h45.2c0.9,0,1.6,0.7,1.6,1.6
		C165.1,163.5,164.4,164.3,163.5,164.3C163.5,164.3,163.5,164.3,163.5,164.3L163.5,164.3z"/>
	<path class="st8" d="M163.5,175.9h-45.2c-0.9,0-1.6-0.7-1.6-1.6c0-0.9,0.7-1.6,1.6-1.7c0,0,0,0,0,0h45.2c0.9,0,1.6,0.7,1.6,1.6
		C165.1,175.2,164.4,175.9,163.5,175.9C163.5,175.9,163.5,175.9,163.5,175.9L163.5,175.9z"/>
	<path class="st8" d="M163.5,187.6h-45.2c-0.9,0-1.6-0.7-1.6-1.6c0-0.9,0.7-1.6,1.6-1.7c0,0,0,0,0,0h45.2c0.9,0,1.6,0.7,1.6,1.6
		C165.1,186.8,164.4,187.6,163.5,187.6C163.5,187.6,163.5,187.6,163.5,187.6L163.5,187.6z"/>
	<path class="st8" d="M163.5,199.2h-45.2c-0.9,0-1.6-0.7-1.6-1.6c0-0.9,0.7-1.6,1.6-1.6c0,0,0,0,0,0h45.2c0.9,0,1.6,0.7,1.6,1.6
		C165.1,198.5,164.4,199.2,163.5,199.2L163.5,199.2z"/>
	<path class="st2" d="M405.2,133.9c1.8,0,3.2,1.5,3.2,3.3v71.2c0,1.8-1.4,3.3-3.2,3.3h-67.7c-1.8,0-3.2-1.5-3.2-3.3v-71.2
		c0-1.8,1.4-3.3,3.2-3.3L405.2,133.9 M405.2,130.6h-67.7c-3.5,0-6.4,2.9-6.4,6.6v0v71.2c0,3.6,2.9,6.6,6.4,6.6l0,0h67.7
		c3.5,0,6.4-2.9,6.4-6.6v0v-71.2C411.6,133.6,408.7,130.6,405.2,130.6L405.2,130.6L405.2,130.6z"/>
	<path class="st9" d="M394.7,152.7h-45.2c-0.9,0-1.6-0.7-1.6-1.6c0-0.9,0.7-1.6,1.6-1.7c0,0,0,0,0,0h45.2c0.9,0,1.6,0.7,1.6,1.7
		C396.2,151.9,395.5,152.6,394.7,152.7L394.7,152.7z"/>
	<path class="st9" d="M394.7,164.3h-45.2c-0.9,0-1.6-0.7-1.6-1.6c0-0.9,0.7-1.6,1.6-1.7c0,0,0,0,0,0h45.2c0.9,0,1.6,0.7,1.6,1.7
		C396.2,163.6,395.5,164.3,394.7,164.3L394.7,164.3z"/>
	<path class="st9" d="M394.7,175.9h-45.2c-0.9,0-1.6-0.7-1.6-1.6s0.7-1.6,1.6-1.7c0,0,0,0,0,0h45.2c0.9,0,1.6,0.7,1.6,1.7
		C396.2,175.2,395.5,175.9,394.7,175.9L394.7,175.9z"/>
	<path class="st9" d="M394.7,187.6h-45.2c-0.9,0-1.6-0.7-1.6-1.6s0.7-1.6,1.6-1.7c0,0,0,0,0,0h45.2c0.9,0,1.6,0.7,1.6,1.7
		C396.2,186.8,395.5,187.6,394.7,187.6L394.7,187.6z"/>
	<path class="st9" d="M394.7,199.2h-45.2c-0.9,0-1.6-0.7-1.6-1.6c0-0.9,0.7-1.6,1.6-1.6c0,0,0,0,0,0h45.2c0.9,0,1.6,0.7,1.6,1.6
		C396.3,198.5,395.5,199.2,394.7,199.2L394.7,199.2z"/>
	<path class="st9" d="M635.3,270.9c1.8,0,3.2,1.5,3.2,3.3v71.2c0,1.8-1.4,3.3-3.2,3.3h-67.7c-1.8,0-3.2-1.5-3.2-3.3v-71.2
		c0-1.8,1.4-3.3,3.2-3.3L635.3,270.9 M635.3,267.6h-67.7c-3.5,0-6.4,2.9-6.4,6.6v71.2c0,3.6,2.9,6.6,6.4,6.6h67.7
		c3.5,0,6.4-2.9,6.4-6.6v-71.2C641.6,270.6,638.8,267.6,635.3,267.6L635.3,267.6z"/>
	<path class="st9" d="M624.7,289.6h-45.2c-0.9,0-1.6-0.7-1.6-1.6c0-0.9,0.7-1.6,1.6-1.7c0,0,0,0,0,0h45.2c0.9,0,1.6,0.7,1.6,1.7
		C626.3,288.9,625.6,289.6,624.7,289.6z"/>
	<path class="st9" d="M624.7,301.3h-45.2c-0.9,0-1.6-0.7-1.6-1.6s0.7-1.6,1.6-1.6h45.2c0.9,0,1.6,0.7,1.6,1.6
		S625.6,301.3,624.7,301.3z"/>
	<path class="st9" d="M624.7,312.9h-45.2c-0.9,0-1.6-0.7-1.6-1.6s0.7-1.6,1.6-1.7c0,0,0,0,0,0h45.2c0.9,0,1.6,0.7,1.6,1.7
		C626.3,312.2,625.6,312.9,624.7,312.9z"/>
	<path class="st9" d="M624.7,324.5h-45.2c-0.9,0-1.6-0.7-1.6-1.6c0-0.9,0.7-1.6,1.6-1.7c0,0,0,0,0,0h45.2c0.9,0,1.6,0.7,1.6,1.7
		C626.3,323.8,625.6,324.5,624.7,324.5z"/>
	<path class="st2" d="M290.5,215h-69.5c-3.9,0-7.1-3.3-7.1-7.3v-51.2c0-4,3.2-7.3,7.1-7.3h69.5c3.9,0,7.1,3.3,7.1,7.3v51.2
		C297.6,211.8,294.4,215,290.5,215z M221.1,152.5c-2.2,0-3.9,1.8-3.9,4v51.2c0,2.2,1.7,4,3.9,4h69.5c2.2,0,3.9-1.8,3.9-4v-51.2
		c0-2.2-1.7-4-3.9-4H221.1z"/>
	<path class="st9" d="M278.4,172.1h-45.2c-0.9,0-1.6-0.7-1.6-1.7c0-0.9,0.7-1.6,1.6-1.6h45.2c0.9,0,1.6,0.7,1.6,1.6
		C280,171.4,279.3,172.1,278.4,172.1C278.4,172.1,278.4,172.1,278.4,172.1z"/>
	<path class="st9" d="M278.4,183.7h-45.2c-0.9,0-1.6-0.7-1.6-1.7c0-0.9,0.7-1.6,1.6-1.6h45.2c0.9,0,1.6,0.7,1.6,1.6
		C280,183,279.3,183.7,278.4,183.7C278.4,183.7,278.4,183.7,278.4,183.7z"/>
	<path class="st9" d="M278.4,195.4h-45.2c-0.9,0-1.6-0.7-1.6-1.7c0-0.9,0.7-1.6,1.6-1.6h45.2c0.9,0,1.6,0.7,1.6,1.6
		C280,194.6,279.3,195.4,278.4,195.4C278.4,195.4,278.4,195.4,278.4,195.4z"/>
	<path class="st2" d="M521,243.4l-66.7-19.9c-3.8-1.1-5.9-5.2-4.8-9l13.8-49.2c1.1-3.9,5-6.1,8.8-5l66.7,19.9
		c3.8,1.1,5.9,5.2,4.8,9.1l-13.8,49.2C528.7,242.3,524.7,244.5,521,243.4z M471.2,163.4c-2.1-0.6-4.2,0.6-4.8,2.7l-13.8,49.2
		c-0.6,2.1,0.6,4.4,2.7,5l66.7,19.9c2.1,0.6,4.2-0.6,4.8-2.7l13.8-49.2c0.6-2.1-0.6-4.4-2.7-5L471.2,163.4z"/>
	<path class="st9" d="M520.9,198.7l-43.4-13c-0.8-0.3-1.3-1.2-1.1-2c0.2-0.9,1.1-1.4,2-1.1l43.4,13c0.8,0.3,1.3,1.2,1.1,2
		C522.6,198.5,521.8,199,520.9,198.7L520.9,198.7z"/>
	<path class="st9" d="M517.8,209.9l-43.4-13c-0.8-0.3-1.3-1.2-1.1-2c0.2-0.9,1.1-1.4,2-1.1l43.4,13c0.8,0.3,1.3,1.2,1.1,2
		C519.5,209.6,518.6,210.1,517.8,209.9L517.8,209.9z"/>
	<path class="st9" d="M514.6,221.1l-43.4-13c-0.8-0.3-1.3-1.2-1.1-2c0.2-0.9,1.1-1.4,2-1.1l43.4,13c0.8,0.3,1.3,1.2,1.1,2
		S515.5,221.3,514.6,221.1z"/>
</g>
<g>
	<path class="st2" d="M1170.6,339c-5.2-4.4-8.4-11.3-7.5-18.1s6-13,12.6-14.4c6.7-1.4,14.2,2.5,16.3,9c1.1-12.5,2.4-25.6,9.1-36.3
		c6-9.7,16.5-16.6,27.8-17.8c11.3-1.2,23.2,3.4,30.3,12.4s8.8,21.9,3.8,32.2c-3.6,7.6-10.4,13.2-17.4,17.8
		c-22.7,14.7-50,20.6-76.7,16.8"/>
	<path class="st11" d="M1247.9,265.2c-9.3,7.6-17.9,16.1-25.6,25.4c-12,14.5-21.7,30.7-28.8,48.2c-0.5,1.3,1.5,1.8,2.1,0.6
		c11.6-28.3,30.1-53.3,53.9-72.6C1250.5,265.8,1249,264.3,1247.9,265.2z"/>
	<path class="st8" d="M982.3,342h-29.5c-2.1,0-3.8-1.7-3.8-3.8V277c0-2.1,1.7-3.8,3.8-3.8h29.5c2.1,0,3.8,1.7,3.8,3.8v61.3
		C986,340.3,984.4,342,982.3,342z"/>
	<path class="st3" d="M1052.2,342.6h-29.5c-2.4,0-4.3-1.9-4.3-4.3V219.2c0-2.4,1.9-4.3,4.3-4.3h29.5c2.4,0,4.3,1.9,4.3,4.3v119.1
		C1056.6,340.7,1054.6,342.6,1052.2,342.6z M1022.7,216c-1.8,0-3.2,1.4-3.2,3.2v119.1c0,1.8,1.4,3.2,3.2,3.2h29.5
		c1.8,0,3.2-1.4,3.2-3.2V219.2c0-1.8-1.4-3.2-3.2-3.2H1022.7z"/>
	<path class="st3" d="M1122.2,342.6h-29.5c-2.4,0-4.3-1.9-4.3-4.3V143.5c0-2.4,1.9-4.3,4.3-4.3h29.5c2.4,0,4.3,1.9,4.3,4.3v194.8
		C1126.5,340.7,1124.6,342.6,1122.2,342.6z M1092.7,140.3c-1.8,0-3.2,1.4-3.2,3.2v194.8c0,1.8,1.4,3.2,3.2,3.2h29.5
		c1.8,0,3.2-1.4,3.2-3.2V143.5c0-1.8-1.4-3.2-3.2-3.2H1092.7z"/>
	<path class="st8" d="M1192.8,342.3h-29.5c-2.1,0-3.8-1.7-3.8-3.8V64c0-2.1,1.7-3.8,3.8-3.8h29.5c2.1,0,3.8,1.7,3.8,3.8v274.6
		C1196.5,340.6,1194.8,342.3,1192.8,342.3z"/>
	<path class="st5" d="M1009.4,172.7c0.4-3.2-1.9-6.1-5-6.5c-0.3,0-0.7-0.1-1,0l-10.3-18.8l-2.3,8.1l7,17.3c0.4,3.2,3.3,5.5,6.5,5.1
		C1007,177.5,1009.1,175.4,1009.4,172.7L1009.4,172.7z"/>
	<polygon class="st5" points="930.3,247.2 936,251.3 954.8,231.3 946.4,225.1 	"/>
	<path class="st6" d="M943.1,264.7l-18-13.1l0,0l5.1-6.9l0,0l11,8.1C945.1,255.5,945.9,260.9,943.1,264.7L943.1,264.7L943.1,264.7z"
		/>
	<polygon class="st5" points="960.5,269.3 967.6,269.3 971,241.9 960.5,241.9 	"/>
	<path class="st6" d="M981.3,275.9l-22.3,0l0,0l0-8.6l0,0l13.7,0C977.4,267.3,981.3,271.1,981.3,275.9L981.3,275.9L981.3,275.9z"/>
	<path class="st6" d="M981.8,162.7c0,0,3.5,33.5-5.2,56.6l-6.4,43.9h-11l1.2-52l-4-46.2C956.4,165,964.5,144.2,981.8,162.7z"/>
	<polygon class="st6" points="944.2,165 955.8,204.9 933.3,240.7 944.5,250.2 970.3,210.1 962.7,160.9 	"/>
	<circle class="st5" cx="973.7" cy="61.4" r="14.2"/>
	<path class="st7" d="M961.9,80.9c0,0,8.7-5.8,18.5,6.9l2.6,80.1c0,0-7.5-10.4-23.1-0.6c-15.6,9.8-19.1-1.2-19.1-1.2
		S929.8,83.5,961.9,80.9z"/>
	<path class="st7" d="M979.7,87.6L979.7,87.6c5.2,0.3,9.3,4.4,9.6,9.6l1.8,34.8l12.1,32.9l-6.9,5.8l-22.5-39.3l-4.6-32.3
		c-0.8-5.5,3.1-10.7,8.6-11.4C978.3,87.6,979,87.6,979.7,87.6z"/>
	<path class="st6" d="M963.3,72c2.3,2.5,6.6,1.1,6.9-2.2c0-0.3,0-0.5,0-0.8c-0.2-1.5-1-2.9-0.8-4.4c0-0.4,0.2-0.8,0.4-1.1
		c1.8-2.5,6.2,1.1,7.9-1.1c1.1-1.4-0.2-3.5,0.6-5.1c1.1-2,4.3-1,6.3-2.1c2.2-1.2,2.1-4.7,0.6-6.8c-1.8-2.5-5-3.9-8.1-4.1
		c-3.1-0.2-6.2,0.6-9.1,1.8c-3.3,1.3-6.6,3.1-8.6,6c-2.5,3.5-2.7,8.3-1.5,12.4C958.8,66.9,961.4,70,963.3,72z"/>
	<path class="st3" d="M1265.3,342.4H891.2c-0.4,0-0.7-0.3-0.7-0.7c0-0.4,0.3-0.7,0.7-0.7h374.2c0.4,0,0.7,0.3,0.7,0.7
		C1266,342.1,1265.7,342.4,1265.3,342.4z"/>
</g>
<g>
	<path class="st12" d="M1136.7,705.1c0.4,0.9,0.8,1.8,1.2,2.6l-0.9,0.4c-0.4-0.9-0.8-1.8-1.2-2.7L1136.7,705.1z"/>
	<path class="st12" d="M1293.9,634.6c0.6,1.2,1.1,2.4,1.6,3.6l-0.9,0.4c-0.7-1.8-1.6-3.6-2.4-5.3l0.9-0.4
		C1293.3,633.4,1293.6,634,1293.9,634.6z M1290.2,627.6l-0.8,0.5c-1-1.7-2-3.4-3.1-5l0.8-0.5
		C1288.2,624.2,1289.2,625.8,1290.2,627.6z M1297.6,643.7c0.6,1.9,1.2,3.8,1.7,5.7l-0.9,0.2c-0.5-1.9-1.1-3.8-1.7-5.6L1297.6,643.7z
		 M1283.5,617.7l-0.8,0.6c-1.2-1.5-2.5-3-3.8-4.5l0.7-0.7C1281,614.7,1282.3,616.2,1283.5,617.7z M1300.6,655.2
		c0.4,1.9,0.7,3.9,0.9,5.9l-1,0.1c-0.2-1.9-0.5-3.9-0.9-5.8L1300.6,655.2z M1275.6,608.9l-0.7,0.7c-1.4-1.4-2.9-2.7-4.4-3.9l0.6-0.7
		C1272.7,606.2,1274.1,607.6,1275.6,608.9z M1302,667c0.1,2,0.1,4,0.1,5.9l-1,0c0-1.9,0-3.9-0.1-5.9L1302,667z M1266.5,601.3
		l-0.6,0.8c-1.6-1.1-3.2-2.3-4.9-3.3l0.5-0.8C1263.2,599.1,1264.9,600.2,1266.5,601.3z M1301.8,678.9c-0.2,2-0.4,4-0.7,5.9l-1-0.2
		c0.3-1.9,0.5-3.9,0.7-5.8L1301.8,678.9z M1256.4,595l-0.5,0.9c-1.7-0.9-3.5-1.8-5.3-2.6l0.4-0.9
		C1252.9,593.2,1254.7,594.1,1256.4,595z M1300,690.6c-0.4,1.9-0.9,3.9-1.5,5.7l-0.9-0.3c0.6-1.9,1.1-3.8,1.5-5.7L1300,690.6z
		 M1245.6,590.2l-0.3,0.9c-1.8-0.7-3.7-1.3-5.6-1.9l0.3-0.9C1241.9,588.8,1243.8,589.5,1245.6,590.2z M1296.6,702
		c-0.7,1.8-1.5,3.7-2.3,5.5l-0.9-0.4c0.8-1.8,1.6-3.6,2.3-5.4L1296.6,702z M1234.2,586.8l-0.2,0.9c-1.9-0.4-3.8-0.8-5.8-1.1l0.1-1
		C1230.3,586,1232.3,586.4,1234.2,586.8z M1291.6,712.8c-0.9,1.7-2,3.5-3,5.1l-0.8-0.5c1-1.6,2-3.3,3-5.1L1291.6,712.8z M1222.5,585
		l-0.1,1c-1.9-0.2-3.9-0.3-5.9-0.3l0-1C1218.5,584.8,1220.5,584.9,1222.5,585z M1285.3,722.8c-1.2,1.6-2.4,3.2-3.7,4.7l-0.7-0.6
		c1.3-1.5,2.5-3,3.6-4.6L1285.3,722.8z M1210.6,584.9l0.1,1c-1.9,0.1-3.9,0.3-5.9,0.5l-0.1-1C1206.6,585.2,1208.6,585,1210.6,584.9z
		 M1277.6,731.8c-1.4,1.4-2.8,2.8-4.3,4.1l-0.6-0.7c1.5-1.3,2.9-2.7,4.2-4.1L1277.6,731.8z M1198.8,586.4l0.2,1
		c-1.9,0.4-3.8,0.8-5.7,1.3l-0.3-0.9C1194.9,587.2,1196.9,586.7,1198.8,586.4z M1268.8,739.8c-1.6,1.2-3.2,2.4-4.8,3.5l-0.5-0.8
		c1.6-1.1,3.2-2.2,4.8-3.4L1268.8,739.8z M1187.4,589.4l0.3,0.9c-1.8,0.6-3.7,1.3-5.5,2.1l-0.4-0.9
		C1183.6,590.8,1185.5,590.1,1187.4,589.4L1187.4,589.4z M1258.9,746.4c-1.7,1-3.5,1.9-5.2,2.8l-0.4-0.9c1.8-0.9,3.5-1.8,5.2-2.8
		L1258.9,746.4z M1176.9,594.9c-1.7,0.9-3.5,1.8-5.1,2.8l-0.5-0.8c1.7-1,3.4-2,5.2-2.9L1176.9,594.9z M1166.8,600.9
		c-1.6,1.1-3.2,2.3-4.7,3.5l-0.6-0.8c1.5-1.2,3.1-2.4,4.8-3.5L1166.8,600.9z M1157.6,608.2c-1.4,1.3-2.8,2.7-4.2,4.1l-0.7-0.7
		c1.4-1.4,2.8-2.8,4.2-4.2L1157.6,608.2z M1149.5,616.7c-1.2,1.5-2.4,3.1-3.6,4.6l-0.8-0.6c1.1-1.6,2.4-3.2,3.6-4.7L1149.5,616.7z
		 M1142.7,626.3c-1,1.7-2,3.4-2.9,5.1l-0.9-0.5c0.9-1.7,1.9-3.5,2.9-5.2L1142.7,626.3z M1137.2,636.6c-0.8,1.8-1.5,3.6-2.2,5.4
		l-0.9-0.3c0.7-1.9,1.4-3.7,2.2-5.5L1137.2,636.6z M1133.2,647.7c-0.5,1.9-1,3.8-1.4,5.7l-1-0.2c0.4-1.9,0.9-3.9,1.5-5.8
		L1133.2,647.7z M1130.7,659.1c-0.3,1.9-0.5,3.9-0.6,5.8l-1-0.1c0.1-2,0.4-4,0.7-5.9L1130.7,659.1z M1129.8,670.8c0,2,0,3.9,0.2,5.9
		l-1,0.1c-0.1-2-0.2-4-0.2-5.9L1129.8,670.8z M1130.5,682.6c0.3,1.9,0.6,3.9,1,5.8l-1,0.2c-0.4-1.9-0.7-3.9-1-5.9L1130.5,682.6z
		 M1132.9,694.1c0.5,1.9,1.1,3.8,1.8,5.6l-0.9,0.3c-0.7-1.9-1.2-3.8-1.8-5.7L1132.9,694.1z"/>
	<path class="st12" d="M1247.8,750.8l0.4,0.9c-0.9,0.4-1.8,0.7-2.7,1.1l-0.3-0.9C1245.9,751.5,1246.9,751.1,1247.8,750.8z"/>
	<path class="st6" d="M1080.6,579.8c-4.9-8.3-14.6-8.7-14.6-8.7s-9.5-1.2-15.6,11.4c-5.7,11.8-13.5,23.2-1.3,25.9l2.2-6.9l1.4,7.4
		c1.7,0.1,3.5,0.2,5.2,0.1c13.1-0.4,25.6,0.1,25.2-4.6C1082.6,598.2,1085.3,587.8,1080.6,579.8z"/>
	<polygon class="st13" points="1041.3,761.7 1041.3,774.9 1034.5,774 1034.5,763 	"/>
	<polygon class="st13" points="1088.3,770.2 1090.9,780.4 1096.8,778.3 1092.6,768.5 	"/>
	<polygon class="st13" points="1042.6,621.2 1043.4,644.5 1048.9,646.2 1050.6,623.7 	"/>
	<path class="st13" d="M1044.3,642.8l-0.8,1.7l-7.6,7.2c0,0-5.5,4.7-3.4,7.6l5.5-2.5V655l12.7-8.9L1044.3,642.8z"/>
	<polygon class="st13" points="1075.2,649.5 1075.2,659.3 1042.6,654.2 1046.4,647 	"/>
	<path class="st13" d="M1090,619.1c0,0,3,8,3.4,8.9c0.4,0.8,5.5,20.3,5.5,20.3l12.7,20.3c0,0,9.3,11,3.4,11.4
		c-5.9,0.4-10.2-9.3-10.2-9.3l-12.7-16.5l-11.9-31.3L1090,619.1z"/>
	<circle class="st13" cx="1065.7" cy="588.8" r="12.3"/>
	<path class="st13" d="M1062.1,597c0,0,0,8.9-4.7,10.2c-4.7,1.3,3.8,10.6,3.8,10.6l16.9-8.5c0,0-7.2-2.5-5.1-12.3H1062.1z"/>
	<path class="st3" d="M1059.3,606.1L1059.3,606.1l-9,3c-5,2-8.4,6.6-8.8,12c-0.2,1.6,0.1,3.2,0.7,4.7c2.5,5.9,5.5,7.2,5.5,7.2
		s0.4,2.5,0,3s-1.3,0.8-0.8,2.1c0.4,1.3,0.8,0.8,0.4,2.1c-0.4,1.3-2.1,4.2-2.1,4.2s1.7,0.8,0.4,1.7s-1.7,2.5-1.7,2.5
		s28.8,1.3,31.8,4.2l5.1-20.7c0,0,11.9-4.7,11.4-9.3c-0.4-4.7-3-8.9-5.9-10.2c-3-1.3-10.2-4.7-10.2-4.7s-0.9,3.1-9.6,2.4
		C1063.5,610.2,1060.9,608.6,1059.3,606.1z"/>
	<path class="st6" d="M1076,656.3c0,0-27.9-1.7-32.2-7.6l-11.9,11.4l1.3,7.2l-0.4,94c0,0-0.4,4.7,0.8,4.7s8,0.8,8.5,0
		c0.4-0.8-1.3-2.5,1.7-3.4c3-0.8,3,2.1,3-0.8c0-3-0.4-15.7-1.3-17.8c-0.8-2.1,9.7-50.8,9.7-50.8s27.9,75.4,30.1,77.1
		c2.1,1.7,2.5,4.2,3.8,3.8s7.2-2.1,7.6-2.5c0.4-0.4-0.4-3.8,0-5.1c0.4-1.3,1.7,0.4,0-2.1c-1.7-2.5-2.1-4.2-2.1-5.5
		c0-1.3-15.7-83-15.7-83s3.4-7.6-1.7-11.9L1076,656.3z"/>
	<path class="st6" d="M1042.2,771.5c0,0-4.2-4.2-5.9-4.2h-4.2c0,0-3.8,8-5.1,8.5s-9.7,10.6-2.1,10.6c7.6,0,10.6-2.5,10.6-2.5
		l6.8-3.4V771.5z"/>
	<path class="st6" d="M1090.2,777.6l-1,8.7c0,0,8.5,3.4,8.5,3.8s13.5,6.8,14.4,1.3s-6.8-10.2-6.8-10.2s-8.1-9.6-9.6-9.3
		c-1.4,0.4-1.4,2.9-1.4,2.9L1090.2,777.6z"/>
	<polygon class="st3" points="1177.4,730.9 1058.9,730.9 1058.9,678.1 1118.2,704.7 1177.4,678.1 	"/>
	<polygon class="st7" points="1058.9,678.1 1177.4,678.1 1118.3,708.6 	"/>
	<circle class="st12" cx="1118.3" cy="708.6" r="4.9"/>
	<circle class="st6" cx="1067.2" cy="571.1" r="7"/>
	<path class="st6" d="M1059.4,569.3c0-3.6,2.7-6.6,6.3-7c-3.9-0.4-7.3,2.4-7.7,6.2c-0.4,3.9,2.4,7.3,6.2,7.7c0.5,0.1,1,0.1,1.5,0
		C1062.1,575.9,1059.4,572.9,1059.4,569.3z"/>
	<polygon class="st6" points="1078.4,579 1068.8,573.9 1055.6,576 1052.8,588.1 1059.7,587.9 1061.6,583.4 1061.6,587.8 
		1064.7,587.7 1066.6,580.6 1067.7,588.1 1078.9,587.9 	"/>
	<rect x="1201.4" y="736.7" class="st3" width="204.5" height="99.5"/>
	<rect x="1201.4" y="736.7" class="st8" width="204.5" height="12.7"/>
	<circle class="st12" cx="1231.1" cy="786.2" r="18.6"/>
	<rect x="1280.2" y="775.8" class="st12" width="101.6" height="3"/>
	<rect x="1280.2" y="784.7" class="st12" width="101.6" height="3"/>
	<rect x="1280.2" y="793.6" class="st12" width="61.4" height="3"/>
	<path class="st5" d="M1334.4,648.3c0,0-2.8,9.1-1.2,11.9c1.6,2.8-2.8,8.7-9.9,5.9c-7.1-2.8-7.5-5.9-7.5-5.9s2.8-4.3,3.6-13.4
		L1334.4,648.3z"/>
	<path class="st5" d="M1370.5,737.4c0,0,14.2,7.1,7.9,16.6c-3.7,5.5-10.7,16.2-15.9,24.2c-4.4,6.7-7.7,14-10,21.7l-1,3.4l-4,4.7
		l-8.3-9.5c0,0,12.2-22.5,12.2-26.9s9.9-18.2,9.9-18.2l-9.9-6.3C1351.6,747.3,1362.6,734.7,1370.5,737.4z"/>
	<path class="st5" d="M1324.3,761.9c0,0-0.4,11.1-0.8,15.4c-0.3,3.6,2.8,13.6,1.7,24.8c-0.7,7.2-0.6,14.5,0.2,21.7l1.6,14.3
		l-11.9,1.2l-4-32.4c0,0-2.4-22.9-1.2-30.4l-0.4-15.8C1309.7,760.7,1318.4,757.6,1324.3,761.9z"/>
	<path class="st6" d="M1345.5,715.9c0,0,27.7,17.8,28.1,23.3c0,0-15.8-1.6-16.2,12.2c0,0-9.5-3.6-11.9-4.3s-15-9.1-15-9.1
		s-5.1,4-5.1,10.3c0,6.3,0.4,17.4,0,18.2c-0.4,0.8-9.5-10.7-17-0.8l-5.1-27.3c0,0-1.6-16.6,1.6-17.8l22.1-8.3L1345.5,715.9z"/>
	<circle class="st5" cx="1328.7" cy="641.4" r="11.9"/>
	<path class="st14" d="M1331.6,662.2c0,0-13.4,3.5-15.2-3.2c0,0-16.4,3.2-19.2,13.8s6.7,36.3,6.7,37.1s-7.9,5.5-4.3,7.9
		c3.6,2.4,6.7-0.4,5.1,2.8c-1.6,3.2-4.3,4-2,4.7s16.6-11.5,27.7-8.3c11.1,3.2,16.6,0.8,16.6,0.8l5-42.9c0.4-3.3-0.9-6.6-3.5-8.8
		c-2.5-2-5.8-4.2-8.9-4.8c-6.3-1.2-6.6-1.8-6.6-1.8L1331.6,662.2z"/>
	<path class="st5" d="M1344.3,731.3c0,0-3.6,20.1-8.3,17.4s1.2-17.4,1.2-17.4L1344.3,731.3z"/>
	<path class="st5" d="M1327.8,733.9c0,0,6.2,19.5,0.7,19.3c-5.5-0.3-7-16-7-16L1327.8,733.9z"/>
	<path class="st6" d="M1349.6,802.6c0,0,2.8-3.2,4.3,1.2s5.9,9.9,5.9,9.9s9.5,10.7,2.8,11.1c-6.7,0.4-16.2-9.5-16.2-9.5l-11.1-10.3
		c0,0,3.7-8.9,5.4-9S1342.1,806.6,1349.6,802.6z"/>
	<path class="st6" d="M1323.9,835.4c0,0,2.8,0.8,2.6-2.6c0,0,10.1,5.3,7.3,9.3c0,0-0.1,0.1-0.1,0.1c-3.9,5.5-9.2,9.9-15.4,12.7
		c-3,1.3-5.7,2.2-6.2,1.4c-1.2-2-1.2-5.9-0.4-7.5c0.8-1.6,4.7-4.3,3.6-6.7c-1.2-2.4,0.4-8.7,2.4-8.7S1323.9,835.4,1323.9,835.4z"/>
	<path class="st6" d="M1339,631.4c0,0-3.8-8.3-11.1-6.4s-11.4,4.8-11.8,7.6c-0.3,2.9,0.2,7.1,0.2,7.1s0.8-5.9,5.9-4.6
		c5.1,1.3,13,0.3,13,0.3l1.3,11.4c0,0,1.4-2.1,3-0.8C1341.1,647.4,1344.1,633.9,1339,631.4z"/>
	<path class="st14" d="M1304,672.4c0,0,9.5,25.7,8.7,28.8c-0.8,3.2,0,3.6,1.2,4.3c1.2,0.8,4.3,9.1,4.3,9.1s2,4.7,3.6,5.9
		s1.6,4.3,1.6,4.3s4,4,3.2,4.7s-0.8,2,0.8,3.2c1.6,1.2,3.2,2.8,2.4,3.2c-0.8,0.4-6.3,4.7-7.9,4.3c-1.6-0.4,0.8-2-1.2-2.8
		s-3.2-2-2.4-2.4s3.2-0.4,0.8-1.2c-2.4-0.8-10.7-5.9-13.4-12.2c-2.8-6.3-16-44.6-8-49.9C1297.5,671.9,1300.8,667.7,1304,672.4z"/>
	<path class="st14" d="M1347.8,668.1l0.2,0.1c3,1.3,5.2,3.9,5.9,7.2c0.9,4.1,1.7,10.1,1,15.7c-1.2,9.9-2,14.2-3.6,17.4
		c-1.6,3.2-2,2-1.6,4.3c0.4,2.4,2.4,0.4,0.4,3.6c-2,3.2-3.2,2.4-2.4,4s2,1.6,0.4,3.6c-1.6,2-1.6,2.8-2,3.6c-0.4,0.8-1.6,6.7-1.6,6.7
		s-6.3-2-9.9-1.2c0,0,3.2-5.5,2.4-6.7c-0.8-1.2-2-1.6-0.8-2.8c1.2-1.2,3.2-0.8,1.2-2c-2-1.2,1.6-13.4,1.6-13.4L1347.8,668.1z"/>
	<path class="st3" d="M1241.2,795.6c0,7.7-4.6,10.4-10.2,10.4c-0.1,0-0.3,0-0.4,0c-0.3,0-0.5,0-0.8,0c-5.1-0.4-9-3.2-9-10.3
		c0-7.4,9.4-16.7,10.1-17.4l0,0c0,0,0,0,0,0S1241.2,787.9,1241.2,795.6z"/>
	<path class="st1" d="M1230.7,804.8l3.7-5.2l-3.7,5.8l0,0.6c-0.3,0-0.5,0-0.8,0l0.4-7.7l0-0.1l0,0l0-0.7l-3.7-5.8l3.8,5.3l0,0.2
		l0.3-5.8l-3.2-6l3.2,5l0.3-12l0,0v0l-0.1,9.5l3.2-3.8l-3.2,4.6l-0.1,5.2l3-5l-3,5.7l0,2.9l4.3-6.9l-4.3,7.9L1230.7,804.8z"/>
	<path class="st3" d="M1001.3,755.4c-0.1-0.1-1.9-3.2-2.6-9.6c-0.6-5.9-0.2-15.7,4.9-29.5c9.7-26.1-2.2-47.1-2.4-47.3l0.6-0.3
		c0,0.1,3.1,5.4,4.9,14c2.4,11.3,1.5,23.1-2.5,33.9c-9.7,26-2.5,38.3-2.4,38.5L1001.3,755.4z"/>
	<circle class="st7" cx="997.6" cy="663.1" r="4.4"/>
	<circle class="st3" cx="1011.5" cy="679.4" r="4.4"/>
	<circle class="st7" cx="1002" cy="690.3" r="4.4"/>
	<circle class="st7" cx="1013.5" cy="699.5" r="4.4"/>
	<circle class="st3" cx="998.6" cy="713.8" r="4.4"/>
	<path class="st3" d="M1004,755.6c0,0-4.4-10.9,8.8-19L1004,755.6z"/>
	<path class="st3" d="M998.6,755.4c0,0-2-11.6-17.6-11.5L998.6,755.4z"/>
	<circle class="st11" cx="1207.8" cy="743" r="3"/>
	<circle class="st11" cx="1216.3" cy="743" r="3"/>
	<circle class="st11" cx="1224.7" cy="743" r="3"/>
</g>
<g>
	<circle class="st2" cx="1143.3" cy="523.8" r="25.4"/>
	<path class="st3" d="M1353,490.8h-142.3V461H1353V490.8z M1211.3,490.2h141.1v-28.5h-141.1V490.2z"/>
	<rect x="1201" y="467" class="st7" width="141.7" height="29.2"/>
	<circle class="st9" cx="1111.4" cy="437" r="2.2"/>
	<circle class="st9" cx="1119" cy="437" r="2.2"/>
	<circle class="st9" cx="1126.5" cy="437" r="2.2"/>
	<path class="st3" d="M1369.1,602.8h-263.9V431h263.9V602.8z M1105.8,602.1h262.7V431.6h-262.7V602.1z"/>
	<rect x="1105.5" y="440.5" class="st3" width="263.3" height="0.6"/>
	<path class="st3" d="M1112.1,438.5c-1.4,0-2.5-1.1-2.5-2.5c0-1.4,1.1-2.5,2.5-2.5s2.5,1.1,2.5,2.5
		C1114.6,437.4,1113.5,438.5,1112.1,438.5z M1112.1,434.1c-1,0-1.9,0.8-1.9,1.9c0,1,0.8,1.9,1.9,1.9c1,0,1.9-0.8,1.9-1.9
		C1113.9,435,1113.1,434.1,1112.1,434.1z"/>
	<path class="st3" d="M1119.6,438.5c-1.4,0-2.5-1.1-2.5-2.5c0-1.4,1.1-2.5,2.5-2.5s2.5,1.1,2.5,2.5
		C1122.1,437.4,1121,438.5,1119.6,438.5z M1119.6,434.1c-1,0-1.9,0.8-1.9,1.9c0,1,0.8,1.9,1.9,1.9c1,0,1.9-0.8,1.9-1.9
		C1121.5,435,1120.6,434.1,1119.6,434.1z"/>
	<path class="st3" d="M1127.1,438.5c-1.4,0-2.5-1.1-2.5-2.5c0-1.4,1.1-2.5,2.5-2.5c1.4,0,2.5,1.1,2.5,2.5c0,0,0,0,0,0
		C1129.6,437.4,1128.5,438.5,1127.1,438.5z M1127.1,434.1c-1,0-1.9,0.8-1.9,1.9s0.8,1.9,1.9,1.9c1,0,1.9-0.8,1.9-1.9c0,0,0,0,0,0
		C1129,435,1128.2,434.1,1127.1,434.1z"/>
	<rect x="1187.8" y="440.8" class="st3" width="0.6" height="161.9"/>
	<rect x="1217.8" y="520.4" class="st1" width="46.1" height="6.3"/>
	<rect x="1290.2" y="520.4" class="st1" width="46.1" height="6.3"/>
	<path class="st3" d="M1266.7,523.9H1220V517h46.7V523.9z M1220.6,523.2h45.5v-5.6h-45.5V523.2z"/>
	<rect x="1217.8" y="569" class="st1" width="46.1" height="6.3"/>
	<path class="st3" d="M1266.7,572.4H1220v-6.9h46.7V572.4z M1220.6,571.8h45.5v-5.6h-45.5V571.8z"/>
	<rect x="1217.9" y="544.1" class="st1" width="118.5" height="6.3"/>
	<path class="st3" d="M1339.2,548.2h-119.1v-6.9h119.1V548.2z M1220.8,547.5h117.9v-5.6h-117.9V547.5z"/>
	<path class="st3" d="M1339.1,523.9h-46.7V517h46.7V523.9z M1293,523.2h45.5v-5.6H1293V523.2z"/>
	<path class="st3" d="M1147.6,542.5c-14.2,0-25.8-11.5-25.8-25.8c0-14.2,11.5-25.8,25.8-25.8c14.2,0,25.8,11.5,25.8,25.8
		C1173.3,531,1161.8,542.5,1147.6,542.5z M1147.6,491.7c-13.8,0-25,11.2-25,25c0,13.8,11.2,25,25,25c13.8,0,25-11.2,25-25
		C1172.6,502.9,1161.4,491.8,1147.6,491.7z"/>
</g>
<g>
	<path class="st6" d="M97.3,722.1h12.1l29.9-11.7c0,0,21.2-8.7,19.5,7.8c-1.7,16.5-4.8,38.5-4.8,38.5s-9.5-4.3-14.7-3
		c-5.2,1.3-1.7-26.4-1.7-26.4S95.1,747.6,91.2,745s-4.8-20.8-4.8-20.8L97.3,722.1z"/>
	<path class="st10" d="M97.3,722.1h12.1l29.9-11.7c0,0,21.2-8.7,19.5,7.8c-1.7,16.5-4.8,38.5-4.8,38.5s-9.5-4.3-14.7-3
		c-5.2,1.3-1.7-26.4-1.7-26.4S95.1,747.6,91.2,745s-4.8-20.8-4.8-20.8L97.3,722.1z"/>
	<path class="st5" d="M116.4,684.1l14.7,21.1l34.2,28.6c0,0,31.6,7.4,27.3,12.6c-4.3,5.2-30.7-5.2-30.7-5.2s-39.4-28.6-40.7-30.7
		c-1.3-2.2-15.6-22.5-15.6-22.5L116.4,684.1z"/>
	<path class="st10" d="M116.4,684.1l14.7,21.1l34.2,28.6c0,0,31.6,7.4,27.3,12.6c-4.3,5.2-30.7-5.2-30.7-5.2s-39.4-28.6-40.7-30.7
		c-1.3-2.2-15.6-22.5-15.6-22.5L116.4,684.1z"/>
	<path class="st14" d="M107.7,667.1l9.5,18.6c0,0-2.2,9.1-5.6,10c-3.5,0.9-18.2-11.3-18.2-11.3L107.7,667.1z"/>
	<path class="st10" d="M107.7,667.1l9.5,18.6c0,0-2.2,9.1-5.6,10c-3.5,0.9-18.2-11.3-18.2-11.3L107.7,667.1z"/>
	<path class="st6" d="M223.9,712.4l2.8,11.6c0,0.1,0,0.3,0,0.4L214,764.3c-0.1,0.4-0.5,0.6-0.9,0.5c-0.3-0.1-0.5-0.3-0.5-0.6
		l-1.8-15.5c0-0.1,0-0.2,0-0.3l11.7-36c0.1-0.4,0.5-0.6,0.9-0.5C223.7,712,223.9,712.2,223.9,712.4z"/>
	<polygon class="st1" points="222.9,713.4 225.5,723.4 214.2,759.7 211.6,748.5 	"/>
	<path class="st6" d="M166.2,767.5c0.4,1.3,45-0.4,45.5-0.9c0.4-0.5,0.7-1.1,1-1.7c0.4-0.9,0.8-1.7,0.8-1.7l-1.7-14l-44.2-1.6
		c0,0-1.1,11.9-1.3,17.3C166.1,766.3,166.1,767.3,166.2,767.5z"/>
	<polygon class="st10" points="206,751.1 206.9,763.2 187.4,763.2 187.4,751.1 	"/>
	<polygon class="st10" points="180.9,755 181,755 180.4,760.2 169.6,760.2 169.6,755 	"/>
	<path class="st10" d="M166.2,767.5c0.4,1.3,45-0.4,45.5-0.9c0.4-0.5,0.7-1.1,1-1.7h-46.5C166.1,766.3,166.1,767.3,166.2,767.5z"/>
	<circle class="st5" cx="114.2" cy="641.5" r="19.5"/>
	<path class="st5" d="M112.9,658.8c0,0-6.5,11.3-7.8,17.3c-1.3,6.1-19.5-12.1-19.5-12.1l-2.4-6.3c0,0,17.1-8,15.8-14.5
		C97.7,636.7,112.9,658.8,112.9,658.8z"/>
	<path class="st5" d="M116.3,692.6l17.8,23.4l42.4,31.6c0,0,30.7,6.5,23.8,11.3c-6.9,4.8-26.9-4.3-26.9-4.3s-42.9-23-52-32.5
		c-9.1-9.5-26-25.6-26-25.6L116.3,692.6z"/>
	<path class="st6" d="M92.5,729l5.2,8.2l31-9.8c6.8-2.1,14.3-1.4,20.3,2.4c5.4,3.4,8.9,8.8,1.1,16.8c-15.6,16-26,7.4-26,7.4
		s-52.4,24.7-61.1,12.6S54,748.5,54,748.5S87.3,727.7,92.5,729z"/>
	<path class="st7" d="M157.5,757.6c0,0,13.9,9.1-2.6,13.4c-16.5,4.3-28.6-1.7-28.6-1.7s-14.3,0-14.3-7.4c0-7.4,4.8-8.2,4.8-8.2
		l14.7,2.2C131.5,755.8,149.3,751.1,157.5,757.6z"/>
	<path class="st6" d="M130.2,636.6c1.3,0.6,2.6,1.3,4.1,1.5s3.1-0.3,3.8-1.6c0.4-0.7,0.4-1.5,0.4-2.3c0.1-2.4-0.1-4.9-1.6-6.8
		c-1-1.2-2.4-1.9-3.4-3.1c-0.7-0.8-1.2-1.8-1.7-2.8c-1.9-3.6-4.8-7.1-8.8-8.2c-1.7-0.4-3.4-0.4-5.1-0.4l-10,0.1
		c-1.6,0-3.3,0-4.8,0.5c-3.2,1-5.6,3.7-7.7,6.3c-1.6,1.9-3.2,3.9-4.4,6.1c-1.7,3.2-2.6,6.8-2.5,10.5c0,0.9,0.1,1.9,0.4,2.8
		c0.3,0.8,0.7,1.6,1.1,2.4c1.9,3.7,3,8.3,0.9,11.8c3.7-1.5,7.3-3.5,9.7-6.6c1.1-1.4,1.9-3,3.4-4.1c1.4-1,3.8-1.1,4.7,0.4
		c0.3,0.6,0.5,1.3,0.5,2c0.1,1.1,0.1,2.3,0.5,3.3c0.5,1,1.6,1.9,2.7,1.6c1.9-0.5,1.7-3.4,3.2-4.7c1.1-1,2.8-0.8,4.2-1.3
		c1.7-0.5,2.9-2,3.6-3.5c0.5-1.2,0.5-4.4,1.5-5C126.1,634.8,129,636.1,130.2,636.6z"/>
	<path class="st14" d="M81.7,655.7c0.9-0.2,1.8-0.2,2.7,0c2.8,0.7,9,2.7,10.3,5.7c1.7,3.9,7.8,10,7.8,10s8.2,8.2,6.5,13.9
		c-1.7,5.6-8.2,12.1-8.2,12.1s1.7,26.9-6.9,33.8c-8.7,6.9-12.1,2.2-12.1,8.7s-26.9,26.8-32,14.3c0,0,2.6-23.4,1.7-31.6
		C50.5,714.4,51.8,663.8,81.7,655.7z"/>
	<path class="st14" d="M95.6,666.6c0,0,26.4,19.5,21.7,27.7c0,0-16,7.8-19.5,7.4c-3.5-0.4-16.9-15.6-20.4-16.9
		S72.2,660.1,95.6,666.6z"/>
</g>
<g>
	<ellipse class="st12" cx="692.5" cy="999.2" rx="41.6" ry="6.8"/>
	<polygon class="st2" points="941.3,969.1 773.7,934.2 773.7,771.4 941.3,684 	"/>
	<polygon class="st8" points="940.9,701.1 773.3,781.3 773.3,771.8 940.9,684.6 	"/>
	<path class="st12" d="M781.1,773.1c0,2.2-0.7,4.3-1.6,4.7c-0.9,0.4-1.6-1-1.6-3.1s0.7-4.2,1.6-4.7
		C780.3,769.5,781.1,770.9,781.1,773.1z"/>
	<path class="st12" d="M787.6,769.8c0,2.1-0.7,4.2-1.6,4.6c-0.9,0.4-1.6-0.9-1.6-3s0.7-4.1,1.6-4.6
		C786.8,766.4,787.6,767.7,787.6,769.8z"/>
	<path class="st12" d="M794.1,766.6c0,2.1-0.7,4.2-1.6,4.6c-0.9,0.4-1.6-0.9-1.6-3s0.7-4.1,1.6-4.6
		C793.3,763.1,794.1,764.5,794.1,766.6z"/>
	<polygon class="st15" points="897.8,810.9 794.5,834.5 794.5,804.4 897.8,767.9 	"/>
	<polygon class="st11" points="895.7,808.8 792.4,832.5 792.4,802.3 895.7,765.8 	"/>
	<path class="st15" d="M811.6,813.8c0,4.9-1.8,9.3-4.1,9.8c-2.2,0.6-3.9-2.8-3.9-7.5c0-4.7,1.7-9.1,3.9-9.8
		C809.7,805.6,811.6,808.9,811.6,813.8z"/>
	<path class="st9" d="M810.3,812.5c0,4.9-1.8,9.3-4.1,9.8c-2.2,0.6-3.9-2.8-3.9-7.5c0-4.7,1.7-9.1,3.9-9.8
		C808.5,804.3,810.3,807.7,810.3,812.5z"/>
	<polygon class="st12" points="870.9,795.3 821.3,809.6 821.3,804.6 870.9,789.3 	"/>
	<polygon class="st12" points="859.5,809.8 830.3,817.2 830.3,812 859.5,804 	"/>
	<polygon class="st15" points="897.8,918.6 794.5,910 794.5,849.5 897.8,832.3 	"/>
	<polygon class="st11" points="895.3,916.6 792,907.9 792,847.5 895.3,830.2 	"/>
	<polygon class="st15" points="809.1,864.6 804.3,865 804.3,859.7 809.1,859.2 	"/>
	<polygon class="st9" points="808.3,863.7 803.5,864.2 803.5,858.9 808.3,858.4 	"/>
	<polygon class="st12" points="870.9,857.8 813.2,863.2 813.2,858.3 870.9,851.8 	"/>
	<polygon class="st12" points="870.9,877.4 813.2,879.2 813.2,874.3 870.9,871.4 	"/>
	<polygon class="st12" points="870.9,897.5 813.2,895.7 813.2,890.8 870.9,891.5 	"/>
	<polygon class="st16" points="687.8,832.4 676.7,832.4 676.7,827 686,827 688,828.2 	"/>
	<polygon class="st17" points="668.6,981.5 669.1,989.6 675.8,988.3 674.7,980.2 	"/>
	<path class="st17" d="M700.6,977.2c0,0,0.2,6.8-0.5,8.6s1.8,2.7,1.8,2.7h5.4l3.2,0.5v-3.4c0,0-3.6-5.6-3.6-8.8
		C706.9,973.6,700.6,977.2,700.6,977.2z"/>
	<path class="st6" d="M669.7,988.3c0,0,4.5-2.1,6.1-0.8c1.6,1.3,7.4,12.3,5.2,13c0,0-1.6,2.7-7,0.9c-5.4-1.8-5.4-3.8-5.4-3.8
		s-1.6-1.4-1.6-1.8c0-0.5,0.7-4.5,0.7-4.5s0.5-3.4,1.3-3.2L669.7,988.3z"/>
	<path class="st6" d="M701.1,984.9c0,0-0.7-0.7-1.1,0s-2.9,9.2-0.7,9.7c2.3,0.5,5.6,2,6.1,1.6c0.4-0.5,0.7-1,0.9-1.6
		c0,0,3.6,1.6,4.7,2.9c1.1,1.4,14.7,4.3,14.2,0s-7.2-7.9-7.2-7.9l-7.4-5c0,0-2.9,0.2-3.6,1.6S701.5,987.4,701.1,984.9z"/>
	<path class="st16" d="M635,897.6c0,0-2.5,3.2-2,3.4s10.4,2.5,15.8,1.1s16.7-1.1,17.4-2.7s9-21.2,9-21.2l-2.7-14.9l-2.9-3.8
		l-6.8-5.9l-13.5,25.3L635,897.6z"/>
	<path class="st10" d="M635,897.6c0,0-2.5,3.2-2,3.4s10.4,2.5,15.8,1.1s16.7-1.1,17.4-2.7s9-21.2,9-21.2l-2.7-14.9l-2.9-3.8
		l-6.8-5.9l-13.5,25.3L635,897.6z"/>
	<path class="st6" d="M663.6,892.2c0,0-3.2,11.3,0,26.8c3.2,15.6,0.2,18.9,0.9,19.6c0.7,0.7,0.9,0.5,0.9,1.1s0.7,3.8,0,5
		s-0.7,37,1.4,37.9s7.9,3.2,9,0c1.1-3.2,0.2-25.9,0.7-27.1c0.5-1.1,0.5-3.8,0.5-4.5c0-0.7,1.4-8.3,1.6-10.4s0.9-6.1,0.9-6.1
		s-0.5-16,0.9-20.7c1.4-4.7,1.8-5.2,1.8-5.2l10.8,28.2c0,0-0.9,2.9,0,3.8s-0.2,0.7,0.7,2.3s1.8,2,1.8,2.9s-0.9,0.9-0.5,1.6
		s1.1,3.2,1.1,3.2l-1.1,2.7c0,0,0.7,5.6,1.6,9c0.9,3.4,0.9,17.1,2,17.4c1.1,0.2,9.9,2.7,9.9-2.5c0-5.2-0.7-27.7-0.7-27.7
		s-1.4-3.4-1.4-4.3c0-0.9-0.2-1.4,0.2-1.8c0.5-0.5,0.9-1.4,0.2-2c-0.7-0.7-0.5-1.6-0.5-2.5c0-1.2-0.2-2.4-0.5-3.6
		c-0.2-0.9-4.5-29.1-4.5-29.1s0.9-3.4,0-3.6s-0.9-2-0.9-2.9s2.3-12.2-0.5-12.2C697.5,887.5,663.6,892.2,663.6,892.2z"/>
	<path class="st17" d="M633.9,878.7l-3.2,1.6c0,0-11.3,6.1-6.3,9.5c5,3.4,9.9-4.7,9.9-4.7l4.7-3.6L633.9,878.7z"/>
	<path class="st17" d="M677.9,816.9c0,0-0.9,10.4-5.6,12.6c-4.7,2.3-1.6,19.2-1.6,19.2l6.5,6.3l11.5-3.4l1.4-7.7l1.1-7.9l-2.7-4.1
		c0,0-3.4-0.9-2-9.9C687.8,813,677.9,816.9,677.9,816.9z"/>
	<path class="st7" d="M671.1,833.1c0,0,5.2,17.1,8.8,17.1c3.6,0,5.6-4.1,6.1-9c0.5-5,3.4-10.4,3.4-10.4l7,6.3c0,0,5.6,49.8,5.2,51.2
		s-18,2.9-25,5s-14,0.5-14-0.7c0-1,3.6-9.7,0.9-16.1c-1-2.3-1.7-4.7-2-7.1c-0.4-3.3-0.8-7.4-0.4-8.6c0.7-2.3,4.3-26.2,4.3-26.2
		L671.1,833.1z"/>
	<path class="st16" d="M674.9,826.9c0,0-4,2.2-5.8,3.1c-1.8,0.9-12.9,3.6-13.1,5c-0.2,1.4,1.6,20.3,0.7,22.3
		c-0.9,2-9.9,20.1-9.9,20.1l-0.5,3.8c0,0-14.9,17.8-13.1,19.8c1.8,2,8.6-6.3,8.6-6.3s15.1-24.1,15.6-25c0.5-0.9,9.7-17.6,11.1-18
		c1.4-0.5,4.5-19.4,5-20.3C673.8,830.4,675.6,826.5,674.9,826.9z"/>
	<path class="st16" d="M657.1,834.7h-1.4c0,0-5,18.9-6.3,21.4c-1.4,2.5-1.6,6.5-1.8,7.2s-1.1,0.5-1.4,2c-0.2,1.6-2.5,3.6-4.3,4.5
		c-1.8,0.9-9.9,8.6-9.7,8.8c0.2,0.2,2.7,8.1,4.3,8.1s7.9-7.7,8.6-7.7c0.7,0,3.6-2.7,4.1-2.9c0.5-0.2,12-21.4,11.5-26.6
		S657.1,834.7,657.1,834.7z"/>
	<path class="st17" d="M713.4,893.1l2.8,2.2c0,0,9.8,8.2,4.3,10.5c-5.5,2.3-8.8-6.6-8.8-6.6l-3.9-4.5L713.4,893.1z"/>
	<path class="st7" d="M686.1,827.2c0,0,3,1.4,4.3,2.6s11.7,4.1,11.7,5s-1.1,14.9-1.1,14.9l1.6,24.8c0,0,2.3,28,2.7,28.6
		c0.5,0.7,1.1,4.3,0,4.3s-6.8-6.3-6.5-9.5c0.2-3.2,1.8-10.4,0.2-12.2c-1.6-1.8-9-32-9-33.8c0-1.8-3.2-19.8-2.9-20.3
		S686.1,827.2,686.1,827.2z"/>
	<path class="st16" d="M698.8,834.5l3.4,0.2l8.3,34.1c0,0,0.7,4.3,0.9,4.7s3.6,20.1,2.3,20.7s-5.9,3.2-6.1,1.6s-2.5-10.4-4.7-12.4
		c-2.3-2-4.5-37-4.5-37L698.8,834.5z"/>
	<circle class="st17" cx="685.3" cy="813.7" r="9.2"/>
	<path class="st6" d="M678.8,814.4c0.6-0.3,1.4,0,1.9,0.6c1-4.9,5.8-8,10.7-7c0.9,0.2,1.7,0.5,2.4,0.9V808c0-4.3-3.5-7.8-7.8-7.8
		h-1.9c-8.1,0-14.7,6.6-14.7,14.7c0,0,0,0,0,0v2.6c0,5,2.8,9.5,7.2,11.7l8.4-4.5c-2.5-1.4-4.2-3.9-4.5-6.7c-0.7,0.3-1.7-0.2-2.2-1.2
		C678,815.9,678.1,814.8,678.8,814.4z"/>
</g>
</svg>
