<?xml version="1.0" encoding="utf-8"?>
<!-- Generator: Adobe Illustrator 24.3.0, SVG Export Plug-In . SVG Version: 6.00 Build 0)  -->
<svg version="1.1" id="Camada_1" xmlns="http://www.w3.org/2000/svg" xmlns:xlink="http://www.w3.org/1999/xlink" x="0px" y="0px"
	 viewBox="0 0 400 296.1" style="enable-background:new 0 0 400 296.1;" xml:space="preserve">
<style type="text/css">
	.st0{fill:#E9EBED;}
	.st1{fill:#8EF9F3;}
	.st2{fill:#FF6D00;}
	.st3{fill:#263238;}
	.st4{fill:#64ADA8;}
	.st5{fill:#FFFFFF;}
	.st6{fill:#D15602;}
	.st7{fill:none;stroke:#FFA000;stroke-linecap:round;stroke-linejoin:round;stroke-dasharray:1,4;}
	.st8{fill:#FFA000;}
	.st9{fill:#D37E02;}
	.st10{clip-path:url(#SVGID_2_);}
	.st11{fill:#B24D19;}
	.st12{fill:#F88D5B;}
	.st13{fill:none;stroke:#263238;stroke-miterlimit:10;}
	.st14{fill:#FFA000;stroke:#263238;stroke-miterlimit:10;}
</style>
<rect x="-0.1" y="0.2" class="st0" width="400" height="296.1"/>
<path class="st1" d="M198.8,72.7l30.9,18.9c0,0,5.5,3.8,0,7s-9.9,5.9-9.9,5.9l-1.5-1.1l10.6-6.8c0,0,2.4-1.2-0.2-3.6
	s-31.2-19.1-31.2-19.1L198.8,72.7z"/>
<path class="st2" d="M96.2,103.4l5.9-3.5c0,0,3.2-1.4,5.2,0s35.9,20.6,35.9,20.6l1.3-1.1l-35.7-20.2c0,0-3.2-2.7-7.5-0.6
	s-6.5,3.6-6.5,3.6L96.2,103.4z"/>
<polygon class="st1" points="119.9,207.6 168,180 165.9,178.4 117.4,206.3 "/>
<path class="st2" d="M251.9,243.8l30.9-18.7c0,0,2.6-5.8-0.9-7.8c-3.5-1.9-52.2-31.2-52.2-31.2l-1.1,1.1l51.2,31.6
	c0,0,3.5,2.6,0.2,4.9c-3.4,2.3-30,19.1-30,19.1L251.9,243.8z"/>
<path class="st1" d="M260.3,168.7l17.5,10.9c0,0,4.2,1.4,7-1.2c2.8-2.6,21.1-12.4,21.1-12.4l1.9,1.1l-22.2,13.8c0,0-5.6,2.8-10.6,0
	c-4.9-2.8-16.6-11.3-16.6-11.3L260.3,168.7z"/>
<polygon class="st2" points="255.2,125 303,96.3 301.5,94.9 253.4,123.6 "/>
<g>
	<path class="st3" d="M91,248.4c0,0,8.1,5,13,2.5c6.4-3.3,31.3-20,31.3-20s4.3-3.6,0-5.9c-4.3-2.3-5.2-3-5.2-3L91,248.4z"/>
	<g>
		<path class="st1" d="M56.9,215.4v12.4c0,0-0.1,1.4,1.8,2.5c1.9,1.1,31.6,17.9,31.6,17.9s3.3,1.1,4.4,0.9v-11.7
			c0,0-1.9,0.1-4.3-0.7s-33.2-19.1-33.2-19.1S56.5,216,56.9,215.4z"/>
		<path class="st4" d="M94.3,236.7v12.5c0,0,0.3,0.3,3.3-1s31.3-18.8,31.3-18.8s1.6-1.2,1.6-1.7s0-12.2,0-12.2s0,1.3-1.3,2
			c-1.3,0.8-32.4,19-32.4,19S96,237,94.3,236.7z"/>
		<path class="st5" d="M87.8,196.4c0,0,3.8-2.1,5.8-1.9c2,0.2,2.7,0.1,6.5,2.5c3.9,2.4,27.3,15.6,27.3,15.6l2.2,1.2c0,0,1,0.7,1,2.3
			s-2.8,2.9-2.8,2.9L98,236.4c0,0-2,1-4.2,0.9s-3.7-0.7-5.1-1.4s-30.8-17.8-30.8-17.8s-2.7-2.8,0.3-4.6
			C61.1,211.6,87.8,196.4,87.8,196.4z"/>
	</g>
</g>
<g>
	<path class="st3" d="M223.6,284.1c0,0,8.1,5,13,2.5c6.4-3.3,31.3-20,31.3-20s4.3-3.6,0-5.9s-5.2-3-5.2-3L223.6,284.1z"/>
	<g>
		<path class="st2" d="M189.5,251.1v12.4c0,0-0.1,1.4,1.8,2.5s31.6,17.9,31.6,17.9s3.3,1.1,4.4,0.9v-11.7c0,0-1.9,0.1-4.3-0.7
			c-2.4-0.8-33.2-19.1-33.2-19.1S189.1,251.8,189.5,251.1z"/>
		<path class="st6" d="M226.9,272.4v12.5c0,0,0.3,0.3,3.3-1s31.3-18.8,31.3-18.8s1.6-1.2,1.6-1.7c0.1-0.5,0-12.2,0-12.2s0,1.3-1.3,2
			c-1.3,0.8-32.4,19-32.4,19S228.7,272.7,226.9,272.4z"/>
		<path class="st5" d="M220.5,232.1c0,0,3.8-2.1,5.8-1.9s2.7,0.1,6.5,2.5c3.9,2.4,27.3,15.6,27.3,15.6l2.2,1.2c0,0,1,0.7,1,2.3
			s-2.8,2.9-2.8,2.9l-29.8,17.4c0,0-2,1-4.2,0.9c-2.2-0.2-3.7-0.7-5.1-1.4c-1.4-0.7-30.8-17.8-30.8-17.8s-2.7-2.8,0.3-4.6
			C193.7,247.4,220.5,232.1,220.5,232.1z"/>
	</g>
</g>
<g>
	<path class="st3" d="M326.1,177.9c0,0,8.1,5,13,2.5c6.4-3.3,31.3-20,31.3-20s4.3-3.6,0-5.9s-5.2-3-5.2-3L326.1,177.9z"/>
	<g>
		<path class="st1" d="M292,144.9v12.4c0,0-0.1,1.4,1.8,2.5s31.6,17.9,31.6,17.9s3.3,1.1,4.4,0.9v-11.7c0,0-1.9,0.1-4.3-0.7
			s-33.2-19.1-33.2-19.1S291.7,145.6,292,144.9z"/>
		<path class="st4" d="M329.4,166.2v12.5c0,0,0.3,0.3,3.3-1s31.3-18.8,31.3-18.8s1.6-1.2,1.6-1.7c0.1-0.5,0-12.2,0-12.2s0,1.3-1.3,2
			c-1.3,0.8-32.4,19-32.4,19S331.2,166.5,329.4,166.2z"/>
		<path class="st5" d="M323,125.9c0,0,3.8-2.1,5.8-1.9s2.7,0.1,6.5,2.5c3.8,2.4,27.3,15.6,27.3,15.6l2.2,1.2c0,0,1,0.7,1,2.3
			s-2.8,2.9-2.8,2.9L333.1,166c0,0-2,1-4.2,0.9c-2.2-0.2-3.7-0.7-5.1-1.4S293,147.7,293,147.7s-2.7-2.8,0.3-4.6
			C296.2,141.2,323,125.9,323,125.9z"/>
	</g>
</g>
<g>
	<path class="st3" d="M322.9,107.3c0,0,8.1,5,13,2.5c6.4-3.3,31.3-20,31.3-20s4.3-3.6,0-5.9s-5.2-3-5.2-3L322.9,107.3z"/>
	<g>
		<path class="st2" d="M288.7,74.4v12.4c0,0-0.1,1.4,1.8,2.5s31.6,17.9,31.6,17.9s3.3,1.1,4.4,0.9V96.3c0,0-1.9,0.1-4.3-0.7
			S289,76.5,289,76.5S288.4,75,288.7,74.4z"/>
		<path class="st6" d="M326.1,95.6v12.5c0,0,0.3,0.3,3.3-1s31.3-18.8,31.3-18.8s1.6-1.2,1.6-1.7c0.1-0.5,0-12.2,0-12.2s0,1.3-1.3,2
			c-1.3,0.8-32.4,19-32.4,19S327.9,96,326.1,95.6z"/>
		<path class="st5" d="M319.7,55.4c0,0,3.8-2.1,5.8-1.9c2,0.2,2.7,0.1,6.5,2.5c3.9,2.4,27.3,15.6,27.3,15.6l2.2,1.2c0,0,1,0.7,1,2.3
			c0,1.6-2.8,2.9-2.8,2.9l-29.8,17.4c0,0-2,1-4.2,0.9s-3.7-0.7-5.1-1.4c-1.4-0.7-30.8-17.8-30.8-17.8s-2.7-2.8,0.3-4.6
			C292.9,70.6,319.7,55.4,319.7,55.4z"/>
	</g>
</g>
<g>
	<path class="st3" d="M176.1,78.8c0,0,8.1,5,13,2.5c6.4-3.3,31.3-20,31.3-20s4.3-3.6,0-5.9c-4.3-2.3-5.2-3-5.2-3L176.1,78.8z"/>
	<g>
		<path class="st1" d="M142,45.8v12.4c0,0-0.1,1.4,1.8,2.5c1.9,1.1,31.6,17.9,31.6,17.9s3.3,1.1,4.4,0.9V67.8c0,0-1.9,0.1-4.3-0.7
			S142.3,48,142.3,48S141.7,46.4,142,45.8z"/>
		<path class="st4" d="M179.4,67.1v12.5c0,0,0.3,0.3,3.3-1S214,59.8,214,59.8s1.6-1.2,1.6-1.7c0.1-0.5,0-12.2,0-12.2s0,1.3-1.3,2
			s-32.4,19-32.4,19S181.2,67.4,179.4,67.1z"/>
		<path class="st5" d="M173,26.8c0,0,3.8-2.1,5.8-1.9s2.7,0.1,6.5,2.5c3.9,2.4,27.3,15.6,27.3,15.6l2.2,1.2c0,0,1,0.7,1,2.3
			s-2.8,2.9-2.8,2.9l-29.8,17.4c0,0-2,1-4.2,0.9c-2.2-0.2-3.7-0.7-5.1-1.4c-1.4-0.7-30.8-17.8-30.8-17.8s-2.7-2.8,0.3-4.6
			S173,26.8,173,26.8z"/>
	</g>
</g>
<g>
	<path class="st3" d="M68.2,139.2c0,0,7.8,4.8,12.4,2.4c6.2-3.1,30-19.1,30-19.1s4.1-3.5,0-5.7s-5-2.8-5-2.8L68.2,139.2z"/>
	<g>
		<path class="st2" d="M35.6,107.7v11.8c0,0-0.1,1.3,1.7,2.4S67.5,139,67.5,139s3.1,1.1,4.2,0.8v-11.2c0,0-1.8,0.1-4.1-0.7
			s-31.7-18.3-31.7-18.3S35.2,108.3,35.6,107.7z"/>
		<path class="st6" d="M71.3,128v12c0,0,0.3,0.3,3.2-1s29.9-18,29.9-18s1.5-1.1,1.6-1.6s0-11.7,0-11.7s0,1.2-1.3,1.9
			c-1.3,0.7-31,18.1-31,18.1S73,128.3,71.3,128z"/>
		<path class="st5" d="M65.2,89.5c0,0,3.6-2,5.6-1.8c1.9,0.2,2.5,0.1,6.2,2.4s26.1,14.9,26.1,14.9l2.1,1.1c0,0,1,0.7,1,2.2
			s-2.7,2.8-2.7,2.8L75,127.8c0,0-1.9,1-4,0.8s-3.5-0.6-4.9-1.3s-29.5-17.1-29.5-17.1s-2.5-2.7,0.3-4.4
			C39.6,104.1,65.2,89.5,65.2,89.5z"/>
	</g>
</g>
<polyline class="st7" points="249.4,178.7 274.8,194.5 332.3,230.2 "/>
<path class="st7" d="M238.1,111.5c0,0,22.6-13.1,24.4-14.3c1.8-1.2,8.6-4.2-3-9.5s-15-8.1-15-8.1s-5.6-2.8,4.1-7.8
	c9.7-4.9,57.4-34.4,57.4-34.4"/>
<path class="st7" d="M166.6,102.4L93.7,60.7c0,0-9.9-4.2,3.3-10.8s36.8-19.8,36.8-19.8s5.1-1.6-4.8-8.2S101.8,4.3,101.8,4.3"/>
<path class="st7" d="M139.8,166.3l-11.4,6.1c0,0-2,3.3-13.3-3.1S91,157,91,157s-4.3-4.7-13,1.2s-23.1,13.3-23.1,13.3"/>
<g>
	<path class="st3" d="M190.8,193c0,0,15.2,9.3,24.2,4.7c12-6.1,58.4-37.2,58.4-37.2s8-6.8,0-11.1s-9.7-5.5-9.7-5.5L190.8,193z"/>
	<g>
		<path class="st8" d="M127.2,131.5v23.1c0,0-0.2,2.6,3.3,4.7c3.5,2.1,58.8,33.4,58.8,33.4s6.1,2.1,8.2,1.6v-21.9c0,0-3.5,0.1-8-1.3
			c-4.5-1.4-61.8-35.6-61.8-35.6S126.5,132.7,127.2,131.5z"/>
		<path class="st9" d="M196.9,171.2v23.2c0,0,0.5,0.6,6.2-1.9c5.6-2.5,58.3-35,58.3-35s2.9-2.2,3.1-3.2s0-22.7,0-22.7s0,2.4-2.5,3.8
			c-2.5,1.4-60.4,35.4-60.4,35.4S200.2,171.8,196.9,171.2z"/>
		<path class="st5" d="M184.9,96.1c0,0,7.1-3.9,10.9-3.5c3.8,0.4,4.9,0.3,12.2,4.7c7.2,4.4,50.8,29.1,50.8,29.1l4.1,2.2
			c0,0,1.9,1.3,1.9,4.3s-5.3,5.5-5.3,5.5l-55.6,32.5c0,0-3.7,1.9-7.8,1.6c-4.1-0.4-6.9-1.2-9.5-2.6c-2.6-1.3-57.4-33.3-57.4-33.3
			s-4.9-5.2,0.5-8.6C135.1,124.5,184.9,96.1,184.9,96.1z"/>
	</g>
</g>
<g>
	<g>
		<defs>
			<polygon id="SVGID_1_" points="211.5,166.5 139,123.4 184.5,96.7 259,141.2 			"/>
		</defs>
		<clipPath id="SVGID_2_">
			<use xlink:href="#SVGID_1_"  style="overflow:visible;"/>
		</clipPath>
		<g class="st10">
			<path class="st11" d="M159.9,125.3l18.6-17.9l3.7,2.2l-14.1,13.2l22.6-8.1l3.7,2.2l-30.9,10.6L159.9,125.3z"/>
			<path class="st12" d="M182.3,138.6l-3.2-1.9l9.1-5.2c1.9-1.1,3.1-1.9,3.6-2.3c0.4-0.4,0.7-0.8,0.7-1.2c0-0.4-0.2-0.7-0.6-0.9
				c-0.6-0.3-1.3-0.5-2.2-0.5c-0.9,0-1.8,0.1-2.7,0.5c-0.9,0.3-2.4,1.1-4.4,2.2l-8.1,4.6l-3.2-1.9l17.9-10.2l3,1.8l-2.7,1.5
				c3.1-0.5,5.5-0.3,7.1,0.7c0.7,0.4,1.2,0.9,1.4,1.5c0.2,0.6,0.2,1.1-0.1,1.6c-0.3,0.5-0.8,1-1.4,1.5c-0.6,0.5-1.7,1.1-3.1,1.9
				L182.3,138.6z M196.7,147.2l-3-1.8l2.6-1.5c-1.5,0.3-2.9,0.3-4.1,0.2c-1.2-0.1-2.1-0.4-2.8-0.8c-1.4-0.8-1.8-2-1.1-3.5
				c0.7-1.5,2.5-3.1,5.5-4.8c3.1-1.7,5.9-2.7,8.5-3.1c2.6-0.3,4.6,0,6.1,0.9c1.4,0.8,1.7,2,1,3.5l9.2-5.1l3.3,1.9L196.7,147.2z
				 M197.6,136.8c-1.9,1.1-3.1,2-3.6,2.7c-0.7,1-0.6,1.8,0.3,2.3c0.7,0.4,1.8,0.6,3.3,0.4c1.5-0.2,3.1-0.8,5-1.9
				c2.1-1.2,3.3-2.1,3.8-3c0.4-0.8,0.2-1.5-0.6-1.9c-0.8-0.5-1.9-0.6-3.3-0.4C201,135.2,199.4,135.8,197.6,136.8z M215,143.6
				l-2.1-2.2c2.1-0.8,4-1.2,5.7-1.1c1.7,0,3.3,0.5,4.9,1.4c1.4,0.9,2.3,1.6,2.5,2.4c0.2,0.7,0,1.4-0.5,2c-0.5,0.6-1.8,1.5-3.9,2.6
				l-5.7,3c-1.6,0.9-2.7,1.5-3.4,2c-0.7,0.5-1.3,1-1.9,1.7l-3.2-1.9c0.2-0.2,0.6-0.5,1.1-1c0.2-0.2,0.4-0.3,0.4-0.4
				c-1.3,0.1-2.5,0.1-3.6-0.1c-1-0.2-1.9-0.4-2.6-0.9c-1.2-0.7-1.7-1.6-1.4-2.6c0.3-1,1.2-1.9,2.8-2.7c1-0.6,2.1-1,3.2-1.2
				c1.1-0.2,2.2-0.3,3.2-0.2c1,0.1,2.3,0.4,3.7,0.9c1.9,0.7,3.4,1.1,4.3,1.2l0.5-0.3c0.9-0.5,1.5-1,1.5-1.4c0.1-0.4-0.3-0.9-1.1-1.4
				c-0.6-0.3-1.2-0.5-1.9-0.5C216.9,143.1,216,143.2,215,143.6z M215.4,148.3c-0.6-0.1-1.5-0.4-2.7-0.8c-1.2-0.4-2-0.6-2.6-0.6
				c-0.9,0-1.6,0.2-2.3,0.6c-0.7,0.4-1.1,0.8-1.2,1.3c-0.2,0.5,0,0.9,0.5,1.2c0.6,0.3,1.4,0.5,2.5,0.5c0.8,0,1.6-0.1,2.4-0.4
				c0.5-0.2,1.3-0.6,2.5-1.2L215.4,148.3z"/>
		</g>
	</g>
</g>
<g>
	<polygon class="st8" points="173.7,50.9 176.8,42.1 187.3,46.7 	"/>
	<polygon class="st1" points="182,47.1 189.4,52.1 185,55.1 177.6,50.2 	"/>
	<path class="st13" d="M183.1,55.2l-4,2.8L162.8,47c-1-0.7-0.9-1.8,0.1-2.6l14.5-10.2"/>
	<polygon class="st13" points="182,47.1 189.4,52.1 185,55.1 177.6,50.2 	"/>
	<line class="st13" x1="181" y1="49.3" x2="182.3" y2="50.1"/>
	<path class="st13" d="M197.4,45.4l-16.5-11.2c-0.9-0.6-2.5-0.6-3.5,0.1s-1.1,1.8-0.1,2.4l16.4,11.1l-4.4,3.1"/>
</g>
<g>
	
		<ellipse transform="matrix(4.422902e-02 -0.999 0.999 4.422902e-02 235.4688 396.6288)" class="st8" cx="325" cy="75.3" rx="4.4" ry="6.6"/>
	
		<ellipse transform="matrix(4.422902e-02 -0.999 0.999 4.422902e-02 229.4841 406.5849)" class="st1" cx="327.2" cy="83.4" rx="4.7" ry="7.1"/>
	
		<ellipse transform="matrix(4.422902e-02 -0.999 0.999 4.422902e-02 229.4982 406.7393)" class="st13" cx="327.3" cy="83.4" rx="4.7" ry="7.1"/>
	<path class="st13" d="M318,82.3c-0.2,0-0.5-0.1-0.7-0.1l-5.3-0.9l-0.3-3.7c-0.4-4.1,2.1-8,6.8-10.5l6.4-3.5c0,0,5.2,1.2,10,5
		c4.8,3.8,5.8,7.5,5.8,7.5l-6.4,3.5c-0.1,0.1-0.2,0.1-0.3,0.2"/>
	<path class="st13" d="M336.7,75.2c-1-1.9-2.5-3.7-4.5-5.3c-2-1.6-4.4-2.9-7.1-3.9l-4.8,2.6c-3.9,2.1-6,5.4-5.7,8.8l0.2,2.1"/>
	<polyline class="st13" points="325.7,81 325.3,84 331,84.4 	"/>
</g>
<g>
	<polygon class="st1" points="65.9,103.3 62.9,111.6 76.6,109.6 	"/>
	<polygon class="st14" points="69.9,96.8 69.4,107.7 87.2,107.1 	"/>
	<polygon class="st13" points="68.3,96 88.7,108 70.2,119.4 49.9,107.4 	"/>
	<polyline class="st13" points="69.8,96.9 69.3,107.7 87.1,107.2 	"/>
	<line class="st13" x1="66.2" y1="106.8" x2="50.3" y2="107.3"/>
	<line class="st13" x1="70.3" y1="119.2" x2="70.7" y2="109.5"/>
</g>
<g>
	<polygon class="st8" points="330.3,144.8 324.6,138.3 334.9,131.8 340.6,138.3 	"/>
	<polygon class="st1" points="338.2,150.1 325,150.1 324.5,140.5 341.6,140.5 	"/>
	<polygon class="st13" points="331.6,154.5 320.2,148.1 326.2,138.2 340.4,146.2 	"/>
	<polyline class="st13" points="320.2,148.1 330.1,131.3 327.8,130 	"/>
	<path class="st13" d="M331.6,154.5l-12.1-6.8c-0.9-0.5-2.3-0.2-3.2,0.7c-0.9,0.9-0.9,2-0.1,2.5l0.7,0.4"/>
	
		<ellipse transform="matrix(0.9113 -0.4117 0.4117 0.9113 -34.3118 144.5237)" class="st13" cx="318.4" cy="151.9" rx="2" ry="1.4"/>
	<ellipse transform="matrix(0.9113 -0.4117 0.4117 0.9113 -35.3475 147.8807)" class="st13" cx="325.6" cy="156" rx="2" ry="1.4"/>
	<line class="st13" x1="319.6" y1="152.7" x2="324.2" y2="155.3"/>
	<line class="st13" x1="326.9" y1="156.8" x2="328.6" y2="157.8"/>
</g>
<g>
	<polygon class="st1" points="213.1,244.8 228.3,254.8 236,250.1 220.8,240.8 218.1,241.4 212.8,244.8 	"/>
	<polygon class="st8" points="231.1,254.2 237.1,258 238.5,260.3 234.2,262.7 232.4,261.7 231.8,259.8 229.1,258.4 226.9,258.4 
		225.6,257.1 	"/>
	<g>
		<path class="st3" d="M239.1,259.5L238,258l1-2.4c0.3-0.7-0.1-1.4-1-2l-2.6-1.7l0.6-0.4c1.2-0.7,1-1.9-0.3-2.7l-12.7-8
			c-1.4-0.9-3.4-1-4.5-0.3l-9.6,5.7c-0.7,0.4-0.6,1.1,0.2,1.7c0,0,0,0,0,0l0.3,0.2c0,0-0.1,0-0.1,0.1c-1.4,0.8-1.2,2.4,0.5,3.4
			c1.7,1.1,4.2,1.2,5.6,0.4c0,0,0,0,0,0c0,0,0,0,0.1-0.1l10.2,6.3c0,0-0.1,0-0.1,0.1c-1.4,0.8-1.2,2.3,0.5,3.4
			c1.7,1,4.2,1.2,5.6,0.4c0,0,0,0,0,0c0,0,0,0,0.1-0.1l0.8,0.5c0.8,0.5,2,0.6,2.7,0.2c0,0,0,0,0,0l3.6-2
			C239.4,260.5,239.5,260,239.1,259.5z M210.8,251.1c-1-0.6-1.2-1.6-0.3-2.1c0.9-0.5,2.4-0.4,3.5,0.3c1,0.7,1.2,1.6,0.3,2.1
			C213.4,251.8,211.8,251.7,210.8,251.1z M224.8,256.6l-8.6-5.4c0.4-0.8-0.1-1.9-1.3-2.6c-1.2-0.8-2.9-1.1-4.3-0.9l-0.6-0.4
			c-0.2-0.1-0.2-0.3,0-0.4l2.5-1.5l15.2,9.4L224.8,256.6z M234.8,250.9l-6.1,3.5l-15.2-9.4l6-3.6c0.6-0.3,1.6-0.3,2.3,0.1l12.7,8
			C235.3,249.9,235.4,250.5,234.8,250.9L234.8,250.9z M234.3,252.6l2.6,1.7c0.5,0.3,0.7,0.7,0.6,1l-0.8,1.8l-4.9-3.1L234.3,252.6z
			 M227.1,261.2c-1-0.6-1.2-1.6-0.3-2.1c0.9-0.5,2.4-0.4,3.5,0.3c1,0.6,1.2,1.6,0.3,2.1C229.6,261.9,228.1,261.8,227.1,261.2z
			 M234.1,262c-0.2,0.1-0.4,0.1-0.6,0l-1-0.7c0.6-1.2-0.7-2.6-2.8-3.2c-0.9-0.3-1.9-0.3-2.7-0.2l-1-0.6l4.8-2.8l5.8,3.6l1.2,1.6
			c0.1,0.1,0,0.2-0.1,0.3L234.1,262z"/>
	</g>
</g>
<g>
	<g>
		
			<ellipse transform="matrix(5.854332e-02 -0.9983 0.9983 5.854332e-02 -132.2789 308.8622)" class="st8" cx="97.6" cy="224.6" rx="2.9" ry="5.2"/>
		
			<ellipse transform="matrix(5.854332e-02 -0.9983 0.9983 5.854332e-02 -140.4584 297.8886)" class="st1" cx="87.7" cy="223.4" rx="4" ry="7.2"/>
		<path class="st13" d="M95.2,226.9c0.5,0.2,1.1,0.3,1.7,0.4l0.8,1.3l3.1,0l0.5-1.2c0.6-0.1,1.1-0.2,1.6-0.4l2.1,0.7l2.1-1.2
			l-1.2-1.2c0.3-0.3,0.5-0.6,0.6-0.9l2.2-0.3l-0.2-1.7l-2.2-0.4c-0.2-0.3-0.5-0.6-0.8-0.9l1-1.1l-2.3-1.2l-2,0.6
			c-0.5-0.2-1.1-0.3-1.7-0.4l-0.8-1.3l-3.1,0l-0.5,1.2c-0.6,0.1-1.1,0.2-1.6,0.4"/>
		
			<ellipse transform="matrix(5.854332e-02 -0.9983 0.9983 5.854332e-02 -140.3373 296.7612)" class="st13" cx="87.2" cy="222.8" rx="4.6" ry="8.3"/>
		<path class="st13" d="M96.2,220.8c2.1-0.7,5-0.3,6.5,1c1.4,1.3,0.9,2.9-1.2,3.6c-1.3,0.4-3,0.5-4.4,0.1"/>
		<path class="st3" d="M83.9,224.4l0.6-0.4l-0.1-0.1c-0.4-0.3-1.1-0.8-0.7-1.5l0.8,0.2c-0.2,0.4,0.3,0.9,0.8,1.2
			c0.8,0.5,1.7,0.5,2.2,0.2c0.6-0.3,0-0.9-0.6-1.2c-0.9-0.6-1.6-1.2-0.6-1.7s2.4-0.1,2.7,0.1l0.1,0l0.5-0.3l0.7,0.4l-0.5,0.3
			l0.1,0.1c0.5,0.4,0.7,0.7,0.6,1.1l-0.8-0.1c0-0.4-0.3-0.7-0.8-1c-0.8-0.4-1.5-0.5-2-0.2c-0.6,0.3,0,0.8,0.5,1.1
			c1,0.7,1.7,1.3,0.7,1.9c-0.8,0.5-2.1,0.3-2.9-0.1l-0.1,0l-0.6,0.4L83.9,224.4z"/>
	</g>
	<g>
		<polygon class="st8" points="98.1,203.5 91.8,207.2 84.8,203.4 91.1,199.7 		"/>
		<polygon class="st1" points="92.4,204.8 96.4,207 87.9,212 83.9,209.8 		"/>
		<polygon class="st13" points="80.6,204.6 84.7,206.7 81.5,208.6 77.5,206.4 		"/>
		<polygon class="st13" points="92.4,204.8 96.4,207 87.9,212 83.9,209.8 		"/>
		<polygon class="st13" points="103.5,205.5 107.5,207.6 94.2,215.5 90.2,213.3 		"/>
		<g>
			<line class="st13" x1="84.5" y1="202.5" x2="101.4" y2="202.6"/>
			<polyline class="st13" points="100.3,201.7 101.9,202.6 100.4,203.5 			"/>
		</g>
	</g>
</g>
</svg>
