<svg version="1.1" viewBox="0.0 0.0 960.0 960.0" fill="none" stroke="none" stroke-linecap="square" stroke-miterlimit="10" xmlns:xlink="http://www.w3.org/1999/xlink" xmlns="http://www.w3.org/2000/svg"><clipPath id="p.0"><path d="m0 0l960.0 0l0 960.0l-960.0 0l0 -960.0z" clip-rule="nonzero"/></clipPath><g clip-path="url(#p.0)"><path fill="#000000" fill-opacity="0.0" d="m0 0l960.0 0l0 960.0l-960.0 0z" fill-rule="evenodd"/><path fill="#000000" fill-opacity="0.0" d="m17.338583 240.14174l925.3229 0l0 479.71655l-925.3229 0z" fill-rule="evenodd"/><path fill="#b24d19" d="m277.47394 334.08545l-98.98439 228.65625l-52.265617 0l-98.640625 -228.65625l57.15625 0l69.57812 163.32812l70.5625 -163.32812l52.593765 0z" fill-rule="nonzero"/><path fill="#f88d5b" d="m404.53458 384.38232q32.671875 0 52.765625 19.609375q20.09375 19.59375 20.09375 58.140625l0 100.609375l-50.96875 0l0 -92.765625q0 -20.90625 -9.15625 -31.1875q-9.140625 -10.296875 -26.453125 -10.296875q-19.265625 0 -30.703125 11.921875q-11.421875 11.921875 -11.421875 35.4375l0 86.890625l-50.96875 0l0 -175.73438l48.671875 0l0 20.578125q10.125 -11.109375 25.15625 -17.15625q15.03125 -6.046875 32.984375 -6.046875zm299.8826 -64.015625l0 242.375l-48.671875 0l0 -20.25q-18.953125 22.859375 -54.875 22.859375q-24.828125 0 -44.921875 -11.09375q-20.09375 -11.109375 -31.531189 -31.6875q-11.421875 -20.59375 -11.421875 -47.703125q0 -27.109375 11.421875 -47.6875q11.437439 -20.578125 31.531189 -31.6875q20.09375 -11.109375 44.921875 -11.109375q33.640625 0 52.578125 21.234375l0 -85.25l50.96875 0zm-94.734375 203.17188q19.265625 0 32.0 -13.21875q12.75 -13.234375 12.75 -35.453125q0 -22.203125 -12.75 -35.4375q-12.734375 -13.234375 -32.0 -13.234375q-19.59375 0 -32.34375 13.234375q-12.734375 13.234375 -12.734375 35.4375q0 22.21875 12.734375 35.453125q12.75 13.21875 32.34375 13.21875zm212.65558 -139.15625q40.828125 0 62.703125 19.4375q21.890625 19.4375 21.890625 58.640625l0 100.28125l-47.6875 0l0 -21.890625q-14.375 24.5 -53.5625 24.5q-20.265625 0 -35.125 -6.859375q-14.859375 -6.859375 -22.703125 -18.9375q-7.828125 -12.09375 -7.828125 -27.4375q0 -24.5 18.453125 -38.546875q18.453125 -14.046875 57.0 -14.046875l40.5 0q0 -16.671875 -10.125 -25.640625q-10.125 -8.984375 -30.375 -8.984375q-14.046875 0 -27.609375 4.40625q-13.546875 4.40625 -23.03125 11.921875l-18.28125 -35.609375q14.375 -10.125 34.453125 -15.671875q20.09375 -5.5625 41.328125 -5.5625zm-3.921875 146.67188q13.0625 0 23.1875 -6.03125q10.125 -6.046875 14.375 -17.8125l0 -17.96875l-34.953125 0q-31.359375 0 -31.359375 20.578125q0 9.796875 7.671875 15.515625q7.6875 5.71875 21.078125 5.71875z" fill-rule="nonzero"/></g></svg>