<?xml version="1.0" standalone="no"?>
<!DOCTYPE svg PUBLIC "-//W3C//DTD SVG 20010904//EN"
 "http://www.w3.org/TR/2001/REC-SVG-20010904/DTD/svg10.dtd">
<svg version="1.0" xmlns="http://www.w3.org/2000/svg"
 width="341.000000pt" height="89.000000pt" viewBox="0 0 341.000000 89.000000"
 preserveAspectRatio="xMidYMid meet">

<g transform="translate(0.000000,89.000000) scale(0.100000,-0.100000)"
fill="#ffffff" stroke="none">
<path d="M2150 733 c0 -140 -1 -145 -18 -130 -34 31 -90 47 -164 47 -94 0
-157 -28 -219 -98 -136 -150 -93 -416 81 -504 99 -51 214 -48 294 7 20 14 39
25 41 25 3 0 5 -13 5 -30 l0 -30 100 0 100 0 0 430 0 430 -110 0 -110 0 0
-147z m-55 -267 c58 -38 80 -125 51 -201 -22 -56 -66 -85 -131 -85 -41 0 -52
5 -85 38 -26 26 -39 49 -44 80 -7 49 8 118 32 146 41 46 124 56 177 22z"/>
<path d="M20 823 c0 -4 76 -186 169 -403 l169 -395 110 -3 110 -3 171 400 c94
220 171 402 171 406 0 3 -48 4 -107 3 l-107 -3 -110 -262 c-61 -145 -114 -263
-117 -263 -4 0 -56 118 -116 263 l-109 262 -117 3 c-64 1 -117 -1 -117 -5z"/>
<path d="M1214 626 c-28 -13 -55 -29 -58 -35 -13 -21 -26 -11 -26 19 l0 30
-100 0 -100 0 0 -310 0 -310 105 0 105 0 0 173 c0 159 2 176 23 217 17 36 30
48 62 58 51 17 95 8 126 -24 23 -25 24 -30 27 -225 l3 -199 105 0 104 0 0 213
c0 116 -5 228 -10 248 -15 52 -49 99 -98 134 -39 27 -52 30 -130 33 -75 2 -94
-1 -138 -22z"/>
<path d="M2590 636 c-67 -19 -120 -44 -120 -55 0 -6 14 -39 32 -75 l31 -64 31
19 c39 23 128 36 185 28 48 -6 91 -44 91 -80 0 -17 -7 -19 -62 -19 -232 -1
-338 -60 -338 -187 0 -108 71 -176 197 -189 77 -8 138 9 181 52 19 19 36 34
38 34 2 0 4 -18 4 -40 l0 -40 101 0 102 0 -6 212 c-3 135 -10 228 -18 253 -20
60 -95 130 -160 149 -63 19 -224 20 -289 2z m250 -394 c0 -21 -7 -47 -15 -59
-20 -28 -78 -47 -120 -39 -57 11 -85 75 -47 108 26 23 40 26 115 27 l67 1 0
-38z"/>
<path d="M3185 227 c-101 -101 5 -259 137 -204 65 27 94 105 64 169 -21 45
-63 68 -121 68 -40 0 -52 -5 -80 -33z"/>
</g>
</svg>
