<?xml version="1.0" encoding="UTF-8" standalone="no"?>
<!DOCTYPE svg PUBLIC "-//W3C//DTD SVG 1.1//EN" "http://www.w3.org/Graphics/SVG/1.1/DTD/svg11.dtd">
<svg version="1.1" xmlns="http://www.w3.org/2000/svg" xmlns:xlink="http://www.w3.org/1999/xlink" preserveAspectRatio="xMidYMid meet" viewBox="21.21844767676766 66.11664242424226 581.7815523232323 178.61460666666673" width="577.78" height="174.61"><defs><path d="M22.22 67.12L59.83 67.12L103.31 194.27L145.39 67.12L182.18 67.12L120.66 238.92L83.62 238.92L22.22 67.12Z" id="ot2t2eDyp"></path><path d="M278.9 238.92C278.9 200.81 278.9 179.63 278.9 175.4C278.9 155.24 277 151.93 276.79 149.32C274.68 143.41 270.62 141.05 269.93 140.13C265.19 136.85 259.66 137.17 258.52 136.85C249.95 136.85 244.69 141.06 243.15 141.53C236.36 146.22 234.77 152.72 233.84 153.96C232.16 159.11 231.33 168.64 231.33 182.55L231.33 238.92L198.39 238.92L198.39 114.46L228.98 114.46C228.98 125.43 228.98 131.52 228.98 132.74C245.27 111.65 265.89 113.76 269.99 111.65C280.89 111.65 287.92 115.18 289.91 115.57C298.94 119.5 302.2 124.59 303.57 125.6C308.2 131.69 309.37 138.05 310.02 139.43C311.22 144.58 311.83 151.96 311.83 161.57L311.83 238.92L278.9 238.92ZM428.78 238.92C428.78 227.95 428.78 221.86 428.78 220.64C421.17 231.3 412.59 234.93 410.79 236.52C400.43 241.73 391.97 241.21 389.88 241.73C368.43 241.73 356.81 226.18 353.14 224.45C337.85 207.16 339.38 181.04 337.85 176.22C337.85 144.59 351.24 132.93 352.73 128.12C367.62 111.65 386.58 113.29 390.35 111.65C404.26 111.65 416.29 117.43 426.44 128.99L426.44 67.12L459.37 67.12L459.37 238.92L428.78 238.92ZM376.99 202.82C384.96 215.71 397.03 214.42 399.25 215.71C410.62 215.71 416.65 207.01 418.59 206.04C426.55 196.38 425.76 180.05 426.55 177.16C426.55 155.71 419.59 149.37 418.82 146.28C411.09 136.85 401 137.79 399.02 136.85C387.3 136.85 381.35 145.24 379.39 146.17C374.12 152.38 371.48 161.65 371.48 173.99C374.79 191.29 376.62 200.9 376.99 202.82ZM486.56 147.04C491.59 128.99 502.16 123 503.9 120.32C516.21 111.65 536.81 112.52 540.47 111.65C562.5 111.65 570 116.34 573.28 116.87C584.06 122.09 586.93 128.79 588.45 130.12C591.38 135.46 592.84 145.29 592.84 159.59C592.64 182.65 592.52 195.46 592.5 198.02C592.5 214.43 593.92 219.8 594.07 222.22C595.13 227.42 597.1 232.98 600 238.92C580.45 238.92 569.59 238.92 567.42 238.92C566.13 235.64 564.57 230.16 564.25 229.19C563.44 226.26 563.2 225.71 563.08 225.32C554.65 233.52 546.84 236.4 545.03 237.63C535.43 241.73 526.58 241.32 524.53 241.73C505.31 241.73 497.26 232.35 494.23 231.3C483.16 220.87 484.26 207.57 483.16 204.93C483.16 194.39 487.69 188.01 488.2 186.13C493.24 177.87 500.91 174.74 502.32 173.47C511.41 169.07 525.89 166.56 528.51 165.79C543.9 162.9 554.56 160.21 560.5 157.71C560.5 155.74 560.5 154.65 560.5 154.43C560.5 144.93 556.28 142.24 555.81 140.89C551.13 136.85 539.89 137.25 538.13 136.85C529.33 136.85 525.78 139.96 524.41 140.3C521.13 142.61 518.47 146.65 516.44 152.43C498.51 149.2 488.55 147.4 486.56 147.04ZM540.46 184.19C526.75 187.12 524.32 189.36 522.53 189.93C516.09 194.5 516.74 200.37 516.09 201.53C516.09 208.45 520.73 212.3 521.25 213.49C526.41 218.52 533.06 218.02 534.38 218.52C543.28 218.52 549.67 213.25 551.36 212.67C557.34 208.21 558.43 202.86 559.22 201.77C560.07 198.96 560.5 193.61 560.5 185.71L560.5 179.15C548.47 182.17 541.79 183.85 540.46 184.19Z" id="jy4Koz1QI"></path></defs><g><g><use xlink:href="#ot2t2eDyp" opacity="1" fill="#b24d19" fill-opacity="1"></use><g><use xlink:href="#ot2t2eDyp" opacity="1" fill-opacity="0" stroke="#000000" stroke-width="1" stroke-opacity="0"></use></g></g><g><use xlink:href="#jy4Koz1QI" opacity="1" fill="#f88d5b" fill-opacity="1"></use><g><use xlink:href="#jy4Koz1QI" opacity="1" fill-opacity="0" stroke="#000000" stroke-width="1" stroke-opacity="0"></use></g></g></g></svg>