<?xml version="1.0" encoding="utf-8"?>
<!-- Generator: Adobe Illustrator 25.2.0, SVG Export Plug-In . SVG Version: 6.00 Build 0)  -->
<svg version="1.1" id="Layer_1" xmlns="http://www.w3.org/2000/svg" xmlns:xlink="http://www.w3.org/1999/xlink" x="0px" y="0px"
	 viewBox="0 0 1200 501.73" style="enable-background:new 0 0 1200 501.73;" xml:space="preserve">
<style type="text/css">
	.st0{fill:#EA6700;}
</style>
<g>
	<path class="st0" d="M357.39,49.78L246.83,307.75l-71.86,0L64.78,49.78l78.86,0l70.02,168.04l71.49-168.04L357.39,49.78z"/>
	<path class="st0" d="M544.1,126.8c15.11,14.74,22.66,36.98,22.66,66.7l0,114.24l-70.02,0l0-102.82c0-27.27-10.93-40.9-32.8-40.9
		c-12.04,0-21.68,3.93-28.93,11.79c-7.25,7.87-10.87,19.66-10.87,35.38l0,96.55l-70.02,0l0-199.74l66.7,0l0,21.74
		c7.86-8.11,17.19-14.31,28.01-18.61c10.81-4.29,22.6-6.45,35.38-6.45C509.03,104.69,528.99,112.06,544.1,126.8z"/>
	<g>
		<path class="st0" d="M810.21,34.31l0,273.44l-66.7,0v-19.9c-13.02,15.48-32.56,23.22-58.59,23.22c-18.18,0-34.77-4.24-49.75-12.71
			c-14.99-8.48-26.84-20.57-35.56-36.3c-8.72-15.72-13.08-33.9-13.08-54.54c0-20.64,4.36-38.75,13.08-54.36
			c8.72-15.6,20.57-27.58,35.56-35.93c14.98-8.35,31.57-12.53,49.75-12.53c23.83,0,42.25,6.88,55.28,20.64V34.31L810.21,34.31z
			 M729.5,242.7c7.86-8.48,11.79-20.21,11.79-35.19c0-14.74-3.87-26.29-11.61-34.64c-7.74-8.35-17.75-12.53-30.03-12.53
			c-12.29,0-22.36,4.18-30.22,12.53c-7.87,8.36-11.79,19.9-11.79,34.64c0,14.99,3.93,26.72,11.79,35.19
			c7.86,8.48,17.93,12.71,30.22,12.71C711.69,255.42,721.64,251.18,729.5,242.7z"/>
		<path class="st0" d="M1001.47,127.36c17.44,15.11,26.16,38.27,26.16,69.47l0,110.92l-65.23,0v-25.8
			c-10.08,19.41-29.73,29.11-58.96,29.11c-15.48,0-28.87-2.71-40.17-8.11c-11.3-5.4-19.84-12.71-25.61-21.93
			c-5.78-9.21-8.66-19.72-8.66-31.51c0-18.92,7.24-33.59,21.74-44.04c14.49-10.44,36.85-15.66,67.07-15.66l39.8,0
			c-1.23-21.13-15.36-31.69-42.38-31.69c-9.58,0-19.29,1.54-29.11,4.61c-9.83,3.07-18.18,7.31-25.06,12.71l-23.59-47.54
			c11.06-7.37,24.51-13.08,40.35-17.14s31.75-6.08,47.72-6.08C958.72,104.69,984.02,112.25,1001.47,127.36z M944.35,260.94
			c6.14-3.93,10.56-9.7,13.27-17.32V226.3l-30.22,0c-20.4,0-30.59,6.76-30.59,20.27c0,6.14,2.33,11.06,7,14.74
			c4.66,3.68,11.06,5.53,19.16,5.53C931.08,266.84,938.21,264.88,944.35,260.94z"/>
	</g>
	<path class="st0" d="M1062.92,299.27c-8.11-7.86-12.16-17.81-12.16-29.85c0-12.28,3.99-22.23,11.98-29.85
		c7.98-7.61,17.99-11.42,30.03-11.42c12.28,0,22.35,3.81,30.22,11.42c7.86,7.62,11.79,17.57,11.79,29.85
		c0,12.04-4,21.99-11.98,29.85c-7.99,7.87-18,11.79-30.03,11.79C1080.98,311.06,1071.03,307.14,1062.92,299.27z"/>
	<g>
		<g>
			<path class="st0" d="M577.3,355.52v36.7c4.17-6.02,11.46-9.15,18.41-9.15c16.67,0,28.94,13.43,28.94,30.45
				c0,15.28-11.46,30.22-29.17,30.22c-6.83,0-13.54-2.89-18.18-7.64v6.25h-10.53v-86.83H577.3z M577.3,425.21
				c3.94,5.67,10.77,8.8,16.79,8.8c13.43,0,19.8-10.77,19.8-20.72c0-10.77-7.52-20.49-19.56-20.49c-6.25,0-14.12,3.82-17.02,11
				V425.21z"/>
			<path class="st0" d="M641.9,384.46l15.05,43.88h0.23l15.4-43.88h11.46l-32.53,83.93l-9.26-3.59l9.15-24.2l-21.19-56.15H641.9z"/>
		</g>
		<g>
			<g>
				<rect x="798.94" y="340.95" class="st0" width="19.14" height="101.2"/>
				<path class="st0" d="M750.91,371.18c-20.05,0-36.3,16.25-36.3,36.3c0,20.05,16.25,36.3,36.3,36.3c20.05,0,36.3-16.25,36.3-36.3
					C787.21,387.43,770.96,371.18,750.91,371.18z M750.91,425.29c-9.84,0-17.82-7.98-17.82-17.82c0-9.84,7.98-17.82,17.82-17.82
					c9.84,0,17.82,7.98,17.82,17.82C768.74,417.32,760.76,425.29,750.91,425.29z"/>
				<path class="st0" d="M892.97,399.11c-5.93-2.43-11.19-4.72-11.19-9.18c0-3.37,3.23-5.4,6.87-5.4c5.39,0,10.38,2.7,14.02,5.94
					l7.92-14.29c-8.01-4.8-12.5-6.63-21.94-6.63c-12.94,0-25.33,7.29-25.33,21.72c0,12.41,9.3,17.27,17.79,20.92
					c7.01,3.1,13.48,5.26,13.48,10.25c0,4.32-5.12,6.21-9.03,6.21c-6.87,0-11.32-3.1-16.71-8.37l-7.63,13.55
					c8.01,6.41,14.23,9.93,25.28,9.93c13.75,0,27.22-7.15,27.22-22.8C913.72,407.47,902.13,402.89,892.97,399.11z"/>
				<rect x="832.18" y="371.18" class="st0" width="19.14" height="70.98"/>
				<path class="st0" d="M960.8,425.42c-2.43,1.21-4.72,2.02-7.68,2.02c-4.04,0-5.66-2.56-6.2-6.75c-0.27-2.02-0.27-3.91-0.27-6.07
					V387.1h18.06v-15.92h-18.06v-15.65h-16.17l-2.96,15.65h-8.49v15.92h8.49v29.55c0,4.18,0.27,8.37,1.35,11.87
					c2.56,9.18,9.97,15.25,21.02,15.25c5.53,0,12.26-1.48,16.84-4.18L960.8,425.42z"/>
				<rect x="832.18" y="340.94" class="st0" width="19.14" height="16.33"/>
			</g>
		</g>
	</g>
</g>
</svg>
