<?xml version="1.0" encoding="utf-8"?>
<!-- Generator: Adobe Illustrator 25.0.1, SVG Export Plug-In . SVG Version: 6.00 Build 0)  -->
<svg version="1.1" id="Camada_1" xmlns="http://www.w3.org/2000/svg" xmlns:xlink="http://www.w3.org/1999/xlink" x="0px" y="0px"
	 viewBox="0 0 143 63" style="enable-background:new 0 0 143 63;" xml:space="preserve">
<style type="text/css">
	.st0{enable-background:new    ;}
	.st1{fill:#F56A00;}
</style>
<g class="st0">
	<path class="st1" d="M40.3,13.6L24.6,50h-8.3L0.5,13.6h9.1l11.1,26l11.2-26H40.3z"/>
	<path class="st1" d="M67.1,24.7c2.1,2.1,3.2,5.2,3.2,9.3v16h-8.1V35.2c0-2.2-0.5-3.9-1.5-5c-1-1.1-2.4-1.6-4.2-1.6
		c-2,0-3.7,0.6-4.9,1.9c-1.2,1.3-1.8,3.1-1.8,5.6V50h-8.1V22h7.7v3.3c1.1-1.2,2.4-2.1,4-2.7c1.6-0.6,3.3-1,5.3-1
		C62.2,21.6,65,22.6,67.1,24.7z"/>
	<path class="st1" d="M106.5,11.4V50h-7.7v-3.2c-2,2.4-4.9,3.6-8.7,3.6c-2.6,0-5-0.6-7.1-1.8s-3.8-2.9-5-5C76.6,41.4,76,38.9,76,36
		c0-2.9,0.6-5.4,1.8-7.6c1.2-2.2,2.9-3.9,5-5c2.1-1.2,4.5-1.8,7.1-1.8c3.6,0,6.4,1.1,8.4,3.4V11.4H106.5z M96.5,41.7
		c1.4-1.4,2-3.3,2-5.6c0-2.4-0.7-4.2-2-5.6c-1.4-1.4-3.1-2.1-5.1-2.1c-2.1,0-3.8,0.7-5.1,2.1c-1.4,1.4-2,3.3-2,5.6
		c0,2.4,0.7,4.2,2,5.6c1.4,1.4,3.1,2.1,5.1,2.1C93.4,43.8,95.1,43.1,96.5,41.7z"/>
	<path class="st1" d="M135.2,24.7c2.3,2.1,3.5,5.2,3.5,9.3v16h-7.6v-3.5c-1.5,2.6-4.4,3.9-8.5,3.9c-2.1,0-4-0.4-5.6-1.1
		c-1.6-0.7-2.8-1.7-3.6-3c-0.8-1.3-1.2-2.7-1.2-4.4c0-2.6,1-4.6,2.9-6.1c2-1.5,5-2.2,9.1-2.2h6.4c0-1.8-0.5-3.1-1.6-4.1
		s-2.7-1.4-4.8-1.4c-1.5,0-3,0.2-4.4,0.7s-2.7,1.1-3.7,1.9l-2.9-5.7c1.5-1.1,3.4-1.9,5.5-2.5c2.1-0.6,4.3-0.9,6.6-0.9
		C129.6,21.6,132.9,22.6,135.2,24.7z M128.3,44c1.1-0.6,1.8-1.6,2.3-2.8v-2.9H125c-3.3,0-5,1.1-5,3.3c0,1,0.4,1.9,1.2,2.5
		c0.8,0.6,1.9,0.9,3.4,0.9C126,45,127.2,44.6,128.3,44z"/>
</g>
</svg>
