<?xml version="1.0" encoding="utf-8"?>
<!-- Generator: Adobe Illustrator 24.3.0, SVG Export Plug-In . SVG Version: 6.00 Build 0)  -->
<svg version="1.1" id="Camada_1" xmlns="http://www.w3.org/2000/svg" xmlns:xlink="http://www.w3.org/1999/xlink" x="0px" y="0px"
	 viewBox="0 0 496 496" style="enable-background:new 0 0 496 496;" xml:space="preserve">
<style type="text/css">
	.st0{fill:#263238;}
</style>
<path class="st0" d="M170,98.7c-15.1,5.7-26,20.2-26,37.3c0,6.6,1.8,12.7,4.6,18.2c-12,4.6-20.6,16.2-20.6,29.8
	c0,13.6,8.6,25.2,20.6,29.8c-2.8,5.5-4.6,11.6-4.6,18.2c0,17.1,10.8,31.6,26,37.3c-1.2,3.4-2,6.9-2,10.7c0,17.6,14.4,32,32,32
	c4,0,7.8-0.8,11.3-2.2c5.2,10.7,16.1,18.2,28.7,18.2c17.6,0,32-14.4,32-32V72c0-17.6-14.4-32-32-32c-12.7,0-23.5,7.5-28.7,18.2
	C207.8,56.8,204,56,200,56c-17.6,0-32,14.4-32,32C168,91.8,168.8,95.3,170,98.7z M200,72c8.8,0,16,7.2,16,16h16
	c0-7.7-2.8-14.7-7.4-20.2c1.9-6.8,8-11.8,15.4-11.8c8.8,0,16,7.2,16,16v224c0,8.8-7.2,16-16,16c-7.4,0-13.5-5-15.4-11.8
	c4.5-5.5,7.4-12.5,7.4-20.2h-16c0,8.8-7.2,16-16,16s-16-7.2-16-16c0-8.8,7.2-16,16-16v-16c-7.8,0-14.8,2.9-20.4,7.6
	c-11.1-2.1-19.6-11.8-19.6-23.6c0-13.2,10.8-24,24-24c13.2,0,24,10.8,24,24h16c0-22.1-17.9-40-40-40c-9,0-17.3,3.1-24,8.2V200
	c-8.8,0-16-7.2-16-16s7.2-16,16-16v-0.2c6.7,5.1,15,8.2,24,8.2c22.1,0,40-17.9,40-40h-16c0,13.2-10.8,24-24,24
	c-13.2,0-24-10.8-24-24c0-11.7,8.5-21.5,19.6-23.6c5.6,4.6,12.6,7.6,20.4,7.6v-16c-8.8,0-16-7.2-16-16S191.2,72,200,72z"/>
<path class="st0" d="M360,56c-4,0-7.8,0.8-11.3,2.2C343.5,47.5,332.7,40,320,40c-17.6,0-32,14.4-32,32v224c0,17.6,14.4,32,32,32
	c12.7,0,23.5-7.5,28.7-18.2c3.5,1.3,7.3,2.2,11.3,2.2c17.6,0,32-14.4,32-32c0-3.8-0.8-7.3-2-10.7c15.1-5.7,26-20.2,26-37.3
	c0-6.6-1.7-12.7-4.6-18.2c12-4.6,20.6-16.2,20.6-29.8c0-13.6-8.6-25.2-20.6-29.8c2.8-5.5,4.6-11.6,4.6-18.2
	c0-17.1-10.8-31.6-26-37.3c1.2-3.4,2-6.9,2-10.7C392,70.4,377.6,56,360,56z M400,136c0,13.2-10.8,24-24,24c-13.2,0-24-10.8-24-24
	h-16c0,22.1,17.9,40,40,40c9,0,17.3-3.1,24-8.2v0.2c8.8,0,16,7.2,16,16s-7.2,16-16,16v0.2c-6.7-5.1-15-8.2-24-8.2
	c-22.1,0-40,17.9-40,40h16c0-13.2,10.8-24,24-24c13.2,0,24,10.8,24,24c0,11.7-8.5,21.5-19.6,23.6c-5.6-4.6-12.6-7.6-20.4-7.6v16
	c8.8,0,16,7.2,16,16c0,8.8-7.2,16-16,16c-8.8,0-16-7.2-16-16h-16c0,7.7,2.8,14.7,7.4,20.2c-1.9,6.8-8,11.8-15.4,11.8
	c-8.8,0-16-7.2-16-16V72c0-8.8,7.2-16,16-16c7.4,0,13.5,5,15.4,11.8c-4.5,5.5-7.4,12.5-7.4,20.2h16c0-8.8,7.2-16,16-16
	c8.8,0,16,7.2,16,16s-7.2,16-16,16v16c7.8,0,14.8-2.9,20.4-7.6C391.5,114.5,400,124.3,400,136z"/>
<path class="st0" d="M406,49.9C368.6,14.8,319.6-2.9,268.3,0.4l1,16c46.9-2.9,91.6,13.1,125.8,45.2c34.2,32.1,53,75.6,53,122.5
	c0,56.5-28.1,108.8-75.3,140.1c-16.3,10.8-28.6,26.2-36.1,43.9H223.1c-7.7-17.9-20-33.4-36.3-44.3c-48.6-32.5-76.5-86.7-74.7-145.1
	l-16-0.5c-2,63.9,28.6,123.3,81.8,158.9c11.7,7.9,21.1,18.6,27.7,31H184v16h27.9c1.6,5.2,2.8,10.5,3.4,16H200v16h16v24
	c0,4.4,3.6,8,8,8h8c0,26.5,21.5,48,48,48s48-21.5,48-48h8c4.4,0,8-3.6,8-8v-24h16v-16h-15.4c0.6-5.5,1.7-10.8,3.2-16H376v-16h-21.9
	c6.4-12.3,15.8-22.8,27.5-30.6C433.2,303.2,464,245.8,464,184C464,133.4,442.8,84.5,406,49.9z M280,480c-17.6,0-32-14.4-32-32h64
	C312,465.6,297.7,480,280,480z M328,432h-96v-16h96V432z M328.6,400h-97.2c-0.5-5.4-1.4-10.8-2.7-16h102.4
	C329.8,389.2,329,394.6,328.6,400z"/>
<path class="st0" d="M88,56c17.6,0,32,14.4,32,32c0,4.4,3.6,8,8,8c4.4,0,8-3.6,8-8c0-17.6,14.4-32,32-32c4.4,0,8-3.6,8-8
	c0-4.4-3.6-8-8-8c-17.6,0-32-14.4-32-32c0-4.4-3.6-8-8-8c-4.4,0-8,3.6-8,8c0,17.6-14.4,32-32,32c-4.4,0-8,3.6-8,8
	C80,52.4,83.6,56,88,56z M128,34.5c3.6,5.3,8.2,9.9,13.5,13.5c-5.3,3.6-9.9,8.2-13.5,13.5c-3.6-5.3-8.2-9.9-13.5-13.5
	C119.9,44.5,124.5,39.9,128,34.5z"/>
<path class="st0" d="M120,136c4.4,0,8-3.6,8-8c0-4.4-3.6-8-8-8c-17.6,0-32-14.4-32-32c0-4.4-3.6-8-8-8c-4.4,0-8,3.6-8,8
	c0,17.6-14.4,32-32,32c-4.4,0-8,3.6-8,8c0,4.4,3.6,8,8,8c17.6,0,32,14.4,32,32c0,4.4,3.6,8,8,8c4.4,0,8-3.6,8-8
	C88,150.4,102.4,136,120,136z M80,141.5c-3.6-5.3-8.2-9.9-13.5-13.5c5.3-3.6,9.9-8.2,13.5-13.5c3.6,5.3,8.2,9.9,13.5,13.5
	C88.2,131.6,83.6,136.2,80,141.5z"/>
</svg>
