<?xml version="1.0" encoding="utf-8"?>
<!-- Generator: Adobe Illustrator 24.3.0, SVG Export Plug-In . SVG Version: 6.00 Build 0)  -->
<svg version="1.1" id="Camada_1" xmlns="http://www.w3.org/2000/svg" xmlns:xlink="http://www.w3.org/1999/xlink" x="0px" y="0px"
	 viewBox="0 0 512 512" style="enable-background:new 0 0 512 512;" xml:space="preserve">
<style type="text/css">
	.st0{fill:#263238;}
</style>
<path class="st0" d="M433.7,205.3c0-60.7-49.4-110.1-110.1-110.1c-14,0-27.9,2.7-40.9,7.9V51.5c0-13-10.6-23.5-23.5-23.5H157.8
	c-4.2,0-7.5,3.4-7.5,7.5c0,4.2,3.4,7.5,7.5,7.5h101.3c4.7,0,8.5,3.8,8.5,8.5v63.1c0,0.1,0,0.2,0,0.2v35.8c0,4.7-3.8,8.5-8.5,8.5
	h-48.8c-3.4,0-6.6,1.3-9,3.7L182,182.2l-19.4-19.4c-2.4-2.4-5.6-3.7-9-3.7h-48.8c-4.7,0-8.5-3.8-8.5-8.5V51.5c0-4.7,3.8-8.5,8.5-8.5
	h22.8c4.2,0,7.5-3.4,7.5-7.5c0-4.2-3.4-7.5-7.5-7.5h-22.8c-13,0-23.5,10.6-23.5,23.5v99.1c0,13,10.6,23.5,23.5,23.5h47.8l20.4,20.4
	c2.5,2.5,5.7,3.7,9,3.7s6.5-1.2,9-3.7l20.4-20.4h6.5c-3,10-4.5,20.5-4.5,31.1c0,12.9,2.2,25.5,6.5,37.4h-189
	C13.9,242.6,0,256.5,0,273.6v145c0,17.1,13.9,30.9,30.9,30.9l71.4,0l30.8,30.8c2.9,2.9,6.8,4.4,10.7,4.4s7.7-1.5,10.7-4.4l30.8-30.8
	h71.4c17.1,0,30.9-13.9,30.9-30.9v-63.5c0-4.2-3.4-7.5-7.5-7.5s-7.5,3.4-7.5,7.5v63.5c0,8.8-7.1,15.9-15.9,15.9h-71.4
	c-4,0-7.8,1.6-10.7,4.4l-30.9,30.8L113,438.9c-2.9-2.8-6.6-4.4-10.7-4.4H30.9c-8.8,0-15.9-7.1-15.9-15.9v-145
	c0-8.8,7.1-15.9,15.9-15.9h225.9c8.8,0,15.9,7.1,15.9,15.9v49.6c0,4.2,3.4,7.5,7.5,7.5c4.2,0,7.5-3.4,7.5-7.5v-13.7
	c11.4,3.9,23.4,5.9,35.8,5.9C384.3,315.4,433.7,266,433.7,205.3z M256.8,242.6h-20.7c-5.1-11.8-7.6-24.3-7.6-37.4
	c0-10.7,1.8-21.1,5.2-31.1h25.5c13,0,23.5-10.6,23.5-23.5v-31.2c12.7-6,26.7-9.2,40.9-9.2c52.4,0,95.1,42.7,95.1,95.1
	c0,52.4-42.7,95.1-95.1,95.1c-12.4,0-24.4-2.3-35.8-7v-19.8C287.8,256.5,273.9,242.6,256.8,242.6z"/>
<path class="st0" d="M491,328.4H361.3c-11.6,0-21,9.4-21,21v83.3c0,11.6,9.4,21,21,21H401l16.8,16.8c2.3,2.3,5.4,3.5,8.4,3.5
	c3,0,6.1-1.2,8.4-3.5l16.8-16.8H491c11.6,0,21-9.4,21-21v-83.3C512,337.8,502.6,328.4,491,328.4z M496.9,432.6
	c0,3.3-2.7,5.9-5.9,5.9h-41c-3.2,0-6.2,1.2-8.4,3.5l-15.4,15.5L410.7,442c-2.2-2.2-5.2-3.5-8.4-3.5h-41c-3.3,0-5.9-2.7-5.9-5.9
	v-83.3c0-3.3,2.7-5.9,5.9-5.9H491c3.3,0,5.9,2.7,5.9,5.9V432.6z"/>
<path class="st0" d="M158.6,346.2l3-2.5l4.1-3.9c0.9-0.8,2.2-2.3,3.9-4.5s3.1-4.1,4-5.8s1.8-3.9,2.6-6.4s1.2-5.1,1.2-7.7
	c0-7.7-2.9-14.1-8.8-19.1c-5.9-5.1-13.8-7.6-23.7-7.6c-8.8,0-15.9,2-21.2,6c-5.3,4-7.9,8.2-7.9,12.6c0,2.4,0.8,4.3,2.4,5.6
	c1.6,1.3,3.4,2,5.4,2c1.6,0,3-0.5,4.2-1.6c1.2-1.1,2.2-2.2,3.1-3.4c0.8-1.2,2.4-2.4,4.7-3.4c2.3-1.1,5.2-1.6,8.7-1.6
	c4.9,0,8.9,1.2,11.8,3.5c2.9,2.3,4.4,5.6,4.4,9.9c0,2.5-0.6,4.9-1.8,7.3s-2.4,4.1-3.6,5.3c-1.2,1.2-3,2.8-5.4,4.9l-4.6,3.7
	c-6.3,5.6-9.5,13.8-9.5,24.7c0,3.3,0.6,5.6,1.7,6.9s3,1.9,5.6,1.9c5.3,0,7.9-1.9,7.9-5.7c0-5.4,0.4-9.5,1.3-12.3
	C152.8,351.9,155.1,349,158.6,346.2z"/>
<path class="st0" d="M143,384.1c-2.9,0-5.3,1.1-7.1,3.2c-1.8,2.1-2.7,4.6-2.7,7.6c0,2.8,0.9,5.3,2.7,7.5c1.8,2.2,4.2,3.2,7.1,3.2
	c2.9,0,5.5-1.1,7.6-3.2c2.1-2.2,3.2-4.7,3.2-7.5c0-2.9-1.1-5.5-3.2-7.6S145.9,384.1,143,384.1z"/>
<path class="st0" d="M315.8,217c0,4,2.7,6,8,6c2,0,3.8-0.5,5.5-1.6c1.7-1.1,2.5-2.5,2.5-4.4c0-6.9,0.4-18.5,1.1-34.7
	c0.8-16.2,1.1-27.8,1.1-34.7c0-2.6-1-4.7-2.9-6.3c-2-1.6-4.4-2.4-7.4-2.4s-5.4,0.8-7.3,2.3c-1.9,1.5-2.9,3.7-2.9,6.4
	c0,6.9,0.4,18.5,1.1,34.7C315.4,198.5,315.8,210,315.8,217z"/>
<path class="st0" d="M324,255.8c3,0,5.7-1.1,7.8-3.2c2.2-2.2,3.3-4.7,3.3-7.5c0-2.9-1.1-5.5-3.3-7.6s-4.8-3.2-7.8-3.2
	c-3.2,0-5.8,1.1-8,3.2c-2.1,2.1-3.2,4.6-3.2,7.6c0,2.9,1.1,5.5,3.2,7.6C318.1,254.8,320.8,255.8,324,255.8z"/>
<path class="st0" d="M240.4,59.5H121.6c-4.2,0-7.5,3.4-7.5,7.5s3.4,7.5,7.5,7.5h118.8c4.2,0,7.5-3.4,7.5-7.5S244.6,59.5,240.4,59.5z
	"/>
<path class="st0" d="M247.9,97.4c0-4.2-3.4-7.5-7.5-7.5H121.6c-4.2,0-7.5,3.4-7.5,7.5c0,4.2,3.4,7.5,7.5,7.5h118.8
	C244.6,104.9,247.9,101.6,247.9,97.4z"/>
<path class="st0" d="M121.6,120.2c-4.2,0-7.5,3.4-7.5,7.5c0,4.2,3.4,7.5,7.5,7.5H182c4.2,0,7.5-3.4,7.5-7.5c0-4.2-3.4-7.5-7.5-7.5
	H121.6z"/>
<path class="st0" d="M398.8,391.4c0,4.3-3.5,7.9-7.9,7.9c-4.3,0-7.9-3.5-7.9-7.9s3.5-7.9,7.9-7.9
	C395.2,383.6,398.8,387.1,398.8,391.4z"/>
<path class="st0" d="M432.2,391.4c0,4.3-3.5,7.9-7.9,7.9c-4.3,0-7.9-3.5-7.9-7.9s3.5-7.9,7.9-7.9
	C428.7,383.6,432.2,387.1,432.2,391.4z"/>
<path class="st0" d="M466.4,391.4c0,4.3-3.5,7.9-7.9,7.9c-4.3,0-7.9-3.5-7.9-7.9s3.5-7.9,7.9-7.9
	C462.9,383.6,466.4,387.1,466.4,391.4z"/>
</svg>
