<?xml version="1.0" encoding="utf-8"?>
<!-- Generator: Adobe Illustrator 24.3.0, SVG Export Plug-In . SVG Version: 6.00 Build 0)  -->
<svg version="1.1" id="Capa_1" xmlns="http://www.w3.org/2000/svg" xmlns:xlink="http://www.w3.org/1999/xlink" x="0px" y="0px"
	 viewBox="0 0 512 512" style="enable-background:new 0 0 512 512;" xml:space="preserve">
<style type="text/css">
	.st0{fill:#263238;}
</style>
<g>
	<g>
		<path class="st0" d="M256,20c-5.5,0-10,4.5-10,10v59.5c0,5.5,4.5,10,10,10s10-4.5,10-10V30C266,24.5,261.5,20,256,20z"/>
	</g>
</g>
<g>
	<g>
		<path class="st0" d="M199.3,105.4l-23.9-23.9c-3.9-3.9-10.2-3.9-14.1,0c-3.9,3.9-3.9,10.2,0,14.1l23.9,23.9c2,2,4.5,2.9,7.1,2.9
			c2.6,0,5.1-1,7.1-2.9C203.2,115.6,203.2,109.3,199.3,105.4z"/>
	</g>
</g>
<g>
	<g>
		<path class="st0" d="M350.7,81.5c-3.9-3.9-10.2-3.9-14.1,0L311.2,107c-3.9,3.9-3.9,10.2,0,14.1c2,2,4.5,2.9,7.1,2.9
			c2.6,0,5.1-1,7.1-2.9l25.4-25.5C354.6,91.7,354.6,85.4,350.7,81.5z"/>
	</g>
</g>
<g>
	<g>
		<path class="st0" d="M446.5,284h-8.1c6.6-8.6,10.5-19.3,10.5-30.9v-14.1c0-28.1-22.9-50.9-50.9-50.9s-50.9,22.9-50.9,50.9v11
			l-75.2-75.2c-4.2-4.2-10.3-5.5-15.8-3.5c-5.5-2-11.6-0.6-15.8,3.5l-75.2,75.2v-11c0-28.1-22.9-50.9-50.9-50.9
			s-50.9,22.9-50.9,50.9v14.1c0,11.6,3.9,22.4,10.5,30.9h-8.1C29.4,284,0,313.4,0,349.5V482c0,5.5,4.5,10,10,10h42.3
			c1,0,2-0.2,2.9-0.4C56,491.8,57,492,58,492h112c5.5,0,10-4.5,10-10v-34c0-5.5-4.5-10-10-10s-10,4.5-10,10v24H68V358.1
			c0-5.5-4.5-10-10-10s-10,4.5-10,10V472H20V349.5c0-25.1,20.4-45.5,45.5-45.5H135c2.8,0,5.2-1.1,7.1-2.9c0,0,0,0,0,0l103.9-103.9
			c-0.7,20.8-7.1,40.8-18.8,58.1l-65.4,97.2c-1.1,1.7-1.7,3.6-1.7,5.6V369c0,5.5,4.5,10,10,10s10-4.5,10-10v-7.9l63.7-94.7
			c4.9-7.2,9-14.9,12.3-22.8c3.3,7.9,7.4,15.6,12.3,22.8l63.7,94.7V482c0,5.5,4.5,10,10,10h112c1,0,2-0.2,2.9-0.4
			c0.9,0.3,1.9,0.4,2.9,0.4H502c5.5,0,10-4.5,10-10V349.5C512,313.4,482.6,284,446.5,284z M144.9,253.1c0,17.1-13.9,30.9-30.9,30.9
			s-30.9-13.9-30.9-30.9v-14.1c0-17.1,13.9-30.9,30.9-30.9s30.9,13.9,30.9,30.9V253.1z M367.1,238.9c0-17.1,13.9-30.9,30.9-30.9
			s30.9,13.9,30.9,30.9v14.1c0,17.1-13.9,30.9-30.9,30.9s-30.9-13.9-30.9-30.9V238.9z M492,472L492,472h-28v-74c0-5.5-4.5-10-10-10
			s-10,4.5-10,10v74h-92V358.1c0-2-0.6-3.9-1.7-5.6l-65.4-97.2c-11.6-17.3-18.1-37.3-18.8-58.1l103.9,103.9c0.1,0.1,0.3,0.2,0.4,0.3
			c1.8,1.6,4.1,2.6,6.7,2.6h69.5c25.1,0,45.5,20.4,45.5,45.5L492,472L492,472z"/>
	</g>
</g>
<g>
	<g>
		<path class="st0" d="M461.1,351c-1.9-1.9-4.4-2.9-7.1-2.9s-5.2,1.1-7.1,2.9c-1.9,1.9-2.9,4.4-2.9,7.1s1.1,5.2,2.9,7.1
			c1.9,1.9,4.4,2.9,7.1,2.9s5.2-1.1,7.1-2.9c1.9-1.9,2.9-4.4,2.9-7.1S462.9,352.9,461.1,351z"/>
	</g>
</g>
<g>
	<g>
		<path class="st0" d="M177.1,403.9c-1.9-1.9-4.4-2.9-7.1-2.9s-5.2,1.1-7.1,2.9s-2.9,4.4-2.9,7.1s1.1,5.2,2.9,7.1
			c1.9,1.9,4.4,2.9,7.1,2.9s5.2-1.1,7.1-2.9c1.9-1.9,2.9-4.4,2.9-7.1S178.9,405.8,177.1,403.9z"/>
	</g>
</g>
</svg>
