<?xml version="1.0" encoding="utf-8"?>
<!-- Generator: Adobe Illustrator 24.3.0, SVG Export Plug-In . SVG Version: 6.00 Build 0)  -->
<svg version="1.1" id="Capa_1" xmlns="http://www.w3.org/2000/svg" xmlns:xlink="http://www.w3.org/1999/xlink" x="0px" y="0px"
	 viewBox="0 0 512 512" style="enable-background:new 0 0 512 512;" xml:space="preserve">
<style type="text/css">
	.st0{fill:#263238;}
</style>
<g>
	<path class="st0" d="M316,76c0-33.1-26.9-60-60-60s-60,26.9-60,60s26.9,60,60,60S316,109.1,316,76z M256,116c-22.1,0-40-17.9-40-40
		s17.9-40,40-40s40,17.9,40,40S278.1,116,256,116z"/>
	<path class="st0" d="M346,266v-40c0-49.6-40.4-90-90-90s-90,40.4-90,90v40c0,5.5,4.5,10,10,10h160C341.5,276,346,271.5,346,266z
		 M326,256H186v-30c0-38.6,31.4-70,70-70s70,31.4,70,70V256z"/>
	<path class="st0" d="M71.9,408.1l48.1,24.1V486c0,5.5,4.5,10,10,10h106c5.5,0,10-4.5,10-10V358.8c0-31.8-23.5-59.2-53.4-62.4
		c-0.8-0.1-38.6-3-56.9-21.3l-27.4-27.4C100.7,240.2,90.7,236,80,236v-80c0-22.1-17.9-40-40-40S0,133.9,0,156v135.8
		C0,341.1,27.8,386.1,71.9,408.1L71.9,408.1z M20,156c0-11,9-20,20-20s20,9,20,20v85.4c-12.2,7.1-20,20.2-20,34.6
		c0,10.7,4.2,20.7,11.7,28.3l51.2,51.2c3.9,3.9,10.2,3.9,14.1,0c3.9-3.9,3.9-10.2,0-14.1l-51.2-51.2c-3.8-3.8-5.9-8.8-5.9-14.1
		c0-8.5,5.4-16,13.3-18.9c0,0,0,0,0,0h0c6.9-2.4,15.1-1,20.8,4.7l27.4,27.4c18.6,18.6,45.8,23.9,68.8,27c0,0,0.1,0,0.1,0
		c19.9,2.1,35.5,20.8,35.5,42.5V476h-86v-50c0-3.8-2.1-7.3-5.5-8.9l-53.7-26.8C43.3,371.5,20,333.8,20,291.8V156z"/>
	<circle class="st0" cx="459" cy="384" r="10"/>
	<path class="st0" d="M472,116c-22.1,0-40,17.9-40,40v80c-10.7,0-20.7,4.2-28.3,11.7l-27.4,27.4c-16,15.9-41.8,18.6-57,21.3
		c-29.9,3.2-53.4,30.6-53.4,62.4V486c0,5.5,4.5,10,10,10h106c5.5,0,10-4.5,10-10v-53.8l32.7-16.4c4.9-2.5,6.9-8.5,4.5-13.4
		c-2.5-4.9-8.5-6.9-13.4-4.5l-38.3,19.1c-3.4,1.7-5.5,5.2-5.5,8.9v50h-86V358.8c0-21.7,15.6-40.4,35.5-42.5c0,0,0.1,0,0.1,0
		c23.4-3.2,50.2-8.4,68.8-27l27.4-27.4c5.7-5.7,13.9-7.2,20.8-4.7h0c0,0,0,0,0,0c8,2.8,13.3,10.4,13.3,18.9c0,5.3-2.1,10.4-5.9,14.1
		l-51.2,51.2c-3.9,3.9-3.9,10.2,0,14.1c3.9,3.9,10.2,3.9,14.1,0l51.2-51.2c7.6-7.6,11.7-17.6,11.7-28.3c0-14.4-7.8-27.6-20-34.6V156
		c0-11,9-20,20-20s20,9,20,20v135.8c0,18.3-4.6,36.5-13.4,52.5c-2.6,4.9-0.8,10.9,4,13.6c4.9,2.6,10.9,0.8,13.6-4
		c10.3-19,15.8-40.5,15.8-62.1V156C512,133.9,494.1,116,472,116z"/>
</g>
</svg>
