<?xml version="1.0" encoding="utf-8"?>
<!-- Generator: Adobe Illustrator 24.3.0, SVG Export Plug-In . SVG Version: 6.00 Build 0)  -->
<svg version="1.1" id="ecb8a146-dd8f-4f83-ab4e-53bb1469e238"
	 xmlns="http://www.w3.org/2000/svg" xmlns:xlink="http://www.w3.org/1999/xlink" x="0px" y="0px" viewBox="0 0 1200 800"
	 style="enable-background:new 0 0 1200 800;" xml:space="preserve">
<style type="text/css">
	.st0{opacity:0.1;}
	.st1{fill:#3F3D56;}
	.st2{fill:#8EF9F3;}
	.st3{opacity:0.1;enable-background:new    ;}
	.st4{opacity:0.15;enable-background:new    ;}
	.st5{fill:none;stroke:#3F3D56;stroke-width:4;stroke-miterlimit:10;}
	.st6{fill:url(#SVGID_1_);}
	.st7{fill:#2F2E41;}
	.st8{fill:#FBBEBE;}
	.st9{fill:#E8E8F0;}
	.st10{fill:#FFA000;}
	.st11{fill:#F2F2F2;}
	.st12{fill:#FFB9B9;}
	.st13{opacity:0.2;enable-background:new    ;}
	.st14{opacity:0.2;fill:none;stroke:#000000;stroke-width:2;stroke-miterlimit:10;enable-background:new    ;}
	.st15{fill:#575A89;}
	.st16{fill:none;stroke:#3F3D56;stroke-width:2;stroke-miterlimit:10;}
	.st17{fill:#9F616A;}
	.st18{fill:#D0CDE1;}
	.st19{fill:#57B894;}
	.st20{fill:none;stroke:#3F3D56;stroke-width:2;stroke-miterlimit:10.0002;}
</style>
<g>
	<g class="st0">
		<ellipse class="st1" cx="956.8" cy="759.2" rx="16.4" ry="21.5"/>
		<path class="st1" d="M969.7,667.4c2.3-4.1,3.5-8.6,3.5-13.1c0-11.9-7.3-21.5-16.4-21.5s-16.4,9.6-16.4,21.5
			c-0.1,4.6,1.1,9.1,3.4,13.1c-4.5,8.1-4.5,18.1,0,26.2c-4.5,8.1-4.5,18.1,0,26.2c-2.3,4.1-3.5,8.6-3.4,13.1
			c0,11.9,7.3,21.5,16.4,21.5s16.4-9.6,16.4-21.5c0.1-4.6-1.1-9.1-3.4-13.1c4.5-8.1,4.5-18.1,0-26.2
			C974.4,685.5,974.4,675.5,969.7,667.4L969.7,667.4z"/>
		<ellipse class="st1" cx="956.8" cy="628.1" rx="16.4" ry="21.5"/>
		<ellipse class="st1" cx="956.8" cy="601.9" rx="16.4" ry="21.5"/>
		<path class="st2" d="M1018.2,422.3c2.3-2.8,4.3-5.9,6.1-9l-43-7l46.6,0.3c9-19.6,9.6-42.1,1.5-62.2l-62.6,32.4l57.7-42.3
			c-21.8-37.6-69.8-50.4-107.4-28.6c-37.6,21.8-50.4,69.8-28.6,107.4c1.8,3.2,4,6.2,6.2,9.1c-3.5,4.4-6.4,9.3-9,14.3l55.9,29
			L882,445.7c-8.6,25.2-3.8,52.9,12.6,73.7c-26.8,34.1-20.9,83.6,13.2,110.3c34.1,26.8,83.5,20.9,110.3-13.1
			c22.5-28.5,22.5-68.5,0-97.1C1040.6,490.9,1040.6,450.8,1018.2,422.3L1018.2,422.3z"/>
		<path class="st3" d="M877.9,470.9c0,17.6,5.9,34.8,16.8,48.6c-26.8,34.1-20.9,83.5,13.1,110.2c34.1,26.8,83.5,20.9,110.3-13.1
			c22.5-28.5,22.5-68.5,0-97.1C1028.7,506,877.9,462.1,877.9,470.9z"/>
	</g>
	<g class="st0">
		<ellipse class="st1" cx="573.2" cy="744.6" rx="8.8" ry="13.1"/>
		<path class="st1" d="M580.4,688.7c1.2-2.5,1.8-5.2,1.8-8c0-7.2-4-13.1-8.8-13.1s-8.8,5.9-8.8,13.1c0,2.8,0.6,5.5,1.8,8
			c-2.5,5-2.5,11,0,15.9c-2.5,5-2.5,11,0,15.9c-1.2,2.5-1.8,5.2-1.8,8c0,7.2,4,13.1,8.8,13.1s8.8-5.9,8.8-13.1c0-2.8-0.6-5.5-1.8-8
			c2.5-5,2.5-11,0-15.9C582.8,699.8,582.8,693.7,580.4,688.7L580.4,688.7z"/>
		<ellipse class="st1" cx="573.2" cy="664.9" rx="8.8" ry="13.1"/>
		<ellipse class="st1" cx="573.2" cy="648.9" rx="8.8" ry="13.1"/>
		<path class="st2" d="M540.2,539.6c-1.2-1.7-2.3-3.6-3.3-5.5l23.3-4.3L535,530c-4.9-12-5.2-25.6-0.8-37.8l33.8,19.8L536.8,486
			c11.9-22.8,37.8-30.6,58-17.4c20.2,13.2,27.2,42.6,15.5,65.4c-1,1.9-2,3.8-3.4,5.5c1.8,2.7,3.5,5.6,4.9,8.7l-30.3,17.6l32.2-12.2
			c4.6,15.2,2,32.2-6.8,44.9c14.5,20.8,11.3,50.8-7.1,67.1c-18.4,16.3-45.2,12.6-59.6-8c-12.1-17.4-12.1-41.8,0-59.1
			C528,581.3,528,556.9,540.2,539.6L540.2,539.6z"/>
		<path class="st3" d="M615.9,569.1c0,10.7-3.2,21.1-9,29.6c14.5,20.8,11.3,50.8-7.1,67.1c-18.4,16.3-45.2,12.6-59.6-8
			c-12.1-17.4-12.1-41.8,0-59.1C534.4,590.6,615.9,563.7,615.9,569.1z"/>
	</g>
	<g class="st0">
		<ellipse class="st1" cx="721.7" cy="751.6" rx="13.3" ry="17.4"/>
		<path class="st1" d="M732.4,676.9c1.8-3.3,2.8-7,2.8-10.7c0-9.6-6-17.4-13.3-17.4c-7.5,0-13.3,7.8-13.3,17.4
			c-0.1,3.7,0.9,7.5,2.8,10.7c-3.7,6.7-3.7,14.7,0,21.3c-3.7,6.7-3.7,14.7,0,21.3c-1.8,3.3-2.8,7-2.8,10.7c0,9.6,6,17.4,13.3,17.4
			c7.3,0,13.3-7.8,13.3-17.4c0.1-3.7-0.9-7.5-2.8-10.7c3.7-6.7,3.7-14.7,0-21.3C736.1,691.6,736.1,683.5,732.4,676.9z"/>
		<ellipse class="st1" cx="721.7" cy="644.8" rx="13.3" ry="17.4"/>
		<ellipse class="st1" cx="721.7" cy="623.5" rx="13.3" ry="17.4"/>
		<path class="st2" d="M671.7,477.2c-1.8-2.3-3.5-4.7-5-7.3l35.1-5.8l-37.9,0.3c-7.3-16-7.8-34.3-1.2-50.7l50.9,26.4l-47-34.6
			c17.6-30.7,56.7-41.2,87.4-23.5c30.7,17.6,41.2,56.7,23.5,87.4c-1.6,2.7-3.4,5.3-5.3,7.8c2.8,3.6,5.3,7.5,7.2,11.6l-45.6,23.7
			l48.6-16.4c6.9,20.4,3,43-10.3,60.1c21.8,27.8,17.1,68-10.7,89.8c-27.8,21.8-68,17.1-89.8-10.7c-18.3-23.3-18.3-55.9,0-79.2
			C653.4,533,653.4,500.4,671.7,477.2L671.7,477.2z"/>
		<path class="st3" d="M786,516.6c0,14.3-4.9,28.2-13.7,39.5c21.8,27.8,17.1,68-10.7,89.8c-27.8,21.8-68,17.1-89.8-10.7
			c-18.3-23.3-18.3-55.9,0-79.2C663.3,545.4,786,509.5,786,516.6z"/>
	</g>
	<path class="st1" d="M1181.4,767.6c0,5.1-33.1,9.8-87.9,13.3c-9.9,0.7-20.7,1.2-32,1.8c-9.8,0.6-20.1,1-30.7,1.4
		c-10.4,0.5-21.1,0.8-32.4,1.2c-35.3,1.1-74.3,1.9-115.9,2.4c-10.1,0.1-20.2,0.1-30.6,0.2c-10.7,0.1-21.7,0.1-32.6,0.1
		c-199.9,0-362.1-9.1-362.1-20.4c0-11.3,162.2-20.3,362.2-20.3c86.1,0,165.1,1.7,227.2,4.5l6.8,0.3h0.1
		C1131.8,755.7,1181.4,761.3,1181.4,767.6z"/>
	<path class="st4" d="M1181.4,767.6c0,5.1-33.1,9.8-87.9,13.3c-9.9,0.7-20.7,1.2-32,1.8c-9.8,0.6-20.1,1-30.7,1.4
		c-10.4,0.5-21.1,0.8-32.4,1.2c-35.3,1.1-74.3,1.9-115.9,2.4c-10.1,0.1-20.2,0.1-30.6,0.2c-10.7,0.1-21.7,0.1-32.6,0.1
		c-199.9,0-362.1-9.1-362.1-20.4c0-11.3,162.2-20.3,362.2-20.3c86.1,0,165.1,1.7,227.2,4.5l6.8,0.3h0.1
		C1131.8,755.7,1181.4,761.3,1181.4,767.6z"/>
	<path class="st1" d="M1151.7,763.9c0,4.2-33.1,8.1-87.9,11.2c-9.9,0.6-20.7,1-32,1.6c-9.8,0.5-20.1,0.8-30.7,1.2
		c-10.4,0.3-21.1,0.7-32.4,1c-35.3,1-74.3,1.6-115.9,2c-10.1,0.1-20.2,0.1-30.6,0.2c-10.7,0.1-21.7,0.1-32.6,0.1
		c-199.9,0-362.1-7.7-362.1-17.1s162.1-17.1,362.1-17.1c86.1,0,165.1,1.4,227.2,3.8l6.8,0.2h0.1
		C1102,754.1,1151.7,758.8,1151.7,763.9z"/>
	<path class="st4" d="M641.3,652.1l-7.2-22.2l174.3-1.9l7.1,22L641.3,652.1z"/>
	<path class="st1" d="M629.8,652.1l-7.2-22.2l174.3-1.9l7.1,22L629.8,652.1z"/>
	<path class="st4" d="M927.3,617.9c-18.1,0-32.2-7.1-42.6-21.5c-10.4-14.3-15.6-31.6-15.6-51.9c0-20.4,5.1-37.8,15-51.9
		c10.1-14.1,24.2-21.1,42.5-21.1c19.4,0,34,7.5,43.8,22.2c9.8,14.8,14.8,32.1,14.8,51.6c0,19.4-5.1,36.3-15.2,50.8
		C959.8,610.7,945.6,617.9,927.3,617.9z M927.8,601.9c11.9,0,20.7-5.2,26.5-15.5s8.8-23.4,8.8-39.1c0-17.5-2.9-31.8-9-43
		c-6-11.2-15.2-16.7-27.7-16.7c-23.6,0-35.5,18.7-35.5,56.2C891.3,582.5,903.3,601.9,927.8,601.9L927.8,601.9z M933.7,755.9h-26.1
		l170.6-281.5h25.5L933.7,755.9z M1084.7,758.8c-18.3,0-32.5-7.2-42.8-21.7c-10.3-14.5-15.4-31.7-15.4-51.9c0-20.3,5-37.6,14.9-51.7
		s24.2-21.1,42.6-21.1c19.2,0,33.8,7.5,43.5,22.2c9.7,14.8,14.7,32.1,14.7,51.6c0,19.2-5.1,36.1-15.1,50.8
		C1117,751.5,1102.8,758.8,1084.7,758.8L1084.7,758.8z M1084.9,742.3c11.9,0,20.7-5.1,26.4-15.2c5.8-10.2,8.8-23.2,8.8-38.8
		c0-16.9-2.9-31.1-8.8-42.6c-5.9-11.4-15-17.2-27.6-17.3c-23.7,0-35.6,18.7-35.6,56.2C1048.1,723.1,1060.4,742.3,1084.9,742.3
		L1084.9,742.3z"/>
	<path class="st1" d="M910.9,617.9c-18.1,0-32.2-7.1-42.6-21.5c-10.4-14.3-15.6-31.6-15.6-51.9c0-20.4,5.1-37.8,15-51.9
		c10.1-14.1,24.2-21.1,42.5-21.1c19.4,0,34,7.5,43.8,22.2c9.8,14.8,14.8,32.1,14.8,51.6c0,19.4-5.1,36.3-15.2,50.8
		C943.4,610.7,929.2,617.9,910.9,617.9z M911.4,601.9c11.9,0,20.7-5.2,26.5-15.5c5.9-10.3,8.8-23.4,8.8-39.1c0-17.5-2.9-31.8-9-43
		c-6-11.2-15.2-16.7-27.7-16.7c-23.6,0-35.5,18.7-35.5,56.2C874.8,582.5,887.1,601.9,911.4,601.9L911.4,601.9z M917.3,755.9h-26.1
		l170.6-281.5h25.6L917.3,755.9z M1068.3,758.8c-18.3,0-32.5-7.2-42.8-21.7c-10.3-14.5-15.4-31.7-15.4-51.9c0-20.3,5-37.6,14.9-51.7
		c9.9-14.1,24.2-21.1,42.6-21.1c19.2,0,33.8,7.5,43.5,22.2c9.7,14.8,14.7,32.1,14.7,51.6c0,19.2-5.1,36.1-15.1,50.8
		C1100.5,751.5,1086.5,758.8,1068.3,758.8L1068.3,758.8z M1068.6,742.3c11.9,0,20.7-5.1,26.4-15.2c5.8-10.2,8.8-23.2,8.8-38.8
		c0-16.9-2.9-31.1-8.8-42.6c-5.9-11.4-15-17.2-27.6-17.3c-23.7,0-35.6,18.7-35.6,56.2C1031.7,723.1,1044.1,742.3,1068.6,742.3
		L1068.6,742.3z"/>
	<path class="st5" d="M897.1,764.6c3-5.6-0.5-12.6-4.4-17.6c-4-5.1-8.8-10.3-8.8-16.8c0.1-9.3,9.9-14.7,17.8-19.6
		c5.9-3.6,11.2-7.9,16-12.9c2-1.8,3.7-4.2,4.9-6.7c1.6-3.6,1.6-7.7,1.5-11.7c-0.3-13.2-1-26.4-1.9-39.6"/>
	<path class="st2" d="M937.2,639c-0.2-4.9-2.9-9.4-7.2-11.9l-3.3,6.4l0.1-7.7c-1.6-0.5-3.2-0.7-4.7-0.6c-7.9,0.3-14.1,7.1-13.8,15
		c0.3,7.9,7.1,14.1,15,13.8C931.5,653.8,937.6,646.9,937.2,639z"/>
	<path class="st2" d="M911.5,736.8c-3.6,7.1-12.3,9.8-19.4,6.2c-7.1-3.6-9.8-12.3-6.2-19.4c3.6-7.1,12.3-9.8,19.4-6.2
		c3.2,1.6,5.6,4.4,6.9,7.8l-9,7.3l9.9-2.3C913.1,732.6,912.5,734.8,911.5,736.8z"/>
	<path class="st2" d="M904.4,708.7c-7.9,0.3-14.7-5.8-15-13.8l0,0c-0.1-2.3,0.3-4.5,1.2-6.7c1.8-4,5.1-6.8,9.3-8l-0.1,6l3.3-6.4l0,0
		c7.9-0.3,14.7,5.8,15.1,13.8C918.4,701.6,912.3,708.4,904.4,708.7L904.4,708.7L904.4,708.7z"/>
	<path class="st2" d="M939.4,685.5c-7.9,0.6-14.8-5.5-15.4-13.4c-0.6-7.9,5.5-14.8,13.4-15.4c0.2,0,0.3,0,0.6,0
		c2.7-0.1,5.3,0.6,7.7,1.8l-2.5,7l5.3-5.1c2.8,2.6,4.5,6.2,4.6,9.9c0.1,1.4-0.1,2.7-0.3,4.1C951.3,680.6,945.8,685.1,939.4,685.5z"
		/>
	<path class="st3" d="M935.2,642.9c-3.4,0.3-6.5,1.4-9.9,1.6c-3.4,0.2-7-0.6-9.1-3.2c-1.1-1.4-1.7-3.2-2.7-4.6
		c-0.9-1.4-2.1-2.6-3.6-3.4c-3.6,7.1-0.8,15.8,6.4,19.4c7.2,3.6,15.8,0.8,19.4-6.4c0.6-1.1,1-2.3,1.2-3.5
		C936.3,642.8,935.9,642.8,935.2,642.9z"/>
	<path class="st3" d="M939.4,685.5c-7.9,0.3-14.8-5.8-15-13.8c-0.1-2.4,0.3-4.6,1.4-6.8c1.1,0.8,2.1,1.8,2.9,2.9
		c1,1.6,1.6,3.4,2.9,4.7c2.3,2.7,6.1,3.5,9.6,3.4c3.5-0.1,6.8-1.1,10.3-1.5c0.6-0.1,1-0.1,1.5-0.1
		C951.3,680.6,945.8,685.1,939.4,685.5z"/>
	<path class="st3" d="M904.4,708.7c-7.9,0.3-14.7-5.8-15-13.8l0,0c-0.1-2.3,0.3-4.5,1.2-6.7c1.2,0.8,2.3,1.8,3,2.9
		c1.1,1.6,1.8,3.4,3.2,4.9c2.5,2.7,6.5,3.6,10.3,3.6c3.7-0.1,7-1,10.6-1.2C915.7,704.4,910.3,708.5,904.4,708.7z"/>
	<path class="st3" d="M911.5,736.8c-3.6,7.1-12.3,9.9-19.4,6.3c-6.7-3.4-9.6-11.2-6.9-18.1c1.2,0.8,2.3,1.7,3.2,2.8
		c1.4,1.7,2.3,3.6,3.8,5.1c2.9,2.9,7.7,4.1,12,4.2C906.6,737.3,909,737.1,911.5,736.8z"/>
	<path class="st5" d="M1120.6,763.9c3-5.6-0.5-12.6-4.4-17.6c-4-5.1-8.8-10.3-8.8-16.8c0.1-9.3,9.9-14.7,17.8-19.6
		c5.9-3.6,11.2-7.9,16-12.9c2-1.8,3.7-4.2,4.9-6.7c1.6-3.6,1.6-7.7,1.5-11.7c-0.3-13.2-1-26.4-1.9-39.6"/>
	<path class="st2" d="M1160.7,638.3c-0.2-4.9-2.9-9.4-7.2-11.9l-3.3,6.4l0.1-7.7c-1.6-0.5-3.2-0.7-4.7-0.6
		c-7.9,0.3-14.1,7.1-13.8,15s7.1,14.1,15,13.8C1155,653,1161,646.3,1160.7,638.3z"/>
	<path class="st2" d="M1135,736.2c-3.6,7.1-12.3,9.8-19.4,6.2c-7.1-3.6-9.8-12.3-6.2-19.4c3.6-7.1,12.3-9.8,19.4-6.2
		c3.2,1.6,5.6,4.4,6.9,7.8l-9,7.3l9.9-2.3C1136.5,731.8,1136,734,1135,736.2z"/>
	<path class="st2" d="M1127.8,708c-7.9,0.3-14.7-5.8-15-13.8l0,0c-0.1-2.3,0.3-4.5,1.2-6.7c1.8-4,5.1-6.8,9.3-8l-0.1,6l3.3-6.4h0.1
		c7.9-0.3,14.7,5.8,15,13.8C1142,700.8,1135.8,707.6,1127.8,708L1127.8,708L1127.8,708z"/>
	<path class="st2" d="M1162.9,684.7c-7.9,0.6-14.8-5.5-15.4-13.4c-0.6-7.9,5.5-14.8,13.4-15.4c0.2,0,0.3,0,0.6,0
		c2.7-0.1,5.3,0.6,7.7,1.8l-2.5,7l5.3-5.1c2.8,2.6,4.5,6.2,4.6,9.9c0.1,1.4-0.1,2.7-0.3,4.1C1174.8,679.9,1169.3,684.4,1162.9,684.7
		z"/>
	<path class="st3" d="M1158.7,642.2c-3.4,0.3-6.5,1.4-9.9,1.6c-3.4,0.2-7-0.6-9.1-3.2c-1.1-1.4-1.7-3.2-2.7-4.6
		c-0.9-1.4-2.1-2.6-3.6-3.4c-3.6,7.1-0.8,15.8,6.4,19.4s15.8,0.8,19.4-6.4c0.6-1.1,1-2.3,1.2-3.5
		C1159.8,642.1,1159.4,642.1,1158.7,642.2z"/>
	<path class="st3" d="M1162.9,684.7c-7.9,0.3-14.8-5.8-15-13.8c-0.1-2.4,0.3-4.6,1.4-6.8c1.1,0.8,2.1,1.8,2.9,2.9
		c1,1.6,1.6,3.4,2.9,4.7c2.3,2.7,6.1,3.5,9.6,3.4c3.5-0.1,6.8-1.1,10.3-1.5c0.6-0.1,1-0.1,1.5-0.1
		C1174.8,679.9,1169.3,684.4,1162.9,684.7z"/>
	<path class="st3" d="M1127.8,708c-7.9,0.3-14.7-5.8-15-13.8l0,0c-0.1-2.3,0.3-4.5,1.2-6.7c1.2,0.8,2.3,1.8,3,2.9
		c1.1,1.6,1.8,3.4,3.2,4.9c2.5,2.7,6.5,3.6,10.3,3.6c3.6-0.1,7-1,10.6-1.2C1139.1,703.8,1133.8,707.8,1127.8,708z"/>
	<path class="st3" d="M1135,736.2c-3.6,7.1-12.3,9.9-19.4,6.3c-6.7-3.4-9.6-11.2-6.9-18.1c1.2,0.8,2.3,1.7,3.2,2.8
		c1.4,1.7,2.3,3.6,3.8,5.1c2.9,2.9,7.7,4.1,12,4.2C1130,736.5,1132.5,736.4,1135,736.2z"/>
	<path class="st5" d="M500.2,754.2c-2.7-5.6,0.3-12.6,4-17.6c3.6-5.1,7.9-10.3,7.8-16.8c-0.1-9.3-8.8-14.7-15.8-19.6
		c-5.2-3.6-9.9-7.9-14.2-12.9c-1.8-1.8-3.3-4.2-4.4-6.7c-1.4-3.6-1.4-7.7-1.4-11.7c0.3-13.2,0.9-26.4,1.7-39.6"/>
	<path class="st2" d="M464.5,628.7c0.2-4.9,2.6-9.4,6.4-11.9l2.9,6.4l-0.1-7.7c1.4-0.5,2.8-0.7,4.2-0.6c7,0.3,12.5,7.1,12.2,15
		c-0.3,7.9-6.3,14.1-13.4,13.8C469.7,643.4,464.3,636.6,464.5,628.7z"/>
	<path class="st2" d="M487.4,726.5c3.3,7.1,11,9.8,17.3,6.2c6.3-3.6,8.8-12.3,5.5-19.4c-3.2-7.1-11-9.8-17.3-6.2
		c-2.8,1.6-5.1,4.4-6.2,7.8l8,7.3l-8.8-2.3C486,722.2,486.5,724.4,487.4,726.5z"/>
	<path class="st2" d="M493.7,698.3c7,0.3,13.1-5.8,13.4-13.8l0,0c0.1-2.3-0.3-4.5-1.1-6.7c-1.6-4-4.5-6.8-8.2-8l0.1,6l-2.9-6.4l0,0
		c-7-0.3-13.1,5.8-13.4,13.8C481.3,691.2,486.9,698,493.7,698.3L493.7,698.3z"/>
	<path class="st2" d="M462.6,675.1c7,0.6,13.2-5.5,13.7-13.4c0.5-7.9-4.9-14.8-12-15.4c-0.1,0-0.3,0-0.6,0c-2.4-0.1-4.7,0.6-6.8,1.8
		l2.3,7l-4.6-5.1c-2.5,2.6-4.1,6.2-4.2,9.9c-0.1,1.4,0.1,2.7,0.3,4.1C452.1,670.2,456.9,674.7,462.6,675.1z"/>
	<path class="st3" d="M466.3,632.5c2.9,0.3,5.9,1.4,8.8,1.6c2.9,0.2,6.2-0.6,8.1-3.2c1-1.4,1.5-3.2,2.4-4.6c0.8-1.4,1.9-2.6,3.3-3.4
		c3.2,7.1,0.7,15.8-5.6,19.4c-6.3,3.6-14,0.8-17.3-6.4c-0.6-1.1-0.9-2.3-1.1-3.5C465.4,632.4,465.7,632.4,466.3,632.5z"/>
	<path class="st3" d="M462.6,675.1c7,0.3,13.1-5.8,13.4-13.8c0.1-2.4-0.3-4.6-1.2-6.8c-1,0.8-1.8,1.8-2.6,2.9
		c-0.9,1.6-1.5,3.4-2.5,4.7c-2,2.7-5.4,3.5-8.6,3.4s-6.1-1.1-9.3-1.5c-0.5-0.1-0.9-0.1-1.4-0.1C452.1,670.2,456.9,674.7,462.6,675.1
		z"/>
	<path class="st3" d="M493.7,698.3c7,0.3,13.1-5.8,13.4-13.8l0,0c0.1-2.3-0.3-4.5-1.1-6.7c-1,0.8-2,1.8-2.7,2.9
		c-1,1.6-1.6,3.4-2.8,4.9c-2.1,2.7-5.8,3.6-9,3.6c-3.2-0.1-6.2-1-9.4-1.2C483.8,694,488.3,698.1,493.7,698.3z"/>
	<path class="st3" d="M487.4,726.5c3.2,7.1,11,9.9,17.3,6.3c5.9-3.4,8.6-11.2,6.2-18.1c-1,0.8-2,1.7-2.8,2.8c-1.2,1.7-2,3.6-3.4,5.1
		c-2.7,2.9-6.8,4.1-10.6,4.2C491.8,726.9,489.6,726.7,487.4,726.5z"/>
	
		<linearGradient id="SVGID_1_" gradientUnits="userSpaceOnUse" x1="782.4279" y1="-366.2391" x2="782.4279" y2="-247.7458" gradientTransform="matrix(1 0 0 -1 -28.5 403.86)">
		<stop  offset="0" style="stop-color:#808080;stop-opacity:0.25"/>
		<stop  offset="0.54" style="stop-color:#808080;stop-opacity:0.12"/>
		<stop  offset="1" style="stop-color:#808080;stop-opacity:0.1"/>
	</linearGradient>
	<path class="st6" d="M832.9,684.7c0-3.6-1.7-7.1-4.6-9.3c-0.1-6.8-5.1-12.4-11.3-13.2c-1-4.6-4.4-8.6-9-10.1l0,0
		c-0.6-0.1-1.1-0.3-1.7-0.3h-0.1h-0.3h-0.2h-0.2H805h-0.2h-0.6c-6.4,0-11.6,4.9-12.8,11.3c-4.1-1-7.9,0.3-8.6,2.9
		c-0.1,0.7-0.1,1.4,0.1,2c0.7,2,2.9,4,6.1,4.9l0.3,0.1c0.2,0.1,0.3,0.1,0.6,0.1h0.1l0,0c-2.4,5.1-0.3,11,4.5,13.6
		c-0.1,0.1-0.1,0.1-0.3,0.1c-0.3,0.3-0.7,0.8-0.9,1.2c-0.8,1.4-1.4,2.7-1.7,4.2c-0.3,1.2-0.3,2.5-0.8,3.8c-0.7,2.3-2.5,4.2-2.6,6.5
		c-0.1,1,0.1,2.3-0.7,3c-0.2,0.1-0.3,0.3-0.6,0.5c-0.6,0.3-1,0.8-1.4,1.4c-0.2,0.5-0.6,0.9-0.9,1.2c-0.7,0.6-1.8,0.5-2.1,1.2
		c-0.3,0.8,0.6,1.7,0.3,2.6c-0.1,0.7-1,1-1.5,1.5c-0.6,0.7-1,1.5-1.2,2.4c-2.3,0.5-4.6-0.1-6.3-1.6c0.3,0.8,0.6,1.6,0.7,2.4
		c-0.9-1-2.4-1.2-3.4-1.7c-1.4-0.7-2.6-1.6-3.6-2.7l1.9-0.3l-8.6-13.1l-2.5-0.6l2.3,4.4c-0.3,0.1-0.7,0.6-0.8,1
		c-0.1,0.6-0.1,1-0.1,1.5c0.1,1.2,0.3,2.3,0.6,3.5l0.7,3c0.1,0.3,0.1,0.6,0.2,0.9c-0.9,0-1.7,0.1-2.5,0.3c-1.7-0.7-3.5-1-5.3-1.2
		c-0.3-0.1-0.8-0.1-1.2,0.1c-0.5,0.2-0.8,0.6-1.1,0.9c-1.5,1.7-2.8,3.6-4,5.5c-4.6,8-10.7,15-16.6,22.4c-4.1,1.6-8,3.2-12.1,4.6
		l-8.7,3.4c-1.7,0.7-3.6,1.4-5.3,1.2c-0.8-0.1-1.8-0.1-2.3,0.6c-0.2,0.3-0.3,0.8-0.6,1.1c-0.3,0-0.6,0.1-0.9,0.1h-0.1
		c-0.6-1.4-1-2.8-2-3.8c-0.5,0.1-0.8,0.3-1,0.8c-0.2,0.3-0.3,0.8-0.6,1.2c-0.5,0.7-1.2,1-1.8,1.6s-1,1.5-1.6,2
		c-0.9,0.7-1.9,1-2.9,1.1c-1.6,0.3-3.2,1-4.6,1.8c-0.6,0.3-1.1,0.6-1.7,0.8c-0.7,0.1-1.4,0.1-2,0.1l-4.6-0.3c-0.3-0.1-0.8,0-1.2,0.1
		c-1,0.3-1.6,1.4-1.5,2.4c0.1,1,0.7,1.9,1.5,2.5c0.8,0.6,1.7,1,2.6,1.4c4.1,1.6,8.1,2.7,12.2,3.6v1c2.9,1.5,6.1,2.3,9.4,2.3
		c0.2,0,0.5,0,0.7-0.1c0.3-0.2,0.6-0.6,0.6-0.9c1-2.9,1.6-6,1.8-9l0,0c0.6,0,1.1-0.1,1.6-0.5c1.6-0.5,3.2,0.7,4.7,0.8
		c2,0.2,3.8-1,5.8-1.7c0.3-0.1,0.6-0.2,0.8-0.3c-0.6,0.7-1.2,1.4-1.8,1.8c-0.8,0.6-1.7,1-2.5,1.6c-0.7,0.6-1.4,1.1-2,1.6
		c-0.6,0.2-1,0.5-1.6,0.6c-0.8,0.3-1.6,0.7-2.3,1.1c-0.6,0.3-1.2,0.9-1.6,1.5c-0.7,0.9-0.5,2.1,0.6,2.8c0.3,0.1,0.6,0.3,0.9,0.3
		c0.6,0.1,1.2,0.1,1.8,0.1c2.5-0.2,5-0.5,7.5-0.7c1-0.1,2-0.2,3.2-0.5c0.6-0.1,1.1-0.3,1.6-0.5c0.9-0.2,1.8-0.3,2.8-0.5
		c0.3,0,0.6,0,0.8,0.1c0.6,0.2,1,0.8,1.6,0.9c0.3,0,0.8,0,1.1-0.1c1.8-0.3,3.6-0.6,5.5-0.6c0.8-0.1,1.8-0.2,2.1-1
		c0.5-1-0.3-2-0.6-2.9c-0.1-0.7-0.2-1.2-0.2-1.9c-0.1-1.6-0.6-3.2-1.4-4.6c-0.3-0.7-0.8-1.4-1-2c3.6-1.4,7-3,10.1-5.1
		c1.8-1.1,3.7-2.4,5.8-2.7c2.4-0.6,4.9,0.1,7.2,0.8c5.6,1.6,11.2,3.6,16.6,5.8c2.6,1,5.2,2.3,7.9,2.9c0.8,1,1.7,1.9,2.8,2.7
		c1.8,1.1,4,1.5,6.1,1.6c2.8,0.2,5.6,0.3,8.6,0.3c2.1,0,4.4-0.2,6.3-1.2c0.5-0.2,0.9-0.6,1.4-0.9c1.5,0.3,2.9-0.6,4.2-1.6
		c1.6-1.4,2.7-3,3.2-5.1c0.7-2.7,0.1-5.8,1.8-8c0.5-0.6,1-1,1.4-1.6c0.6-0.8,0.8-1.7,0.8-2.7l0.1-0.1c0.3-0.9,0.6-1.8,0.8-2.7
		c0.2-0.8,0.5-1.4,0.8-2.1c0.8-2,1.6-4.2,2.1-6.3c0.5-1.4,0.8-2.9,1-4.3c0.1-1.2,0.3-2.4,0.3-3.6c0.1-1.8,0.5-3.6,1-5.4
		c1.5-4.2,2.3-8.6,2.5-13c0-0.1,0-0.1,0-0.2c4.4-0.6,7.8-4.3,7.8-8.8c0-1.4-0.3-2.6-0.8-3.8C832.3,688.7,832.9,686.8,832.9,684.7z
		 M790.9,735.7c0.1,0.5,0.3,0.9,0.5,1.4c-0.7-0.7-1.4-1.4-2-2c0.3,0.1,0.6,0.1,0.8,0.3C790.3,735.6,790.6,735.6,790.9,735.7
		L790.9,735.7z M787.6,733.5c-4.1-3.5-8.8-6.2-12.9-9.6c2.3,1.1,4.4,2.5,6.7,3.6c2.6,1.5,5.2,2.9,7.9,4.2
		C788.8,732.4,788.3,733,787.6,733.5L787.6,733.5z M789.3,724.6l0.2-0.2c0,0.6,0,1,0,1.4c-0.3-0.1-0.8-0.2-1.1-0.3
		C788.7,725.2,789.1,724.9,789.3,724.6L789.3,724.6z M753.6,734.1c1.6-1.8,3.2-4,4.3-6.2c1.6,2.8,4.2,4.9,6.4,7.2
		C760.8,734.7,757.2,734.2,753.6,734.1L753.6,734.1z"/>
	<polygon class="st7" points="759.5,699.9 762,700.5 770.8,713.4 766.8,713.9 	"/>
	<path class="st8" d="M697.4,752.3c0.7,2.3,1.6,4.5,2.5,6.7c2.9-0.6,5.8-1.4,8.6-2.5c-0.6-0.8-1.1-1.6-1.8-2.4
		c-0.7-0.8-1.5-1.4-2.4-1.8c-0.9-0.3-2-0.1-2.9-0.1C700.1,752.3,698.7,752.3,697.4,752.3z"/>
	<path class="st7" d="M704.2,755.7c-1.4-0.5-2.3-1.9-2.9-3.4c-0.6-1.4-1-2.9-2.1-4c-0.5,0.1-0.8,0.3-1,0.8c-0.2,0.3-0.3,0.8-0.6,1.1
		c-0.5,0.7-1.2,1-1.8,1.6s-1,1.4-1.6,2c-0.9,0.6-1.9,1-2.9,1.1c-1.6,0.3-3.2,1-4.6,1.7c-0.6,0.3-1.1,0.6-1.7,0.8
		c-0.7,0.1-1.4,0.1-2,0.1l-4.6-0.3c-0.5-0.1-0.8,0-1.2,0.1c-1,0.3-1.6,1.2-1.5,2.3c0.1,1,0.7,1.9,1.5,2.5s1.7,1,2.6,1.4
		c4.1,1.5,8.1,2.7,12.4,3.6v0.9c2.9,1.5,6.2,2.3,9.4,2.3c0.2,0,0.6,0,0.8-0.1c0.3-0.2,0.6-0.6,0.6-0.9c1.1-3.3,1.8-6.7,1.9-10.1
		c0.1-0.9,0-1.7-0.2-2.6C704.2,755.6,705,755.9,704.2,755.7"/>
	<path class="st7" d="M793,738.2c-13.8,0.8-27.2-3.2-41-3.6c-1.7-0.1-3.4,0-5.1,0.3c-1.8,0.5-3.4,1.1-5.1,1.9
		c-7.3,3.4-15,6.2-22.6,9.1l-8.8,3.3c-1.8,0.7-3.6,1.4-5.4,1.2c-0.8-0.1-1.8-0.1-2.3,0.6c-1.4,2-0.8,5.2,0.2,7.6
		c0.3,0.8,0.8,1.6,1.6,1.7c0.6-0.1,1.1-0.1,1.7-0.5c1.6-0.5,3.2,0.7,4.9,0.8c2,0.2,4-1,5.8-1.6c3.2-1.2,6.7-1.1,9.9-1.7
		c5.5-1,10.7-3.5,15.6-6.4c1.8-1.1,3.7-2.3,5.8-2.7c2.5-0.5,4.9,0.1,7.2,0.8c5.8,1.6,11.3,3.5,16.8,5.8c2.8,1.2,5.8,2.3,8.8,3.2
		c6.5,1.7,13.3,1.4,19.6-1.1c2.3-0.9,4.6-2.4,4.6-4.7c0.1-1.4-1-2.5-1.7-3.7c-0.5-0.8-0.9-1.5-1.4-2.3
		C800,742.5,797.2,738,793,738.2z"/>
	<path class="st3" d="M793,738.2c-13.8,0.8-27.2-3.2-41-3.6c-1.7-0.1-3.4,0-5.1,0.3c-1.8,0.5-3.4,1.1-5.1,1.9
		c-7.3,3.4-15,6.2-22.6,9.1l-8.8,3.3c-1.8,0.7-3.6,1.4-5.4,1.2c-0.8-0.1-1.8-0.1-2.3,0.6c-1.4,2-0.8,5.2,0.2,7.6
		c0.3,0.8,0.8,1.6,1.6,1.7c0.6-0.1,1.1-0.1,1.7-0.5c1.6-0.5,3.2,0.7,4.9,0.8c2,0.2,4-1,5.8-1.6c3.2-1.2,6.7-1.1,9.9-1.7
		c5.5-1,10.7-3.5,15.6-6.4c1.8-1.1,3.7-2.3,5.8-2.7c2.5-0.5,4.9,0.1,7.2,0.8c5.8,1.6,11.3,3.5,16.8,5.8c2.8,1.2,5.8,2.3,8.8,3.2
		c6.5,1.7,13.3,1.4,19.6-1.1c2.3-0.9,4.6-2.4,4.6-4.7c0.1-1.4-1-2.5-1.7-3.7c-0.5-0.8-0.9-1.5-1.4-2.3
		C800,742.5,797.2,738,793,738.2z"/>
	<path class="st8" d="M723.7,752.9c2.1,0.8,4.3,1.4,6.4,2c1.2-2,3.5-3.4,4.1-5.8c0-0.1,0-0.2,0-0.3c-0.1-0.1-0.1-0.1-0.2-0.2
		c-1.6-0.9-3.3-1.4-5.1-1.5c-1.4-0.1-2,1.4-2.7,2.5C725.9,750.1,724.2,753.1,723.7,752.9z"/>
	<path class="st7" d="M726.7,751.4c-1.2-0.2-2.5-1-3.2-2c-0.3-0.6-0.6-1.2-1.2-1.2c-0.7,0.1-0.8,0.8-1,1.2c-0.5,2-1,4.1-1.8,6.1
		c-0.8,2-2,3.7-3.8,5c-0.8,0.6-1.7,1-2.5,1.6c-0.7,0.6-1.4,1.1-2,1.6c-0.6,0.2-1,0.5-1.6,0.6c-0.8,0.3-1.6,0.7-2.3,1.1
		c-0.6,0.3-1.2,0.9-1.6,1.5c-0.3,0.6-0.5,1.4-0.1,2c0.3,0.6,0.9,0.9,1.5,1c0.6,0.1,1.2,0.1,1.8,0.1c2.5-0.2,5-0.3,7.5-0.6
		c1-0.1,2-0.2,3.2-0.5c0.6-0.1,1.1-0.3,1.6-0.5c1-0.2,1.9-0.3,2.8-0.5c0.3,0,0.6,0,0.8,0.1c0.6,0.2,1,0.8,1.6,0.9
		c0.3,0.1,0.8,0,1.1-0.1c1.8-0.3,3.7-0.6,5.5-0.6c0.8-0.1,1.8-0.2,2.1-1c0.5-0.9-0.3-1.9-0.6-2.9c-0.1-0.6-0.2-1.2-0.2-1.9
		c-0.1-1.6-0.6-3.2-1.4-4.5c-0.7-1.2-1.5-2.5-1-3.7c0.2-0.3,0.3-0.8,0.5-1.2C732.5,751,727.8,751.7,726.7,751.4z"/>
	<path class="st8" d="M772.5,716.3c-2.5-1-4.4-2.9-5.5-5.4c-0.2-0.6-0.5-1-0.6-1.6c-0.8-1.7-1.8-3.3-3.3-4.5
		c-0.3-0.3-0.8-0.6-1.2-0.6c-0.5,0.1-0.8,0.6-0.9,1c-0.1,0.6-0.1,1-0.1,1.5c0.1,1.2,0.3,2.3,0.6,3.4l0.7,3c0.1,0.5,0.2,0.9,0.5,1.4
		c0.3,0.6,0.7,1,1.1,1.4c0.6,0.6,1.2,1.1,1.8,1.6c0.3,0.3,0.8,0.6,1.1,0.8c0.7,0.3,1.4,0.6,2,0.6c2.7,0.6,5.5,1.2,7.8,2.9
		c0,0,0-2-0.1-2.3c0-0.6-0.2-1.2-0.6-1.6C774.9,717,773.5,716.7,772.5,716.3z"/>
	<path class="st3" d="M772.5,716.3c-2.5-1-4.4-2.9-5.5-5.4c-0.2-0.6-0.5-1-0.6-1.6c-0.8-1.7-1.8-3.3-3.3-4.5
		c-0.3-0.3-0.8-0.6-1.2-0.6c-0.5,0.1-0.8,0.6-0.9,1c-0.1,0.6-0.1,1-0.1,1.5c0.1,1.2,0.3,2.3,0.6,3.4l0.7,3c0.1,0.5,0.2,0.9,0.5,1.4
		c0.3,0.6,0.7,1,1.1,1.4c0.6,0.6,1.2,1.1,1.8,1.6c0.3,0.3,0.8,0.6,1.1,0.8c0.7,0.3,1.4,0.6,2,0.6c2.7,0.6,5.5,1.2,7.8,2.9
		c0,0,0-2-0.1-2.3c0-0.6-0.2-1.2-0.6-1.6C774.9,717,773.5,716.7,772.5,716.3z"/>
	<ellipse class="st7" cx="800.3" cy="689.8" rx="3.4" ry="3.4"/>
	<path class="st7" d="M798.2,687.7c-0.9-0.2-1.8-0.1-2.6,0.3c-0.3,0.3-0.7,0.8-0.9,1.2c-0.8,1.2-1.4,2.7-1.7,4.1
		c-0.3,1.2-0.3,2.5-0.8,3.7c-0.7,2.3-2.5,4.1-2.6,6.4c-0.1,1,0.1,2.3-0.7,2.9c-0.2,0.1-0.3,0.3-0.6,0.5c-0.6,0.3-1,0.8-1.4,1.4
		c-0.2,0.5-0.6,0.9-1,1.2c-0.7,0.6-1.8,0.5-2.1,1.2c-0.3,0.8,0.6,1.7,0.3,2.5c-0.1,0.7-1,1-1.5,1.5c-0.6,0.7-1,1.5-1.2,2.4
		c-2.3,0.5-4.6-0.1-6.4-1.6c1,2.3,1,4.9,1,7.2c0.1,0.8-0.1,1.6-0.6,2.3c2.7,0.1,5.3,0.8,7.8,1.4c1.1,0.3,2.3,0.3,3.4,0
		c0.6-0.3,1.1-0.8,1.6-1.2c1.4-1.4,2.9-2.9,3.2-5c0.1-1.1,0.1-2.3,0.1-3.4c0.1-1.4,0.5-2.7,0.9-4.1c0.8-2.7,1.2-5.5,1.5-8.4
		c0.1-1.8,1.7-3.2,2.5-4.7c1.5-2.9,3-6.1,3.2-9.4C799.8,689.2,799.3,687.9,798.2,687.7z"/>
	<path class="st3" d="M798.2,687.7c-0.9-0.2-1.8-0.1-2.6,0.3c-0.3,0.3-0.7,0.8-0.9,1.2c-0.8,1.2-1.4,2.7-1.7,4.1
		c-0.3,1.2-0.3,2.5-0.8,3.7c-0.7,2.3-2.5,4.1-2.6,6.4c-0.1,1,0.1,2.3-0.7,2.9c-0.2,0.1-0.3,0.3-0.6,0.5c-0.6,0.3-1,0.8-1.4,1.4
		c-0.2,0.5-0.6,0.9-1,1.2c-0.7,0.6-1.8,0.5-2.1,1.2c-0.3,0.8,0.6,1.7,0.3,2.5c-0.1,0.7-1,1-1.5,1.5c-0.6,0.7-1,1.5-1.2,2.4
		c-2.3,0.5-4.6-0.1-6.4-1.6c1,2.3,1,4.9,1,7.2c0.1,0.8-0.1,1.6-0.6,2.3c2.7,0.1,5.3,0.8,7.8,1.4c1.1,0.3,2.3,0.3,3.4,0
		c0.6-0.3,1.1-0.8,1.6-1.2c1.4-1.4,2.9-2.9,3.2-5c0.1-1.1,0.1-2.3,0.1-3.4c0.1-1.4,0.5-2.7,0.9-4.1c0.8-2.7,1.2-5.5,1.5-8.4
		c0.1-1.8,1.7-3.2,2.5-4.7c1.5-2.9,3-6.1,3.2-9.4C799.8,689.2,799.3,687.9,798.2,687.7z"/>
	<path class="st7" d="M795.2,741.1c-2.8-1.4-5-3.8-7.2-6.1c-4.4-4.2-9.8-7-14.5-11c-3-2.6-5.8-5.5-9.3-7.7c-2.9-1.9-6.3-3-9.8-3.5
		c-0.3-0.1-0.8-0.1-1.2,0.1c-0.5,0.2-0.8,0.6-1.1,0.9c-1.5,1.7-2.8,3.5-4,5.4c-5.9,9.9-14.2,18.3-21.1,27.7
		c-0.5,0.5-0.6,1.2-0.1,1.7l1.4,2.7c0.8,1.6,2,3.4,3.7,3c0.8-0.2,1.4-0.7,2-1.2l6.3-6l6.7-6.3c3.8-3.7,7.8-7.5,10.3-12.2
		c2,3.4,5.5,5.6,7.9,8.8c0.9,1.2,1.6,2.5,2.5,3.8c1.4,2,2.8,4,4.3,5.8l7.6,9.6c1,1.4,2.1,2.6,3.5,3.6c1.8,1.1,4.1,1.4,6.1,1.6
		c2.8,0.3,5.8,0.3,8.6,0.3c2.1,0,4.4-0.1,6.4-1.1c1.9-1,3.6-2.9,3.5-5.1c-0.1-1.1-0.6-2.3-1.1-3.2
		C803.7,747.7,800.2,743.6,795.2,741.1z"/>
	<ellipse class="st9" cx="802.4" cy="692" rx="2.6" ry="2.6"/>
	<path class="st8" d="M801.8,690.1c0.6,1.2,0.7,2.5,0.3,3.7c-0.3,1.2-1,2.4-1.6,3.4c-0.6,1.1-1.4,2.1-2.1,3c4,0.2,7.8-1.4,11.3-3.3
		c2.8-1.5,5.6-3.4,7.1-6.2c-0.9,0.2-1.8,0.1-2.6-0.6c-0.8-0.6-1.4-1.2-2-1.8l-2-2.3c-0.5-0.6-0.9-1-1.2-1.6
		c-0.5-0.8-0.6-1.7-0.6-2.6c-0.8,0.8-1.7,1.6-2.6,2.1c-1.4,1-2.9,1.6-4.4,2.5c-0.6,0.3-1.6,0.9-1.4,1.5
		C800.3,688.7,801.4,689.4,801.8,690.1z"/>
	<path class="st3" d="M801.8,690.1c0.6,1.2,0.7,2.5,0.3,3.7c-0.3,1.2-1,2.4-1.6,3.4c-0.6,1.1-1.4,2.1-2.1,3c4,0.2,7.8-1.4,11.3-3.3
		c2.8-1.5,5.6-3.4,7.1-6.2c-0.9,0.2-1.8,0.1-2.6-0.6c-0.8-0.6-1.4-1.2-2-1.8l-2-2.3c-0.5-0.6-0.9-1-1.2-1.6
		c-0.5-0.8-0.6-1.7-0.6-2.6c-0.8,0.8-1.7,1.6-2.6,2.1c-1.4,1-2.9,1.6-4.4,2.5c-0.6,0.3-1.6,0.9-1.4,1.5
		C800.3,688.7,801.4,689.4,801.8,690.1z"/>
	<path class="st9" d="M801.8,690.5c-0.8,1.2-0.8,2.7,0,3.8c0.1,0.1,0.6,1,0.8,1c0.1,0,0.3-0.1,0.5-0.2c0.9-1,1.7-1.9,2.5-2.9
		c0.8-1,1.9-1.8,3.2-2c1.6-0.2,3,0.6,4.4,1.4c0.6,0.3,1.1,0.8,1.5,1.2c0.3,0.6,0.5,1.1,0.6,1.7c0.3,3.6,0.6,7.1,0.5,10.7
		c0.1,2.6-0.1,5.1-0.6,7.7c-0.2,1.4-0.6,2.6-0.8,4c-0.1,1.2-0.1,2.3-0.1,3.5v4.9c0,0.9,0,1.8,0.2,2.7c0.3,1,0.7,2,1.1,3.2
		c0.3,1.2,0.6,2.5,0.8,3.7l0.7,5.1c0.2,1.6,0.3,3.4-0.6,4.6c-0.5,0.6-1,1-1.5,1.6c-1.7,2.1-1.1,5.2-1.8,7.9c-0.6,1.9-1.7,3.6-3.2,5
		c-1.2,1-2.7,1.8-4.2,1.5c-2-0.3-3.3-2.5-3.8-4.5s-0.8-4.2-2-6c-1-1.4-2.5-2.3-4-3.3c-1.4-1-2.7-2.3-3-4.1c-0.1-0.8-0.1-1.5-0.1-2.3
		c-0.2-1.9-1.5-3.6-3.3-4.3c-1-0.3-2.4-0.6-2.9-1.5c1.5-1,2.6-2.5,3.2-4.2c0.5-1.7,0.8-3.4,0.8-5.2l0.3-5.9c0.1-2.6,0.2-5.3,1.4-7.7
		c0.6-1,1.2-2,1.7-3.2c0.8-1.5,1.4-2.9,1.8-4.5c0.8-2.5,1.7-4.9,2.5-7.2c0.3-1.2,0.8-2.3,1.4-3.4C799.8,692,800.6,690.8,801.8,690.5
		z"/>
	<path class="st7" d="M788.7,728.8l1.6,0.1l0.3-2.4c0.1-0.5,0.1-1,0.3-1.4c0.2-0.5,0.6-0.9,0.9-1.4c1.6-2.1,1.4-5.1,1.8-7.7
		c0.6-3.5,2-6.8,3.4-10.1l3-6.8c0.3-0.6,0.6-1.1,0.7-1.7c0.1-0.7,0.2-1.4,0.2-2c0-1,0.3-4.9,0.3-5.9c0-0.3-0.8-0.1-1-0.6
		c-0.3-0.8-0.9,1.2-1.6,1.7c-0.7,0.6-1.2,1.2-1.4,2c-0.7,1.7-1,3.5-1.6,5.2c-0.6,1.8-1.5,3.4-2.8,4.6c-0.6,0.6-1.4,1-1.9,1.6
		c-1.8,1.8-2,4.9-2.1,7.5C788.7,713.5,788.4,728.8,788.7,728.8z"/>
	<path class="st7" d="M811.2,687.7c-1.5,0.6-2.4,2.3-2.7,3.8c-0.3,1.6-0.6,3.3-1.4,4.6c-1.9,3.4-6.8,4.3-8.1,7.9
		c-0.3,1.2-0.6,2.5-0.6,3.7c-0.2,2.6-1.1,5.1-1.4,7.6c-0.1,2-0.1,4.1,0.1,6l1.7,20.2c0.3,2.9,0.1,6-0.6,8.9c1.7,0.2,3.5-0.1,5.1-0.8
		c1.6-0.7,3-1.7,4.6-2.6c2.6-1.5,5.5-2.5,7.9-4.4c0.5-0.3,0.8-0.8,1-1.2c0.3-0.8,0.6-1.8,0.8-2.7c0.2-0.8,0.5-1.4,0.8-2
		c0.8-2,1.6-4.1,2.3-6.2c0.5-1.4,0.8-2.8,1-4.3c0.2-1.1,0.3-2.3,0.3-3.5c0.1-1.8,0.5-3.6,1.1-5.3c1.5-4.1,2.3-8.5,2.5-12.9
		c0.1-0.7,0-1.2-0.1-1.8c-0.2-0.8-0.6-1.5-1-2.1c-0.8-1.4-1.1-2.8-1.8-4.2c-1.5-3-4.2-5.3-6.9-7.2
		C814.2,688.2,812.8,687.2,811.2,687.7z"/>
	<path class="st8" d="M775.7,720.7c-1.2-0.6-2.3-1.5-3.2-2.5c-0.5-0.6-0.8-1-1.2-1.6c-1.1-1.2-2.5-2-4.1-2.3
		c-1.6-0.3-3.2-0.6-4.6-0.5c-1-0.1-2.1,0.1-3.2,0.3c-1,0.3-1.8,1.2-2,2.3c-0.2,1.2,0.6,2.5,1.6,3.3c0.9,0.8,2,1.2,3.2,1.6
		c1,0.1,1.9,0.3,2.8,0.3c5.6,0.6,10.6,3.6,15.5,6.4c4.3,2.5,8.8,4.7,13.2,6.8c0.1-1.4,0.2-2.7,0.2-4.1c0-1-0.1-2.5-1-3.2
		c-1.1-0.7-2.9-0.9-4.2-1.2c-2.9-1-5.8-2-8.5-3.4C778.7,722.4,777.2,721.5,775.7,720.7z"/>
	<ellipse class="st8" cx="800.3" cy="678.9" rx="10.1" ry="10.1"/>
	<path class="st7" d="M814,699.1c-0.8,1.1-1.4,2.3-1.9,3.6c-1.2,2.5-3.2,4.7-4.2,7.5c-1,2.8-1,6.2-2.9,8.4c-0.3,0.3-0.7,0.8-0.9,1.2
		c0,0.3-0.1,0.6-0.1,0.9c-0.3,0.8-1.6,0.8-1.8,1.6c-0.1,0.2,0,0.6-0.1,0.8c-0.2,0.6-0.9,0.6-1.4,0.9c-1,0.7-0.8,2.3-1.5,3.2
		c-0.6,0.8-1.6,1-2.5,0.9c-0.9-0.2-1.8-0.6-2.6-1c-0.3-0.1-0.6-0.2-1-0.3c-0.3,0-0.8,0.1-1.1,0.3c-1.8,1.2-2.7,3.5-2.7,5.8
		c0.1,2.3,0.7,4.4,1.6,6.4c0.1,0.3,0.3,0.7,0.6,1c0.6,0.7,1.7,0.6,2.5,0.1s1.6-0.8,2.5-1.1c1.6-0.3,3,0.8,4.6,0.7
		c1.1-0.1,2.3-0.7,3.2-1.4c1.6-1,3-2.1,4.2-3.6c0.7-0.9,1.2-1.9,1.8-2.9c0.8-1.2,1.6-2.3,2.5-3.4l5.8-7c0.6-0.7,1.1-1.4,1.6-2.1
		c0.6-1,0.9-2,1.2-3.2c0.6-1.8,1-3.8,1.2-5.8c0-1.6-0.1-3.3-0.5-4.9c-0.2-1.6-0.6-3.2-1.2-4.6C819.4,698.6,816.5,696.3,814,699.1z"
		/>
	<path class="st10" d="M834.2,686c0-3.6-1.7-7-4.6-9.1c-0.1-6.5-4.9-12.1-11.4-13c-1.4-7-8.2-11.6-15.2-10.2
		c-5.3,1.1-9.5,5.4-10.3,10.8c-4.2-1-7.9,0.3-8.7,2.8c-0.8,2.7,2.3,5.8,6.7,7c1.4,0.3,2.8,0.6,4.2,0.5c2,3,5.3,5.1,9,5.5
		c1.1,5,4.9,8.8,9.8,10.1c0.7,1.6,1.7,3,3,4.2c0,0.3-0.1,0.6-0.1,1c-0.2,4.6,3.4,8.6,8.1,8.8c4.6,0.2,8.6-3.4,8.8-8.1
		c0-0.2,0-0.5,0-0.8c0-1.2-0.3-2.5-0.8-3.7C833.6,690.1,834.2,688.1,834.2,686z"/>
	<path class="st3" d="M786.8,667.8c0.7-2.6,4.4-3.8,8.7-2.8c1-6.4,6.4-11.1,12.9-11.2c0.3,0,0.6,0,0.9,0c-1.2-0.3-2.5-0.6-3.7-0.6
		c-6.4,0.1-11.9,4.7-12.9,11.2c-4.2-1-7.9,0.3-8.7,2.8c-0.8,2.7,2.3,5.8,6.7,7c0.8,0.2,1.6,0.3,2.5,0.5
		C788.8,673.6,786,670.6,786.8,667.8z"/>
	<path class="st3" d="M819.2,696.1c0-0.3,0-0.7,0.1-1c-1.4-1.1-2.4-2.5-3-4.2c-4.9-1.2-8.7-5.1-9.8-10.1c-3.6-0.6-6.9-2.5-9-5.5
		c-0.8,0.1-1.6,0.1-2.5-0.1c2,2.8,5.2,4.6,8.6,5.1c1.1,5,4.9,8.8,9.8,10.1c0.7,1.6,1.7,3,3,4.2c0,0.3-0.1,0.6-0.1,1
		c-0.1,4.7,3.7,8.7,8.4,8.8C821.5,703,819.2,699.7,819.2,696.1z"/>
	<ellipse transform="matrix(0.7963 -0.6049 0.6049 0.7963 -248.1643 624.874)" class="st8" cx="803.7" cy="680.9" rx="1.6" ry="2"/>
	<path class="st2" d="M634.6,732.7l8.8-5.8c-1.2-2.3-2.7-4.3-4.4-6.1l-16.6,5.8l13-8.6c-10.3-6.3-23-2-28.7,9.4
		c-1.7,3.5-2.6,7.5-2.6,11.4c0,13.1,9.4,13.6,21.1,13.6c11.7,0,21.1-0.5,21.1-13.6c0-3.4-0.6-6.7-1.8-9.6L634.6,732.7z"/>
	<path class="st3" d="M636.8,745.4c-1-1-2-2-3.2-2.7c-1.6-1.2-3.3-2.5-5.1-2.8c-1.6-0.3-3.4-0.1-5.1-0.1c-2.9-0.2-5.6-1.6-7.7-4.1
		c-1.2-1.4-2.1-3.2-3.6-4.2c-1.6-1.1-3.5-1.5-5.3-1.1c-0.6,0.1-1,0.2-1.6,0.3c-0.8,2.6-1.2,5.3-1.2,8.1c0,13.1,9.4,13.6,21.1,13.6
		c5.6,0,10.7-0.1,14.6-1.7l-0.7-1.4C638.5,747.9,637.7,746.7,636.8,745.4z"/>
</g>
<g>
	<circle class="st11" cx="317.5" cy="251.7" r="218.4"/>
	<ellipse class="st11" cx="128.3" cy="486.5" rx="86.7" ry="13.9"/>
	<ellipse class="st11" cx="551.2" cy="464.9" rx="134.1" ry="21.4"/>
	<path class="st7" d="M521.3,258.6c0,0,1.1,3.8-5.3,7.2s-8.4,16.3-0.8,20.1c7.6,3.8,9.9,8.7,6.1,12.2s-10.7,12.5-1.5,14.8
		c9.1,2.3,10.2,6.9,7.6,8.7s6.1-3.4,6.1-3.4s1.5,9.1,9.5,6.9c8-2.3,30.5-45.7,19-51.8S521.3,258.6,521.3,258.6z"/>
	<path class="st12" d="M535.2,295.3c0,0,3.9,13.8-3,14.8c-4.3,0.6-8.4,2.3-11.8,4.9l12.8,16.8h23.7l14.8-14.8
		c0,0-19.7-14.8-15.8-23.7C559.8,284.6,535.2,295.3,535.2,295.3z"/>
	<path class="st3" d="M535.2,295.3c0,0,3.9,13.8-3,14.8c-4.3,0.6-8.4,2.3-11.8,4.9l12.8,16.8h23.7l14.8-14.8
		c0,0-19.7-14.8-15.8-23.7C559.8,284.6,535.2,295.3,535.2,295.3z"/>
	<polygon class="st12" points="541.1,467.1 563.8,475 579.6,475.9 578.6,462.2 546,452.5 	"/>
	<path class="st10" d="M570.2,464.1c0,0,0,13.8,2,13.8s28.6-3,36.5,0s19.7-7.9,13.8-13.8s-15.6-14.8-21.6-12.8s-30.7,6.9-30.7,6.9
		V464.1L570.2,464.1z"/>
	<path class="st10" d="M497.7,451.3c0,0-11.8,23.7-3.9,25.7c7.9,2,16.8-1,17.7-2s14.8-4.9,16.8-3c2,2,2-7.9,2-7.9L497.7,451.3z"/>
	<path class="st7" d="M507.5,418.7c0,0-18.7,25.7-4.9,32.6s79.9,6.9,84.9,0c4.9-6.9,6.9-28.6,0-30.6S507.5,418.7,507.5,418.7z"/>
	<path class="st13" d="M507.5,418.7c0,0-18.7,25.7-4.9,32.6s79.9,6.9,84.9,0c4.9-6.9,6.9-28.6,0-30.6S507.5,418.7,507.5,418.7z"/>
	<circle class="st12" cx="543.1" cy="279.6" r="22.7"/>
	<path class="st2" d="M507.5,315.1l19.7-3.9c0,0,4.9,15.8,20.7,12.8s19.7-12.8,19.7-12.8s11.8,4.9,12.8,4.9s13.8,4.9,13.8,7.9
		s-14.6,32.5-14.6,32.5l2,53.3l-73-2l4.9-52.3L507.5,315.1z"/>
	<path class="st12" d="M496.7,340.8c0,0-5.9,52.3-2,56.3c3.9,3.9,19.7,14.8,19.7,14.8v-11.8l-7.9-14.8l7.9-34.6L496.7,340.8z"/>
	<path class="st12" d="M598.8,339.3c0,0-3.5,53.8-3.5,55.8s-8.9,8.9-11.8,8.9s-4.9-4.9-4.9-4.9l6.9-7.9l-4.9-40.5L598.8,339.3z"/>
	<path class="st7" d="M589.5,414.8c0,0,44.4-24.7,45.4,0s-22.7,34.6-22.7,34.6s-61.2,18.3-63.7,11.7s-7.4-17.6-3.5-18.6
		s8.9-3,10.8-1c1.9,2,26.6-14.8,26.6-14.8L589.5,414.8z"/>
	<path class="st14" d="M610.2,411.8c0,0-8.9,3.9-11.8,6.9c-2.9,3-15.8,7.9-15.8,7.9"/>
	<path class="st2" d="M513.4,317.1l-5.9-2c0,0-21.7,22.7-14.8,28.6s10.8,7.9,12.8,9.9s11.8,3,11.8,3L513.4,317.1z"/>
	<path class="st2" d="M585.5,322l8.9,2c0,0,6.9,14.8,8.9,16.7c2,1.9-3,1-5.9,4.9c-3,3.9-5.9,10.8-11.8,10.8s-13.8-9.9-13.8-9.9
		L585.5,322z"/>
	<path class="st7" d="M509.5,423.7c0,0-37.5-26.6-50.4-6.9c-12.8,19.7,55.3,46.3,65.2,50.3c9.8,4,18.7,7.9,18.7,7.9
		s8.9-21.7,8.9-25.7s-6.9-3.9-8.9-3.9s-10.8-2-12.8-4.9S509.5,423.7,509.5,423.7z"/>
	<path class="st14" d="M488.8,416.7c0,0,9.9,7.9,18.7,9.9s11.8,6.9,11.8,6.9"/>
	<path class="st15" d="M502.7,379.7l0.8,41.8c0.1,2.9,2.4,5.2,5.3,5.2l77.8-0.9c2.8-0.1,5-2.2,5.2-4.9l2.3-40.9
		c0.2-2.9-2-5.3-4.9-5.5c-0.1,0-0.2,0-0.3,0H508C505.1,374.4,502.7,376.7,502.7,379.7C502.7,379.6,502.7,379.6,502.7,379.7z"/>
	<path class="st7" d="M544.3,251.1c0,0,1.3,4.2-5.9,8c-7.1,3.8-9.3,18.2-0.8,22.4c8.4,4.2,11,9.7,6.7,13.5
		c-4.2,3.7-11.8,13.9-1.7,16.5c10.1,2.5,11.4,7.6,8.4,9.7c-2.9,2.1,6.7-3.8,6.7-3.8s1.7,10.1,10.5,7.6s17.7-48.5,7.8-60.4
		C567,253.5,544.3,251.1,544.3,251.1z"/>
	<path class="st7" d="M541.6,246.7c0-6.1,18.5-1.8,26.4,6.9c5.5,6,13.8,14.9,6.9,21.3c-7,6.4,11.9,14.6,17,17.2
		c5.1,2.5,15.1,10.2,6,15.4c-9.1,5.2-8.9,10.4-5.5,11.6s-7.5-1.8-7.5-1.8s1.1,10.2-8.1,10.1s-35.6-50.7-29.3-64.7
		C553.4,249.5,541.6,246.7,541.6,246.7z"/>
	<path class="st7" d="M545.6,245.4c-24.7-1.5-27.2,17.1-27.2,17.1c0.2,10.8,17.3,5.5,22,7.1c5.7-4.1,16.7-11.9,24.7-17.5
		C559.4,248.1,552.6,245.7,545.6,245.4z"/>
	<path class="st16" d="M538.6,364c0,0-22.2-103.9-160.9-179.3"/>
	<polygon class="st1" points="383.4,182.6 383.6,183.7 378,185.1 379.8,190.5 378.7,190.9 376.5,184.2 	"/>
	<path class="st2" d="M81.8,470.2c0,13.2-7.8,17.7-17.5,17.7c-0.2,0-0.5,0-0.6,0c-0.5,0-0.9-0.1-1.3-0.1
		c-8.7-0.6-15.5-5.4-15.5-17.7c0-12.6,16.2-28.6,17.4-29.8l0,0c0.1-0.1,0.1-0.1,0.1-0.1S81.8,457,81.8,470.2z"/>
	<path class="st1" d="M63.7,486l6.4-8.9l-6.4,9.9v1.1c-0.5,0-0.9-0.1-1.3-0.1l0.7-13.2v-0.1l0,0l0.1-1.2l-6.4-10l6.4,9v0.3l0.5-10
		l-5.5-10.2l5.6,8.5l0.5-20.6v-0.1v0.1l-0.1,16.3l5.4-6.4l-5.5,7.8l-0.1,8.9l5.1-8.6l-5.2,9.8l-0.1,5l7.4-11.9L63.8,475L63.7,486z"
		/>
	<path class="st7" d="M165.1,466.8l3.7-2.8c0,0,2.5,13.8-0.3,15.9c-2.8,2-13.1,5.5-13.1,9.7s-23.5,9.7-24.1,3.5s2-9.7,2-9.7
		s11.1-11.1,12.4-13.1c1.3-2,4.8-6.2,4.8-6.2L165.1,466.8z"/>
	<path class="st7" d="M109.9,295c0,0,0.1,0.6,0.3,1.7c0.2,1,0.4,2.4,0.6,4.1c2.9,17.7,11.4,69.7,10.8,71.5c-0.7,2-5.5,9.7,0,11.7
		c0.5,0.2,1.1,0.8,1.7,1.9c1.2,2.2,2.2,4.5,2.9,6.9c3.3,9.5,6.8,24.8,8.8,35.4c0.9,4.6,1.5,8.4,1.7,10.4c0.1,0.5,0.1,0.9,0,1.3
		c-0.7,2.8,4.2,12.4,6.2,15.2c2,2.8,5.5,5.5,4.8,8.3s17.3,10.4,19.3,5.5s2-7.6,2.8-9c0.7-1.4,1.4-11.1-2-12.4
		c-3.5-1.4-1.4-25.5-4.8-30.4c-1.2-1.6-2.9-7-4.7-13.6c-0.7-2.6-1.5-5.3-2.2-8c-2.9-11.2-5.5-22.5-5.5-22.5l0.7-80.8l-37.9-4.8
		l-1,2.2l-1.9,4.3L109.9,295z"/>
	<path class="st7" d="M107.8,427.5c0,0-5.5-5.5-8.3,0s-5.5,26.9-10.4,31.7c-4.9,4.8-11.1,29-4.2,30.4c6.9,1.4,14.5-2,15.2-6.2
		s15.2-25.5,15.2-27.6s-9.7-9.7-9.7-9.7L107.8,427.5z"/>
	<path class="st7" d="M192.7,257c0,0-9,80.8-11.1,88.3c-2,7.6-13.1,36.6-16.6,41.4s-25.5,44.2-28.3,46.3c-2.8,2-8.3,7.6-8.3,7.6
		S118,451,116.7,453s-13.1-4.2-13.8-8.3c-0.7-4.1,0.7-11.1,1.4-13.8c0.7-2.8-1.4-6.9,0.7-9c2.1-2,12.4-12.4,12.4-17.3
		s17.9-33.1,24.8-39.4c6.9-6.2,5.5-16.6,5.5-16.6v-42.1l-37.9-11.7c0,0,2-33.1,6.9-33.1C121.7,261.8,185.1,250.8,192.7,257z"/>
	
		<ellipse transform="matrix(0.1602 -0.9871 0.9871 0.1602 -2.5786 234.8948)" class="st17" cx="136.8" cy="119" rx="22.8" ry="22.8"/>
	<path class="st17" d="M144.4,136.9c0,0,2.8,10.4,6.2,13.1c3.4,2.7-9,14.5-9,14.5l-23.5,1.4l-4.2-13.1c0,0,7.6-15.2,5.5-24.8
		S144.4,136.9,144.4,136.9z"/>
	<path class="st10" d="M154,148.6c0,0-6.2,0.7-7.6,2.8c-1.4,2-11.1,8.3-18.6,6.9c-7.6-1.4-12.4-3.5-13.8-2.8s-4.2,15.2-4.2,15.2
		l7.6,22.1l-1.4,60.7l-2,16.6c0,0-4.2-5.5,12.4-2s37.9-2.8,44.9-3.5c6.9-0.7,18.6-2.8,19.3-6.9c0.7-4.2-2-19.3-2-19.3l-11.1-46.3
		l-6.9-24.8L154,148.6z"/>
	<path class="st18" d="M147.5,145.5c0,0,5.9-3.1,7.9-0.4s28.3,6.9,28.3,9c0,2,5.5,58,4.2,62.8s2.8,10.4,2.8,10.4l4.8,20.7
		c0,0,13.1,39.4,7.6,40.7c-5.5,1.4-10.4,0-12.4,0s-1.4-26.2-6.9-33.1s-13.2-24.1-14.5-27.6s-18.6-51.1-17.9-56.6
		C152.1,165.9,147.5,145.5,147.5,145.5z"/>
	<path class="st18" d="M118.8,148.6c0,0-5.5,0-6.2,1.4s-7.6,10.4-10.4,12.4c-2.8,2-12.4,11.1-12.4,13.1s20,17.3,20,17.3
		s8.3,40.7,4.2,54.5s-10.4,46.9-7.6,49c2.8,2,9,2.8,9,0s4.2-32.4,7.6-38.7c3.5-6.2,13.8-45.6,9.7-56.6
		C128.5,190.2,118.8,148.6,118.8,148.6z"/>
	<path class="st17" d="M210,217c0,0,0.7,21.4-6.9,32.4c-7.6,11.1-12.4,23.5-12.4,23.5s-12.4-3.5-14.5-7.6c-2-4.2-15.2-0.7-15.2-2
		s15.9-8.3,17.3-9.7c1.4-1.4,6.2-1.4,9-4.2s3.5-9,3.5-9l2.8-17.9L210,217z"/>
	<path class="st7" d="M152.5,105c1.8-0.2,3.6-0.4,5.1-1.2c3.5-1.9,4.4-7.2,1.8-10.1c-0.7-0.8-1.5-1.4-2.4-1.9l-5.3-3.6
		c-2.3-1.6-4.7-3.2-7.4-3.9c-2.5-0.6-5-0.6-7.6-0.5c-4.9,0.3-9.8,0.9-14.5,2.6c-4.6,1.7-9,4.6-11.8,8.6c-4.5,6.4-4.5,15.1-2,22.5
		s7.1,13.9,11.7,20.2l2.4-11.6c0.2-1.1,0.5-2.2,1.3-2.8c2.1-1.5,4.7,1.6,7.4,1.6c1.7,0,3.1-1.4,3.7-2.9c0.6-1.5,0.7-3.3,0.8-5
		c0.3-3.6,1.6-8.5,4.9-10.4C143.8,104.7,148.9,105.3,152.5,105z"/>
	<path class="st3" d="M151.2,295.5c0,0-2.3,67.4-3.7,69.5s0-69.7,0-69.7L151.2,295.5z"/>
	<path class="st18" d="M178.2,154.2h5.5c0,0,23.5,31.7,20.7,33.8s0,7.6,0,7.6l5.5,10.4c0,0,6.9,6.2,4.8,7.6c-2,1.4-4.8,6.9-4.8,6.9
		s-13.8-2-17.9,6.2l-9-11.3L178.2,154.2z"/>
	
		<rect x="167.7" y="166.7" transform="matrix(0.9243 -0.3817 0.3817 0.9243 -57.4611 82.009)" class="st7" width="20.5" height="38.2"/>
	
		<ellipse transform="matrix(0.9243 -0.3817 0.3817 0.9243 -55.9471 81.1022)" class="st2" cx="176.5" cy="181.6" rx="4.1" ry="3.7"/>
	<path class="st17" d="M164.4,209.4c0,0-49.7,41.4-58,28.3c-8.3-13.1,9-24.1,9-24.1s15.2,0.7,32.4-10.4l17.3-7.6
		c0,0,15.8-22.5,21.1-13.9C191.6,190.2,177.1,205.1,164.4,209.4z"/>
	<path class="st18" d="M97.5,172.8l-7.6,2.8v20.7l-2.8,4.2c0,0,0.7,8.3,2.8,10.4c2,2.1,6.2,1.4,4.8,6.2c-0.8,3.2-1.1,6.4-0.7,9.7
		c0,0,12.4,15.9,13.1,13.8c0.7-2,10.4-27.6,11.7-27.6S105,172.9,105,172.9L97.5,172.8L97.5,172.8z"/>
	<path class="st7" d="M188.2,277.4c0,0,7.1-6.9,3.6-7.3s-16-7.3-18-3.8C171.7,269.8,188.2,277.4,188.2,277.4z"/>
	<ellipse class="st19" cx="323.9" cy="140.4" rx="10" ry="5.3"/>
	<path class="st16" d="M362,158c-22.4-8.5-44.9-8.5-67.3,0v-27.5c22-6.6,45.4-6.6,67.3,0V158z"/>
	<path class="st16" d="M352.6,152.3c-16.2-6.1-32.4-6.1-48.6,0v-19.8c15.9-4.8,32.7-4.8,48.6,0V152.3z"/>
	<ellipse class="st16" cx="327.4" cy="138.1" rx="10" ry="5.3"/>
	<ellipse transform="matrix(0.9798 -0.2 0.2 0.9798 -28.022 69.5348)" class="st19" cx="330.2" cy="173.5" rx="10" ry="5.3"/>
	<path class="st16" d="M371,183.1c-23.7-3.8-45.7,0.6-66,13.5l-5.5-27c20.2-10.9,43.2-15.6,66-13.5L371,183.1z"/>
	<path class="st16" d="M360.7,179.4c-17.1-2.8-33,0.5-47.6,9.7l-4-19.4c14.6-7.8,31.2-11.2,47.6-9.7L360.7,179.4z"/>
	<ellipse transform="matrix(0.9798 -0.2 0.2 0.9798 -27.361 70.0737)" class="st16" cx="333.2" cy="170.5" rx="10" ry="5.3"/>
	
		<ellipse transform="matrix(6.941697e-02 -0.9976 0.9976 6.941697e-02 99.6057 519.2259)" class="st19" cx="328.1" cy="206.2" rx="5.3" ry="10"/>
	<path class="st16" d="M364.9,226.5c-21.8-10-44.2-11.6-67.2-4.7l1.9-27.5c22.4-5.1,45.7-3.5,67.2,4.7L364.9,226.5z"/>
	<path class="st16" d="M356,220.1c-15.8-7.2-31.9-8.4-48.5-3.4l1.4-19.8c16.2-3.7,33-2.5,48.5,3.4L356,220.1z"/>
	
		<ellipse transform="matrix(6.941697e-02 -0.9976 0.9976 6.941697e-02 105.0725 520.9653)" class="st20" cx="331.8" cy="204.2" rx="5.3" ry="10"/>
	<path class="st16" d="M284.6,158.7c0,0-43-5.9-73.8,12.1"/>
	<polygon class="st1" points="211.9,164.8 213,165.1 211.3,170.6 216.9,172 216.6,173.1 209.8,171.4 	"/>
</g>
</svg>
