<?xml version="1.0" encoding="utf-8"?>
<!-- Generator: Adobe Illustrator 24.3.0, SVG Export Plug-In . SVG Version: 6.00 Build 0)  -->
<svg version="1.1" id="ea98fdbc-a252-4665-af64-abf278d5674c"
	 xmlns="http://www.w3.org/2000/svg" xmlns:xlink="http://www.w3.org/1999/xlink" x="0px" y="0px" viewBox="0 0 1200 800"
	 style="enable-background:new 0 0 1200 800;" xml:space="preserve">
<style type="text/css">
	.st0{fill:#F2F2F2;}
	.st1{fill:#F5F5F5;}
	.st2{fill:url(#SVGID_1_);}
	.st3{fill:#FFFFFF;}
	.st4{fill:#FF5252;}
	.st5{fill:#FFFF00;}
	.st6{fill:#69F0AE;}
	.st7{opacity:0.2;}
	.st8{fill:#8EF9F3;}
	.st9{opacity:0.5;fill:#8EF9F3;enable-background:new    ;}
	.st10{fill:url(#SVGID_2_);}
	.st11{fill:url(#SVGID_3_);}
	.st12{fill:url(#SVGID_4_);}
	.st13{fill:url(#SVGID_5_);}
	.st14{fill:url(#SVGID_6_);}
	.st15{fill:url(#SVGID_7_);}
	.st16{fill:#FF9800;}
	.st17{fill:url(#SVGID_8_);}
	.st18{fill:url(#SVGID_9_);}
	.st19{opacity:0.5;fill:#FFFFFF;enable-background:new    ;}
	.st20{fill:url(#SVGID_10_);}
	.st21{opacity:0.5;fill:#FFA000;enable-background:new    ;}
	.st22{fill:none;stroke:#8EF9F3;stroke-miterlimit:10;}
	.st23{fill:none;stroke:#8EF9F3;stroke-miterlimit:10;stroke-dasharray:11.51,11.51;}
	.st24{fill:none;stroke:#8EF9F3;stroke-miterlimit:10;stroke-dasharray:13.06,13.06;}
	.st25{fill:none;stroke:#8EF9F3;stroke-miterlimit:10;stroke-dasharray:9.79,9.79;}
	.st26{fill:none;stroke:#8EF9F3;stroke-miterlimit:10;stroke-dasharray:11.28,11.28;}
	.st27{fill:none;stroke:#8EF9F3;stroke-miterlimit:10;stroke-dasharray:11.93,11.93;}
	.st28{fill:url(#SVGID_11_);}
	.st29{fill:url(#SVGID_12_);}
	.st30{fill:url(#SVGID_13_);}
	.st31{fill:url(#SVGID_14_);}
	.st32{fill:#CA7070;}
	.st33{fill:#FF6D00;}
	.st34{opacity:0.2;fill:#FFFFFF;enable-background:new    ;}
	.st35{opacity:0.2;fill:#FF6D00;enable-background:new    ;}
	.st36{fill:#263238;}
	.st37{fill:url(#SVGID_15_);}
	.st38{fill:url(#SVGID_16_);}
	.st39{fill:#F6B9AD;}
	.st40{fill:#FCCC63;}
	.st41{fill:url(#SVGID_17_);}
	.st42{fill:url(#SVGID_18_);}
	.st43{fill:url(#SVGID_19_);}
	.st44{fill:url(#SVGID_20_);}
	.st45{fill:url(#SVGID_21_);}
	.st46{fill:url(#SVGID_22_);}
	.st47{fill:url(#SVGID_23_);}
	.st48{fill:url(#SVGID_24_);}
	.st49{fill:none;stroke:#8EF9F3;stroke-width:3;stroke-miterlimit:10;}
	.st50{fill:url(#SVGID_25_);}
	.st51{fill:url(#SVGID_26_);}
	.st52{fill:url(#SVGID_27_);}
	.st53{fill:#985454;}
	.st54{fill:none;stroke:#3F3D56;stroke-miterlimit:10;}
	.st55{fill:#57B894;}
	.st56{fill:#656380;}
	.st57{opacity:0.2;enable-background:new    ;}
	.st58{fill:#A0616A;}
	.st59{fill:#FFA000;}
	.st60{fill:#3F3D56;}
	.st61{fill:#575A89;}
	.st62{opacity:0.1;enable-background:new    ;}
</style>
<g>
	<ellipse class="st0" cx="479.4" cy="628.3" rx="78.1" ry="19.9"/>
	<ellipse class="st0" cx="120" cy="637.7" rx="78.1" ry="19.9"/>
	<rect x="68.2" y="42.5" class="st1" width="447" height="16.9"/>
	
		<linearGradient id="SVGID_1_" gradientUnits="userSpaceOnUse" x1="291.0873" y1="-168.9751" x2="291.0873" y2="398.15" gradientTransform="matrix(1 0 0 -1 0 436)">
		<stop  offset="0" style="stop-color:#808080;stop-opacity:0.25"/>
		<stop  offset="0.54" style="stop-color:#808080;stop-opacity:0.12"/>
		<stop  offset="1" style="stop-color:#808080;stop-opacity:0.1"/>
	</linearGradient>
	<rect x="60" y="37.9" class="st2" width="462.1" height="567.1"/>
	<rect x="68.2" y="59.5" class="st3" width="447" height="536.3"/>
	<circle class="st4" cx="77.4" cy="51.3" r="4.1"/>
	<circle class="st5" cx="88.6" cy="51.3" r="4.1"/>
	<circle class="st6" cx="100" cy="51.3" r="4.1"/>
	<g class="st7">
		<rect x="81.1" y="79.9" class="st8" width="173.9" height="10.5"/>
	</g>
	<rect x="204.7" y="123" class="st1" width="173.9" height="10.5"/>
	<rect x="81.1" y="461.5" class="st9" width="173.9" height="10.5"/>
	
		<linearGradient id="SVGID_2_" gradientUnits="userSpaceOnUse" x1="307.4265" y1="-37.1188" x2="307.4265" y2="-24.2818" gradientTransform="matrix(1 0 0 -1 0 436)">
		<stop  offset="0" style="stop-color:#808080;stop-opacity:0.25"/>
		<stop  offset="0.54" style="stop-color:#808080;stop-opacity:0.12"/>
		<stop  offset="1" style="stop-color:#808080;stop-opacity:0.1"/>
	</linearGradient>
	<rect x="278.2" y="460.3" class="st10" width="58.4" height="12.8"/>
	
		<linearGradient id="SVGID_3_" gradientUnits="userSpaceOnUse" x1="307.4265" y1="-102.4707" x2="307.4265" y2="-89.6339" gradientTransform="matrix(1 0 0 -1 0 436)">
		<stop  offset="0" style="stop-color:#808080;stop-opacity:0.25"/>
		<stop  offset="0.54" style="stop-color:#808080;stop-opacity:0.12"/>
		<stop  offset="1" style="stop-color:#808080;stop-opacity:0.1"/>
	</linearGradient>
	<rect x="278.2" y="525.7" class="st11" width="58.4" height="12.8"/>
	
		<linearGradient id="SVGID_4_" gradientUnits="userSpaceOnUse" x1="426.5438" y1="-102.4707" x2="426.5438" y2="-89.6339" gradientTransform="matrix(1 0 0 -1 0 436)">
		<stop  offset="0" style="stop-color:#808080;stop-opacity:0.25"/>
		<stop  offset="0.54" style="stop-color:#808080;stop-opacity:0.12"/>
		<stop  offset="1" style="stop-color:#808080;stop-opacity:0.1"/>
	</linearGradient>
	<rect x="397.4" y="525.7" class="st12" width="58.4" height="12.8"/>
	<rect x="280.6" y="461.5" class="st8" width="54.8" height="10.5"/>
	<rect x="280.6" y="526.8" class="st8" width="54.8" height="10.5"/>
	<rect x="398.5" y="526.8" class="st8" width="54.8" height="10.5"/>
	<rect x="81.1" y="494.2" class="st1" width="173.9" height="10.5"/>
	<rect x="280.6" y="494.2" class="st9" width="173.9" height="10.5"/>
	<rect x="280.6" y="559.5" class="st1" width="173.9" height="10.5"/>
	<rect x="81.1" y="526.8" class="st9" width="173.9" height="10.5"/>
	<rect x="81.1" y="559.5" class="st1" width="173.9" height="10.5"/>
	<rect x="204.7" y="140.5" class="st1" width="98" height="10.5"/>
	<rect x="320.3" y="140.5" class="st1" width="33.9" height="10.5"/>
	<rect x="204.7" y="175.5" class="st1" width="98" height="10.5"/>
	<rect x="320.3" y="175.5" class="st1" width="33.9" height="10.5"/>
	<rect x="204.7" y="158" class="st1" width="173.9" height="10.5"/>
	<g class="st7">
		<rect x="326.2" y="79.9" class="st8" width="173.9" height="10.5"/>
	</g>
	
		<linearGradient id="SVGID_5_" gradientUnits="userSpaceOnUse" x1="434.5816" y1="301.3013" x2="434.5816" y2="314.1383" gradientTransform="matrix(1 0 0 -1 0 436)">
		<stop  offset="0" style="stop-color:#808080;stop-opacity:0.25"/>
		<stop  offset="0.54" style="stop-color:#808080;stop-opacity:0.12"/>
		<stop  offset="1" style="stop-color:#808080;stop-opacity:0.1"/>
	</linearGradient>
	<rect x="424.1" y="121.9" class="st13" width="21" height="12.8"/>
	
		<linearGradient id="SVGID_6_" gradientUnits="userSpaceOnUse" x1="434.5816" y1="283.806" x2="434.5816" y2="296.643" gradientTransform="matrix(1 0 0 -1 0 436)">
		<stop  offset="0" style="stop-color:#808080;stop-opacity:0.25"/>
		<stop  offset="0.54" style="stop-color:#808080;stop-opacity:0.12"/>
		<stop  offset="1" style="stop-color:#808080;stop-opacity:0.1"/>
	</linearGradient>
	<rect x="424.1" y="139.3" class="st14" width="21" height="12.8"/>
	
		<linearGradient id="SVGID_7_" gradientUnits="userSpaceOnUse" x1="434.5816" y1="266.3012" x2="434.5816" y2="279.138" gradientTransform="matrix(1 0 0 -1 0 436)">
		<stop  offset="0" style="stop-color:#808080;stop-opacity:0.25"/>
		<stop  offset="0.54" style="stop-color:#808080;stop-opacity:0.12"/>
		<stop  offset="1" style="stop-color:#808080;stop-opacity:0.1"/>
	</linearGradient>
	<rect x="424.1" y="156.8" class="st15" width="21" height="12.8"/>
	<rect x="425.3" y="123" class="st4" width="18.7" height="10.5"/>
	<rect x="425.3" y="140.5" class="st16" width="18.7" height="10.5"/>
	<rect x="425.3" y="158" class="st6" width="18.7" height="10.5"/>
	
		<linearGradient id="SVGID_8_" gradientUnits="userSpaceOnUse" x1="434.5816" y1="248.7961" x2="434.5816" y2="261.6331" gradientTransform="matrix(1 0 0 -1 0 436)">
		<stop  offset="0" style="stop-color:#808080;stop-opacity:0.25"/>
		<stop  offset="0.54" style="stop-color:#808080;stop-opacity:0.12"/>
		<stop  offset="1" style="stop-color:#808080;stop-opacity:0.1"/>
	</linearGradient>
	<rect x="424.1" y="174.4" class="st17" width="21" height="12.8"/>
	<rect x="425.3" y="175.5" class="st8" width="18.7" height="10.5"/>
	
		<linearGradient id="SVGID_9_" gradientUnits="userSpaceOnUse" x1="291.6803" y1="10.755" x2="291.6803" y2="185.7416" gradientTransform="matrix(1 0 0 -1 0 436)">
		<stop  offset="0" style="stop-color:#808080;stop-opacity:0.25"/>
		<stop  offset="0.54" style="stop-color:#808080;stop-opacity:0.12"/>
		<stop  offset="1" style="stop-color:#808080;stop-opacity:0.1"/>
	</linearGradient>
	<rect x="77.6" y="250.3" class="st18" width="428.2" height="175"/>
	<rect x="81.1" y="253.7" class="st9" width="418.9" height="165.8"/>
	<polygon class="st19" points="93.9,266.6 500,266.6 500,253.7 81.1,253.7 81.1,419.4 93.9,419.4 	"/>
	
		<linearGradient id="SVGID_10_" gradientUnits="userSpaceOnUse" x1="411.1025" y1="-153.3015" x2="411.1025" y2="24.1306" gradientTransform="matrix(0.9959 -9.063258e-02 -9.063258e-02 -0.9959 -112.3901 320.0458)">
		<stop  offset="0" style="stop-color:#808080;stop-opacity:0.25"/>
		<stop  offset="0.54" style="stop-color:#808080;stop-opacity:0.12"/>
		<stop  offset="1" style="stop-color:#808080;stop-opacity:0.1"/>
	</linearGradient>
	<polygon class="st20" points="79.8,278.3 509.9,239.2 526,415.9 95.9,455 	"/>
	
		<rect x="93.8" y="263" transform="matrix(0.9959 -9.062978e-02 9.062978e-02 0.9959 -30.1034 28.9098)" class="st3" width="419" height="165.8"/>
	<path class="st21" d="M118.3,417.9l-7.2-92c0,0,37.3-39.7,112.8-10.3s110.9,8.7,123.2-11.2s75.9-42,96.5-8.7
		c20.7,33.2,45.3-4.1,45.3-4.1l8.4,91.8L118.3,417.9z"/>
	<line class="st22" x1="156.4" y1="305.9" x2="156.9" y2="312.7"/>
	<line class="st23" x1="158.1" y1="326.2" x2="164.9" y2="399.8"/>
	<line class="st22" x1="165.4" y1="406.5" x2="166.1" y2="413.5"/>
	<line class="st22" x1="228" y1="317.2" x2="228.7" y2="324.2"/>
	<line class="st24" x1="230.1" y1="339.3" x2="234.9" y2="392.4"/>
	<line class="st22" x1="235.5" y1="400.1" x2="236.3" y2="407.1"/>
	<line class="st22" x1="301.3" y1="329.7" x2="302" y2="336.7"/>
	<line class="st25" x1="303.1" y1="348" x2="307" y2="387.8"/>
	<line class="st22" x1="307.6" y1="393.5" x2="308.3" y2="400.5"/>
	<line class="st22" x1="367.1" y1="288.5" x2="367.7" y2="295.5"/>
	<line class="st26" x1="368.9" y1="308.6" x2="375.5" y2="380.7"/>
	<line class="st22" x1="376.1" y1="387.3" x2="376.7" y2="394.3"/>
	<line class="st22" x1="414.6" y1="279" x2="415.1" y2="286"/>
	<line class="st27" x1="416.5" y1="299.7" x2="423.3" y2="376"/>
	<line class="st22" x1="424.1" y1="382.9" x2="424.6" y2="389.9"/>
	<ellipse class="st16" cx="156.1" cy="305.3" rx="5.8" ry="5.8"/>
	<circle class="st4" cx="227.5" cy="317.7" r="5.8"/>
	<circle class="st6" cx="301.3" cy="329.7" r="5.8"/>
	
		<linearGradient id="SVGID_11_" gradientUnits="userSpaceOnUse" x1="479.9267" y1="-20.232" x2="479.9267" y2="-3.892" gradientTransform="matrix(0.9959 -9.063258e-02 -9.063258e-02 -0.9959 -112.3999 320.0495)">
		<stop  offset="0" style="stop-color:#808080;stop-opacity:0.25"/>
		<stop  offset="0.54" style="stop-color:#808080;stop-opacity:0.12"/>
		<stop  offset="1" style="stop-color:#808080;stop-opacity:0.1"/>
	</linearGradient>
	<circle class="st28" cx="366.7" cy="288.6" r="8.2"/>
	
		<linearGradient id="SVGID_12_" gradientUnits="userSpaceOnUse" x1="528.9011" y1="-15.5746" x2="528.9011" y2="0.7654" gradientTransform="matrix(0.9959 -9.063258e-02 -9.063258e-02 -0.9959 -112.3921 320.0431)">
		<stop  offset="0" style="stop-color:#808080;stop-opacity:0.25"/>
		<stop  offset="0.54" style="stop-color:#808080;stop-opacity:0.12"/>
		<stop  offset="1" style="stop-color:#808080;stop-opacity:0.1"/>
	</linearGradient>
	<circle class="st29" cx="415" cy="279.5" r="8.2"/>
	<circle class="st8" cx="366.7" cy="288.6" r="5.8"/>
	<circle class="st8" cx="415" cy="279.5" r="5.8"/>
	<circle class="st6" cx="488.9" cy="293.9" r="5.8"/>
	<g class="st7">
		
			<linearGradient id="SVGID_13_" gradientUnits="userSpaceOnUse" x1="655.5204" y1="-68.5108" x2="655.5204" y2="-68.2074" gradientTransform="matrix(1 0 0 -1 -154.5 341.52)">
			<stop  offset="0" style="stop-color:#808080;stop-opacity:0.25"/>
			<stop  offset="0.54" style="stop-color:#808080;stop-opacity:0.12"/>
			<stop  offset="1" style="stop-color:#808080;stop-opacity:0.1"/>
		</linearGradient>
		<path class="st30" d="M500.8,409.7l0.1,0.3C501.7,409.6,500.8,409.7,500.8,409.7z"/>
	</g>
	<g class="st7">
		
			<linearGradient id="SVGID_14_" gradientUnits="userSpaceOnUse" x1="619.8711" y1="-264.4036" x2="619.8711" y2="-62.8754" gradientTransform="matrix(1 0 0 -1 -154.5 341.52)">
			<stop  offset="0" style="stop-color:#808080;stop-opacity:0.25"/>
			<stop  offset="0.54" style="stop-color:#808080;stop-opacity:0.12"/>
			<stop  offset="1" style="stop-color:#808080;stop-opacity:0.1"/>
		</linearGradient>
		<path class="st31" d="M491.2,605.8l19-3l-2.5-11.7l0,0v-0.1h-0.1l-13.4-61.8V484c0-0.5,0-1.2-0.1-1.7c20-26.7,8.2-68.5,7-72.2
			c-0.3,0.1-0.5,0.3-0.9,0.5c-0.1-1.6-0.5-3.3-0.9-4.7c0,0-5.8-3.7-9,1.1c-2.8,4.2-0.7,6.7-0.1,7.4l-0.4,0.1
			c0.9,1.4,1.6,2.9,1.8,4.6c-0.3-0.4-0.4-0.8-0.5-1.2c-0.7-0.1-1.2-0.3-1.2-0.3l-0.1-0.1l-0.4,0.1c2,2.9,2.6,8.2,2.6,14.4
			c-0.7-0.9-1.6-1.8-2.4-2.6c-3.7-3.6-8.6-5.7-13.7-5.7h-0.9c-0.5,0-1.1,0-1.6,0.1h-0.4l-0.7,0.1l-0.8,0.1l-0.5,0.1l-0.9,0.3
			l-0.4,0.1c-0.4,0.1-0.8,0.3-1.2,0.5c-1.3,0.5-2.5,1.1-4,1.4c-0.3,0-0.4,0-0.5,0l0,0c-1.6,0.1-3.2-0.4-4.5-1.3l-0.5-0.4
			c-0.1-0.1-0.4-0.3-0.5-0.5c-0.1,0.4-0.3,0.8-0.3,1.3c0.1,1.1,0.5,2,1.4,2.6c0.3,0.3,0.5,0.4,0.7,0.5c0.4,0.3,0.8,0.4,1.3,0.4h0.5
			h-0.1c-0.3,0.1-0.5,0.3-0.8,0.4l0,0c-0.4,0.1-0.5,0.3-0.9,0.3l0,0c-1.6,0.4-3.2,0.5-4.6,0.1l0,0l-0.5-0.1
			c-0.3-0.1-0.5-0.1-0.7-0.3c0.1,0.3,0.1,0.4,0.3,0.5l0.1,0.1l0.3,0.4l0.1,0.1l0.3,0.4l0.1,0.1l0.4,0.4l0.1,0.1l0.5,0.4l0.1,0.1
			l0.4,0.3l0.3,0.1l0.3,0.1l0.3,0.1l0.4,0.1l0.3,0.1l0.4,0.1l0.4,0.1l0.4,0.1h0.4h0.3h0.4h1.2c0.5,0,1.2-0.3,1.7-0.5l-1.1,0.5l0,0
			l-0.5,0.3l-0.5,0.3l-0.5,0.1l-0.5,0.1l-0.5,0.1l-0.5,0.1l-0.5,0.1l-0.5,0.1l-0.5,0.1l-0.7,0.1h-0.5H456h-0.4h-1.2
			c0.7,0.3,1.3,0.5,1.7,0.9c0.4,0.3,0.7,0.5,1.1,0.5c0.1,0,0.4,0.1,0.5,0.1h0.1h0.4h1.6h0.5c1.1,0.1,2.1,0.5,3,0.9
			c0.5,0.4,0.9,0.7,1.3,1.2c-0.1,0.3-0.4,0.5-0.5,0.8s-0.3,0.5-0.4,0.7c-0.3,0.5-0.5,0.9-0.5,1.6c-0.7,1.8-1.1,3.7-1.1,5.7
			c0,0.4,0,0.7,0,1.1c0,0.1,0,0.3,0,0.4c0,0.3,0,0.5,0.1,0.8v0.3c0,0.4,0.1,0.7,0.3,1.1v0.3c0.1,0.3,0.1,0.5,0.3,0.8l0.1,0.3
			c0.3,0.7,0.5,1.3,0.7,2l0.1,0.3c0.1,0.3,0.3,0.5,0.4,0.8v0.1c0.1,0.4,0.4,0.5,0.5,0.9v0.1c0.1,0.3,0.4,0.5,0.5,0.8l0.1,0.1
			c0.5,0.5,0.9,1.2,1.4,1.6l0,0c1.3,1.3,2.8,2.5,4.5,3.3c0,0.3-0.1,0.5-0.1,0.7l0,0c0,0.3,0,0.5,0,0.8v6.2c-0.4,0.3-0.7,0.4-1.1,0.5
			c-14.6-6.6-36.4-53.6-36.4-53.6h-0.5c2.1-1.6,0-8.6,0-8.6c-1.3-0.7-2.6-1.2-4.1-1.4h-1.2h-0.3h-0.1h-0.3h-1.2l-0.3,0.1h-0.5
			l-0.4,0.1l0,0l-0.4,0.1h-0.1l-0.3,0.1l-0.1,0.7l-0.3,0.1l-0.1,0.1l-0.3,0.1l-0.1,0.1l-0.3,0.3l-0.1,0.1l-0.3,0.3l-0.1,0.1L422,410
			c-3.2,4.7,0,7.5,0,7.5c-0.3,1.8-0.4,3.7-0.4,5.7c-0.3,34.4,36.5,61,38.3,62.3c-0.8,2.1-7.6,21.1,0.1,44.9c0,0,0,0.1,0.1,0.1
			c-17.9,16.6-25.8,41.4-20.7,65.2l0.1,0.7h0.4c0,0.1-0.1,0.4-0.1,0.5c-0.1,0.3-0.3,0.5-0.4,0.8c-0.3,0.5-0.5,0.8-0.8,1.3l0,0
			c-0.4,0.5-0.8,0.8-1.2,1.3l-0.5,0.5c-1.8,1.7-3.7,3.6-2.4,4.2h20v-8.7h0.4c0,0-0.1-0.3-0.4-0.8v-0.1h0.4c-1.1-2.6-3.6-11.1,0.5-24
			c4.7-15.9,23.3-24,23.3-24l0.4,1.2h-0.1l14.6,47.8c0,0.3,0,0.4,0,0.5c-0.1,0.5-0.1,0.9-0.4,1.3c-0.1,0.4-0.3,0.7-0.4,0.9
			c-0.9,1.8-2.5,4.1-3.2,5.7c-0.1,0.3-0.3,0.5-0.3,0.7c-0.1,0.3-0.1,0.5-0.1,0.8c0,0.4,0.3,0.7,0.5,0.8l0,0h0.3L491.2,605.8
			L491.2,605.8z M485.5,469.7c-0.4-0.3-0.7-0.4-1.2-0.5v-5.8c0-0.5,0-0.9-0.1-1.3c1.3-0.5,2.5-1.4,3.6-2.2
			C487.1,463.2,486.3,466.6,485.5,469.7L485.5,469.7z"/>
	</g>
	<path class="st32" d="M422.1,421.3c0,0-3.6-2.9,0-8.3c3.6-5.4,10-1.2,10-1.2s2.4,7.6,0,9.5C429.9,423.1,422.1,421.3,422.1,421.3z"
		/>
	<path id="cbb1ca8a-3a06-4d8d-9881-c3637d2b9b50" class="st33" d="M458.6,618.2h-16.2c0.1,1.6-0.5,3-1.6,4.2
		c-2.2,2.5-6.6,5.7-4.6,6.6h22.3L458.6,618.2L458.6,618.2z"/>
	<path class="st34" d="M442,622.2c1.1-1.1,1.6-2.5,1.6-4.2h-1.2c0.1,1.6-0.5,3-1.6,4.2c-2.2,2.5-6.6,5.7-4.6,6.6h1.2
		C435.3,627.9,439.8,624.9,442,622.2z"/>
	<path id="ec846da8-b8c9-4838-98ee-b96510078eab" class="st33" d="M516.2,614.9l-15.2,2.5c0.5,1.7,0.3,3.7-0.7,5.4
		c-1.6,3.6-5.4,7.8-3.2,8.7l22-3.6L516.2,614.9z"/>
	<path class="st33" d="M508.8,414.2c0,0,17.4,54.7-11.7,85.1l-8.4-6.5c0,0,17.1-59.7,7.6-73.8C513.3,413.4,508.8,414.2,508.8,414.2z
		"/>
	<path class="st32" d="M496.8,418.9c0,0-3.6-2.9,0-8.3c3.6-5.4,10-1.2,10-1.2s2.4,7.6,0,9.5C504.6,420.9,496.8,418.9,496.8,418.9z"
		/>
	<path class="st35" d="M501.6,622.6c0.8-1.6,1.2-3.6,0.7-5.4l14-2.4v-0.3l-15.2,2.5c0.5,1.7,0.3,3.7-0.7,5.4
		c-1.6,3.6-5.4,7.8-3.2,8.7l0.9-0.1C496.6,630.1,500,625.9,501.6,622.6z"/>
	<path class="st32" d="M482.5,465.2L482.5,465.2c4.6,0,8.3,3.7,8.3,8.3v7.9c0,4.6-3.7,8.3-8.3,8.3l0,0c-4.6,0-8.3-3.7-8.3-8.3v-7.9
		C474.2,468.9,478,465.2,482.5,465.2z"/>
	<path class="st34" d="M489.9,496.3c0,0,17-59,7.6-73.5c-0.8-0.1-1.4-0.3-1.4-0.3l-0.1-0.1l-0.5,0.1c9.8,14-7.6,73.8-7.6,73.8
		l8.4,6.5l0.7-0.8L489.9,496.3z"/>
	<ellipse class="st32" cx="482.8" cy="455.5" rx="18.2" ry="18.2"/>
	<path class="st34" d="M476.3,481.2v-7.9c0-0.5,0.1-1.2,0.3-1.7c-9-4.6-12.5-15.7-7.9-24.5c2.9-5.7,8.7-9.5,15.2-9.9h-1.1
		c-10,0-18.2,8.2-18.2,18.2c0,6.9,3.8,13,9.9,16.2c-0.1,0.5-0.3,1.2-0.3,1.7v7.9c0,4.6,3.6,8.2,8,8.3c0.4,0,0.8,0,1.2-0.1
		C479.3,489,476.3,485.5,476.3,481.2z"/>
	<path class="st33" d="M501.3,546.3c0,0-35.2,4-36.4,0c-9.1-27.9,0-49.9,0-49.9c0-10,8.2-18.2,18.2-18.2l0,0
		c10,0,18.2,8.2,18.2,18.2L501.3,546.3L501.3,546.3z"/>
	<path class="st36" d="M501.3,546.3l15.8,73h-15.8l-16.5-54.2c0,0-20.6,8.8-26,26.5c-5.3,17.7,0,27.7,0,27.7h-17l-0.3-0.8
		c-5.7-26.5,3-53.9,23.1-72.1l0,0"/>
	<path class="st34" d="M466.9,546.3c-9.1-27.9,0-49.9,0-49.9c0-9.6,7.5-17.7,17-18.2c-0.4,0-0.8,0-1.2,0l0,0
		c-10,0-18.2,8.2-18.2,18.2c0,0-9.1,22,0,49.9c0.5,1.4,5.3,1.8,11.2,1.7C471,547.9,467.2,547.4,466.9,546.3z"/>
	<path class="st33" d="M464.6,496c0,0-47-32.9-42.3-74.7h10.7c0,0,25.3,54.7,41.4,60C490.4,486.5,464.6,496,464.6,496z"/>
	<g class="st7">
		<path class="st3" d="M485.1,566.4l16.1,53.1h2.4l-16.5-54.2C487.2,565.4,486.4,565.8,485.1,566.4z"/>
		<path class="st3" d="M467.2,546.5h-2.4c-20,18.2-28.9,45.6-23.1,72.1l0.1,0.8h2.4l-0.1-0.8C438.5,592.3,447.2,564.8,467.2,546.5z"
			/>
	</g>
	<path class="st34" d="M424,422h-1.8c-4.6,41.8,42.3,74.7,42.3,74.7l1.2-0.5C460.2,492.2,419.6,460.8,424,422z"/>
	<path class="st36" d="M468.2,447.4c1.1,2.4,1.7,4.7,2.1,7.4c1.2,5.1,3.8,10.3,8.4,12.8c2.5,1.4,5.4,2.1,8.2,2.2
		c4.3,0.3,9.1-0.5,12.1-3.6c1.8-2.1,3.2-4.6,3.7-7.5c1.8-8.4-0.5-17-6.6-23.2c-6.2-5.9-15.3-7.9-23.3-4.9c-1.4,0.7-2.9,1.3-4.5,1.6
		c-2.4,0.4-4.7-0.5-6.5-2.1c-0.7,2.1,0.5,4.5,2.6,5.1c0.4,0.1,0.8,0.3,1.3,0.3c-2.6,1.3-5.8,1.6-8.7,0.5c1.6,3.6,5.7,5.1,9.4,3.7
		c-3.3,1.6-6.9,2.2-10.5,2.1c0.7,0,2.2,1.4,3.2,1.6c1.2,0.3,2.4,0.3,3.6,0.3C465,443.6,467.1,445.1,468.2,447.4z"/>
	<g class="st7">
		<path class="st3" d="M465.9,435.1c-1.4,0.7-2.8,1.1-4.3,1.2c1.8,0.1,3.7-0.3,5.5-1.2c-2.2,0-4.1-1.8-4.2-4.1c0-0.1,0-0.3,0-0.4
			c-0.4-0.3-0.7-0.5-0.9-0.8c-0.7,2.1,0.5,4.5,2.6,5.1C465,435.1,465.3,435.1,465.9,435.1z"/>
		<path class="st3" d="M469.4,432.1c1.6-0.4,3-0.9,4.5-1.6c2.2-0.9,4.6-1.4,7-1.4c-2.8-0.1-5.7,0.4-8.2,1.4
			c-1.4,0.7-2.9,1.3-4.5,1.6c-0.3,0-0.5,0-0.5,0.1C468.2,432.2,468.9,432.2,469.4,432.1z"/>
		<path class="st3" d="M460.1,443.3c-0.9-0.3-2.5-1.6-3.2-1.6c3.6,0,7.2-0.7,10.5-2.1c-0.7,0.4-1.6,0.5-2.4,0.5
			c-3,1.2-6.2,1.7-9.4,1.6c0.7,0,2.2,1.4,3.2,1.6c0.8,0.3,1.6,0.3,2.5,0.3C461,443.4,460.6,443.3,460.1,443.3z"/>
		<path class="st3" d="M488.1,469.8c-2.8-0.1-5.7-0.8-8.2-2.2c-4.6-2.6-7.1-7.6-8.4-12.8c-0.4-2.5-1.1-5-2.1-7.4
			c-1.1-2.2-3.3-3.6-5.7-3.7c-0.5,0-1.2,0-1.7,0h0.5c2.5,0.1,4.6,1.6,5.7,3.7c1.1,2.4,1.7,4.7,2.1,7.4c1.2,5.1,3.8,10.3,8.4,12.8
			c2.5,1.4,5.4,2.1,8.2,2.2c0.7,0,1.4,0,2.1,0H488.1z"/>
		<path class="st3" d="M464.4,439.9c-2.5-0.3-4.7-1.6-5.9-3.8c-0.5-0.1-0.9-0.3-1.4-0.4C458.5,438.4,461.4,440.1,464.4,439.9z"/>
	</g>
	<path class="st34" d="M423.3,421.3c0,0-3.6-2.9,0-8.3c0.9-1.6,2.5-2.5,4.3-2.6c-2.2-0.3-4.3,0.8-5.5,2.6c-3.6,5.3,0,8.3,0,8.3
		c2.2,0.5,4.6,0.8,6.9,0.8C427.1,422,425.2,421.8,423.3,421.3z"/>
	<g class="st7">
		
			<linearGradient id="SVGID_15_" gradientUnits="userSpaceOnUse" x1="239.4172" y1="-80.0758" x2="239.4172" y2="-79.7139" gradientTransform="matrix(1 0 0 -1 -154.5 341.52)">
			<stop  offset="0" style="stop-color:#808080;stop-opacity:0.25"/>
			<stop  offset="0.54" style="stop-color:#808080;stop-opacity:0.12"/>
			<stop  offset="1" style="stop-color:#808080;stop-opacity:0.1"/>
		</linearGradient>
		<path class="st37" d="M85.1,421.6l0.1-0.4C85.2,421.3,84,421,85.1,421.6z"/>
	</g>
	<g class="st7">
		
			<linearGradient id="SVGID_16_" gradientUnits="userSpaceOnUse" x1="282.2504" y1="-309.3329" x2="282.2504" y2="-73.0618" gradientTransform="matrix(1 0 0 -1 -154.5 341.52)">
			<stop  offset="0" style="stop-color:#808080;stop-opacity:0.25"/>
			<stop  offset="0.54" style="stop-color:#808080;stop-opacity:0.12"/>
			<stop  offset="1" style="stop-color:#808080;stop-opacity:0.1"/>
		</linearGradient>
		<path class="st38" d="M195,441.2c-0.1-0.4-0.3-0.7-0.5-1.1c0-0.1-0.1-0.3-0.3-0.4c-0.1-0.3-0.3-0.5-0.4-0.5l-0.3-0.4
			c-0.1-0.1-0.3-0.4-0.4-0.5l-0.3-0.3c-0.1-0.1-0.3-0.3-0.5-0.4l-0.4-0.3l-0.5-0.3L191,437l-0.5-0.3l-0.3-0.1
			c-0.3-0.1-0.5-0.1-0.7-0.3l0,0c-1.7-0.4-3.6-0.3-5.1,0.1c0,0-4.9,7.2-3,9.8l-0.5-0.3c0,0-36.2,40.5-56.8,48.1
			c-0.5-0.4-1.1-0.7-1.6-1.1v-7.6c0-0.4,0-0.5,0-0.9l0,0c0-0.4-0.1-0.5-0.1-0.9l0.1-0.1l0.5-0.4l0.9-0.5l0.5-0.4
			c0.5-0.3,0.8-0.5,1.2-0.9l0.5-0.4c0.3-0.3,0.5-0.5,0.8-0.7l0.5-0.5c0.4-0.4,0.5-0.7,0.9-1.1l0.4-0.4c0.3-0.4,0.5-0.7,0.8-1.1
			l0.4-0.5c0.3-0.4,0.5-0.7,0.7-1.1l0.3-0.4c0.3-0.5,0.5-0.9,0.7-1.6l0.3-0.5c0.1-0.5,0.4-0.8,0.5-1.3c0-0.1,0.1-0.4,0.1-0.5
			c0.1-0.5,0.4-1.1,0.5-1.6c0-0.1,0-0.3,0-0.4c0.1-0.5,0.1-0.9,0.3-1.4c0-0.1,0-0.4,0-0.5c0-0.5,0.1-1.2,0.1-1.7
			c0-4.6-1.6-9-4.5-12.5c1.6-2.5,2.5-3.8,2.5-3.8c-0.9-0.5-1.8-1.2-2.8-1.7l-0.9-0.5c-0.5-0.4-1.2-0.7-1.8-1.1l-1.1-0.5
			c-0.5-0.4-1.1-0.5-1.6-0.8l-1.1-0.5l-1.6-0.7l-1.1-0.5c-0.5-0.3-1.1-0.4-1.6-0.5l-0.9-0.4c-0.5-0.1-1.1-0.4-1.6-0.5l-0.8-0.3
			c-0.5-0.1-1.2-0.3-1.7-0.4l-0.5-0.1c-0.8-0.1-1.6-0.3-2.4-0.4l0,0c-4.7-0.5-9.6,0.3-14,2.1c0.3-5.7,1.2-10.1,3.2-13l-0.5-0.1
			l-0.1,0.1c0,0-0.5,0.1-1.6,0.4c-0.3,0.5-0.5,0.9-0.8,1.4c0.4-2,1.2-3.8,2.2-5.7l-0.5-0.1c0.7-0.7,3.2-3.7-0.1-8.7
			c-3.8-5.7-10.8-1.3-10.8-1.3c-0.5,1.8-0.9,3.8-1.1,5.8c-0.5-0.3-0.9-0.4-1.2-0.5c-3.4,11.9-5.3,24.1-5.5,36.6
			c-12.8,18.1-17.9,44.7-19,50.5l0,0l-0.1,0.5l0,0c-0.1,0.5-0.1,0.5-0.1,0.5l33.1,0.8c0,0.1,0,0.3,0,0.4v52.3l-24,50.9
			c0,0,9.1,0.4,22.9,2.1l-3.8,27.1l0,0l-1.3,7.6h22.9c2.5-5.1-10.1-7.6-10.1-7.6h-0.1l5-25.4c2.2,0.4,4.5,0.7,6.7,1.2
			c3.4,0.7,6.9,1.1,10.3,1.2l0,0c2.9,0.1,5.7,0,8.6-0.4c1.6,13.8-0.5,22-0.9,23.3h-0.1l-1.3,7.6h22.9c2.2-4.5-7.1-7-9.6-7.5l0.1-0.7
			c1.2-8.7,1.6-17.3,0.9-26c2.9-1.2,5.7-2.8,8.2-4.9l0,0l0.4-0.3l0,0l0.1-0.1l-17-47.8c3.2-13.6-7.9-27.8-2-34.9
			c5.9-7.1,2.4-16.2,1.6-17.8c15.9-7,48.5-24.5,57.5-54.8c0.7-2.1,1.2-4.3,1.6-6.6C192.5,449.6,196.9,447.8,195,441.2z"/>
	</g>
	<path class="st33" d="M88.6,430.5c0,0-17.4,54.7,11.7,85.1l8.4-6.5c0,0-17.1-59.7-7.6-73.8C84.3,429.7,88.6,430.5,88.6,430.5z"/>
	<path class="st39" d="M100.6,435.3c0,0,3.6-2.9,0-8.3c-3.6-5.4-10-1.2-10-1.2s-2.4,7.6,0,9.5C93,437.2,100.6,435.3,100.6,435.3z"/>
	<path class="st39" d="M115,505.9L115,505.9c-4.6,0-8.3-3.7-8.3-8.3v-7.9c0-4.6,3.7-8.3,8.3-8.3l0,0c4.6,0,8.3,3.7,8.3,8.3v7.9
		C123.3,502.2,119.6,505.9,115,505.9z"/>
	<path class="st34" d="M107.7,512.6c0,0-17-59-7.6-73.5c0.8-0.1,1.4-0.3,1.4-0.3l0.1-0.1l0.3,0.1c-9.8,14,7.6,73.8,7.6,73.8
		l-8.4,6.5l-0.7-0.8L107.7,512.6z"/>
	<circle class="st39" cx="114.8" cy="471.9" r="18.2"/>
	<path class="st34" d="M121.2,497.6v-7.9c0-0.5-0.1-1.2-0.3-1.7c9-4.6,12.5-15.7,7.9-24.5c-2.9-5.7-8.7-9.5-15.2-9.9h1.1
		c10,0,18.2,8.2,18.2,18.2c0,6.9-3.8,13-9.9,16.2c0.1,0.5,0.3,1.2,0.3,1.7v7.9c0,4.6-3.6,8.2-8,8.3c-0.4,0-0.8,0-1.2-0.1
		C118.1,505.4,121.2,501.8,121.2,497.6z"/>
	<path class="st33" d="M96.3,562.7c0,0,35.2,4,36.4,0c4.2-12.8-7-26.7-1.4-33.5c5.8-7,1.4-16.5,1.4-16.5c0-10-8.2-18.2-18.2-18.2
		l0,0c-10,0-18.2,8.2-18.2,18.2L96.3,562.7L96.3,562.7z"/>
	<path class="st34" d="M131.3,529.1c5.8-7,1.4-16.5,1.4-16.5c0-10-8.2-18.2-18.2-18.2c-0.4,0-0.8,0-1.2,0c9.6,0.5,17,8.6,17,18.2
		c0,0,4.5,9.5-1.4,16.5c-5.7,6.7,5.7,20.7,1.4,33.5c-0.4,1.2-4.1,1.7-8.8,1.7c5.9,0,10.7-0.4,11.2-1.7
		C137,549.8,125.7,535.9,131.3,529.1z"/>
	<path class="st39" d="M125.3,561.5L125.3,561.5c12.8,18.2,18.6,45.7,14.8,72.1l-0.1,0.8h-10.9c0,0,3.4-10,0-27.7
		c-2.1-10.7-8-19.9-16.6-26.5l-10.7,54.2H91.5l10.1-73h23.6V561.5z"/>
	<path class="st39" d="M187.1,456.6c0,0,4.2-1.7,2.5-7.9c-1.7-6.2-9.2-4.1-9.2-4.1s-4.5,6.6-2.8,9
		C179.2,456.1,187.1,456.6,187.1,456.6z"/>
	<path class="st33" d="M124.7,515.6c0,0,54.6-17.8,62.3-59l-10.1-3.2c0,0-40.2,44.9-57.2,45.2C102.7,499,124.7,515.6,124.7,515.6z"
		/>
	<path class="st34" d="M185.2,456.6l1.7,0.5c-7.6,41.4-62.3,59-62.3,59l-0.9-0.7C130,513.1,178,495.2,185.2,456.6z"/>
	<g class="st7">
		<path class="st3" d="M110,580.2l-10.7,54.2h2.4l10.3-52.6C111.4,581.3,110.8,580.9,110,580.2z"/>
		<path class="st3" d="M125.3,561.5H123c12.8,18.2,18.6,45.7,14.8,72.1l-0.1,0.8h2.4l0.1-0.8C143.7,607.2,138.2,579.7,125.3,561.5z"
			/>
	</g>
	<path class="st34" d="M185.9,456.2c0,0,4.2-1.7,2.5-7.9c-0.5-1.7-1.7-3.2-3.4-3.8c2.2,0.4,4,2,4.6,4.2c1.8,6.1-2.5,7.9-2.5,7.9
		c-2.4-0.3-4.6-0.5-6.9-1.3C182.2,455.7,184,456.1,185.9,456.2z"/>
	<path class="st36" d="M96.3,560.7l-22.1,46.6c12.9,0.7,25.8,2.2,38.5,4.6c24.5,4.6,36.2-7,36.2-7L133,560.6H96.3V560.7z"/>
	<path class="st4" d="M102.1,634.2c0,0,11.7,2.4,9.4,7H90.3l1.2-7H102.1z"/>
	<path class="st4" d="M139.4,634.2c0,0,11.7,2.4,9.4,7h-21l1.2-7H139.4z"/>
	<path class="st40" d="M131.2,456.7c0,0-28.1,39.7-15.2,56l-50.2-1.2C66,511.7,79.9,421.8,131.2,456.7z"/>
	<path class="st34" d="M131.2,456.7c-7.2-4.9-13.8-7.4-19.6-7.9c4.9,1.6,9.6,3.8,13.8,6.7c0,0-28.1,39.7-15.2,56L66,510.5
		c-0.1,0.7-0.1,1.1-0.1,1.1l50.2,1.2C103.3,496.4,131.2,456.7,131.2,456.7z"/>
	<path class="st34" d="M133,560.7h-3.6l15.8,44.4c0,0-7.6,7.6-23.2,8c18.1,0.5,26.7-8,26.7-8L133,560.7z"/>
	<path class="st34" d="M102.1,634.2h-2.4c0,0,11.7,2.4,9.4,7h2.4C113.8,636.5,102.1,634.2,102.1,634.2z"/>
	<path class="st34" d="M139.4,634.2H137c0,0,11.7,2.4,9.4,7h2.4C151.1,636.5,139.4,634.2,139.4,634.2z"/>
</g>
<g>
	<ellipse class="st0" cx="728.7" cy="777.6" rx="54.7" ry="13.9"/>
	<rect x="835.4" y="347.6" class="st1" width="312.9" height="11.8"/>
	
		<linearGradient id="SVGID_17_" gradientUnits="userSpaceOnUse" x1="991.7341" y1="-313.0695" x2="991.7341" y2="92.2305" gradientTransform="matrix(1 0 0 -1 0 436)">
		<stop  offset="0" style="stop-color:#808080;stop-opacity:0.25"/>
		<stop  offset="0.54" style="stop-color:#808080;stop-opacity:0.12"/>
		<stop  offset="1" style="stop-color:#808080;stop-opacity:0.1"/>
	</linearGradient>
	<rect x="829.1" y="343.8" class="st41" width="325.2" height="405.3"/>
	<rect x="835.4" y="359.4" class="st3" width="312.9" height="375.5"/>
	<circle class="st4" cx="842.6" cy="353.6" r="2.9"/>
	<circle class="st5" cx="850.4" cy="353.6" r="2.9"/>
	<circle class="st6" cx="858.4" cy="353.6" r="2.9"/>
	<g class="st7">
		<rect x="855" y="376.2" class="st8" width="274.6" height="7.4"/>
	</g>
	
		<linearGradient id="SVGID_18_" gradientUnits="userSpaceOnUse" x1="912.5285" y1="-97.8259" x2="912.5285" y2="28.0173" gradientTransform="matrix(1 0 0 -1 0 436)">
		<stop  offset="0" style="stop-color:#808080;stop-opacity:0.25"/>
		<stop  offset="0.54" style="stop-color:#808080;stop-opacity:0.12"/>
		<stop  offset="1" style="stop-color:#808080;stop-opacity:0.1"/>
	</linearGradient>
	<rect x="853.3" y="408" class="st42" width="118.5" height="125.8"/>
	<rect x="855.8" y="412.1" class="st3" width="113.6" height="117.6"/>
	
		<linearGradient id="SVGID_19_" gradientUnits="userSpaceOnUse" x1="1070.2938" y1="-160.7475" x2="1070.2938" y2="-34.9043" gradientTransform="matrix(1 0 0 -1 0 436)">
		<stop  offset="0" style="stop-color:#808080;stop-opacity:0.25"/>
		<stop  offset="0.54" style="stop-color:#808080;stop-opacity:0.12"/>
		<stop  offset="1" style="stop-color:#808080;stop-opacity:0.1"/>
	</linearGradient>
	<rect x="1011.1" y="470.9" class="st43" width="118.5" height="125.8"/>
	<rect x="1013.5" y="475.1" class="st3" width="113.6" height="117.6"/>
	
		<linearGradient id="SVGID_20_" gradientUnits="userSpaceOnUse" x1="995.1016" y1="-276.8112" x2="995.1016" y2="-190.1786" gradientTransform="matrix(1 0 0 -1 0 436)">
		<stop  offset="0" style="stop-color:#808080;stop-opacity:0.25"/>
		<stop  offset="0.54" style="stop-color:#808080;stop-opacity:0.12"/>
		<stop  offset="1" style="stop-color:#808080;stop-opacity:0.1"/>
	</linearGradient>
	<rect x="855.8" y="626.2" class="st44" width="278.6" height="86.6"/>
	<rect x="861.5" y="631.9" class="st21" width="268" height="77.6"/>
	<polygon class="st19" points="868.1,639.3 1129.5,639.3 1129.5,631.9 861.5,631.9 861.5,709.6 868.1,709.6 	"/>
	
		<linearGradient id="SVGID_21_" gradientUnits="userSpaceOnUse" x1="1066.6575" y1="-180.0393" x2="1066.6575" y2="-78.7294" gradientTransform="matrix(1 0 0 -1 -154.5 341.52)">
		<stop  offset="0" style="stop-color:#808080;stop-opacity:0.25"/>
		<stop  offset="0.54" style="stop-color:#808080;stop-opacity:0.12"/>
		<stop  offset="1" style="stop-color:#808080;stop-opacity:0.1"/>
	</linearGradient>
	<path class="st45" d="M950.5,437.9c-18.3-21.2-50.3-23.6-71.4-5.4c-21.2,18.3-23.6,50.3-5.4,71.4c18.3,21.2,50.3,23.6,71.4,5.4
		c11.2-9.7,17.6-23.6,17.6-38.4C962.8,458.7,958.5,447.1,950.5,437.9z M930.2,501.2c-16.7,9.9-38.2,4.4-48.2-12.4
		c-9.9-16.7-4.4-38.2,12.4-48.2c16.8-9.9,38.2-4.4,48.2,12.4c3.2,5.4,4.9,11.6,4.9,17.9C947.4,483.4,940.9,494.9,930.2,501.2
		L930.2,501.2z"/>
	<path class="st4" d="M937.6,449l11.2-9.7c-9.1-10.6-22.5-16.8-36.5-16.8v14.7C921.9,437.4,931.3,441.7,937.6,449z"/>
	<path class="st6" d="M912.2,504.5c-4.7,0-9.5-1-13.8-3l-6.1,13.4c14.4,6.6,31,5.5,44.6-2.5l-7.5-12.6
		C924.2,502.8,918.2,504.5,912.2,504.5z"/>
	<path class="st16" d="M960.4,470.9c0-11.5-4.2-22.7-11.7-31.5l-11.2,9.7c12.1,13.9,10.5,35.1-3.4,47.1c-1.5,1.3-3.1,2.5-4.8,3.5
		l7.5,12.6C951.5,503.7,960.5,488,960.4,470.9z"/>
	<path class="st8" d="M878.7,470.9c0-18.5,15-33.5,33.5-33.5l0,0v-14.7c-26.7,0-48.3,21.6-48.3,48.3c0,18.9,11.1,36.1,28.2,43.9
		l6.2-13.5C886.4,496,878.8,484.1,878.7,470.9z"/>
	
		<linearGradient id="SVGID_22_" gradientUnits="userSpaceOnUse" x1="1072.3698" y1="-70.8859" x2="1072.3698" y2="-56.1779" gradientTransform="matrix(1 0 0 -1 0 436)">
		<stop  offset="0" style="stop-color:#808080;stop-opacity:0.25"/>
		<stop  offset="0.54" style="stop-color:#808080;stop-opacity:0.12"/>
		<stop  offset="1" style="stop-color:#808080;stop-opacity:0.1"/>
	</linearGradient>
	<rect x="1029.1" y="492.2" class="st46" width="86.6" height="14.7"/>
	<rect x="1029.9" y="493" class="st8" width="85" height="13.1"/>
	<rect x="1029.9" y="515.1" class="st4" width="62.1" height="13.1"/>
	<rect x="1029.9" y="537.1" class="st6" width="42.5" height="13.1"/>
	<rect x="1029.9" y="559.2" class="st16" width="76.9" height="13.1"/>
	<rect x="855.8" y="553.5" class="st1" width="121.8" height="7.4"/>
	<rect x="855.8" y="565.7" class="st1" width="68.6" height="7.4"/>
	<rect x="936.7" y="565.7" class="st1" width="23.7" height="7.4"/>
	<rect x="936.7" y="592.7" class="st1" width="23.7" height="7.4"/>
	<rect x="855.8" y="590.2" class="st1" width="68.6" height="7.4"/>
	<rect x="855.8" y="578" class="st1" width="121.8" height="7.4"/>
	<rect x="1009.4" y="408.8" class="st1" width="121.8" height="7.4"/>
	<rect x="1009.4" y="421.1" class="st1" width="68.6" height="7.4"/>
	<rect x="1090.3" y="421.1" class="st1" width="23.7" height="7.4"/>
	<rect x="1090.3" y="448" class="st1" width="23.7" height="7.4"/>
	<rect x="1009.4" y="445.6" class="st1" width="68.6" height="7.4"/>
	<rect x="1009.4" y="433.4" class="st1" width="121.8" height="7.4"/>
	
		<linearGradient id="SVGID_23_" gradientUnits="userSpaceOnUse" x1="1047.7823" y1="-346.2605" x2="1047.7823" y2="-328.2841" gradientTransform="matrix(1 0 0 -1 0 436)">
		<stop  offset="0" style="stop-color:#808080;stop-opacity:0.25"/>
		<stop  offset="0.54" style="stop-color:#808080;stop-opacity:0.12"/>
		<stop  offset="1" style="stop-color:#808080;stop-opacity:0.1"/>
	</linearGradient>
	<circle class="st47" cx="1047.8" cy="773.2" r="8.9"/>
	<circle class="st8" cx="1047.8" cy="773.2" r="6.6"/>
	
		<linearGradient id="SVGID_24_" gradientUnits="userSpaceOnUse" x1="922.8156" y1="-336.5036" x2="922.8156" y2="-237.6004" gradientTransform="matrix(1 0 0 -1 0 436)">
		<stop  offset="0" style="stop-color:#808080;stop-opacity:0.25"/>
		<stop  offset="0.54" style="stop-color:#808080;stop-opacity:0.12"/>
		<stop  offset="1" style="stop-color:#808080;stop-opacity:0.1"/>
	</linearGradient>
	<rect x="782.3" y="673.6" class="st48" width="281.1" height="98.9"/>
	<rect x="790.5" y="677.7" class="st3" width="268" height="77.6"/>
	<line class="st49" x1="799.4" y1="740.6" x2="1047.8" y2="740.6"/>
	
		<linearGradient id="SVGID_25_" gradientUnits="userSpaceOnUse" x1="820.3142" y1="-302.1367" x2="820.3142" y2="-257.2058" gradientTransform="matrix(1 0 0 -1 0 436)">
		<stop  offset="0" style="stop-color:#808080;stop-opacity:0.25"/>
		<stop  offset="0.54" style="stop-color:#808080;stop-opacity:0.12"/>
		<stop  offset="1" style="stop-color:#808080;stop-opacity:0.1"/>
	</linearGradient>
	<rect x="801.9" y="693.2" class="st50" width="36.8" height="44.9"/>
	<rect x="803.9" y="695.3" class="st8" width="32.7" height="41.7"/>
	<rect x="1008.6" y="725.1" class="st6" width="32.7" height="13.1"/>
	<rect x="947.3" y="707.9" class="st16" width="32.7" height="29.4"/>
	<rect x="875.4" y="712.8" class="st4" width="32.7" height="24.5"/>
	<rect x="790.5" y="755.3" class="st8" width="268" height="11.4"/>
	
		<linearGradient id="SVGID_26_" gradientUnits="userSpaceOnUse" x1="801.9083" y1="-346.2605" x2="801.9083" y2="-328.2841" gradientTransform="matrix(1 0 0 -1 0 436)">
		<stop  offset="0" style="stop-color:#808080;stop-opacity:0.25"/>
		<stop  offset="0.54" style="stop-color:#808080;stop-opacity:0.12"/>
		<stop  offset="1" style="stop-color:#808080;stop-opacity:0.1"/>
	</linearGradient>
	<circle class="st51" cx="801.9" cy="773.2" r="8.9"/>
	<circle class="st8" cx="801.9" cy="773.2" r="6.6"/>
	<rect x="783.9" y="681" class="st4" width="6.6" height="85.8"/>
	<rect x="783.9" y="681" class="st35" width="6.6" height="85.8"/>
	
		<linearGradient id="SVGID_27_" gradientUnits="userSpaceOnUse" x1="851.9695" y1="-370.3222" x2="945.4293" y2="-370.3222" gradientTransform="matrix(1 0 0 -1 -154.5 341.52)">
		<stop  offset="0" style="stop-color:#808080;stop-opacity:0.25"/>
		<stop  offset="0.54" style="stop-color:#808080;stop-opacity:0.12"/>
		<stop  offset="1" style="stop-color:#808080;stop-opacity:0.1"/>
	</linearGradient>
	<path class="st52" d="M790.9,690c0-0.1,0-0.2,0-0.3c0-0.1,0-0.3,0-0.4s0-0.2-0.1-0.3s-0.1-0.3-0.1-0.4s-0.1-0.2-0.1-0.3
		s-0.1-0.3-0.2-0.4l-0.1-0.3c-0.1-0.1-0.2-0.3-0.3-0.4l-0.1-0.2c-0.1-0.2-0.3-0.4-0.4-0.4l0,0l0,0c-0.6-0.7-1.4-1.2-2.3-1.8
		c0.6-0.7,1.1-1.6,1.5-2.5c0.1-0.3,0.2-0.5,0.2-0.7c0-0.1,0-0.2,0-0.3c0-0.2,0-0.4,0.1-0.5c0-0.1,0-0.2,0-0.3s0-0.3,0-0.4
		c0-0.2,0-0.2-0.1-0.3c-0.1-0.1-0.1-0.3-0.1-0.4c0-0.1-0.1-0.2-0.1-0.3s-0.1-0.3-0.2-0.4l-0.1-0.3c-0.1-0.1-0.2-0.3-0.3-0.4
		l-0.1-0.2c-0.1-0.2-0.3-0.4-0.4-0.4l0,0l0,0c-0.8-0.8-1.8-1.6-2.9-1.9c0,0-5.2,1.8-5.5,4c-3.9,0.8-26,5.4-41.2,5.1l-0.1-0.4
		c0-5-2.8-9.7-7.2-12v-5.1c0-0.3,0-0.4,0-0.6l0,0c0-0.3-0.1-0.4-0.1-0.6l0.1-0.1l0.4-0.3l0.6-0.4l0.4-0.3c0.3-0.2,0.6-0.4,0.8-0.6
		l0.4-0.3c0.2-0.2,0.4-0.4,0.6-0.5l0.4-0.4c0.3-0.3,0.4-0.5,0.6-0.7l0.3-0.3c0.2-0.3,0.4-0.5,0.6-0.7l0.3-0.4
		c0.2-0.3,0.4-0.5,0.5-0.7l0.2-0.3c0.2-0.4,0.4-0.6,0.5-1l0.2-0.4c0.1-0.3,0.3-0.6,0.4-0.8l0.1-0.4c0.1-0.4,0.3-0.7,0.4-1.1
		c0-0.1,0-0.2,0-0.3c0.1-0.4,0.1-0.6,0.2-1c0-0.1,0-0.3,0-0.4c0-0.4,0.1-0.8,0.1-1.2c0-2.3-0.6-4.6-1.8-6.6c0.9-0.3,1.4-0.4,1.3-0.5
		c-0.4-0.4-0.6-0.9-1.1-1.3l-0.4-0.4c-0.3-0.3-0.5-0.6-0.7-0.8l-0.4-0.4c-0.3-0.3-0.5-0.5-0.7-0.6l-0.4-0.4
		c-0.4-0.3-0.6-0.5-0.9-0.7l-0.3-0.2c-0.4-0.3-0.7-0.6-1.1-0.8l-0.4-0.3c-0.3-0.2-0.5-0.4-0.7-0.4l-0.5-0.3l-0.7-0.4l-0.5-0.3
		c-0.3-0.1-0.5-0.2-0.7-0.3l-0.5-0.2c-0.4-0.2-0.7-0.3-1.1-0.4l-0.6-0.2l-0.6-0.2l-0.6-0.1l-0.6-0.1l-0.6-0.1h-0.6h-0.6
		c-0.4,0-0.7,0-1.1,0.1l0,0c-8.3,0.6-15.7,8-15.7,19.7v10.5H719v4.3c-4.8,2.2-7.8,7-7.8,12.3v37.2l-11.1,51h-0.4l-2.2,9.7l15.7,2.5
		l0,0l0.6,0.1c1.7-0.7-1.1-4-2.4-6.6c-0.2-0.3-0.3-0.6-0.4-0.8c-0.2-0.5-0.3-1.1-0.4-1.6l12-39.5h-0.1l0.3-0.9
		c0,0,15.3,6.6,19.3,19.7c3.2,10.6,1.2,17.5,0.4,19.7h-0.1v0.2c-0.2,0.4-0.4,0.6-0.4,0.6h0.4v7.2H759c1.6-0.8-1.8-3-3.3-4.9
		c-0.6-0.6-0.9-1.3-1.1-2h0.3l0.2-0.6c4.2-19.7-2.3-40.1-17.1-53.8c0-0.1,0.1-0.1,0.1-0.2c1.6-4.8,2.5-9.7,2.9-14.8
		c12.6,1.2,29.5,0.4,42.1-9.4c1.2-0.9,2.4-1.8,3.4-3c1.1-0.1,3-0.6,4.1-3.8c0.1-0.3,0.2-0.5,0.2-0.7c0-0.1,0-0.2,0-0.3
		C790.8,690.4,790.9,690.3,790.9,690z"/>
	<path class="st8" d="M724.6,704.5c0,0,38.3,12.2,59.6-8.2l-4.5-5.9c0,0-41.1,9.1-51,2.5C718.9,686.1,724.6,704.5,724.6,704.5z"/>
	<path class="st34" d="M783.1,695.5l0.7,1c-21.2,20.4-59.6,8.2-59.6,8.2s-0.1-0.4-0.3-0.8C728.6,705.2,763.3,714.6,783.1,695.5z"/>
	<path class="st53" d="M783.3,696.3c0,0,3.1,0.7,4.6-3.5c1.5-4.2-3.6-6.1-3.6-6.1s-5.3,1.9-5.3,4C779,692.8,783.3,696.3,783.3,696.3
		z"/>
	<path class="st34" d="M782.8,695.6c0,0,3.1,0.7,4.6-3.5c0.5-1.1,0.4-2.5-0.4-3.6c1.1,1.1,1.4,2.8,0.9,4.2c-1.5,4.2-4.6,3.5-4.6,3.5
		c-1.2-1.1-2.4-2.2-3.3-3.5C780.8,693.8,781.8,694.7,782.8,695.6z"/>
	<path id="_x34_635430b-7803-4f1f-9770-b56b2b482545" class="st8" d="M742.7,772.1H754c-0.1,1.1,0.4,2.1,1.1,3
		c1.6,1.8,4.6,4,3.2,4.6h-15.6L742.7,772.1L742.7,772.1z"/>
	<path class="st34" d="M754.3,775c-0.7-0.7-1.1-1.8-1.1-3h0.8c-0.1,1.1,0.4,2.1,1.1,3c1.6,1.8,4.6,4,3.2,4.6h-0.8
		C758.9,778.9,755.9,776.7,754.3,775z"/>
	<path id="a892faa3-7b18-4010-9d55-72c2aac7ddb8" class="st8" d="M702.4,769.7l10.6,1.8c-0.4,1.2-0.2,2.6,0.5,3.8
		c1.1,2.5,3.8,5.4,2.2,6.1l-15.4-2.5L702.4,769.7z"/>
	<path class="st34" d="M712.6,775.3c-0.6-1.1-0.7-2.5-0.5-3.8l-9.8-1.7v-0.2l10.6,1.8c-0.4,1.2-0.2,2.6,0.5,3.8
		c1.1,2.5,3.8,5.4,2.2,6.1l-0.6-0.1C716.1,780.4,713.7,777.5,712.6,775.3z"/>
	<path class="st53" d="M726,682.1L726,682.1c-3.2,0-5.8-2.6-5.8-5.8v-5.5c0-3.2,2.6-5.8,5.8-5.8l0,0c3.2,0,5.8,2.6,5.8,5.8v5.5
		C731.8,679.5,729.1,682.1,726,682.1z"/>
	<circle class="st53" cx="725.8" cy="658.1" r="12.7"/>
	<path class="st34" d="M730.3,676.3v-5.5c0-0.4-0.1-0.8-0.2-1.2c6.3-3.2,8.8-11,5.5-17.2c-2-4-6.1-6.6-10.6-6.9h0.7
		c7,0,12.7,5.7,12.7,12.7c0,4.8-2.7,9.1-6.9,11.3c0.1,0.4,0.2,0.8,0.2,1.2v5.5c0,3.2-2.5,5.7-5.6,5.8c-0.3,0-0.6,0-0.8-0.1
		C728.2,681.7,730.3,679.2,730.3,676.3z"/>
	<path class="st8" d="M712.8,721.8c0,0,24.6,2.8,25.5,0c6.4-19.6,0-35,0-35c0-7-5.7-12.7-12.7-12.7l0,0c-7,0-12.7,5.7-12.7,12.7
		V721.8z"/>
	<path class="st36" d="M712.8,721.8l-11.1,51.1h11.1l11.5-37.9c0,0,14.4,6.2,18.2,18.5c3.7,12.4,0,19.4,0,19.4h11.9l0.2-0.6
		c4-18.5-2.1-37.7-16.1-50.5l0,0"/>
	<path class="st34" d="M736.9,721.8c6.4-19.6,0-35,0-35c0-6.7-5.3-12.4-11.9-12.7c0.3,0,0.6,0,0.8,0l0,0c7,0,12.7,5.7,12.7,12.7
		c0,0,6.4,15.4,0,35c-0.4,1-3.7,1.3-7.8,1.2C734,723.1,736.6,722.7,736.9,721.8z"/>
	<g class="st7">
		<path class="st3" d="M724.1,735.9l-11.3,37.2h-1.7l11.5-37.9C722.7,735.2,723.3,735.4,724.1,735.9z"/>
		<path class="st3" d="M736.7,722h1.7c14,12.7,20.2,31.9,16.1,50.5l-0.2,0.6h-1.7l0.2-0.6C756.9,754,750.7,734.7,736.7,722z"/>
	</g>
	<path class="st8" d="M722.9,696.3c0,0,38.3,12.2,59.6-8.2l-4.5-5.9c0,0-41.1,9.1-51,2.5C717.2,678,722.9,696.3,722.9,696.3z"/>
	<path class="st34" d="M781.4,687.3l0.7,1c-21.2,20.4-59.6,8.2-59.6,8.2s-0.1-0.4-0.3-0.8C726.9,697,761.6,706.4,781.4,687.3z"/>
	<path class="st53" d="M781.7,688.1c0,0,3.1,0.7,4.6-3.5s-3.6-6.1-3.6-6.1s-5.3,1.9-5.3,4C777.5,684.6,781.7,688.1,781.7,688.1z"/>
	<path class="st34" d="M781.1,687.4c0,0,3.1,0.7,4.6-3.5c0.5-1.1,0.4-2.5-0.4-3.6c1.1,1.1,1.4,2.8,0.9,4.2c-1.5,4.2-4.6,3.5-4.6,3.5
		c-1.2-1.1-2.4-2.2-3.3-3.5C779.1,685.6,780.1,686.6,781.1,687.4z"/>
	<path class="st36" d="M726.7,653.9l-0.8,17.2h-18V662c0-18.3,19.4-25.3,30.3-10.5C738.4,651.8,726.7,653.9,726.7,653.9z"/>
	<path class="st34" d="M722.7,643.6c4.6,0.4,9.3,2.9,13,7.9c0.3,0.4-11.4,2.5-11.4,2.5l-0.8,17.2h2.5l0.8-17.2
		c0,0,11.7-2.1,11.4-2.5C733.8,645.6,728,643.2,722.7,643.6z"/>
</g>
<g>
	<path class="st0" d="M639.5,280.4c0,0,152.7-127.4,240.6,0"/>
	<ellipse class="st0" cx="890" cy="345.7" rx="70.7" ry="11"/>
	<ellipse class="st54" cx="901.5" cy="341.6" rx="70.7" ry="11"/>
	<path class="st55" d="M931.6,227.6c3.7,1.4,7.8-0.6,9.2-4.3s-0.6-7.8-4.3-9.2c-1.2-0.5-2.6-0.5-3.9-0.3l0.2,3.6l-1.8-3.1
		c-1.7,0.8-3,2.3-3.6,4c-0.2,0.7-0.4,1.3-0.4,2C926.7,223.6,928.6,226.5,931.6,227.6z"/>
	<path class="st54" d="M940.2,270.2c-0.6-3.1,2-5.9,4.7-7.7c2.6-1.8,5.7-3.6,6.6-6.6c1.3-4.4-2.5-8.4-5.5-11.9
		c-2.2-2.6-4.1-5.4-5.7-8.4c-0.7-1.2-1.1-2.5-1.4-3.8c-0.3-2,0.4-3.9,1-5.7c2.1-6.2,4.4-12.3,6.7-18.4"/>
	<path class="st54" d="M931.9,226.7c3.7,1.4,7.8-0.6,9.2-4.3s-0.6-7.8-4.3-9.2c-1.2-0.5-2.6-0.5-3.9-0.3l0.2,3.6l-1.8-3.1
		c-1.7,0.8-3,2.3-3.6,4c-0.2,0.7-0.4,1.3-0.4,2C927,222.6,928.9,225.6,931.9,226.7z"/>
	<path class="st55" d="M939.3,206.4c0.8-2.3,2.7-4,5.1-4.6l0.6,3.5l1.1-3.6c4,0.1,7.1,3.3,7,7.2s-3.3,7.1-7.2,7
		c-4-0.1-7.1-3.3-7-7.2C938.9,207.9,939.1,207.2,939.3,206.4L939.3,206.4z"/>
	<path class="st54" d="M939.7,205.1c0.8-2.3,2.7-4,5.1-4.6l0.6,3.5l1.1-3.6c4,0.1,7.1,3.3,7,7.2s-3.3,7.1-7.2,7
		c-4-0.1-7.1-3.3-7-7.2C939.3,206.6,939.4,205.9,939.7,205.1L939.7,205.1z"/>
	<path class="st55" d="M944.6,244.1c3.7,1.4,7.8-0.6,9.1-4.3c1.1-3.1-0.1-6.6-2.8-8.4l-0.8,2.8l-0.6-3.5l0,0
		c-3.7-1.4-7.8,0.6-9.1,4.3C939.1,238.7,940.9,242.7,944.6,244.1L944.6,244.1L944.6,244.1z"/>
	<path class="st54" d="M945,242.8c3.7,1.4,7.8-0.6,9.1-4.3c1.1-3.1-0.1-6.6-2.8-8.4l-0.8,2.8l-0.6-3.5l0,0c-3.7-1.4-7.8,0.6-9.2,4.3
		C939.4,237.3,941.3,241.4,945,242.8L945,242.8L945,242.8z"/>
	<path class="st55" d="M937.2,255.9c0.7,3.9,4.4,6.4,8.3,5.8c3.9-0.7,6.4-4.4,5.8-8.3s-4.4-6.4-8.3-5.8c-1.8,0.3-3.3,1.2-4.4,2.7
		l3.2,4.8l-4.4-2.5C937.1,253.7,937,254.8,937.2,255.9z"/>
	<path class="st54" d="M937.6,255c0.7,3.9,4.4,6.4,8.3,5.8s6.4-4.4,5.8-8.3c-0.7-3.9-4.4-6.4-8.3-5.8c-1.8,0.3-3.3,1.2-4.4,2.7
		l3.2,4.8l-4.4-2.5C937.4,252.7,937.4,253.8,937.6,255z"/>
	<path class="st56" d="M930.3,274.4c0,0,6.3-2.5,8.2-3.8c1.9-1.4,9.7-3,10.1-0.8c0.5,2.2,9.4,10.8,2.3,10.9
		c-7.1,0.1-16.5,1.2-18.4,0C930.7,279.5,930.3,274.4,930.3,274.4z"/>
	<path class="st57" d="M951.1,279.9c-7.1,0.1-16.5,1.2-18.4,0c-1.4-0.9-2-4-2.2-5.5c-0.1,0-0.2,0-0.2,0s0.4,5.1,2.3,6.2
		c1.9,1.2,11.3,0.1,18.4,0c2.1,0,2.7-0.7,2.7-1.8C953.4,279.5,952.6,279.9,951.1,279.9z"/>
	<path class="st8" d="M640.6,208.1h16.6c3,0,5.5,2.4,5.5,5.5v61.6c0,3-2.4,5.5-5.5,5.5h-16.6c-3,0-5.5-2.4-5.5-5.5v-61.6
		C635.2,210.5,637.6,208.1,640.6,208.1z"/>
	<path class="st8" d="M692.9,164.5h16.7c3,0,5.5,2.4,5.5,5.5v105.3c0,3-2.4,5.5-5.5,5.5H693c-3,0-5.5-2.4-5.5-5.5V170
		C687.5,167,689.9,164.5,692.9,164.5z"/>
	<path class="st8" d="M745.3,134.2h16.6c3,0,5.5,2.4,5.5,5.5v135.6c0,3-2.4,5.5-5.5,5.5h-16.6c-3,0-5.5-2.4-5.5-5.5V139.7
		C739.9,136.6,742.3,134.2,745.3,134.2z"/>
	<path class="st8" d="M797.6,105.3h16.6c3,0,5.5,2.4,5.5,5.5v164.5c0,3-2.4,5.5-5.5,5.5h-16.6c-3,0-5.5-2.4-5.5-5.5V110.7
		C792.2,107.7,794.6,105.3,797.6,105.3z"/>
	<path class="st8" d="M850,54.7h16.6c3,0,5.5,2.4,5.5,5.5v215c0,3-2.4,5.5-5.5,5.5H850c-3,0-5.5-2.4-5.5-5.5v-215
		C844.6,57.2,847,54.7,850,54.7z"/>
	<path class="st54" d="M644.3,204.4h16.6c3,0,5.5,2.4,5.5,5.5v61.6c0,3-2.4,5.5-5.5,5.5h-16.6c-3,0-5.5-2.4-5.5-5.5v-61.6
		C638.8,206.9,641.3,204.4,644.3,204.4z"/>
	<path class="st54" d="M696.6,160.9h16.6c3,0,5.5,2.4,5.5,5.5v105.3c0,3-2.4,5.5-5.5,5.5h-16.6c-3,0-5.5-2.4-5.5-5.5V166.3
		C691.2,163.3,693.6,160.9,696.6,160.9z"/>
	<path class="st54" d="M749,130.6h16.6c3,0,5.5,2.4,5.5,5.5v135.6c0,3-2.4,5.5-5.5,5.5H749c-3,0-5.5-2.4-5.5-5.5V136
		C743.5,133,746,130.6,749,130.6z"/>
	<path class="st54" d="M801.3,101.6h16.6c3,0,5.5,2.4,5.5,5.5v164.5c0,3-2.4,5.5-5.5,5.5h-16.6c-3,0-5.5-2.4-5.5-5.5V107.1
		C795.9,104,798.3,101.6,801.3,101.6z"/>
	<path class="st54" d="M853.7,51.1h16.6c3,0,5.5,2.4,5.5,5.5v215c0,3-2.4,5.5-5.5,5.5h-16.6c-3,0-5.5-2.4-5.5-5.5v-215
		C848.2,53.5,850.7,51.1,853.7,51.1z"/>
	<line class="st54" x1="957.5" y1="280.9" x2="562.2" y2="280.9"/>
	<path class="st58" d="M932.6,236.9c0,0,4.3,15.5-1.2,17.9c-5.5,2.3-3.8-17.3-3.8-17.3L932.6,236.9z"/>
	<path class="st59" d="M893.4,336.6c0,0-4-0.3-5.5,0.6c-0.8,0.5-2,0.6-2.9,0.3c0,0-6.3-0.6-4,2.6s4.6,4.3,4.6,5.8s9.5,1.4,9.8,0
		s0.6-8.9,0-9.2C894.8,336.2,893.4,336.6,893.4,336.6z"/>
	<path class="st59" d="M904.1,336.6c0,0,4-0.3,5.5,0.6c0.8,0.5,2,0.6,2.9,0.3c0,0,6.3-0.6,4,2.6s-4.6,4.3-4.6,5.8
		c0,1.4-9.5,1.4-9.8,0s-0.6-8.9,0-9.2C902.6,336.2,904.1,336.6,904.1,336.6z"/>
	<path class="st60" d="M881.6,233.7c0,0-2,45.5-0.8,47.8s5.2,41.2,4.6,43.5c-0.6,2.3-3.4,11.8,0,13.3c3.4,1.4,10.9,0,10.9,0
		s2-11.5,1.2-17.6c-0.8-6-1.2-31.4-1.2-31.4l5.8-26.5l2,25c0,0,0.6,34.3-3.4,41.2c-4,6.9,1.4,9.8,1.4,9.8s10.9,1.4,12.1,1.2
		c1.2-0.3-0.8-11.5,0-16.5c0.8-4.9,2.9-32.3,4.6-38.9s11.5-43.5,4.3-51C915.8,226.2,881.6,233.7,881.6,233.7z"/>
	<circle class="st58" cx="902.6" cy="131.7" r="10.1"/>
	<path class="st58" d="M895.1,136.3c0,0,1.8,13.9,0.8,14.1c-0.9,0.3,15.3,0,15.3,0s-3.2-8.3,0-15L895.1,136.3z"/>
	<path class="st0" d="M895.1,147.5c0,0,7-6.9,15.3,0l0.5,2.1l-4.4-0.1H895v-2H895.1z"/>
	<path class="st61" d="M929.4,236c-0.7,0.1-2.3,0.4-4.4,0.7c-7.1,1-19.6,2.7-20.1,1.6c-0.6-1.4-2.6-6.6-4-4.3s-0.6,4.3-6.6,4.6
		c-4.1,0.2-10.1-0.4-13.4-1.4c-1.6-0.5-2.5-1-2.4-1.5c0.3-1.8,3.4-34.6,3.4-37.7s1.2-18.5,1.2-18.5l-8.3-16.3l-0.7-1.3
		c0,0,0.8-3.2,3.4-3.8c2.6-0.6,15-7.8,15-7.8s2.6-4,7.5-3.8s6-1.8,12.7,3.8c0,0,8.1,3.4,10.9,5.2c2.9,1.8,6,1.8,6.3,4.6
		c0.1,0.6-0.3,1.7-0.8,3.1c-2,5.1-7,14.3-7.7,15.7c-0.1,0.1-0.1,0.2-0.1,0.2s-0.1,5.2,0,11.2l0,0c0.1,5.8,0.6,12.4,1.7,16.1
		C925.3,214.1,932.3,235.4,929.4,236z"/>
	<path class="st60" d="M915.7,127.6c-0.2-0.9-0.6-1.8-1.2-2.5c-0.2-2.1-0.9-4.2-2.1-5.9c-0.5-0.8-1-1.6-1.8-2.1
		c-0.9-0.5-1.9-0.8-2.9-0.7c-0.2,0-0.5,0.1-0.8,0.1c-0.2-0.1-0.4-0.1-0.6-0.1c-0.1-0.3-0.3-1-0.4-0.9l-0.8,0.7
		c-0.3-0.1-0.7-0.1-1-0.1c-0.1-0.4-0.3-0.7-0.4-1.1c-0.2,0.3-0.4,0.7-0.6,1c-0.3,0-0.7,0-1,0l-0.7-0.7c-0.1,0.4-0.4,0.7-0.8,0.8
		c-0.3,0.1-0.7,0.1-1,0.1h-0.1c-1.8-0.1-3.6-0.1-5.1,0.8c-0.7,0.5-1.2,1.1-1.6,1.8c-0.2,0.1-0.4,0.3-0.5,0.4
		c-0.6,0.4-1.1,0.9-1.5,1.5c-0.3,0.5-0.5,1-0.7,1.6c-0.6,1.7-0.8,3.5-0.8,5.3c0.1,1.8,0.7,3.5,2,4.9c0.8,0.8,1.7,1.4,2.5,2.2
		c1.6,1.7,1.8,4,3.2,5.7c1.4,1.9,4,3.1,6.2,3.4c2.7,0.4,5.5-0.3,7.7-2c0.5-0.4,1-0.8,1.3-1.4c0.8-1.4,0.5-3.1,0.7-4.6
		C913.4,132.9,916.2,130.5,915.7,127.6z"/>
	<path class="st58" d="M877.3,237.7c0,0,4.3,15.5-1.2,17.9c-5.5,2.3-3.8-17.3-3.8-17.3L877.3,237.7z"/>
	<path class="st62" d="M882.4,202.4c0,0-1.9,28-1.6,34.8c-1.6-0.5-2.5-1-2.4-1.5c0.3-1.8,3.4-34.6,3.4-37.7c0-3.2,1.2-18.5,1.2-18.5
		l-8.3-16.3c0.1-0.8,0.2-1.3,0.2-1.3l4.2,8.8l5.9,1.6L882.4,202.4z"/>
	<path class="st61" d="M876.1,160.2l-2,1.8c0,0-2.6,15.3-2.3,19c0.3,3.8-6,60.5-1.2,60.5c4.9,0,10.3-0.8,9.5-2.9
		c-0.8-2,1.4-36.2,1.4-36.2l2.6-30.1L876.1,160.2z"/>
	<path class="st62" d="M929.2,163.3c-2,5.1-7,14.3-7.7,15.7c0-3.7,0.1-6.3,0.1-6.3l6-12.4l1.3-1C928.8,159.4,929,160.9,929.2,163.3z
		"/>
	<path class="st62" d="M929.4,236c-0.7,0.1-2.3,0.4-4.4,0.7c-1.1-8.1-4-31.6-3.8-33.8c0.1-1.1,0.2-6.4,0.3-12.4
		c0.1,5.8,0.6,12.4,1.7,16.1C925.3,214.1,932.3,235.4,929.4,236z"/>
	<path class="st61" d="M925.7,158.2l4.3,1.2c0,0,2.9,32,3.2,37.5s3.8,39.1,3.2,40.6c-0.6,1.4-9.5,3.4-9.8,2s-4.5-33.9-4.2-36.5
		s-1.2-29.7-1.2-29.7L925.7,158.2z"/>
	<polyline class="st54" points="652.4,176.7 704.7,133 757.6,103.2 809.8,74.3 862.2,23.8 	"/>
	<circle class="st59" cx="651" cy="178.9" r="5.1"/>
	<circle class="st59" cx="703.3" cy="135.4" r="5.1"/>
	<circle class="st59" cx="756.1" cy="105.5" r="5.1"/>
	<circle class="st59" cx="808.5" cy="76.6" r="5.1"/>
	<circle class="st59" cx="860.8" cy="26.1" r="5.1"/>
	<circle class="st54" cx="652.4" cy="176.7" r="5.1"/>
	<circle class="st54" cx="704.7" cy="133" r="5.1"/>
	<circle class="st54" cx="757.6" cy="103.2" r="5.1"/>
	<circle class="st54" cx="809.8" cy="74.3" r="5.1"/>
	<circle class="st54" cx="862.2" cy="23.8" r="5.1"/>
</g>
</svg>
