<?xml version="1.0" encoding="utf-8"?>
<!-- Generator: Adobe Illustrator 24.3.0, SVG Export Plug-In . SVG Version: 6.00 Build 0)  -->
<svg version="1.1" id="bdb04d07-607e-4453-aab0-0c653d7063a3"
	 xmlns="http://www.w3.org/2000/svg" xmlns:xlink="http://www.w3.org/1999/xlink" x="0px" y="0px" viewBox="0 0 1200 800"
	 style="enable-background:new 0 0 1200 800;" xml:space="preserve">
<style type="text/css">
	.st0{fill:#3F3D56;}
	.st1{fill:#8EF9F3;}
	.st2{opacity:0.1;enable-background:new    ;}
	.st3{fill:#FFA000;}
	.st4{fill:#2F2E41;}
	.st5{fill:#A0616A;}
	.st6{fill:#FFFFFF;}
	.st7{fill:#D0CDE1;}
	.st8{fill:#FBBEBE;}
	.st9{fill:#B3B3B3;}
	.st10{opacity:0.2;enable-background:new    ;}
	.st11{fill:#E6E6E6;}
	.st12{opacity:0.1;fill:#8EF9F3;enable-background:new    ;}
	.st13{fill:none;stroke:#565987;stroke-miterlimit:10;}
	.st14{fill:#FFD037;}
	.st15{fill:#A8A8A8;}
	.st16{fill:#65617D;}
	.st17{fill:#BE6F72;}
	.st18{fill:#E3E8F4;}
	.st19{opacity:0.1;}
	.st20{fill:none;stroke:#3F3D56;stroke-miterlimit:10;}
	.st21{fill:#FF6D00;}
	.st22{fill:#FFB8B8;}
	.st23{fill:#575A89;}
</style>
<g>
	<path class="st0" d="M324.6,227.2c-9.4,5.7-26.3,12.7-43.4,5.5l-11.1-4.7l22.3-24.9C253,159.7,256.3,92.4,299.7,53
		s110.7-36.1,150.1,7.3s36.1,110.7-7.3,150.1C410.3,239.5,363.6,246.2,324.6,227.2z M282,131.5c-0.1,24.6,10.1,48.2,28.1,64.9
		l6.1,5.8l-14,15.7c7.3-1.5,13.7-5.4,16.8-7.7l4.4-3.1l4.8,2.6c13.2,7.2,27.9,11,42.8,11c49.2,0,89.1-40,89.1-89.1
		s-40-89.1-89.1-89.1S282,82.4,282,131.5L282,131.5z"/>
	<path class="st1" d="M273.4,131.5c0-54,43.8-97.8,97.8-97.8s97.7,43.8,97.7,97.8s-43.8,97.8-97.8,97.8c-16.4,0-32.6-4.1-47-12
		c-6.8,4.8-23.3,14.4-39.6,7.5l19.6-22C284.5,184.3,273.3,158.5,273.4,131.5z"/>
	<path class="st2" d="M452.2,131.7c0-51.1-39.2-93-89.1-97.4c2.8-0.3,5.7-0.4,8.6-0.4c54,0,97.8,43.8,97.8,97.8
		s-43.7,97.8-97.7,97.8c-2.9,0-5.8-0.2-8.6-0.4C413.1,224.7,452.2,182.8,452.2,131.7z"/>
	<path class="st0" d="M145.8,363C87,363.1,39.3,315.4,39.3,256.6C39.2,197.8,86.9,150.1,145.8,150s106.5,47.6,106.5,106.5
		c0,26.5-9.9,52.1-27.7,71.7l22.3,24.9l-11.1,4.7c-17.1,7.3-34,0.2-43.4-5.5C177.9,359.4,162,363,145.8,363z M145.8,167.5
		c-49.2,0-89.1,40-89.1,89.1s40,89.1,89.1,89.1c15,0,29.7-3.7,42.8-11l4.8-2.6l4.4,3.1c3.2,2.3,9.6,6.2,16.8,7.7l-14-15.7l6.1-5.8
		c18-16.8,28.2-40.3,28.1-64.9C235,207.5,195,167.5,145.8,167.5L145.8,167.5z"/>
	<path class="st3" d="M243.6,256.7c0-54-43.8-97.8-97.8-97.8S48,202.7,48,256.7s43.8,97.7,97.8,97.7c16.4,0,32.6-4.1,47-12
		c6.8,4.8,23.3,14.4,39.6,7.5l-19.6-22C232.5,309.4,243.7,283.6,243.6,256.7z"/>
	<path class="st2" d="M65.4,256.1c0-51.1,39.2-93,89.1-97.4c-2.8-0.3-5.7-0.4-8.6-0.4c-54,0-97.8,43.8-97.8,97.8
		s43.8,97.8,97.8,97.8c2.9,0,5.8-0.2,8.6-0.4C104.6,349.1,65.4,307.2,65.4,256.1z"/>
	<path class="st4" d="M394.1,100.5C387.7,89.6,375,89.1,375,89.1s-12.3-1.6-20.2,14.9c-7.4,15.3-17.6,30.1-1.6,33.7l2.9-9l1.8,9.6
		c2.3,0.2,4.6,0.2,6.8,0.1c17-0.6,33.3,0.2,32.7-6C396.7,124.5,400.3,110.8,394.1,100.5z"/>
	<path class="st4" d="M352.3,195.1c-0.2,1.2-0.5,2.4-0.8,3.5c-0.4,1.1-1,2.2-1.4,3.3c-1.2,3.6,0.5,7.7,3,10.5c2.2,2.4,5.1,4.1,8.3,5
		c2.3,0.5,4.8,0.8,7.1,0.8c6.6,0.2,13.5,0.4,19.8-1.7c2-0.7,3.9-1.6,5.8-2.6c0.6-0.3,1.1-0.7,1.5-1.2c0.4-0.7,0.6-1.6,0.6-2.4
		c0-2.8-0.6-5.6-0.5-8.4c0.1-1.6,0.4-3.1,0.2-4.7c-0.4-3.6-3-6.6-6.6-7.4c-1.8-0.4-3.6-0.2-5.5,0c-4.7,0.5-9.5,0.7-14.2,0.7
		c-4.9-0.1-9.7-0.8-14.5-0.9c-1.4,0-1.4,0.4-1.9,1.8C352.9,192.5,352.5,193.8,352.3,195.1z"/>
	<path class="st5" d="M366,125.5c-0.3,1.2-0.5,2.5-1.2,3.5c-0.9,1.2-2.2,1.8-3.1,2.9c-1.4,1.7-1.5,4-1.5,6.2c0,2,0.1,4.1,1.2,5.7
		c0.8,1,1.8,1.9,2.9,2.5c4.1,2.8,8.6,5.6,13.6,5.7c2.1,0.1,4.3-0.5,5.7-2.1c0.6-0.7,1.1-1.6,1.4-2.4c1.3-3.1,2.1-6.5,2.3-9.9
		c0.2-1.6,0.1-3.2-0.5-4.8c-0.6-1.7-1.8-3.1-2.6-4.7c-1-1.9-1.3-4-1-6.2c0.1-0.2,0.1-0.3-0.1-0.5s-0.4-0.3-0.6-0.2l-9.9-0.7
		c-0.9-0.1-1.8-0.2-2.7-0.3c-0.6-0.1-1.9-0.9-2.5-0.7C366.5,120.1,366.2,124.5,366,125.5z"/>
	<path class="st2" d="M366,125.8c-0.3,1.2-0.5,2.5-1.2,3.5c-0.9,1.2-2.2,1.8-3.1,2.9c-1.4,1.7-1.5,4-1.5,6.2c0,2,0.1,4.1,1.2,5.7
		c0.8,1,1.8,1.9,2.9,2.5c4.1,2.8,8.6,5.6,13.6,5.7c2.1,0.1,4.3-0.5,5.7-2.1c0.6-0.7,1.1-1.6,1.4-2.4c1.3-3.1,2.1-6.5,2.3-9.9
		c0.2-1.6,0.1-3.2-0.5-4.8c-0.6-1.7-1.8-3.1-2.6-4.7c-1-1.9-1.3-4-1-6.2c0.1-0.2,0.1-0.3-0.1-0.5s-0.4-0.3-0.6-0.2l-9.9-0.7
		c-0.9-0.1-1.8-0.2-2.7-0.3c-0.6-0.1-1.9-0.9-2.5-0.7C366.5,120.4,366.2,124.8,366,125.8z"/>
	<circle class="st5" cx="375.5" cy="112.3" r="14.5"/>
	<path class="st6" d="M368,144.8c0.7,0.8,1.6,1.5,2.5,2c1,0.4,2.1,0.6,3.2,0.6c2.6,0.1,5.5-0.4,7.3-2.3c2.3-2.4,2.3-6.3,4.1-9.2
		c0.2-0.3,0.4-0.5,0.6-0.7c0.3-0.2,0.7-0.3,1-0.3c2.3,0,4.3,1.5,6.2,2.9c0.9,0.6,1.6,1.4,2.2,2.2c0.4,0.7,0.6,1.5,0.8,2.2
		c0.9,4.5,1.2,9,1.5,13.5c0.2,2.5,0.3,5,0.3,7.5c-0.1,8.2-2,16.3-3.8,24.3c-0.3,1-0.6,2.2-1.5,2.7c-0.4,0.2-0.9,0.3-1.3,0.3
		c-5.5,0.7-10.9,1.3-16.4,1.4c-2.1,0.1-4.3,0-6.4-0.2c-0.4,0-0.7-0.1-1.1-0.2c-0.5-0.2-0.9-0.6-1.2-1c-3-3.7-3.1-8.9-3.1-13.7
		c0.1-11.7,0.5-23.3,1.3-35c0.1-1,0.1-2.1-0.6-2.9C364.8,141.3,366.3,143.2,368,144.8z"/>
	<path class="st6" d="M364.9,128.1c-0.5,0.9-4.1,3.1-4.8,3.8c-3.9,4.1-11,3.9-14.6,8.3c-1.3,1.6-1.9,3.5-2.4,5.4
		c-0.7,2.7-1.1,5.7,0.1,8.3c1.1,2.5,3.4,4.2,5,6.4c1.7,2.4,2.5,5.4,3.2,8.3c0.6,2.1,1.1,4.3,0.9,6.5c-0.3,2.5-1.5,4.8-2.2,7.2
		s-0.9,5.3,0.8,7.1c1.2,1.4,3.1,1.9,4.9,2.2c2.3,0.4,4.7,0.6,7,0.6c2.1,0.1,4.3,0.1,6-1.2c1.3-1.1,1.8-2.7,1.9-4.4s-0.3-3.2-0.5-4.9
		s-0.3-3.4-0.4-5.1c-0.3-7.6-0.4-15.2-0.2-22.8c0.1-1.6,0.1-3.2-0.3-4.8c-0.5-2-1.6-3.8-2.5-5.7c-1.8-3.5-2.7-7.5-2.4-11.4
		C364.9,128,366.7,124.9,364.9,128.1z"/>
	<path class="st6" d="M385.4,128.4c0.8,0.8,3.3,1,4.2,1.5c0.9,0.4,1.8,0.8,2.8,1c3.5,1,6.8,2.5,9.8,4.5c0.6,0.4,1.2,0.9,1.6,1.4
		c0.5,0.8,0.8,1.7,0.9,2.6c0.5,2.3,0.9,4.7,0.8,7c-0.1,2.5-0.9,4.9-1.6,7.3l-2.8,8.9c-2.1,6.6-4.2,13.4-4.8,20.3
		c-0.3,3.8-0.2,7.7,0.4,11.5c0.1,0.4,0.1,0.8-0.2,1.1c-0.2,0.2-0.4,0.3-0.7,0.3c-1.4,0.2-2.6-0.5-3.8-1.1c-3.7-1.9-7.7-3.1-11.8-3.8
		c1.6-2.3,2.8-4.9,3.6-7.5c0.5-1.7,0.9-3.4,1.1-5.2l1.3-7.5c0.5-2.7,0.9-5.5,1.1-8.3c0.1-1.1,0.1-2.1-0.2-3.1
		c-0.3-1-0.7-1.9-1.2-2.8c-2.1-4.5-3.1-9.5-2.3-14.4c0.4-2.1,1.1-4.2,0.8-6.4c-0.3-2.1,0-3.6-0.5-5.7
		C382,121.6,384,126.9,385.4,128.4z"/>
	<path class="st6" d="M345.5,147.3c-1,2-2.6,3.7-3.1,5.9c-0.2,1-0.3,2.1-0.3,3.1c-0.1,1.6,0.1,3.1,0.5,4.7c0.3,1,0.8,1.8,1.2,2.8
		c0.5,1.3,0.7,2.7,0.7,4.1c-0.1,1.9-0.8,3.8-0.8,5.8c-0.1,3.1,1.3,6,2.7,8.7c1.3-3.3,5.1-4.9,8.3-3.5c0.4,0.2,0.7,0.3,1,0.5
		c0.3-0.4,0.5-0.9,0.4-1.4c0.1-3.5,0.2-7.1,0.3-10.7c0.2-5.5,0.3-11.1-1-16.4c-0.6-2.4-1.5-4.8-3.1-6.7c-0.9-1-3.8-3.6-5.2-2.5
		c-0.7,0.5-0.5,1.9-0.6,2.5C346.3,145.2,346,146.3,345.5,147.3z"/>
	<path class="st6" d="M405.9,141.4c0.4,1.5,0.6,3,0.5,4.5c0,3.1,0,6.2-0.1,9.2c0,1.6-0.2,3.1-0.6,4.7c-0.3,1-0.8,1.9-1.1,2.9
		c-1,2.9-0.5,6.2-0.4,9.3c0.1,1-0.1,2-0.3,3c-0.5,1.9-1.9,3.5-2.9,5.2c-0.9,1.7-1.5,3.5-2.6,5.1c-1.1,1.5-3,2.8-4.8,2.3
		c-1.4-0.4-2.4-1.6-3-2.8c-1.5-2.8-2-6-1.5-9.1c0.7-3.8,2.9-7.1,3.7-10.9c1.1-5.2-0.6-10.5-0.5-15.7c0-0.8,0.1-1.7,0.4-2.4
		c0.4-1.2,1.3-2.2,2.2-3.1c1.1-1.2,2-2.5,2.9-3.8c0.6-0.9,1.4-3.2,2.5-3.3C402.5,135.9,405.3,139.6,405.9,141.4z"/>
	<path class="st4" d="M333.3,192.8c-1.3-0.3-2.6-0.5-4-0.4c-5.5,0.3-9.7,5-9.4,10.5c0,0.4,0.1,0.9,0.2,1.3c0.3,1.5,0.9,3,1.6,4.3
		c1.1,2.1,2.3,4.3,4.3,5.7c1.2,0.8,2.4,1.4,3.8,1.8l10.3,3.9c1.5,0.6,3,1.2,4.6,1.7c7.7,2.7,15.7,4.2,23.9,4.8
		c2.5,0.3,5,0.1,7.4-0.4c0.6-0.1,1.1-0.4,1.5-0.8c0.2-0.4,0.3-0.7,0.4-1.1l0.7-4.5c0.2-0.6,0.1-1.3-0.1-1.9c-0.3-0.8-1-1.2-1.7-1.6
		c-6.8-3.9-14.7-6.1-20.4-11.4c-1.4-1.3-2.5-3.2-4.1-4.1c-1.9-1-4-1.5-6-2.4C341.9,196.1,337.8,193.8,333.3,192.8z"/>
	<path class="st2" d="M343.6,198.8c3.6,1.2,19.1,9.1,21.7,11.8c-0.4,0.2-12.3-6.6-12.7-6.7c-3.3-0.9-6.5-2-9.7-3.4
		c-0.6-0.3-4-1.7-3.9-2.4C339.2,197.2,342.9,198.6,343.6,198.8z"/>
	<path class="st5" d="M389.1,228.5c0.2,0,0.4-0.1,0.6-0.2c0.2-0.2,0.2-0.4,0.2-0.7v-6.1c-1.7-0.8-3.7-1.1-5.6-1.4l-8.9-1.2
		c0.2,0.1-1.4,3.8-1.2,4.3c0.5,0.9,3.7,1.7,4.7,2.1C382.1,227,385.4,228.6,389.1,228.5z"/>
	<path class="st5" d="M361.1,221.6c-1.7,0.3-3.5,0.5-4.7,1.8c-1.4,1.7-0.8,4.1-0.2,6.2c0.2,1.1,1.2,1.9,2.3,1.7h0.1
		c1.5,0.1,3.2,0.2,4.5-0.6c0.6-0.4,1.2-0.9,1.8-1.3c1-0.7,2.1-1.2,3.2-1.5c2.1-0.7,4.2-1.1,6.5-1.3c0.9-0.1,1.7-0.2,2.5-0.5
		c0.9-0.3,1.5-0.9,1.8-1.7c0.3-1.1-0.3-2.2-1-3.2c-0.7-1.3-1.6-2.4-2.7-3.3c-1.7-1.3-2.5-0.3-4.1,0.5C368,220,364.6,221,361.1,221.6
		z"/>
	<path class="st4" d="M356.7,223.1L346,220c-1.3-0.5-2.6-0.7-4-0.8s-2.7,0.5-3.6,1.5c-0.8,1-1.1,2.3-1.3,3.5l-0.5,2.7
		c-0.3,1.4-0.4,2.8-0.3,4.1c0.2,1.4,0.9,2.7,2.1,3.4c1.5,0.8,3.3,0.4,5,0.1c3.3-0.7,6.7-1.1,10.1-1.1c1.3,0,2.6,0,3.7-0.6
		c1.3-0.8,2.2-2.2,2.3-3.7C359.8,226.9,359.1,223.8,356.7,223.1z"/>
	<path class="st4" d="M393.3,220.4c1.4-0.3,2.6-1,3.9-1.5c1.9-0.7,3.9-0.7,5.9-0.7c0.7-0.1,1.5,0.1,2.1,0.4c0.9,0.6,1.1,1.7,1.3,2.8
		l0.9,6.3c0.3,1.2,0.3,2.4,0.1,3.5c-0.3,1.2-1.1,2.3-2.2,2.6c-1.4,0.4-2.8-0.5-4.1-1.1c-3.3-1.5-7.1-1.1-10.6-2.2
		c-0.7-0.2-1.3-0.6-1.6-1.1c-0.1-0.4-0.2-0.7-0.1-1.1c0.1-2-0.4-4.8,0.3-6.7C389.6,219.9,391.8,220.4,393.3,220.4z"/>
	<path class="st4" d="M415.9,190.3c2.1-0.6,4.3-0.7,6.5-0.5c1.8,0.2,3.5,0.7,4.8,1.9c1.6,1.5,2.1,3.7,2.1,5.9
		c0.1,4.2-1.4,8.4-4,11.7c-0.7,0.9-1.4,1.6-2.3,2.2c-1,0.6-1.9,1.1-3,1.4l-23.1,9.1c-6.1,2.4-12.2,4.8-18.5,6.4
		c-0.7,0.4-1.6,0.1-1.9-0.7c0,0,0,0,0-0.1c-2-2.9-3.7-6-5.1-9.3c-0.2-0.3-0.2-0.7,0.1-0.9c0.1-0.1,0.1-0.1,0.2-0.1l16.3-9.4
		c1.2-0.6,2.3-1.4,3.3-2.3c0.7-0.7,1.3-1.5,1.7-2.4c0.4-0.7,0.4-2.4,0.8-2.9s1.9-0.6,2.5-0.8c1-0.3,1.9-0.7,2.8-1.1
		c3.6-1.6,6.9-4,10.4-5.9C411.6,191.8,413.8,190.9,415.9,190.3z"/>
	<path class="st2" d="M406.7,197.3c-2.8,2.1-6.4,4-9.2,6.2c-1,0.8-16.8,9.7-17,10.8c2.6,0.5,19.1-11.1,21.5-12.3s4.5-2.8,6.5-4.4
		c0.5-0.4,2.8-1.7,1.3-2.1C408.9,195.3,407.3,196.9,406.7,197.3z"/>
	<path class="st7" d="M387.4,128.6h-24.6c-2.1,0-3.8,1.7-3.8,3.8l0,0v1.4h-0.3v3.1h0.3v2.2h-0.3v1.9h0.3v22.8c0,2.1,1.7,3.8,3.8,3.8
		l0,0h24.6c2.1,0,3.8-1.7,3.8-3.8l0,0v-31.4C391.1,130.3,389.4,128.6,387.4,128.6z"/>
	<polygon class="st4" points="391.3,99.4 378.8,92.9 361.5,95.6 357.9,111.3 366.8,111 369.3,105.2 369.3,110.9 373.4,110.7 
		375.8,101.5 377.3,111.3 391.9,111 	"/>
	<path class="st5" d="M348.8,188.2c0.6,1,1.4,1.8,2.3,2.3c1.3,0.6,2.8,0.6,4-0.1c1.2-0.7,2.2-1.7,2.9-2.9c1.4-2.4,1.6-5.3,1.5-8
		c-0.2-2.7-0.8-5.5-1-8.2c-0.2-2-0.2-4-0.2-6c-0.1-0.4,0.1-0.9,0.3-1.2c0.4-0.4,0.8-0.6,1.3-0.7c2.7-0.8,4.6-3.4,5.9-5.9
		c0.9-1.7,1.6-3.5,1.5-5.5c-0.2-1.9-1.5-3.8-3.4-4c-1.6-0.2-3,0.9-4.1,1.9c-2.8,2.8-4.7,6.4-5.2,10.4c-0.3,1.9-0.2,3.9-0.7,5.8
		c-1.1,4-4.7,6.5-6.4,10.1C345.4,180.2,346.4,184.7,348.8,188.2z"/>
	<path class="st5" d="M400.5,172.9c-0.8,1.9-2.3,3.3-4.2,4.1c-1.2,0.5-2.5,0.6-3.7,0.2s-2.2-1.2-2.7-2.4c-0.2-0.6-0.3-1.2-0.3-1.8
		c-0.2-2.7-0.1-5.5,0.9-8c0.4-1,0.9-1.9,1.2-2.9c0.3-1.2,0.5-2.3,0.5-3.5l0.3-7.4c0.1-0.6,0-1.1-0.1-1.6c-0.3-1.1-1.3-1.8-2.2-2.4
		c-2.2-1.5-4.4-3.3-5.5-5.8c-0.4-0.8-0.5-1.6-0.4-2.4c0.3-1.5,1.8-2.4,3.2-2.7c3.9-0.9,7.8,1.6,8.6,5.5c0,0.1,0.1,0.2,0.1,0.3
		c0.2,0.8,0.2,1.7,0.2,2.5c0.2,1.8,0.8,3.5,1.1,5.3c0.9,4.3,0.4,8.8,1.3,13.2C399.5,166.6,402.2,168.9,400.5,172.9z"/>
	<circle class="st3" cx="375.4" cy="142.1" r="3.1"/>
	<circle class="st4" cx="39.6" cy="244.1" r="9.1"/>
	<polygon class="st8" points="72.6,271.2 68,266.7 58.8,269.6 59.7,280.3 78.7,279.4 72.8,271.5 	"/>
	<circle class="st8" cx="62.6" cy="256.4" r="14.8"/>
	<path class="st4" d="M154.1,290.1c0,0,18.1,31.2,22.4,35.8c2.1,2.3,4.2,4.5,6.5,6.5c0,0-2,6.7-5.3,6.5c-1.8-0.1-3.6-0.6-5.3-1.3
		c0,0-1.4-3.7-3.9-5.4c-2.5-1.6-23.1-21.9-22.6-28.3C146.5,297.5,154.1,290.1,154.1,290.1z"/>
	<path class="st4" d="M89.6,334.5c0,0,19.3,15,45.6,0.9l2.3-1.7c0,0-3.8,8.6-4.1,10.9c-0.4,2.7-10.4,18.5-12,19.3s-2,1.5-2,1.5
		l6.9,7.6l2.5-1.9c0,0,9.9-14.1,12.8-16.6c2.9-2.6,16.7-29.1,16.7-29.1s5.3-10-7.9-10.7c-13.2-0.8-19.3,2.8-19.3,2.8l-23.4,3.7
		L89.6,334.5z"/>
	<path class="st4" d="M183.4,331l9.8,6.8c0,0,12.4,3.9,4.8,6.5c-7.7,2.6-27.9,3.5-28.4-0.1s0.8-9.2,1.8-8.9
		C172.3,335.6,179.4,337.4,183.4,331z"/>
	<path class="st4" d="M129.6,368.8l1.8,9.9c0,0,5.2,9.8-1,6.8s-18.9-14.6-17-17.1s6-5.1,6.4-4.2
		C120.2,364.9,123.4,370.3,129.6,368.8z"/>
	<path class="st6" d="M111,324.5c0,0-13.2,15.3-21.1,11.6c-7.9-3.7-40.6-46.8-36.9-54.8c3.7-8,5-6.3,5-6.3l16.8,1.6l-4.9-7.8
		c0,0,2.3-1.7,4.4,0.7c2.1,2.3,10.8,8.2,13.8,16.4c3,8.2,11.9,7.8,11.9,7.8L111,324.5z"/>
	<polygon class="st0" points="164,292.9 141.3,317 120.8,281 140.3,257.6 	"/>
	<polygon class="st6" points="162.3,292.6 141.7,313.9 123.1,281.1 140.2,259.6 	"/>
	<polygon class="st9" points="140.1,316.1 141.3,317 140.5,318.4 108.7,327.9 108.4,326.8 109.9,325.3 	"/>
	<polygon class="st7" points="141.5,316.8 108.6,327.1 88.5,289.2 120.8,281 	"/>
	<polygon class="st0" points="139.1,311.7 137.6,312.7 122,285.4 123.6,284.7 	"/>
	<polygon class="st0" points="135.8,313.2 121.9,317.4 106,289.3 119.8,286.1 	"/>
	<path class="st8" d="M96.5,292.4l2.9-0.8c0,0,16.1-1.8,16.3,3.2c0.3,5.1-18.5,2.7-18.5,2.7l-2.5-3.4L96.5,292.4z"/>
	<path class="st8" d="M110.6,315.1l4-1.7c0,0,12.1-5.5,8.6-9S109,307,109,307l-2.1,2L110.6,315.1z"/>
	<path class="st6" d="M107.1,307.3c0,0,6.5,6.5,5.1,8s-25.9,21.7-32,15.2c-6.1-6.4-35.6-38.8-24.1-41.6c11.5-2.8,14.5,3.7,14.5,3.7
		l15.1,25.9L107.1,307.3z"/>
	<polygon class="st6" points="87.5,287.5 98.2,291.2 98,298.9 86.7,297.7 	"/>
	<polygon class="st10" points="97.2,311.3 85.6,318.1 72.3,297.8 85.1,314.5 	"/>
	<ellipse class="st4" cx="56.1" cy="252.1" rx="17.6" ry="17.6"/>
	<polygon class="st1" points="151,294.4 138.7,276.4 143.9,270 156.7,288.5 	"/>
	<polygon class="st11" points="150.6,301.6 131.9,274.4 132.8,273.3 151.5,300.6 	"/>
	<polygon class="st11" points="148.2,304.3 129.5,277.1 130.4,275.9 149.1,303.2 	"/>
	<polygon class="st11" points="146.2,306.2 127.5,279 128.4,277.9 147,305.2 	"/>
	<path class="st4" d="M63.9,240.3h5.4c5.7,0,10.4,4.7,10.4,10.4l0,0l0,0l0,0H63.9l0,0V240.3L63.9,240.3z"/>
	<path class="st0" d="M138.7,233.7l-1-0.1c-0.1,0.5-0.1,1-0.1,1.5l-4.4-0.2l4.7,8.7l5.2-8.3l-4.5-0.2
		C138.7,234.8,138.7,234.2,138.7,233.7z"/>
	<path class="st0" d="M164.7,162.9l0.8,0.6c1.2-1.5,2.4-3.1,3.6-4.6l-0.8-0.7C167,159.8,165.8,161.4,164.7,162.9z"/>
	<path class="st0" d="M172.2,153.9l0.7,0.7c1.3-1.4,2.7-2.9,4-4.2l-0.7-0.7C174.9,151,173.5,152.4,172.2,153.9z"/>
	<path class="st0" d="M180.5,145.5l0.7,0.7c1.4-1.3,2.9-2.6,4.4-3.8l-0.7-0.8C183.5,142.9,181.9,144.2,180.5,145.5z"/>
	<path class="st0" d="M157.9,172.6l0.9,0.5c1.1-1.6,2.1-3.3,3.2-4.9l-0.8-0.6C160,169.3,158.9,171,157.9,172.6z"/>
	<path class="st0" d="M189.5,137.9l0.6,0.8c1.6-1.2,3.1-2.3,4.7-3.4l-0.6-0.8C192.7,135.6,191.1,136.7,189.5,137.9z"/>
	<path class="st0" d="M152,182.9l0.9,0.5c0.9-1.7,1.8-3.4,2.8-5.2l-0.9-0.5C153.9,179.4,152.9,181.1,152,182.9z"/>
	<path class="st0" d="M142.5,210.7l-1-0.3c-0.5,1.9-1,3.8-1.4,5.8l1,0.2C141.6,214.5,142,212.5,142.5,210.7z"/>
	<path class="st0" d="M199.2,131.2l0.5,0.8c1.6-1.1,3.3-2.1,5-3l-0.5-0.9C202.5,129.1,200.9,130.2,199.2,131.2z"/>
	<path class="st0" d="M140.1,222.1l-1-0.2c-0.3,1.9-0.6,3.9-0.8,5.8l1,0.1C139.5,226,139.8,224,140.1,222.1z"/>
	<path class="st0" d="M147.1,193.6l0.9,0.4c0.7-1.8,1.5-3.6,2.3-5.4l-0.9-0.4C148.6,189.9,147.9,191.8,147.1,193.6z"/>
	<path class="st0" d="M143.2,204.8l1,0.3c0.6-1.9,1.2-3.7,1.8-5.6l-0.9-0.4C144.3,201,143.7,202.8,143.2,204.8z"/>
	<path class="st0" d="M266,111.5c1.9-0.1,3.9-0.1,5.9-0.1v-1c-2,0-3.9,0-5.9,0.1V111.5z"/>
	<path class="st0" d="M209.4,125.3l0.5,0.9c1.7-0.9,3.5-1.8,5.3-2.6l-0.4-0.9C212.9,123.5,211.1,124.4,209.4,125.3z"/>
	<path class="st0" d="M289.4,112.8c1.9,0.3,3.9,0.6,5.8,1l0.2-1c-1.9-0.4-3.9-0.7-5.8-1L289.4,112.8z"/>
	<path class="st0" d="M300.9,114.9c1.9,0.5,3.8,0.9,5.7,1.5l0.3-1c-1.9-0.5-3.8-1-5.7-1.5L300.9,114.9z"/>
	<path class="st0" d="M312.1,118.1c1.8,0.6,3.7,1.3,5.5,2l0.4-0.9c-1.8-0.7-3.7-1.4-5.6-2L312.1,118.1z"/>
	<path class="st0" d="M277.7,111.6c1.9,0.1,3.9,0.3,5.8,0.5l0.1-1c-1.9-0.2-3.9-0.4-5.9-0.5L277.7,111.6z"/>
	<path class="st0" d="M254.2,111.4l0.1,1c1.9-0.3,3.9-0.5,5.8-0.6l-0.1-1C258.1,111,256.2,111.2,254.2,111.4z"/>
	<path class="st0" d="M231.2,116.4l0.3,1c1.9-0.6,3.7-1.1,5.6-1.6l-0.3-1C235,115.2,233,115.8,231.2,116.4z"/>
	<path class="st0" d="M220.1,120.3l0.4,0.9c1.8-0.8,3.6-1.5,5.5-2.1l-0.4-0.9C223.7,118.9,221.9,119.6,220.1,120.3z"/>
	<path class="st0" d="M242.6,113.4l0.2,1c1.9-0.4,3.8-0.8,5.8-1.1l-0.2-1C246.4,112.6,244.5,113,242.6,113.4z"/>
	<path class="st0" d="M332.4,126.1l-5.5-8.1l-1.9,4c-0.5-0.2-1-0.4-1.4-0.6l-0.4,0.9c0.5,0.2,0.9,0.4,1.4,0.6l-1.9,4L332.4,126.1z"
		/>
</g>
<g>
	<path class="st12" d="M568.9,388.7c-23.4-7.6-48.1-13.9-73.4-13.3c-37.2,0.9-72.8,18.3-90.5,43.9c-14.8,21.7-16.8,47.2-23.4,71.3
		c-8,29.7-23.3,57.9-39.5,85.5c-8.7,14.8-17.9,29.9-19.5,46.2c-2.1,22.6,11.6,45.2,33.2,60.3c21.6,15.2,50.3,23.2,79.2,25.1
		c15.4,0.9,31.4,0.2,45.1-5.3c14.4-5.8,25.1-16.5,39.6-22.2c13.5-5.4,29.2-6,44.2-5.3c19.6,0.9,39,4.3,57.7,9.9
		c21.1,6.3,40.6,15.4,61.6,21.7c20.9,6.4,44.4,10,66,4.8c20.2-4.8,36.2-16.7,50.6-28.7c23.3-19.4,45-40.5,64.7-63.5
		c13.1-15.2,25.2-31.2,31.1-48.8c11.2-33.8-3.8-72.1-37.2-95.5c-27.7-19.3-64.8-27.8-101.3-33.1c-33.2-4.7-71.6-5.3-102.1-17.4
		C625.9,412.8,599.4,398.6,568.9,388.7z"/>
	<ellipse class="st12" cx="867" cy="502" rx="14.9" ry="2"/>
	<ellipse class="st12" cx="809.7" cy="507.8" rx="14.9" ry="2"/>
	<ellipse class="st12" cx="742.2" cy="499.9" rx="14.9" ry="2"/>
	<ellipse class="st12" cx="832.7" cy="524.3" rx="10.6" ry="1.5"/>
	<ellipse class="st12" cx="773.2" cy="522.8" rx="10.6" ry="1.5"/>
	<path class="st1" d="M809.4,507.3c0,0,20.9-68.8-3.3-96.3c-18.1-20.6-38.7-18.1-48-15.6c-4.8,1.3-8.8,4.6-11.1,9.2
		c-3.3,6.9-2.6,18.2,20.1,31.5c38.1,22.1,40.5,52.4,40.5,52.4L809.4,507.3z"/>
	<path class="st13" d="M761.4,405.1c0,0,61.9,19.4,48,102.2"/>
	<path class="st13" d="M797.5,412.1c0,0-8.5,5.8-5.8,14.3"/>
	<path class="st13" d="M767.6,417.1c0,0,5.2-5.3,11.6-2.4"/>
	<path class="st13" d="M792.1,443.8c0,0,9.2-4.6,11.5,1.2"/>
	<path class="st13" d="M814.7,453.4c0,0-6.8-0.5-6.9,2.7"/>
	<path class="st1" d="M810.3,507.9c0,0-24.6-50-31.4-49c-3.3,0.5-4.7,3.7-5.4,6.8c-0.8,4.1-0.3,8.3,1.4,12.2
		C778.4,486,787.7,501.1,810.3,507.9z"/>
	<path class="st13" d="M779.1,468.4c0,0,25.8,37.4,30.7,39.1"/>
	<line class="st13" x1="776.7" y1="474.3" x2="782.8" y2="474.3"/>
	<line class="st13" x1="783.9" y1="488" x2="793.4" y2="488.4"/>
	<line class="st13" x1="789.6" y1="477" x2="788.7" y2="482"/>
	<line class="st13" x1="799.7" y1="492" x2="799.5" y2="496.5"/>
	<path class="st1" d="M809.5,507.9c0,0,24.6-50,31.4-49c3.3,0.5,4.7,3.7,5.4,6.8c0.8,4.1,0.3,8.3-1.4,12.2
		C841.4,486,832.1,501.1,809.5,507.9z"/>
	<path class="st13" d="M840.7,468.4c0,0-25.8,37.4-30.7,39.1"/>
	<line class="st13" x1="843" y1="474.3" x2="837" y2="474.3"/>
	<line class="st13" x1="835.8" y1="488" x2="826.4" y2="488.4"/>
	<line class="st13" x1="830.1" y1="477" x2="831.1" y2="482"/>
	<line class="st13" x1="820.1" y1="492" x2="820.3" y2="496.5"/>
	<path class="st1" d="M767.3,519.5c-0.6-0.5-1.2-1.3-1.4-2.1c-0.2-0.8,0.2-1.8,0.9-2.1c0.9-0.3,1.9,0.3,2.6,0.9
		c0.7,0.6,1.6,1.4,2.5,1.3c-0.9-0.9-1.5-2.2-1.2-3.6c0-0.3,0.1-0.5,0.3-0.7c0.5-0.5,1.4-0.3,2,0.1c1.9,1.4,2.4,3.9,2.4,6.2
		c0.1-0.8,0.1-1.7,0-2.6c-0.1-0.8,0.3-1.7,0.9-2.3c0.4-0.2,0.9-0.3,1.5-0.3c0.8-0.1,1.7,0.1,2.4,0.6c0.7,0.7,0.5,2.1-0.1,2.9
		c-0.7,0.7-1.6,1.5-2.4,1.9c-0.7,0.4-1.3,0.9-1.8,1.7c0,0.1-0.1,0.2-0.1,0.3h-5.5C769.4,521.1,768.3,520.4,767.3,519.5z"/>
	<path class="st1" d="M861,499.4c-0.6-0.5-1.2-1.3-1.4-2.1c-0.2-0.8,0.2-1.8,0.9-2.1c0.9-0.3,1.9,0.3,2.6,0.9
		c0.7,0.6,1.6,1.4,2.5,1.3c-0.9-0.9-1.5-2.2-1.2-3.6c0-0.3,0.1-0.5,0.3-0.7c0.5-0.5,1.4-0.3,2,0.1c1.9,1.4,2.4,3.9,2.4,6.2
		c0.1-0.8,0.1-1.7,0-2.6c-0.1-0.8,0.3-1.7,0.9-2.3c0.4-0.2,0.9-0.3,1.5-0.3c0.8-0.1,1.7,0.1,2.4,0.6c0.7,0.7,0.5,2.1-0.1,2.9
		c-0.7,0.8-1.6,1.5-2.4,2c-0.7,0.4-1.3,0.9-1.8,1.7c-0.1,0.1-0.1,0.2-0.1,0.3h-5.5C863.1,501,862,500.3,861,499.4z"/>
	<path class="st1" d="M829.7,519.5c-0.6-0.5-1.2-1.3-1.4-2.1c-0.2-0.8,0.2-1.8,0.9-2.1c0.9-0.3,1.9,0.3,2.6,0.9
		c0.7,0.6,1.6,1.4,2.5,1.3c-0.9-0.9-1.5-2.2-1.2-3.6c0-0.3,0.2-0.5,0.3-0.7c0.5-0.5,1.4-0.3,2,0.1c1.9,1.4,2.4,3.9,2.4,6.2
		c0.1-0.8,0.1-1.7,0-2.6c-0.1-0.8,0.3-1.7,0.9-2.3c0.4-0.2,0.9-0.3,1.5-0.3c0.8-0.1,1.7,0.1,2.4,0.6c0.7,0.7,0.5,2.1-0.1,2.9
		c-0.7,0.7-1.6,1.5-2.4,1.9c-0.7,0.4-1.3,0.9-1.8,1.7c0,0.1-0.1,0.2-0.1,0.3h-5.4C831.8,521.1,830.8,520.4,829.7,519.5z"/>
	<path class="st1" d="M741.2,478.8c0,0-2,2.6,0.9,6.5c2.9,4,5.4,7.3,4.4,9.8c0,0-4.4-7.4-8-7.5C735,487.5,737.2,483.2,741.2,478.8z"
		/>
	<path class="st2" d="M741.2,478.8c-0.2,0.2-0.3,0.5-0.4,0.8c-3.5,4.1-5.4,8-2,8.1c3.2,0.1,6.9,5.7,7.8,7.2c0,0.1-0.1,0.2-0.1,0.3
		c0,0-4.4-7.4-8-7.5S737.2,483.2,741.2,478.8z"/>
	<path class="st14" d="M737.5,482.2c0,0.9,0.1,1.7,0.2,1.7c0.1,0,0.2-0.7,0.2-1.7c0-0.9-0.1-0.5-0.2-0.5
		C737.5,481.6,737.5,481.2,737.5,482.2z"/>
	<path class="st14" d="M736.3,483.2c0.8,0.4,1.5,0.7,1.6,0.6c0.1-0.1-0.5-0.5-1.4-1.1c-0.8-0.4-0.5-0.1-0.5,0
		C735.8,483,735.4,482.8,736.3,483.2z"/>
	<path class="st1" d="M751.8,478.8c0,0,2,2.6-0.9,6.5c-2.9,4-5.4,7.3-4.3,9.8c0,0,4.4-7.4,8-7.5
		C758.2,487.7,755.7,483.2,751.8,478.8z"/>
	<path class="st2" d="M751.8,478.8c0.2,0.2,0.3,0.5,0.4,0.8c3.5,4.1,5.4,8,2,8.1c-3.2,0.1-6.9,5.7-7.8,7.2c0,0.1,0.1,0.2,0.1,0.3
		c0,0,4.4-7.4,8-7.5C758.2,487.7,755.7,483.2,751.8,478.8z"/>
	<path class="st14" d="M755.5,482.2c0,0.9-0.1,1.7-0.2,1.7c-0.1,0-0.2-0.7-0.2-1.7c0-0.9,0.1-0.5,0.2-0.5
		C755.4,481.6,755.5,481.2,755.5,482.2z"/>
	<path class="st14" d="M756.8,483.2c-0.8,0.4-1.5,0.7-1.6,0.6c-0.1-0.1,0.5-0.5,1.4-1.1c0.8-0.4,0.5-0.1,0.5,0
		C757.2,483,757.6,482.8,756.8,483.2z"/>
	<path class="st15" d="M754.9,494.8c0,0-5.6-0.2-7.3-1.4c-1.7-1.2-8.6-2.6-9.1-0.7c-0.4,1.9-8.4,9.6-2.1,9.7c6.3,0,14.7-0.9,16.4-2
		C754.5,499.3,754.9,494.8,754.9,494.8z"/>
	<path class="st10" d="M736.4,501.8c6.3,0,14.7-0.9,16.4-2c1.3-0.7,1.8-3.6,1.9-4.8h0.2c0,0-0.3,4.5-2,5.6c-1.7,1.1-10.1,2.1-16.4,2
		c-1.8,0-2.4-0.6-2.4-1.6C734.3,501.3,735,501.8,736.4,501.8z"/>
	<circle class="st12" cx="384.3" cy="222.7" r="14"/>
	<ellipse class="st12" cx="626.6" cy="200.6" rx="14" ry="14"/>
	<circle class="st12" cx="848.8" cy="255.9" r="14"/>
	
		<ellipse transform="matrix(1.020298e-02 -0.9999 0.9999 1.020298e-02 -30.1249 671.7959)" class="st12" cx="324.3" cy="351.1" rx="23.5" ry="23.5"/>
	
		<ellipse transform="matrix(0.9997 -2.378962e-02 2.378962e-02 0.9997 -11.0118 8.3812)" class="st12" cx="346.7" cy="467" rx="23.5" ry="23.5"/>
	<circle class="st12" cx="786.4" cy="364.8" r="23.5"/>
	<path class="st16" d="M592.4,408.8c-0.8,0.1-1.7,0-2.5,0.2c-1.4,0.3-2.7,0.8-3.9,1.6c-5.9,3.4-11.5,8-13.9,14.3
		c-0.2,0.4-0.3,0.8-0.2,1.3c0.1,0.3,0.4,0.6,0.7,0.8l2.3,2.1c0.3,0.3,0.6,0.5,1.1,0.7c0.6,0.2,1.3,0.1,1.9-0.1
		c6.3-1.5,12.9-3.2,17.4-7.8c2.1-2.2,4-5.3,7.2-5.4c1.3,0,2.5,0.5,3.8,0.6c1.3,0.1,2.8-0.4,3.2-1.7c0.1-0.6,0-1.3-0.2-1.8l-1.9-6.3
		c-0.5-1.7-5.8-1.8-7.5-1.5C596.9,406.3,595.1,408.5,592.4,408.8z"/>
	<path class="st16" d="M614.8,444.5c-0.1,2.2,0.1,4.3-0.3,6.5c-0.3,1.7-0.8,3.4-1.6,4.8c-1.2,2.5-2.6,4.8-4.4,6.9
		c-1.7,1.9-3.6,3.8-6,4.5s-5.4,0.2-6.9-1.8c-1.3-1.7-1.3-3.9-1.2-6c0.2-5.2,1.1-10.3,3.3-14.8c0.9-1.9,2.2-3.8,3.3-5.8
		c2.1-4.1,3.3-8.9,6.9-11.7c2.3,1.1,4.7,1.7,7.2,2c0.9,0.1,3.7,0.2,4,1.4c0.2,0.8-1.6,3.2-1.9,4
		C615.6,437.8,614.9,441.1,614.8,444.5z"/>
	<path class="st0" d="M589.1,351.1c0.7,2,1.8,3.9,1.9,6c0.1,1.3,0,2.6,0,3.9c0.1,1.8,0.4,3.6,0.8,5.3l3.6,14.7
		c0.5,2.2,1.1,4.5,0.8,6.7c-0.2,1.5-0.7,2.9-0.7,4.4c0.1,1.2,0.2,2.3,0.5,3.4c0.6,3.5,0.5,6.9-0.5,10.3c-0.1,0.2-0.1,0.5-0.1,0.8
		c0.1,0.4,0.5,0.6,0.8,0.8c3.9,2.1,8.1,3.6,12.5,4.2c4-9.4,6.7-19.3,8.2-29.4c0.9-6.1,1.4-12.3,2.5-18.4c0-0.3,0.2-0.6,0.4-0.9
		c0.4-0.4,1.2-0.1,1.6,0.1c6.6,3.2,12.9,6.8,19.1,11.1c4.3-5.6,5.9-12.8,4.4-19.7c-0.7-2.9-1.9-5.8-3.3-8.4
		c-1.5-3.3-3.4-6.4-5.5-9.3c-4.8-6-11.9-9.9-19.1-12.5c-4.4-1.6-8.9-2.7-13.5-4c-2.5-0.6-6.8-2.8-9.3-1.2c-2.6,1.8-4.3,6.2-5.4,9.1
		c-1.3,3.5-2,7.2-2.1,10.9C586.9,343.2,587.6,347.3,589.1,351.1z"/>
	<path class="st0" d="M641.1,368.9c-1.4,1.5-0.2,3.8-0.4,5.8c-0.2,0.9-0.5,1.8-0.9,2.5l-6.2,12.2c-1.1,1.8-1.8,3.8-2.3,5.8
		c-0.8,4.4,0.8,9.4-1.4,13.2c-0.7,1.3-1.8,2.3-2.1,3.7c-0.2,1.1,0,2.1-0.1,3.2c-0.1,1.3-0.8,2.3-1.2,3.5c-0.3,1.2-0.5,2.3-0.6,3.5
		c-0.7,4.9-3.4,9.5-7.3,12.6c-2.2,1.9-5.1,2.8-8,2.7c-2.8-0.2-5.8-2.2-6.3-5.1c-0.2-0.9-0.2-2-0.7-2.8c-0.8-1.2-2.6-1.2-3.5-2.3
		l3.2-5.3c0.9-1.6,2-3.4,2.2-5.3c0.2-2.3-0.9-4.6-0.5-6.9c0.3-2,1.8-3.6,2.2-5.6c0.5-2.4-0.5-4.8-1.2-7.3c-1.4-6,0.2-12.2,1.8-18.1
		c2.1-7.9,4.2-15.9,8.4-22.8C624.6,360.8,632.3,365.1,641.1,368.9z"/>
	<path class="st1" d="M641.2,245.5c0.5,1.4,0.2,2.8,0.1,4.3c-0.2,3.3,0.4,6.5,0.3,9.8s-1.2,6.4-1.9,9.6c-2,9.2-1.5,18.6-3.3,27.8
		c-2.2,11.4-7.9,21.9-9.1,33.4c-0.3,3.7-0.3,7.6-2.3,10.6c-11.9-5.3-23.2-11.8-33.5-19.7c2.3-16.9,4.5-33.9,4.2-51
		c-0.1-2.1,0-4.1,0.4-6.1c0.5-1.7,1.4-3.3,2.3-4.7c2.5-4.1,5.3-8,8-11.9c1.8-2.5,3.7-5.2,6.5-6.3c2.8-1.2,6.1-0.6,9.2-0.1
		c3.7,0.6,7.4,1.4,11.1,2C635.6,243.7,640.3,242.9,641.2,245.5z"/>
	<path class="st17" d="M552.6,310.4c-1.5-1.5-3.2-2.8-4.9-4.1c2.3-2.8,1.9-6.8,2.4-10.4c0.4-2.3,1.2-4.6,2.1-6.7
		c0.2-0.6,0.5-1.3,1.2-1.5c0.4,0,0.8,0,1.2,0.2c1.9,0.7,6,0.6,7.5,1.9c1.8,1.6,0.1,4.7-0.5,6.6C561,297.6,553.5,311.3,552.6,310.4z"
		/>
	<path class="st16" d="M558.1,431.2c0.9,1.6,1.6,3.4,1.9,5.2c0.1,1.8-0.5,3.9-2.1,4.8s-3.8,0.6-5.7,0.1c-8-2.6-14.5-8.5-17.9-16.2
		c-0.6-1.4-1.1-2.8-2.1-3.9c-0.7-0.6-1.7-1.3-2.5-1.7c-2.5-1.5-4.9-3.4-6.2-6c-1.3-2.6-0.6-6.2,1.8-7.9c1.6-0.8,3.4-1.2,5.1-0.6
		s3.3,1.2,4.8,2.1c2.5,1.4,5.6,2.5,7.8,4.3c1.9,1.6,3.7,3.8,5.4,5.7c1.9,2.2,3.7,4.4,5.4,6.8C554.1,424.7,558.7,430.6,558.1,431.2z"
		/>
	<path class="st16" d="M510.7,417.6c-0.2,3.3-0.8,6.5-1.7,9.6c-0.5,1.8-1.3,3.6-2.6,4.7c-1.3,0.8-2.6,1.3-4.1,1.5
		c-0.5,0.1-1.1,0.2-1.6,0.1c-0.8-0.2-1.6-0.9-2.1-1.7c-2.2-2.8-4.3-5.9-5.2-9.4c-1.3-5.1,0-10.4,2.2-15.2c0.8-1.9,2-3.6,3.5-5.1
		c1.8-1.5,4-2.5,6.3-2.8c2.4-0.5,5.4-1.5,5.5,1.4C511.2,406.5,511.2,412.1,510.7,417.6z"/>
	<path class="st0" d="M546.6,295.9c4.4,2.3,9.5,5.3,10.3,10.2c0.5,3.1-0.5,6.1-0.3,9.2c0.2,2.7,1.3,5.3,1.2,8
		c-0.1,1.3-0.3,2.5-0.6,3.8c-0.4,2.4-0.1,4.8-0.2,7.3c-0.2,5.5-2,10.6-2.9,16c-0.6,3.8-0.7,7.7-0.4,11.6c0.2,2.5,0.6,4.9,0.6,7.5
		c0,1.8-0.1,3.6-0.4,5.4c-0.8,5.6-2.6,11.1-5.2,16.1c-3.2,6.1-2.6,14-2.3,20.9c0.1,0.9,0,1.9-0.3,2.8c-0.8,1.5-2.8,1.7-4.5,1.6
		c-6.2-0.5-12-3.5-16.2-8.2c-0.6-0.6-1.1-1.4-1.2-2.2c-0.1-1.4,0.9-2.5,1.8-3.7c2.7-3.9,2-9.2,2.3-13.9c0.2-3.5,1.1-6.8,2.4-10.1
		c0.8-1.9,1.8-3.7,2-5.7c0.2-1.9-0.4-3.7-0.9-5.5l-1.9-6.2c-3.1-9.6-6-19.3-10.6-28.1c-2.9,1.9-5.2,4.9-6,8.4
		c-1.7,6.1,0.7,12.9-1.6,18.7c-0.4,0.8-0.7,1.7-0.9,2.5c-0.1,0.7-0.2,1.5-0.1,2.2c0.1,6.3,0.4,12.6,1.2,18.8c0,0.9,0.3,1.9,0.7,2.7
		c0.4,0.5,0.9,0.9,1.4,1.5c1.2,1.5,0.9,3.6,0.6,5.4l-1.3,8.6c0,0.4-0.2,0.8-0.4,1.3c-0.3,0.3-0.7,0.5-1.1,0.6
		c-4.1,1.3-8.4,1.7-12.7,1.2c-1.3-0.1-2.4-0.9-3.5-1.7c-0.1-1.3,1.5-2.1,1.6-3.5c-0.1-0.7-0.4-1.5-0.9-2c-2.4-2.7-5.3-5.6-5.3-9.3
		c0-0.9,0.2-1.9,0.2-2.8c-0.1-2.4-1.8-4.5-2.3-6.8c-0.7-2.9,0.2-5.9,0.6-8.9c0.5-4-0.1-8.1-0.6-12l-2.2-14.6
		c-0.2-2.3-0.7-4.5-1.4-6.7c-0.8-2.2-1.8-4.3-2.8-6.3c-2.1-4.2-3.8-8.6-5.5-12.9c-0.5-1.2-0.8-2.4-1.1-3.8c-0.1-2.2,1.1-4.3,2.4-6
		c2.6-3.2,6.3-5.4,10.3-6.3c0.6-0.2,1.4-0.2,2.1-0.1c0.6,0.2,1.2,0.5,1.6,0.8c10.1,6.6,22.8,8.1,34.2,4.1c0.6,0.5,1.9,0.3,2.6-0.1
		c2.1-0.9,3.8-2.5,5.6-3.9C537.8,299.3,542.3,296.9,546.6,295.9z"/>
	<path class="st0" d="M412.3,462.3c0.3,0.9,0.8,1.9,1.6,2.7c2.3,3.1,5.6,5.5,7.2,9.1c0.3,0.7,0.5,1.6,0.8,2.3
		c0.8,2.3,2.3,4.4,4.2,6.1c1.5,1.2,2.9,2.2,4.6,3.1c2.8,1.6,6,2.9,9.2,2.8c0.6,0,1.3-0.1,1.9-0.2c1.1-0.2,2-0.5,2.8-1.1
		c2.1-1.2,3.9-3.4,3.5-5.8c-0.1-0.4-0.2-0.8-0.4-1.3c-0.3-0.6-0.7-1.3-1.2-1.9c-1.1-1.5-2.2-3.1-3.8-4c-1.8-1.1-4.1-1.4-5.7-2.7
		c-0.6-0.5-1.2-1.3-1.7-2c-1.5-2.2-2.5-4.7-3.3-7.4c-0.5-1.9-0.8-4.1-2.2-5.5c-1.4-1.5-3.4-1.8-5.3-2.1c-0.6-0.1-1.3-0.2-1.9-0.2
		c-0.9,0-1.9,0.3-2.7-0.1s-1.2-1.1-2.2-0.9c-0.8,0.1-1.6,0.4-2.3,0.9C413.1,456.1,411.4,459.3,412.3,462.3z"/>
	<path class="st8" d="M435.3,465.2c0.4,2.2,1.1,4.5,2.7,6c1.1,0.9,2.6,1.5,3.2,2.8c0.5,1.3-0.1,2.9-1.1,4.2
		c-1.2,1.5-2.5,2.8-4.2,3.8c-1.4,0.8-3.1,1.5-4.6,1.2c-1.3-0.3-2.3-1.3-3.3-2.1c-2.2-2-4.5-4.2-5.7-6.9c-1.3-2.9-1.4-6.2-2.7-9.2
		c-0.8-1.7-2.1-3.2-2.6-4.9c-0.2-0.6-0.2-1.4,0-2c0.5-0.9,1.5-1.6,2.5-1.5c1.1,0,2.1,0.2,3.1,0.6c2.9,1.1,5.9,1.9,8.9,2.5
		c1.3,0.2,1.9,0.2,2.6,1.4C434.8,462.4,435.2,463.8,435.3,465.2z"/>
	<path class="st8" d="M442.9,483.8c-0.5,0.7-0.8,1.6-1.1,2.4c-0.1,0.6-0.2,1.4-0.1,2c1.1-0.2,2-0.5,2.8-1.1c2.1-1.2,3.9-3.4,3.5-5.8
		c-0.1-0.4-0.2-0.8-0.4-1.3c-0.6-0.1-1.3,0.1-1.7,0.5C444.8,481.5,443.7,482.6,442.9,483.8z"/>
	<path class="st0" d="M419.6,434.6c-0.3,0.6-0.3,1.3-0.2,1.9c0.3,1.3,1.6,2,2.8,2.6l11.4,5.6c0.8,0.3,1.6,0.7,2.3,1.3
		c1.9,1.2,3.5,2.8,5.2,4.4c1.7,1.6,3.5,2.9,5.7,3.6c2.2,0.5,4.5,0.2,6.5-0.8c1.1-0.5,2.1-1.3,2.9-2c0.7-0.6,1.5-1.5,2.1-2.2
		c0.5-0.6,0.9-1.3,1.2-2.1c0.2-1.2-0.4-2.3-1.1-3.4c-0.4-0.5-0.8-1.1-1.3-1.6c-4.3-4.7-11.4-7.3-17.5-8.2c-2.4-0.4-4.7-1.3-7.1-2
		c-2.3-0.7-4.8-1.3-7.3-0.9C423,430.9,420.5,432.3,419.6,434.6z"/>
	<path class="st2" d="M419.6,434.6c-0.3,0.6-0.3,1.3-0.2,1.9c0.3,1.3,1.6,2,2.8,2.6l11.4,5.6c0.8,0.3,1.6,0.7,2.3,1.3
		c1.9,1.2,3.5,2.8,5.2,4.4c1.7,1.6,3.5,2.9,5.7,3.6c2.2,0.5,4.5,0.2,6.5-0.8c1.1-0.5,2.1-1.3,2.9-2c0.7-0.6,1.5-1.5,2.1-2.2
		c0.5-0.6,0.9-1.3,1.2-2.1c0.2-1.2-0.4-2.3-1.1-3.4c-0.4-0.5-0.8-1.1-1.3-1.6c-4.3-4.7-11.4-7.3-17.5-8.2c-2.4-0.4-4.7-1.3-7.1-2
		c-2.3-0.7-4.8-1.3-7.3-0.9C423,430.9,420.5,432.3,419.6,434.6z"/>
	<path class="st8" d="M448.1,438.1c0.8,0.9,1.6,2.1,2.1,3.3c0.5,0.7,0.6,1.7,0.5,2.6c-0.2,0.6-0.6,1.2-1.2,1.6l-1.2,1.1
		c-0.3,0.3-0.7,0.6-1.2,0.8c-0.6,0.2-1.3,0.3-1.9,0.3c-1.5,0-3.2,0-4.4-0.9c-1.7-1.3-2-3.7-1.3-5.7c0.7-1.9,2.4-3.4,4-4.7
		C445.1,435.4,447.2,437.1,448.1,438.1z"/>
	<path class="st8" d="M455.1,444.8c-0.2,1.1-0.1,2.2,0.3,3.2c0.3,0.9,0.5,1.9,0.8,2.9l0,0c0.7-0.6,1.5-1.5,2.1-2.2
		c0.5-0.6,0.9-1.3,1.2-2.1c0.2-1.2-0.4-2.3-1.1-3.4c-0.4-0.5-0.8-1.1-1.3-1.6c-0.3,0.4-0.5,0.7-0.8,1.1
		C455.8,443.3,455.3,444.1,455.1,444.8z"/>
	<path class="st0" d="M425.3,396.6c-1.4,5.7-0.7,11.5-0.1,17.3c0.5,4.4,1.2,8.9-0.1,13.2c-0.5,1.6-1.3,3.2-0.9,4.8
		c0.5,3.1,4.2,4.2,7.3,4.8c0.8,0.2,1.8,0.3,2.7,0.2c0.9-0.2,1.8-0.7,2.4-1.3c4.3-3.2,7.7-7.6,9.5-12.6c1.2-3.4,1.6-6.9,1.9-10.5
		c0.6-6,1.2-12,0.3-18c-0.2-1.8-0.6-3.5-0.8-5.3c-0.2-3.1,0-6.1,0.5-9.2c1.2-7.5,2.8-14.8,5.1-22.1c-6.2,0.8-12.4-0.3-17.9-3.3
		c1.1,0.5-0.1,9.7-0.3,10.9c-0.4,3.8-1.1,7.6-2,11.3C431,383.7,427,389.6,425.3,396.6z"/>
	<path class="st2" d="M425.3,396.6c-1.4,5.7-0.7,11.5-0.1,17.3c0.5,4.4,1.2,8.9-0.1,13.2c-0.5,1.6-1.3,3.2-0.9,4.8
		c0.5,3.1,4.2,4.2,7.3,4.8c0.8,0.2,1.8,0.3,2.7,0.2c0.9-0.2,1.8-0.7,2.4-1.3c4.3-3.2,7.7-7.6,9.5-12.6c1.2-3.4,1.6-6.9,1.9-10.5
		c0.6-6,1.2-12,0.3-18c-0.2-1.8-0.6-3.5-0.8-5.3c-0.2-3.1,0-6.1,0.5-9.2c1.2-7.5,2.8-14.8,5.1-22.1c-6.2,0.8-12.4-0.3-17.9-3.3
		c1.1,0.5-0.1,9.7-0.3,10.9c-0.4,3.8-1.1,7.6-2,11.3C431,383.7,427,389.6,425.3,396.6z"/>
	<path class="st0" d="M458.9,363.5c2.6,7.5,2,15.7,0.9,23.6c-1.2,7.9-2.7,15.7-2.3,23.7c0.2,3.2,0.7,6.3-0.2,9.3
		c-0.5,1.5-1.2,2.8-2,4.1l-20.6,35.7c-1.1,1.9-3.1,3.1-5.2,3.3c-2.2,0.1-4.4-0.5-6.4-1.4c-1.4-0.4-2.6-1.2-3.8-2.1
		c-1.2-0.9-1.7-2.3-1.6-3.8c0.9-6.2,2.3-12.5,3.4-18.7c0.7-4.2,2.2-8.3,4.5-11.9c1.6-2.6,3.6-4.9,4.9-7.6c4-7.7,2.6-17.2-0.4-25.3
		c-3.1-8.1-7.6-15.7-10-24c-0.7-2.3-1.2-4.7-1.3-7.2c-0.1-5.1,1.9-9.9,5.4-13.5c0.5-0.5,1.2-1.1,1.9-1.3c0.8-0.2,1.7-0.2,2.5,0
		C440.1,348.7,455.1,352.5,458.9,363.5z"/>
	<path class="st8" d="M644.7,251.5c0.4,2.8-0.6,5.7-2.1,8.2c-5.5,9.2-18.2,13.3-28,8.9c-4-1.8-7.5-4.6-10.8-7.6
		c-1.2-0.9-2.3-2-2.8-3.4c-1.1-2.4,0.2-5.4,2.2-7.1s4.5-2.6,7.1-3.4C618.5,244.7,642.7,236.5,644.7,251.5z"/>
	<path class="st0" d="M639.7,242.5c7.7,6.1,18.7,12,27.5,16.5c2.9,1.6,6.2,3.3,7.3,6.5c0.5,1.7,0.4,3.6,0.2,5.4
		c-0.3,3.5-0.7,6.9-2.1,10.1c-1.6,3.7-4.3,6.8-6.5,10.2c-3.9,5.9-6.2,12.9-10.9,18.2c3.3,10.7,6.7,21.5,7.9,32.6
		c0.1,0.3,0,0.6-0.1,0.9c-0.1,0.2-0.3,0.3-0.5,0.4l-8.1,5.3c-0.8,0.5-1.7,1.2-2.3,1.9c-1.5,1.9-1.3,4.4-2.1,6.6
		c-0.9,2.1-2.7,3.8-4.9,4.5s-4.5,1.1-6.8,0.7c-2.9-0.2-5.8-1.2-8.2-2.8c-2-1.6-3.5-3.7-4.9-5.9c-1.1-1.5-1.9-3.1-2.6-4.7
		c-0.8-2.4-0.9-4.9-0.8-7.5c0-4.8,0.5-9.7,1.4-14.4c0.4-1.9,0.8-3.8,1.2-5.7c0.6-3.8,0.5-7.7,0.9-11.6c0.6-4.3,1.6-8.5,2.8-12.7
		c0.7-2.5,1.3-5.2,1.7-7.8c0.7-4.6,2.3-9.2,3.8-13.6l2.6-7.7c0.5-1.7,1.2-3.3,1.8-4.9c1.3-3.1,2.7-5.9,3.2-9.2
		c0.4-3.5-3.4-7.7-2-10.9C638.9,242.8,639.4,242.3,639.7,242.5z"/>
	<path class="st0" d="M672.4,263.7c1.8,0.8,2.7,2.7,3.5,4.6c1.5,4.2,1.8,8.7,1.1,13.1c-0.2,1.1-0.4,2.2-0.5,3.4
		c0,1.3,0.1,2.6,0.4,3.9c0.6,4.9,0,10,0.2,14.9c0.2,5.6,1.5,11.6-0.9,16.6c-1.6,3.4-4.5,5.9-7.5,8.2c-10.9,8.5-22.9,15.5-35.7,20.6
		c2.2-2.6,2.2-6.6,0.7-9.8c-1.5-3.2-4.2-5.5-7.2-7.3c3.7-0.8,7.4-2.1,10.7-3.8c6.7-3.5,12.6-8.5,18.3-13.5c0.8-0.6,1.5-1.5,1.9-2.4
		c0.6-1.9-1.1-3.8-2.1-5.5c-3.4-5.2-2.6-11.9-1.2-17.9c1.6-6.5,3.9-13.2,8.1-18.4C664.8,267.2,668.3,264.7,672.4,263.7z"/>
	<path class="st8" d="M632.3,349.3c-0.6,0.9-1.4,1.8-2.2,2.4c-1.9,1.3-4.6,0.8-6.7-0.1c-2-0.8-3.9-2-5.5-3.5
		c-0.7-0.7-1.6-1.4-2.4-1.8c-1.7-0.6-4.1-0.2-5.1-1.7c-0.1-0.2-0.2-0.3-0.1-0.5c0.1-0.5,0.8-0.7,1.4-0.7c2.6-0.2,5.2-0.9,7.5-2.3
		c-0.7-0.5-1.4-1.2-1.8-1.9c-0.2-0.3-0.3-0.6-0.3-0.9c0.1-0.3,0.3-0.7,0.5-0.9c4.2-4,10.5-5.1,15.9-2.6c0.5,0.2,0.9,0.5,1.3,0.9
		c0.2,0.4,0.4,0.8,0.4,1.3c0.4,1.8,1.9,4.5,1.4,6.3C635.7,345.3,633.5,347.5,632.3,349.3z"/>
	<path class="st0" d="M588,341.1c8.1-9.3,11.7-21.6,14.9-33.4l2.4-8.4l5.8-20.3c0.8-2.9,1.7-6,2.2-9.1c0.9-5.3,1.1-10.6,0.9-16
		c-0.1-2.2-0.6-4.4-1.5-6.4c-0.5-1.4-0.8-2.8-1.3-4.3c-0.6-2-1.5-3.9-2.6-5.7c-0.3-0.5-0.7-0.9-1.2-1.4c-0.8-0.5-1.7-0.9-2.6-1.1
		c-2.1-0.6-4.2-0.9-6.3-0.9c-2.1,0.1-4.3,0.8-5.8,2.4c-1.1,1.3-1.6,2.8-2.4,4.3c-0.4,0.5-0.7,1.2-1.1,1.8c-0.3,0.9-0.5,1.9-0.6,2.9
		c-0.3,4.1-0.6,8.2-0.8,12.2c-0.1,1.9-0.2,3.7-0.1,5.6c0.1,1.5,0.2,2.8,0.4,4.3l1.6,14.1c0.3,3.4,0.1,6.4,0.4,9.8
		c0.7,8-1.1,16.1-2.7,24c-0.8,3.8-1.7,7.6-3.6,10.9c-1.6,3.1-4,6.1-3.4,9.4c0.2,1.2,0.8,2.2,0.9,3.5c0,0.7,0,1.5,0.2,2.2
		c0.5,0.9,1.7,1.5,2.7,1.3C585.9,342.7,587.2,342.1,588,341.1z"/>
	<path class="st8" d="M589.1,303.8c0.2,1.9,0.1,3.8,0.1,5.6c0.2,2.4,0.6,4.8,1.3,7.2c0.6,2.6,1.5,5.5,3.8,6.9
		c0.5,0.3,1.2,0.6,1.7,1.1s0.7,1.1,0.5,1.7l-1.8-0.3c0.8,0.6,0.9,1.8,0.3,2.5c-0.6,0.8-1.8,0.9-2.5,0.3c-0.1-0.1-0.2-0.2-0.3-0.3
		c0.1,0.6,0,1.2-0.2,1.7s-0.7,0.9-1.3,0.9c-0.3,0-0.6-0.2-0.9-0.4l-4.6-2.8c-1.4-0.7-2.5-1.9-3.4-3.3l-2-3.1
		c-0.4-0.6-0.8-1.3-1.1-1.9c-0.7-2.6,1.4-5.5,0.2-7.9c-0.3-0.6-0.7-1.2-1.2-1.7c-2.3-3.3-2.2-7.7-1.9-11.7c0.1-1.4,0.3-2.9,1.6-3.6
		c0.9-0.4,2.1,0,3.1,0.5s1.7,1.4,2.7,1.7c0.6,0.2,1.4,0.2,2,0.5c0.9,0.3,1.8,1.6,2.3,2.3C588.4,301.1,588.9,302.5,589.1,303.8z"/>
	<path class="st17" d="M532.3,245.7c-0.5,1.3-1.4,2.4-2.3,3.4c-0.9,1.1-2.4,1.5-3.8,1.3c-1.5-0.3-2.5-1.5-3.5-2.6
		c-2.5-2.9-5.1-5.9-6.6-9.4c-2.5-5.3-2.9-11.3-3.4-17.2c-0.1-1.5-0.2-3.1,0.5-4.4c0.9-1.7,2.8-2.4,4.6-3.2l9.9-3.7
		c0.6-0.3,1.3-0.4,1.9-0.3c1.6,0.2,2.1,2.1,2.5,3.7c0.7,2.7,2,5.3,3.7,7.5c2.2,2.9,7.2,6.9,4.3,10.6
		C537,235.9,534.8,240.7,532.3,245.7z"/>
	<path class="st18" d="M545,228.9c4.3,4.1,5.8,10.4,5.6,16.3c-0.2,5.9-1.9,11.7-2.8,17.6c-0.9,5.9-1.2,12.1,1.4,17.5
		c0.8,1.9,2.1,3.6,2.6,5.5c0.5,1.9,0.6,3.9,0.5,5.9c0,2.1-0.4,4.2-1.2,6.1c-1.4,3.1-4.2,5.2-6.9,7.2c-5.6,4-11.2,8.1-17.7,10.2
		c-4.4,1.4-9.1,1.9-13.7,2.1c-3.2,0.2-6.2,0.2-9.4-0.3c-5.5-0.9-10.4-3.6-14.2-7.5c-0.6-0.6-1.2-1.4-1.6-2.2
		c-0.4-1.1-0.6-2.2-0.5-3.4c-0.1-4.2-0.1-8.5,0.1-12.7c0.1-4,0.6-8.1,1.7-12c1.3-4.5,3.4-8.7,5.1-13.2c5.7-15.4,5.1-32.8,12.9-47.2
		c1.7-3.1,4.5-6.3,8-5.9c0.6,0,1.3,0.3,1.8,0.8c0.4,0.6,0.6,1.3,0.6,2c0.8,6.9,2,14.1,5.3,20.4c1.3,2.4,3.3,6.2,6.2,6.8
		c2.9,0.6,4.7-2.2,6.3-4.2C537.9,235,541.3,231.6,545,228.9z"/>
	<path class="st0" d="M565.6,218.4c0.8,0.5,1.7,1.1,2.4,1.7c1.9,1.8,2.6,4.6,2.6,7.4c0,2.6-0.6,5.3-1.1,7.9
		c-1.1,7.2-0.1,14.4,0.2,21.6c0.1,1.2,0.1,2.3-0.2,3.5c-0.3,1.1-0.9,2-1.4,3.1c-1.3,3.2-0.3,6.6-1.1,10c-0.7,3.5-3.5,6.6-2.9,10.2
		c0.2,1.4,0.8,2.6,1.2,4c0.3,1.4,0,3.1-1.2,3.8c-1.2,0.7-2.9,0.2-4.3,0.6c-0.5,0.2-1.2,0.4-1.7,0.7c-2.2,0.9-4.7,0.6-6.9-0.4
		c-2.1-1.2-4-2.6-5.6-4.4c-2.4-2.5-4.8-5.3-5.9-8.6c-1.6-4.8-0.2-10.2,1.6-15.1c1.7-4.8,3.8-9.7,3.5-14.8c-0.2-2.8-1.1-5.7-1.6-8.4
		c-0.6-3.9-0.9-7.9-0.7-11.9c0.1-2.9,0.3-5.9,1.6-8.5c1.8-3.6,5.3-5.9,9.3-6.3C557.9,213.8,561.8,216.2,565.6,218.4z"/>
	<path class="st2" d="M553.4,281c0,2.1,0.4,4.1,1.1,6.1c1.2-2.6,1.3-5.6,1.5-8.5c0.6-9.9,2.8-19.3,5.2-28.8
		c-1.7,1.3-2.6,4.5-3.5,6.5C554.5,264.1,553,272.5,553.4,281z"/>
	<path class="st0" d="M509.7,211.9c-3.2,0.8-5.8,2.6-8.8,3.9c-3.2,1.3-6.5,1.9-9.8,2.6c-7.6,1.9-15.3,5.3-19.9,11.7
		c-3.4,4.6-4.8,10.4-7.2,15.8c-1.9,4.4-4.5,8.6-6,13.3c-1.9,6-1.7,12.5-1.2,18.8c0.4,5.2,0.9,10.4,3.3,15.1c1.3,2.4,2.9,4.5,4.1,6.9
		c1.5,2.8,2.2,6.1,3.5,9.1c1.3,2.9,3.1,6,5.9,7.5l4.7-2.7c7.1-4.1,14.1-8.2,20.9-12.7c6-3.9,12-8.3,15.2-14.7
		c2.8-5.7,3.1-12.2,2.3-18.5c-0.7-6.2-2.4-12.4-3.3-18.6c-1.1-7.9-0.9-15.8,0.5-23.7c0.6-3.5,2.4-7.2,2.7-10.6
		C517.3,211.1,512.5,211.2,509.7,211.9z"/>
	<path class="st8" d="M480.6,314.9c3.6,3.5,8.8,4.4,13.4,6.5c3.4,1.6,6.4,3.8,8.9,6.5c1.4,1.6,2.7,3.6,2,5.6
		c-0.6,1.7-2.4,2.5-4.1,3.2c-2.1,0.7-4.3,1.5-6.4,0.6c-1.2-0.4-2.2-1.4-3.3-2c-2.7-1.6-6.1-1.6-8.9-3.2c-3.9-2.1-5.9-6.7-9.6-9.2
		c-2-1.4-4.8-2.4-5.1-4.9c0-0.8,0.2-1.8,0.5-2.5c0.7-2,2-8.7,4.8-8.6C476,307,478.2,313.2,480.6,314.9z"/>
	<path class="st8" d="M461.6,284.6c1.2,4.2,3.9,7.9,6.8,11.3c2,2.4,4.3,5.1,4.4,8.2c0.1,3.1-1.9,5.8-4.5,7.3c-2.6,1.5-5.7,2-8.6,2.2
		c-2.4,0.2-4.8,0.1-7.2-0.5c-5.9-1.6-10-6.7-14.6-10.7c-2.7-2.3-5.9-4.4-8-7.4c-2.1-2.9-3.1-7.2-0.9-10.2c0.7-0.9,1.6-1.8,2.6-2.6
		c3.6-3.1,6.5-6.7,8.9-10.7c0.9-1.6,1.9-3.4,3.5-4.3c2.3-1.4,5.3-0.7,7.9-0.1c2.8,0.7,10.8,2.2,11.4,5.8c0.2,1.5-1.6,3.8-1.9,5.4
		C460.9,280.4,461,282.5,461.6,284.6z"/>
	<path class="st3" d="M476.2,292.7c0.8,1.6,1.6,3.2,2.1,4.8c2,6.8-1.6,13.9-3.3,20.8c-2.1,8.8-1.3,18.2-1.4,27.4
		c0,4.2-0.5,8.7-3.5,11.7c-0.7,0.7-1.7,1.4-2.2,2.3c-0.3,0.6-0.5,1.4-0.7,2.1c-1.7,5.9-7.8,9.3-13.7,7.6c-0.8-0.2-1.6-0.5-2.3-0.9
		c-2.4-1.4-4.6-3.7-7.4-3.8c-0.8,0-1.8,0.1-2.6,0.3c-2.8,0.3-5.6-0.7-8.2-1.8c-0.6-0.2-1.2-0.5-1.7-0.9c-0.4-0.4-0.7-1.1-1.3-1.5
		c-1.6-1.7-4.3-1.5-6.6-1.9c-3.5-0.7-6.2-3.6-7.1-7.1c-0.4-2.2-0.1-4.5,0.3-6.7l1.7-10c0.7-3.7,1.3-7.4,1.5-11.2
		c0.2-4.2-0.1-8.4-1.1-12.5c-0.7-3.4-1.9-6.6-2.3-10.1c-0.7-6.1,0.9-12.3,4.5-17.4c0.9-1.3,2.1-2.4,3.6-2.6c1.3-0.1,2.4,0.5,3.5,1.2
		c9.4,5.5,18.7,10.9,28.2,16.2c2.6,1.5,5.3,2.9,8.1,3.7c0.8,0.2,2.1,0.1,2.2-0.7c0-0.3-0.1-0.6-0.2-0.9c-1.6-3.2-4-5.8-5.8-8.7
		c-1.9-2.9-3.3-6.5-2.7-9.9c0.7-4.7,5.2-7.9,8.8-4.2C470.9,282.1,473.5,287.4,476.2,292.7z"/>
	<path class="st8" d="M447.2,353.1c7.6,0.5,15.4,1.1,22.4,3.9c2.2,0.9,4.6,2.1,7.1,1.6c1.2-0.3,2.3-0.9,3.3-1.7
		c2.9-2.1,5.7-4.5,8.3-7.1c-0.2-1.4-2.2-1.6-3.6-1.6c-3.5,0-6.9-0.8-10.1-2.4c-1.1-0.6-2.1-1.2-3.3-1.5c-3.1-0.8-6.2,0.7-9.3,1.6
		c-4.5,1.2-9.4,0.5-14.1-0.2l-12.6-1.9c-1.2-0.2-2.5-0.3-3.5,0.4c-0.6,0.6-1.1,1.4-1.3,2.2c-1.6,5.2-0.8,5.6,4.3,5.9L447.2,353.1z"
		/>
	<circle class="st2" cx="619.3" cy="242.5" r="20.7"/>
	<ellipse class="st8" cx="619.2" cy="241.6" rx="20.7" ry="20.7"/>
	<path class="st0" d="M636.6,215.3c1.7,1.1,3.4,2.1,4.3,3.9c0.5,1.2,0.8,2.4,1.2,3.6c1.2,3.9,4.1,7.3,4.3,11.3
		c0.2,4.4-3.2,8.3-6.9,10.6c-0.8,0.6-1.9,0.9-2.9,0.9c-1.1-0.1-2-0.7-3.1-1.2c-4.2-1.9-9.1,0.5-13.5,1.6c-4.6,1.2-9.6,0.8-14.1-0.8
		c-2.4-0.9-4.7-2.3-6.3-4.4c-1.5-2.1-2.1-5.1-0.7-7.3c0.6-1.2,1.7-2.2,1.7-3.5c0-0.8-0.5-1.5-0.6-2.3c-0.2-1.3,0.4-2.4,1.1-3.5
		c2.9-4.8,6.7-9.2,11.2-12.6c1.3-1.1,2.8-2.1,4.5-2.2c3.4-0.1,6.3,2.4,9.8,2.4C630.4,211.8,633.2,213.2,636.6,215.3z"/>
	<circle class="st2" cx="542.9" cy="215.8" r="21.4"/>
	<circle class="st17" cx="543.2" cy="215.3" r="21.4"/>
	<path class="st0" d="M554.7,227.4c3.1,1.7,6.7,1.5,10.1,0.7c1.9-0.3,3.7-1.2,5.3-2.2c1.6-1.2,2.6-2.9,2.6-4.9
		c0-2.2-1.5-4.1-1.6-6.3c-0.2-2.7,1.6-5.3,1.8-8c0.2-2.7-1.2-5.3-2.5-7.6c-2.3-4-4.6-8.1-8.1-11.3c-3.5-3.1-8.2-5.1-12.7-4
		c-2.2,0.5-4.3,1.7-6.5,1.9c-2,0.2-4-0.4-6-0.6c-2-0.2-4.3-0.1-5.7,1.3c-0.8,0.7-1.3,1.9-2.2,2.4c-0.6,0.3-1.3,0.5-1.9,0.7
		c-2.3,0.9-3.4,3.6-4.2,5.9l-5.6,15.9c1.9,1.3,4.1,1.9,6.1,2.8c2,0.9,4,2.6,4.4,4.8c0.3,1.7-0.3,3.7,0.7,5.1
		c0.9,1.3,2.7,1.5,4.3,1.3c1.6-0.2,3.2-0.7,4.6-0.5c3.9,0.6,5.4,2.9,8.9,0C550.1,221.8,551.3,225.5,554.7,227.4z"/>
	<circle class="st2" cx="452.4" cy="263.5" r="19.5"/>
	<circle class="st8" cx="453.2" cy="262.5" r="19.5"/>
	<path class="st0" d="M468,243.4c-4.6-3.6-9.8-6.3-15.4-8.1c-3.6-1.2-7.4-1.9-11.1-0.8c-4.8,1.4-11.4,3.5-14.4,7.6
		c-1.5,2-2.9,4.1-3.7,6.5c-1.5,4.8,0.6,10,0.4,15.1c-0.2,5.9-3.3,11.3-6.6,16c-3.4,4.8-4.1,11.7-6.1,17.2c-0.7,1.9-0.9,4.5,0.8,5.5
		c1.6,0.8,3.5-0.2,4.8-1.3l8.6-6.2c0.6-0.5,1.5-0.9,2.3-1.3c1.8-0.4,3.5,0.7,5.1,1.8l18.1,12.8c0.7-1.5,0.7-3.2,0.1-4.7
		c1.7,0.5,2.9,1.9,4.4,2.9s3.8,1.4,4.8-0.1c1.1-1.4,0.3-3.3-0.9-4.4c-1.3-1.2-2.8-1.8-4-2.9c-2.3-2.3-2.6-6-4.1-8.9
		c-1.1-2.1-2.7-3.8-3.6-6c-1.3-3.6,0.4-7.5,1.9-10.9c1.9-4.1,4-8.5,8-10.6c1.4-0.7,2.8-1.2,4.2-1.8c3.4-1.7,7.7-5.5,9.4-8.9
		C472.8,248.4,470.6,245.4,468,243.4z"/>
	<path class="st2" d="M438.7,307.6c1.9,1.2,4,1.9,5.8,3.2c1.8,1.3,3.5,3.2,3.5,5.3c0,2.1-1.3,4-2.6,5.6l-15.8,20.7l8,2.1
		c-1.3,1.8-1.6,4.1-2.3,6.2c-0.6,2.1-1.9,4.3-4.1,4.8c-1.9,0.5-4-0.5-6-0.4c-1.5,0.1-2.8,0.8-4.3,0.8c-1.9,0.1-3.7-0.9-5.3-2
		c-3.6-2.4-7.1-5.8-7.1-10.1c0.1-1.5,0.4-2.8,0.8-4.2c2.3-7.6,4.7-15.4,9.6-21.7c2.6-3.4,5.8-6.2,8.9-9.1c0.7-0.7,1.6-1.3,2.5-1.7
		c2.1-0.7,4.3,0.2,6.5,0.8c2.1,0.6,4.8,0.7,6.1-1.2"/>
	<path class="st3" d="M437.9,306.4c1.9,1.2,4,1.9,5.8,3.2c1.8,1.3,3.5,3.2,3.5,5.3c0.1,2.2-1.3,4-2.6,5.6L428.8,341l8,2.1
		c-1.3,1.8-1.6,4.1-2.3,6.2c-0.6,2.1-1.9,4.3-4.1,4.8c-1.9,0.5-4-0.5-6-0.4c-1.5,0.1-2.8,0.8-4.3,0.8c-1.9,0.1-3.7-0.9-5.3-2
		c-3.6-2.4-7.1-5.8-7.1-10c0.1-1.5,0.3-2.8,0.8-4.2c2.3-7.6,4.7-15.4,9.6-21.7c2.6-3.4,5.8-6.2,8.9-9.1c0.7-0.7,1.6-1.3,2.5-1.7
		c2.1-0.7,4.3,0.2,6.5,0.8c2.2,0.6,4.8,0.7,6.1-1.2"/>
	<g class="st19">
		<path d="M600.1,236.6c1.5,2.1,3.9,3.5,6.3,4.4c4.5,1.7,9.5,2,14.1,0.8c4.5-1.1,9.3-3.5,13.5-1.6c1.1,0.4,1.9,1.2,3.1,1.2
			c1.1,0,2.1-0.4,2.9-1.1c2.6-1.6,5.1-4,6.2-6.7c0,0.1,0,0.3,0,0.4c0.2,4.4-3.2,8.3-6.9,10.6c-0.8,0.6-1.9,0.9-2.9,0.9
			c-1.1-0.1-2-0.7-3.1-1.2c-4.2-1.9-9.1,0.5-13.5,1.6c-4.6,1.2-9.6,0.8-14.1-0.8c-2.4-0.9-4.7-2.3-6.3-4.4c-1.5-2.1-2.1-5.1-0.7-7.3
			l0.1-0.2C599.1,234.6,599.5,235.6,600.1,236.6z"/>
		<path d="M601,225.7c0,0.9-0.5,1.8-1.2,2.6c-0.1-0.2-0.1-0.4-0.2-0.6c-0.2-1.2,0.3-2.3,0.9-3.3C600.9,224.9,601,225.3,601,225.7z"
			/>
	</g>
	<path class="st2" d="M524.3,193.4l-5.6,15.9c1.9,1.3,4.1,1.9,6.1,2.8c2,0.9,4,2.6,4.4,4.8c0.3,1.7-0.3,3.7,0.7,5.1
		c0.9,1.3,2.7,1.5,4.3,1.3c1.6-0.2,3.2-0.7,4.6-0.5c3.9,0.6,5.4,2.9,8.9,0s4.9,0.5,8.2,2.4c3.1,1.7,6.7,1.5,10.1,0.7
		c1.9-0.3,3.7-1.2,5.3-2.2c0.2-0.2,0.4-0.4,0.6-0.6c-0.5,1.1-1.3,2-2.2,2.7c-1.6,1.2-3.4,1.9-5.3,2.2c-3.4,0.7-7.2,0.9-10.1-0.7
		c-3.4-1.9-4.7-5.3-8.2-2.4s-5.1,0.5-8.9,0c-1.6-0.2-3.2,0.3-4.6,0.5s-3.4,0-4.3-1.3c-0.9-1.4-0.4-3.4-0.7-5.1
		c-0.4-2.2-2.4-3.8-4.4-4.8c-2-0.9-4.3-1.6-6.1-2.8l5.6-16c0.6-1.8,1.4-3.7,2.6-4.9C525,191.5,524.7,192.4,524.3,193.4z"/>
	<g class="st19">
		<path d="M452.6,304.1c1.5,0.6,3.3,0.7,4.1-0.4c1.1-1.3,0.3-3.3-0.9-4.4s-2.8-1.8-4-2.9c-2.3-2.3-2.6-6-4.1-8.9
			c-1.1-2.1-2.7-3.8-3.6-6c-1.3-3.6,0.4-7.5,1.9-10.9c1.9-4.1,4-8.5,8-10.6c1.4-0.7,2.8-1.2,4.2-1.8c3.4-1.7,7.7-5.5,9.4-8.9
			c1.4-2.9-0.5-5.8-2.9-7.7c1.2,0.7,2.3,1.6,3.4,2.3c2.5,1.9,4.7,4.8,3.3,8c-1.7,3.5-5.9,7.4-9.4,8.9c-1.4,0.6-2.8,1.1-4.2,1.8
			c-4,2.1-6.1,6.5-8,10.6c-1.6,3.5-3.2,7.4-1.9,10.9c0.7,2.2,2.4,3.9,3.6,6c1.5,2.9,1.7,6.6,4.1,8.9c1.2,1.2,2.7,1.9,4,2.9
			c1.3,1.2,1.9,3.2,0.9,4.4c-0.9,1.4-3.4,1.1-4.8,0.1C454.4,305.6,453.6,304.8,452.6,304.1z"/>
		<path d="M413.3,298.4l8.6-6.2c0.6-0.5,1.5-0.9,2.3-1.3c1.8-0.4,3.5,0.7,5.1,1.8l18.1,12.8c0.7-1.5,0.7-3.3,0.1-4.7
			c1.7,0.5,2.8,1.9,4.3,2.8c-0.2-0.1-0.4-0.2-0.6-0.2c0.6,1.5,0.6,3.3-0.1,4.7L433,295.3c-1.5-1.1-3.3-2.2-5.1-1.8
			c-0.8,0.2-1.6,0.6-2.3,1.3L417,301c-1.5,1.1-3.3,2.1-4.8,1.3c-0.8-0.5-1.4-1.5-1.4-2.5C411.6,299.4,412.4,298.9,413.3,298.4z"/>
	</g>
	<path class="st18" d="M629.2,340.6c0,0-37.1,2.9-44.5-2.3l33.9-5.3L629.2,340.6z"/>
	<path class="st2" d="M629.2,340.6c0,0-37.1,2.9-44.5-2.3l33.9-5.3L629.2,340.6z"/>
	<path class="st18" d="M629.2,340.6l-10.4-6.5c0,0-31.1,8.9-39.5,5.3l8.6-12.1l30.7,6L629.2,340.6z"/>
	<path class="st0" d="M583.1,253.4c-1.2,1.5-2.1,3.1-2.7,4.7c-0.3,0.9-0.4,1.9-0.7,2.8c-0.7,2.3-1.8,4.5-3.3,6.4
		c-3.2,4.6-7.2,9.2-8,14.7c-0.4,2.7,0,5.6,0.6,8.3c0.3,1.8,0.8,3.6,1.6,5.3c0.8,1.8,2,3.4,2.9,5.1c0.8,1.7,1.6,3.5,2.2,5.3
		c1.2-1.2,1.8-2.6,2.6-3.9c0.8-1.3,2.2-2.4,3.8-2.5c1.8,0,3.3,1.5,5.1,1.7c0.3,0.1,0.5,0,0.8-0.1c0.6-0.3,0.7-1.2,0.6-1.9
		c-0.5-4.8-3.3-9.7-2-14.4c1.3-4.4,5.6-7.2,7.9-11.1c1.7-2.8,2.1-6.2,2.6-9.5c0.5-3.9,1.2-7.9,0.8-11.8c-0.1-2-1.7-14.5-4.6-13.3
		c-1.1,0.4-1.9,2.4-2.5,3.3l-2.6,3.7L583.1,253.4z"/>
	<polygon class="st18" points="505.6,334.5 484.8,351.4 458,346.6 476,332.5 	"/>
	<polygon class="st2" points="506.3,333.4 485.5,350.4 458.8,345.5 476.8,331.3 	"/>
	<polygon class="st18" points="506.2,332.5 485.4,349.4 458.6,344.7 476.7,330.5 	"/>
	<polygon class="st2" points="506.9,330.5 486,347.4 459.2,342.7 477.3,328.5 	"/>
	<polygon class="st18" points="506.7,329.6 485.8,346.6 459.1,341.7 477.1,327.6 	"/>
	<path class="st0" d="M780.7,561.3L780.7,561.3c1.7-0.8,3.7-0.1,4.5,1.6c0.2,0.4,0.3,0.7,0.3,1.2l1.2,15.1l-6.8,1.3l-3.6-10.8
		L780.7,561.3z"/>
	<path class="st0" d="M540.1,460.6L434.9,514c-3.6,1.8-5.1,6.2-3.2,9.9c0.7,1.4,1.9,2.5,3.3,3.3l226.7,113.8
		c8.2,4.1,17.9,3.9,25.9-0.6l95.5-53.8c3.5-2,4.7-6.5,2.7-10c-0.7-1.3-1.8-2.3-3.2-2.9l-236-113.1
		C544.6,459.5,542.1,459.5,540.1,460.6z"/>
	<path class="st0" d="M434.1,504.7l-3.3,2.4l-0.3,11.8c0,1.9,0.9,3.6,2.6,4.4l230.5,118.3c1.7,0.8,3.8,0.2,4.6-1.5
		c0.2-0.5,0.4-1.1,0.4-1.6v-17.1L434.1,504.7z"/>
	<path class="st18" d="M540.1,447l-105.3,53.4c-3.6,1.8-5.1,6.2-3.2,9.9c0.7,1.4,1.9,2.5,3.3,3.3l226.7,113.8
		c8.2,4.1,17.9,3.9,25.9-0.6l95.5-53.8c3.5-2,4.7-6.5,2.7-10c-0.7-1.3-1.8-2.3-3.2-2.9l-236-113.1C544.6,446,542.1,446,540.1,447z"
		/>
	<polygon class="st0" points="561.9,456.7 445.9,515.5 645.2,615.2 764.8,554.5 	"/>
	<ellipse class="st0" cx="718.2" cy="589.9" rx="12.2" ry="7.3"/>
	<path class="st0" d="M495.1,474.4c0.6,0,1.2,0.5,1.2,1.2c0,0.6-0.5,1.2-1.2,1.2c-0.6,0-1.2-0.5-1.2-1.2
		C493.9,474.9,494.4,474.4,495.1,474.4z"/>
	<circle class="st0" cx="491.7" cy="484.3" r="1.4"/>
	<line class="st20" x1="496.7" y1="482.1" x2="510.2" y2="475.8"/>
	<path class="st21" d="M578.7,533.7l38.3-22.1c5.6-3.3,12.7-1.3,15.9,4.3l0,0c3.3,5.6,1.3,12.7-4.3,15.9l-38.3,22.1
		c-5.6,3.3-12.7,1.3-15.9-4.3l0,0C571.2,544.1,573.1,536.9,578.7,533.7z"/>
	<path class="st1" d="M613,551.1l38.3-22.1c5.6-3.3,12.7-1.3,15.9,4.3l0,0c3.3,5.6,1.3,12.7-4.3,15.9l-38.3,22.1
		c-5.6,3.3-12.7,1.3-15.9-4.3l0,0C605.5,561.6,607.4,554.4,613,551.1z"/>
	<path class="st1" d="M547.6,513.7l38.3-22.1c5.6-3.3,12.7-1.3,15.9,4.3l0,0c3.3,5.6,1.3,12.7-4.3,15.9l-38.3,22.1
		c-5.6,3.3-12.7,1.3-15.9-4.3l0,0C540.1,524,542,516.8,547.6,513.7z"/>
</g>
<g>
	<path class="st0" d="M1008.6,633.5h-88.4c4.1-44.4,6.7-86.3,0-113.6h88.4C1007.1,555.3,1007.2,593.4,1008.6,633.5z"/>
	<rect x="935.9" y="537.8" class="st21" width="56.8" height="37.9"/>
	<rect x="930.9" y="589" class="st1" width="66.9" height="1.3"/>
	<rect x="930.9" y="594.7" class="st1" width="66.9" height="1.3"/>
	<rect x="930.9" y="600.3" class="st1" width="66.9" height="1.3"/>
	<rect x="930.9" y="606" class="st1" width="66.9" height="1.3"/>
	<rect x="930.9" y="611.7" class="st1" width="66.9" height="1.3"/>
	<path class="st1" d="M1035.6,622.2c-0.6,0-1.3,0.2-1.8,0.6c-1.5-4-3.9-6.6-6.5-6.6s-5,2.6-6.5,6.6c-0.5-0.4-1.1-0.6-1.8-0.6
		c-3,0-5.4,5.1-5.4,11.3h27.4C1041,627.2,1038.6,622.2,1035.6,622.2z"/>
	<path class="st0" d="M1039.7,633.5H1001v-0.6c0-9,3.6-16.1,8.1-16.1c0.7,0,1.5,0.2,2.1,0.5c2.3-5.6,5.6-8.7,9.2-8.7
		s6.9,3.1,9.2,8.7c0.6-0.4,1.4-0.5,2.1-0.5c4.5,0,8.1,7.1,8.1,16.1L1039.7,633.5z M1002.2,632.2h36.3c-0.1-7.7-3.2-14.2-6.8-14.2
		c-0.7,0-1.5,0.3-2.1,0.7l-0.7,0.5l-0.3-0.8c-2.1-5.5-5.1-8.6-8.3-8.6s-6.2,3.1-8.3,8.6l-0.3,0.8l-0.7-0.5c-0.6-0.5-1.3-0.7-2.1-0.7
		C1005.4,618,1002.4,624.5,1002.2,632.2L1002.2,632.2z"/>
	<path class="st1" d="M909.3,622.2c-0.6,0-1.3,0.2-1.8,0.6c-1.5-4-3.9-6.6-6.5-6.6s-5,2.6-6.5,6.6c-0.5-0.4-1.1-0.6-1.8-0.6
		c-3,0-5.4,5.1-5.4,11.3h27.4C914.7,627.2,912.3,622.2,909.3,622.2z"/>
	<path class="st0" d="M913.5,633.5h-38.7v-0.6c0-9,3.6-16.1,8.1-16.1c0.7,0,1.5,0.2,2.1,0.5c2.3-5.6,5.6-8.7,9.2-8.7
		c3.6,0,6.9,3.1,9.2,8.7c0.6-0.4,1.4-0.5,2.1-0.5c4.5,0,8.1,7.1,8.1,16.1L913.5,633.5L913.5,633.5z M876,632.2h36.2
		c-0.1-7.7-3.2-14.2-6.8-14.2c-0.7,0-1.5,0.3-2.1,0.7l-0.7,0.5l-0.3-0.8c-2.1-5.5-5.1-8.6-8.3-8.6c-3.2,0-6.2,3.1-8.3,8.6l-0.3,0.8
		l-0.7-0.5c-0.6-0.5-1.3-0.7-2.1-0.7C879.1,618,876.1,624.5,876,632.2L876,632.2z"/>
	<path class="st3" d="M1184.5,537.3c0,37.3-30.2,67.6-67.5,67.6c-37.3,0-67.6-30.2-67.6-67.5c0-36.7,29.3-66.8,66.1-67.6
		c0.2,0,0.4,0,0.6,0c0.3,0,0.6,0,0.9,0c0.8,0,1.5,0,2.3,0c1.7,0,3.3,0.2,5,0.4c1,0.1,1.9,0.2,2.8,0.4c0.1,0,0.2,0,0.3,0
		c3.9,0.6,7.7,1.5,11.4,2.8C1166.1,482.7,1184.5,508.3,1184.5,537.3z"/>
	
		<ellipse transform="matrix(0.535 -0.8449 0.8449 0.535 38.5704 1150.4813)" class="st0" cx="1064.4" cy="540.2" rx="0.5" ry="1.2"/>
	<path class="st7" d="M1063.4,537L1063.4,537c0.6-1,1.9-1.3,2.9-0.6l0,0l26.7,16.9c1,0.6,1.3,1.9,0.6,2.9l0,0l0,0l0,0L1063.4,537
		L1063.4,537z"/>
	<path class="st4" d="M1060.9,537.8l0.8-1.3c0.4-0.7,1.3-0.9,2-0.5l0,0l30.4,19.3c0.8,0.5,1,1.5,0.5,2.4l-0.7,1.1l0,0L1060.9,537.8
		L1060.9,537.8z"/>
	
		<rect x="1066" y="538.3" transform="matrix(0.535 -0.8449 0.8449 0.535 40.0797 1151.7825)" class="st7" width="0.6" height="2.4"/>
	
		<rect x="1068.8" y="540" transform="matrix(0.535 -0.8449 0.8449 0.535 39.8958 1154.9274)" class="st7" width="0.6" height="2.4"/>
	<circle class="st22" cx="1108.5" cy="459.6" r="19"/>
	<path class="st22" d="M1109.7,473c0,0,9.3,14.6,6.9,18.7c-2.3,4.1-9.5,15.5-9.5,15.5s32-23.6,27.8-28.7c0,0-9.5-8.1-9.9-13.2
		L1109.7,473z"/>
	<path class="st4" d="M1135.3,602.2c-15.4,4.3-31.8,3-46.4-3.6l1.5-39l0.1-3v-1v-1.5v-0.9c0,0,0,0,0.2,0c0.3,0,1-0.1,2.1-0.1
		c1.2,0,2.8-0.1,4.6-0.2c0.5,0,0.9,0,1.4,0c9.8-0.4,25.2-0.5,27.2,2.5l0.3,1.7l0.4,2.8l0.8,5.7
		C1127.5,565.6,1137.1,584.6,1135.3,602.2z"/>
	<path class="st23" d="M1152.8,502.1l-16.4,36.3l-7.1,15.8l-2.6,5.8l-38.2-0.5l3.9-26.6c-5.6-14.4,7.7-20.1,7.7-20.1l11.1-11.9v1.9
		c0,0,10.9-12.9,15.7-20.4c4.9-7.4,11.6-4.6,11.6-4.6C1150,476.7,1152.8,502.1,1152.8,502.1z"/>
	<path class="st10" d="M1136.3,538.4l-7.1,15.8c-2.3-4.3-4-9.1-4-12c0-7.9,7.9-3.7,7.9-3.7s-6.4-34.8-6.4-45.3
		C1126.7,486.3,1132.5,517.1,1136.3,538.4z"/>
	<path class="st22" d="M1130.1,541.1l-34.5-0.7c0,0-25.3,2.1-21.5,12.3c3.7,10.2,23.8,0,23.8,0l40.3,6.2L1130.1,541.1z"/>
	<path class="st23" d="M1136.5,479.7c0,0-12,0.9-12,11.4c0,10.4,10.9,47.5,10.9,47.5s-7.9-4.1-7.9,3.7s13.2,30.8,14.6,15.5
		c0,0,19.9,9.7,18.7-8.6c-1.2-18.3-13.7-57-13.7-57S1145.8,479,1136.5,479.7z"/>
	<path class="st4" d="M1109.2,457.5c-1.3-1.3-1.3-3.5-2.4-5c-1.7-2.4-5.2-2.2-8.1-1.8c-1.9,0.3-3.9,0.5-5.6,1.3
		c-1.6,0.7-2.8,2.1-3.2,3.7c-0.2,0.9-0.7-1.7-1.2-5.2c-1-7.2,2.6-14.2,9.2-17.4h0.1c3.2-1.6,6.7-3,10.3-3.4s7.4,0.3,10.3,2.6
		c1.3,1,2.3,2.4,3.7,3.3c2.4,1.6,5.5,1.7,8.4,2c3.3,0.4,6.5,1.2,9.3,2.9c2.8,1.7,5.2,4.4,5.9,7.6c0.9,3.7-0.6,8.1-4.2,9.8
		c-0.6,0.3-1.2,0.7-1.6,1.2c-3,3.7,1.8,5.7,2.6,8.9c0.6,2.7-2,5.1-4.6,5.8c-4.9,1.4-10.6-1.4-12.6-6c-0.9-2.1-1.1-4.4-1.4-6.7
		c-0.3-2.6-7.1-7.3-2.5-3.7c0.9,0.7,1.6,1.5,2.1,2.6c1.4,3.3-1.5,5.2-3.1,7.6c-1.7,2.7-1.7,6.2,0,9c-4-2.1-6.1-7.4-4.5-11.7
		c0.4-1.1,1-2.2,1.4-3.3c0.6-1.8,0.1-5.3-2.6-4.6C1112.8,457.4,1111.1,459.4,1109.2,457.5z"/>
	<path class="st1" d="M868.6,694.1c0,27.7-17,52.7-42.8,62.8c-1,0.4-2,0.8-3,1.1c-1.1,0.4-2.3,0.7-3.4,1c-0.8,0.2-1.6,0.5-2.4,0.6
		c-12.3,3-25.2,2.4-37.2-1.6c-1-0.3-1.9-0.6-2.8-1c-1.2-0.5-2.5-1-3.7-1.5c-0.1,0-0.2-0.1-0.3-0.1c-0.5-0.2-0.9-0.5-1.4-0.7l0,0
		c-0.6-0.3-1.3-0.6-1.9-1c-1.5-0.8-2.9-1.6-4.2-2.5c-0.7-0.5-1.4-0.9-2.1-1.4c-30.9-20.8-39-62.8-18.1-93.6
		c9.8-14.6,25.1-24.8,42.3-28.3c1.2-0.2,2.4-0.5,3.6-0.6c0.8-0.1,1.5-0.2,2.3-0.3c0.5,0,1.1-0.1,1.6-0.2l0,0c1.5-0.1,3-0.2,4.6-0.3
		c0.2,0,0.4,0,0.6,0c0.1,0,0.2,0,0.4,0l0,0c0.2,0,0.4,0,0.5,0c0.8,0,1.5,0,2.3,0c1.7,0,3.3,0.2,5,0.4c1,0.1,1.9,0.2,2.8,0.4
		c0.1,0,0.2,0,0.3,0c0.3,0,0.6,0.1,1,0.1c0.6,0.1,1.3,0.2,2,0.4c0.6,0.1,1.2,0.2,1.8,0.4c2.2,0.5,4.5,1.1,6.6,1.9
		c14.7,5.1,27.3,15,35.5,28.2c0.2,0.4,0.5,0.7,0.7,1.1c0.2,0.3,0.3,0.5,0.5,0.9c0,0.1,0.1,0.2,0.2,0.3c0,0,0,0.1,0.1,0.2
		c0.3,0.5,0.6,1,0.9,1.6C865.9,672.2,868.6,683,868.6,694.1z"/>
	<path class="st5" d="M837.7,670c0,0,15.7-13.8,21.5-4.1c5.8,9.6-16.3,13.5-17.6,13C840.3,678.3,837.7,670,837.7,670z"/>
	<path class="st23" d="M807.2,680.2c0,0,18.6-6,21.7-8.5c3.1-2.5,6.1-4.2,6.7-4c0.6,0.2,4.8-1,4.8-1l5,13.7c0,0-19.8,5.5-20.3,6.8
		C824.6,688.4,807.2,680.2,807.2,680.2z"/>
	<path class="st4" d="M816.9,759.7c-12.3,3-25.2,2.4-37.2-1.6l0.8-7.7l0.8-7.2l11.4-17.6l3.6-5.7l15.1,5.5l1.5,9.7l2.5,15.5
		L816.9,759.7z"/>
	<path class="st4" d="M825.8,756.8c-1,0.4-2,0.8-3,1.1c-1.1,0.4-2.3,0.7-3.4,1c-0.8,0.2-1.6,0.5-2.4,0.6c-12.3,3-25.2,2.4-37.2-1.6
		c-1-0.3-1.9-0.6-2.8-1c0.1,2.7,0,5.4-0.2,8.1c-1.3-3.1-2.5-6.4-3.4-9.6c-0.1-0.2-0.1-0.5-0.2-0.6c-0.3-1.1-0.6-2.1-0.9-3.1
		c-0.3-1.1-0.5-2.2-0.7-3.2c-0.8-3.8-1.1-6.2-1.1-6.2l8.9-18.5l1.8,0.2l0.7,0.1l4.5,0.5l6.5,0.7l10.5,1.2l9.8,8.3l8.8,7.4
		c0,0,0.7,2.5,1.9,6.6C824.3,751.2,825,753.8,825.8,756.8z"/>
	<circle class="st5" cx="809.9" cy="613.9" r="15.8"/>
	<path class="st5" d="M796.9,614.7l-8.3,17.6l23.2,16c0,0-2.7-19.1,2.4-23.9C819.4,619.6,796.9,614.7,796.9,614.7z"/>
	<path class="st23" d="M814.9,649.8c0,0-11-22.6-19.9-22.6c-8.9,0-32.2,15.8-31.5,19.2s0.7,4.1,0.7,6.2s-4.8,2.1-0.7,3.4
		c4.1,1.4,4.8,2.7,4.8,2.7l-3.4,87.8c0,0,15.1,5.5,20.6,3.4s11-15.8,11-15.8s-1.4,18.5,4.1,17.8s26-2.1,26.8-4.8
		c0.7-2.7-4.1-63.1-4.1-63.1L814.9,649.8z"/>
	<path class="st5" d="M776.7,765.2L776.7,765.2c-0.7,6.1-2.8,12.3-8.4,13.5c-9.4,2.2-5.8-17.2-4.1-24.6c0.4-1.7,0.7-2.8,0.7-2.8h0.5
		l6.8,0.4l4.3,0.3c0,0,0.2,1.3,0.3,3.2c0,0.6,0.1,1.2,0.1,1.9C777,759.8,777,762.5,776.7,765.2z"/>
	<path class="st23" d="M779.3,644.3l-19.9,50.8c0,0-2.7,5.5,0,9.6s-1.4,28.8,1.4,34.3c2.7,5.5,2.7,15.1,2.7,15.1l15.8,1.4l3.4-60.3
		l17.8-38.4C800.5,656.7,799.1,640.9,779.3,644.3z"/>
	<path class="st2" d="M784.4,642.6c0,0-12.4,3.4-16.5,15.8L784.4,642.6z"/>
	<path class="st4" d="M799.5,621.1c1.5-0.1,3.1,0.4,4.6,0.6c5.5,0.7,11.1-3.2,12.3-8.6c0.1-0.7,0.3-1.4,0.6-2.1
		c0.8-1.4,2.7-1.6,4.3-1.3c1.6,0.3,3.1,1,4.6,1.1c2.5,0.1,4.8-1.4,6.2-3.5s1.7-4.7,1.5-7.2l-1.2,1.2c-0.5-1-0.7-2.1-0.5-3.3
		c-1.3-0.3-2.6,0-3.6,0.9c-1,0.1-0.3-2-1-2.6c-0.3-0.3-0.8-0.2-1.3-0.2c-2.2,0-4-1.7-5.8-3.1c-3.1-2.4-6.6-4-10.4-4.7
		c-2.5-0.5-5.2-0.5-7.6,0.4c-2,0.8-3.6,2.2-5.1,3.6c-3.7,3.6-7,7.8-8.6,12.8c-1.3,4.1-1.3,8.4-0.1,12.4c0.6,2.1,2.5,9.3,5.3,9.5
		C797.3,627.3,795.2,621.3,799.5,621.1z"/>
	<polygon class="st2" points="800.6,671.5 784.5,695.2 779.3,750.2 	"/>
	
		<ellipse transform="matrix(0.5808 -0.814 0.814 0.5808 -172.6241 979.2454)" class="st0" cx="864.5" cy="657.2" rx="1.2" ry="0.5"/>
	<path class="st7" d="M843.4,683L843.4,683c-1-0.7-1.2-2-0.5-3l0,0l18.4-25.8c0.7-1,2-1.2,2.9-0.5l0,0l0,0l0,0L843.4,683L843.4,683z
		"/>
	<path class="st4" d="M844.2,685.5l-1-0.8c-0.8-0.5-1-1.6-0.4-2.4l20.9-29.3c0.5-0.6,1.4-0.8,2-0.3l0,0l1.3,0.9l0,0L844.2,685.5
		L844.2,685.5L844.2,685.5z"/>
	
		<rect x="861.2" y="657" transform="matrix(0.5808 -0.814 0.814 0.5808 -173.5041 977.5665)" class="st7" width="2.4" height="0.6"/>
	
		<rect x="859.4" y="659.7" transform="matrix(0.5808 -0.814 0.814 0.5808 -176.5379 977.2092)" class="st7" width="2.4" height="0.6"/>
	<rect x="862.6" y="632.5" class="st0" width="203.3" height="0.9"/>
</g>
</svg>
