<?xml version="1.0" encoding="utf-8"?>
<!-- Generator: Adobe Illustrator 24.3.0, SVG Export Plug-In . SVG Version: 6.00 Build 0)  -->
<svg version="1.1" id="b0613604-cb64-4fd5-a4c3-be829c572cfc"
	 xmlns="http://www.w3.org/2000/svg" xmlns:xlink="http://www.w3.org/1999/xlink" x="0px" y="0px" viewBox="0 0 1200 800"
	 style="enable-background:new 0 0 1200 800;" xml:space="preserve">
<style type="text/css">
	.st0{fill:#E6E6E6;}
	.st1{fill:#FFFFFF;}
	.st2{fill:#8EF9F3;}
	.st3{opacity:0.2;enable-background:new    ;}
	.st4{fill:#FFA000;}
	.st5{fill:#FFB8B8;}
	.st6{fill:#575A89;}
	.st7{fill:#2F2E41;}
	.st8{fill:#3F3D56;}
	.st9{opacity:0.1;enable-background:new    ;}
	.st10{opacity:5.000000e-02;enable-background:new    ;}
	.st11{fill:#FF6D00;}
</style>
<g>
	<path class="st0" d="M363.1,300.1h-3.4V207c0-29.7-24.1-53.8-53.8-53.8l0,0H108.7c-29.8,0-53.9,24.1-53.9,53.8l0,0v510.6
		c0,29.7,24.1,53.8,53.8,53.8l0,0h197.1c29.7,0,53.8-24.1,53.8-53.8l0,0V366.3h3.4L363.1,300.1L363.1,300.1z"/>
	<path class="st1" d="M308,167.2h-25.7c4,9.8-0.7,20.9-10.4,24.9c-2.3,0.9-4.7,1.4-7.2,1.4h-113c-10.5,0-19.1-8.6-19.1-19.1
		c0-2.4,0.5-4.9,1.4-7.2h-24c-22.2,0-40.3,18-40.3,40.3l0,0v509.7c0,22.2,18,40.2,40.2,40.2l0,0H308c22.2,0,40.2-18,40.2-40.2l0,0
		V207.4C348.3,185.2,330.2,167.2,308,167.2L308,167.2z"/>
	<path class="st0" d="M150.6,270.8h-11.8c-0.8,0-1.6,0.7-1.6,1.6v5.2c0,0.8,0.7,1.6,1.6,1.6h1.9v7.8h7.9v-7.8h1.9
		c0.8,0,1.6-0.7,1.6-1.6v-5.2C152.1,271.5,151.4,270.8,150.6,270.8z"/>
	<path class="st0" d="M162.4,318.3c-7.2-10.6-11-23.3-10.6-36.1c0-0.6-0.4-1.2-1-1.3v-2.3h-12.4v2.2h-0.2c-0.7,0-1.3,0.6-1.3,1.3
		v0.1c1,13.7-2.4,26-9.9,36.9c-0.4,0.6-0.7,1.3-0.7,2.1l1.3,42.3c0.1,1.9,1.7,3.5,3.6,3.5h28.2c2,0,3.6-1.6,3.6-3.6l0.5-41
		C163.7,321.1,163.2,319.6,162.4,318.3z"/>
	<path class="st1" d="M157.9,332.4h-24.6c-1.4,0-2.5,1.1-2.5,2.5c0,0.2,0,0.3,0,0.4l3.7,24.2h21.4l4.5-24.1c0.3-1.3-0.7-2.7-2-2.9
		C158.3,332.4,158.1,332.4,157.9,332.4L157.9,332.4z"/>
	<path class="st0" d="M282.3,397.4h-11.8c-0.8,0-1.6,0.7-1.6,1.6v5.2c0,0.8,0.7,1.6,1.6,1.6h1.9v7.8h7.9v-7.8h1.9
		c0.8,0,1.6-0.7,1.6-1.6V399C283.8,398.1,283.1,397.4,282.3,397.4z"/>
	<path class="st0" d="M294.1,444.9c-7.2-10.6-11-23.3-10.6-36.1c0-0.6-0.4-1.2-1-1.3v-2.3H270v2.2h-0.2c-0.7,0-1.3,0.6-1.3,1.3v0.1
		c1,13.7-2.4,26-9.9,36.9c-0.4,0.6-0.7,1.3-0.7,2.1l1.4,42.4c0.1,1.9,1.7,3.5,3.6,3.5h28.2c2,0,3.6-1.6,3.6-3.6l0.5-41
		C295.3,447.6,294.9,446.1,294.1,444.9z"/>
	<path class="st1" d="M289.6,458.9H265c-1.4,0-2.5,1.1-2.5,2.5c0,0.2,0,0.3,0,0.4l3.7,24.2h21.3l4.5-24.1c0.3-1.3-0.7-2.7-2-2.9
		C290,458.9,289.8,458.9,289.6,458.9L289.6,458.9z"/>
	<path class="st0" d="M133.9,576.4h-5.6c-0.4,0-0.8,0.3-0.8,0.8l0,0v2.4c0,0.4,0.3,0.8,0.8,0.8l0,0h0.9v3.7h3.8v-3.7h0.9
		c0.4,0,0.8-0.3,0.8-0.8l0,0v-2.4C134.7,576.7,134.3,576.4,133.9,576.4L133.9,576.4z"/>
	<path class="st0" d="M139.6,598.9c-3.5-5.1-5.2-11-5.1-17.1c0-0.3-0.2-0.5-0.5-0.6v-1.1h-5.9v1l0,0c-0.3,0-0.6,0.3-0.6,0.6
		c0,0,0,0,0,0.1c0.5,6.2-1.1,12.4-4.7,17.5c-0.2,0.3-0.3,0.7-0.3,1l0.7,20.1c0,0.9,0.8,1.7,1.7,1.7h13.4c0.9,0,1.7-0.8,1.7-1.7
		l0.3-19.5C140.2,600.1,140,599.4,139.6,598.9z"/>
	<rect x="124.8" y="606.3" class="st1" width="12.8" height="6.4"/>
	<path class="st0" d="M160,576.4h-5.6c-0.4,0-0.8,0.3-0.8,0.8l0,0v2.4c0,0.4,0.3,0.8,0.8,0.8l0,0h0.9v3.7h3.8v-3.7h0.9
		c0.4,0,0.8-0.3,0.8-0.8l0,0v-2.4C160.8,576.7,160.5,576.4,160,576.4L160,576.4z"/>
	<path class="st0" d="M165.7,598.9c-3.5-5.1-5.2-11-5.1-17.1c0-0.3-0.2-0.5-0.5-0.6v-1.1h-5.9v1l0,0c-0.3,0-0.6,0.3-0.6,0.6
		c0,0,0,0,0,0.1c0.5,6.2-1.1,12.4-4.7,17.5c-0.2,0.3-0.3,0.7-0.3,1l0.7,20.1c0,0.9,0.8,1.7,1.7,1.7h13.3c0.9,0,1.7-0.8,1.7-1.7
		l0.3-19.5C166.3,600.1,166.1,599.4,165.7,598.9z"/>
	<rect x="150.9" y="606.3" class="st1" width="12.8" height="6.4"/>
	<path class="st0" d="M186.2,576.4h-5.6c-0.4,0-0.8,0.3-0.8,0.8l0,0v2.4c0,0.4,0.3,0.8,0.8,0.8l0,0h0.9v3.7h3.8v-3.7h0.9
		c0.4,0,0.8-0.3,0.8-0.8l0,0v-2.4C186.9,576.7,186.6,576.4,186.2,576.4L186.2,576.4z"/>
	<path class="st0" d="M191.8,598.9c-3.5-5.1-5.2-11-5.1-17.1c0-0.3-0.2-0.5-0.5-0.6v-1.1h-5.9v1l0,0c-0.3,0-0.6,0.3-0.6,0.6
		c0,0,0,0,0,0.1c0.5,6.2-1.1,12.4-4.7,17.5c-0.2,0.3-0.3,0.7-0.3,1l0.7,20.1c0,0.9,0.8,1.7,1.7,1.7h13.4c0.9,0,1.7-0.8,1.7-1.7
		l0.3-19.5C192.4,600.1,192.2,599.4,191.8,598.9z"/>
	<rect x="177.1" y="606.3" class="st1" width="12.8" height="6.4"/>
	<path class="st0" d="M261.7,527.3h-11.8c-0.8,0-1.6,0.7-1.6,1.6l0,0v5.2c0,0.8,0.7,1.6,1.6,1.6h1.9v7.8h7.9v-7.8h1.9
		c0.8,0,1.6-0.7,1.6-1.6V529C263.2,528.1,262.6,527.3,261.7,527.3L261.7,527.3z"/>
	<path class="st0" d="M273.5,574.8c-7.2-10.6-11-23.3-10.6-36.1c0-0.6-0.4-1.2-1-1.3v-2.2h-12.5v2.2h-0.1c-0.7,0-1.3,0.6-1.3,1.3
		v0.1c1,13.7-2.4,26-9.9,36.9c-0.4,0.6-0.7,1.3-0.7,2.1l1.3,42.3c0.1,1.9,1.7,3.5,3.6,3.5h28.2c2,0,3.6-1.6,3.6-3.6l0.5-41
		C274.9,577.6,274.4,576.1,273.5,574.8z"/>
	<path class="st1" d="M269.1,588.9h-24.6c-1.4,0-2.5,1.1-2.5,2.5c0,0.2,0,0.3,0,0.4l3.7,24.2H267l4.5-24.1c0.3-1.3-0.7-2.7-2-2.9
		C269.4,588.9,269.2,588.9,269.1,588.9L269.1,588.9z"/>
	<path class="st0" d="M268.1,372.6h-70.5c5-26.6,3.8-58.8,0-93.4h70.5C264.4,313.8,263.3,345.9,268.1,372.6z"/>
	<circle class="st1" cx="233.3" cy="323.4" r="17"/>
	<path class="st0" d="M203.6,496.7h-70.5c5-26.6,3.8-58.8,0-93.4h70.5C199.9,437.8,198.8,470,203.6,496.7z"/>
	<circle class="st1" cx="168.8" cy="447.4" r="17"/>
	<path class="st0" d="M308.1,378.5h-70.5c5-26.6,3.8-58.8,0-93.4h70.5C304.4,319.7,303.3,351.9,308.1,378.5z"/>
	<ellipse class="st1" cx="273.3" cy="329.2" rx="17" ry="17"/>
	<path class="st0" d="M308.1,374.3h-70.5c5-26.6,3.8-58.8,0-93.4h70.5C304.4,315.4,303.3,347.6,308.1,374.3z"/>
	<ellipse class="st1" cx="273.2" cy="325" rx="17" ry="17"/>
	<path class="st0" d="M308.1,378.5h-70.5c5-26.6,3.8-58.8,0-93.4h70.5C304.4,319.7,303.3,351.9,308.1,378.5z"/>
	<ellipse class="st1" cx="273.3" cy="329.2" rx="17" ry="17"/>
	<rect x="93.1" y="367.5" class="st0" width="231.1" height="25.4"/>
	<rect x="93.1" y="494" class="st0" width="231.1" height="25.4"/>
	<rect x="93.1" y="620.7" class="st0" width="231.1" height="25.4"/>
	<path class="st2" d="M726.2,724.1l-57.5-40.7c19.4-18.9,37.1-45.8,53.9-76.3l57.5,40.7C757.1,673.9,737.7,699.5,726.2,724.1z"/>
	<circle class="st1" cx="726.2" cy="663.7" r="17"/>
	<path class="st0" d="M448.5,538.3h-6.3c-0.4,0-0.8,0.3-0.8,0.8v2.8c0,0.4,0.3,0.8,0.8,0.8h1v4.1h4.2v-4.1h1c0.4,0,0.8-0.3,0.8-0.8
		v-2.8C449.4,538.6,448.9,538.3,448.5,538.3z"/>
	<path class="st2" d="M454.8,563.6c-3.9-5.6-5.8-12.4-5.6-19.3c0-0.3-0.3-0.6-0.5-0.7v-1.2H442v1.2h-0.1c-0.3,0-0.7,0.3-0.7,0.7
		c0,0,0,0,0,0.1c0.6,7-1.3,14-5.3,19.7c-0.3,0.3-0.3,0.8-0.3,1.2l0.8,22.6c0,1,0.9,1.9,1.9,1.9h15.1c1.1,0,1.9-0.8,1.9-1.9l0.3-21.9
		C455.5,565.1,455.3,564.3,454.8,563.6z"/>
	<path class="st3" d="M447.2,539.2c0,1-0.8,1.8-1.8,1.8c-0.9,0-1.8-0.8-1.8-1.8"/>
	<rect x="439.2" y="568" class="st1" width="12.7" height="8.5"/>
	<path class="st0" d="M648.4,626.4h-11.8c-0.8,0-1.6,0.7-1.6,1.6v5.2c0,0.8,0.7,1.6,1.6,1.6h1.9v7.8h7.9v-7.8h1.9
		c0.8,0,1.6-0.7,1.6-1.6l0,0V628C650,627.2,649.3,626.4,648.4,626.4z"/>
	<path class="st2" d="M660.3,673.9c-7.2-10.6-11-23.3-10.6-36.1c0-0.6-0.4-1.2-1-1.3v-2.3h-12.5v2.2H636c-0.7,0-1.3,0.6-1.3,1.3l0,0
		v0.1c1,13.7-2.4,26-9.9,36.9c-0.4,0.6-0.7,1.3-0.7,2.1l1.3,42.3c0.1,1.9,1.7,3.5,3.6,3.5h28.2c2,0,3.6-1.6,3.6-3.6l0.5-41
		C661.6,676.7,661.2,675.2,660.3,673.9z"/>
	<path class="st3" d="M646,628.1c0,1.9-1.5,3.4-3.4,3.4s-3.4-1.5-3.4-3.4"/>
	<path class="st1" d="M655.9,688h-24.6c-1.4,0-2.5,1.1-2.5,2.5c0,0.2,0,0.3,0,0.4l3.7,24.2h21.3l4.5-24.1c0.3-1.3-0.7-2.7-2-2.9
		C656.1,688,655.9,688,655.9,688L655.9,688z"/>
	<path class="st4" d="M614.7,724h-70.5c5-26.6,3.8-58.8,0-93.4h70.5C611,665.2,609.9,697.3,614.7,724z"/>
	<circle class="st1" cx="579.9" cy="674.7" r="17"/>
	<polygon class="st5" points="326.3,429.9 342.1,428.5 352.2,404 334.2,394 	"/>
	<path class="st5" d="M471.6,497.1L471.6,497.1c1.9-4.5-0.4-9.8-5-11.6c-0.9-0.3-1.9-0.6-2.8-0.6l-24.6-1.4l-3.6,12l25.3,6.9
		C465.3,503.6,469.9,501.3,471.6,497.1z"/>
	<path class="st6" d="M445.1,502.6l-0.3-22.6l-54.6-8.7l-42-48.2c-4.5-5.2-12.2-6.2-17.9-2.4l0,0c-6.3,4.2-8.1,12.7-4,19
		c0.4,0.7,0.9,1.3,1.5,1.9l34.7,42.7L445.1,502.6z"/>
	<path class="st7" d="M314,756.6h14.4l35.8-161.4l37,49.9L422.8,753h13.6l-2.9-115.8l-48.2-123.8h-47.5
		c-13,23.5-23.2,47.7-11.5,72.7L314,756.6z"/>
	<path class="st7" d="M413.9,766.3c-0.6,1.9,0.5,4,2.4,4.7c0.2,0.1,0.3,0.1,0.5,0.1l35.2,6.2c2.9,0.5,5.7-1.2,6.6-4l0,0
		c0.8-2.7-0.3-5.6-2.8-6.8c-7.8-4-14.4-9.8-19.4-16.8c-3.9,3.6-8.2,3.3-12.8,0.6l-4.9,0.6L413.9,766.3z"/>
	<path class="st7" d="M307.4,766.3c-0.6,1.9,0.5,4,2.4,4.7c0.2,0.1,0.3,0.1,0.5,0.1l35.2,6.2c2.9,0.5,5.7-1.2,6.6-4l0,0
		c0.8-2.7-0.3-5.6-2.8-6.8c-7.8-4-14.4-9.8-19.4-16.8c-3.9,3.6-8.2,3.3-12.8,0.6l-4.9,0.6L307.4,766.3z"/>
	<circle class="st5" cx="352.6" cy="392.9" r="20.1"/>
	<path class="st6" d="M334.6,518.7l52.5-1.4l-15.4-48.5c9.6-15.3-0.1-30.8-13.7-46.1l-10.8-7.2l-17.3-1.4l0,0
		c-7.5,8-11.5,18.6-11.4,29.6C318.9,467.1,323,492.5,334.6,518.7z"/>
	<path class="st5" d="M455.3,551.4L455.3,551.4c3.5-3.5,3.5-9.1,0-12.6c-0.7-0.7-1.4-1.3-2.4-1.7l-22-11l-8.1,9.6l20.6,16.3
		C446.9,555,452.1,554.6,455.3,551.4z"/>
	<path class="st6" d="M428.8,546.1l8.6-20.9l-46.8-29.5l-19.7-60.9c-2.1-6.6-8.8-10.5-15.5-9.4l0,0c-7.5,1.3-12.5,8.5-11.1,16
		c0.2,0.8,0.3,1.6,0.7,2.4l15.1,52.9L428.8,546.1z"/>
	<path class="st7" d="M319.4,384.9c0,7.8,5.1,20,11.5,25.2c4.3,3.5,10,3.4,12.2-1.4c2.3-4.9,10-16.5,23.8-23.8
		c18.3-9.7-6.5-26.3-23.8-23.8C330.2,363.1,319.4,371.8,319.4,384.9z"/>
	<circle class="st7" cx="331.7" cy="359.8" r="14.4"/>
	<path class="st7" d="M348.3,354.7c0-7.5-5.8-13.7-13.3-14.3c0.3,0,0.7-0.1,1.1-0.1c7.9,0,14.4,6.4,14.4,14.4s-6.4,14.4-14.4,14.4
		c-0.3,0-0.8,0-1.1-0.1C342.4,368.5,348.3,362.3,348.3,354.7z"/>
	<ellipse class="st5" cx="352.9" cy="395.7" rx="3.2" ry="4.3"/>
	<polygon class="st8" points="760.7,730.1 536.6,730.1 489.2,505.9 448.7,505.9 448.7,495.9 497.4,495.9 544.8,720.1 760.7,720.1 	
		"/>
	<circle class="st8" cx="569.4" cy="749.6" r="21.6"/>
	<circle class="st8" cx="730.4" cy="749.6" r="21.6"/>
	<path class="st8" d="M756.5,725.4h-218l-38.4-190.1h292.5c5.7,0,10.4,4.6,10.4,10.4c0,0.5,0,1.1-0.1,1.6l-36.1,169.3
		C766,721.7,761.7,725.4,756.5,725.4z M540.9,722.5h215.6c3.7,0,6.8-2.7,7.3-6.3l36.1-169.3c0.7-4-2.1-7.9-6.2-8.5
		c-0.4-0.1-0.8-0.1-1.2-0.1h-289L540.9,722.5z"/>
	<polygon class="st8" points="581,724.8 555.8,537.1 558.6,536.6 583.8,724.3 	"/>
	<polygon class="st8" points="721,723.4 718.1,722.9 742.6,536.6 745.4,537 	"/>
	<rect x="651.4" y="536.8" class="st8" width="2.9" height="187.7"/>
	
		<rect x="652.4" y="449.7" transform="matrix(2.421330e-03 -1 1 2.421330e-03 63.5159 1241.2748)" class="st8" width="2.9" height="278.3"/>
	
		<rect x="529" y="676.8" transform="matrix(1 -6.835383e-03 6.835383e-03 1 -4.6207 4.4675)" class="st8" width="244.5" height="2.9"/>
	<ellipse class="st8" cx="453" cy="499.4" rx="15.8" ry="8.6"/>
</g>
<g>
	<rect x="447.4" y="110.2" class="st0" width="535.2" height="342.8"/>
	<rect x="462.7" y="153.2" class="st1" width="504.6" height="279.5"/>
	<rect x="447.2" y="109.9" class="st4" width="535.2" height="22.8"/>
	<circle class="st1" cx="464" cy="121.5" r="4.2"/>
	<circle class="st1" cx="480.1" cy="121.5" r="4.2"/>
	<circle class="st1" cx="496" cy="121.5" r="4.2"/>
	<rect x="524.8" y="176.2" class="st0" width="98.7" height="107.1"/>
	<rect x="665.7" y="176.2" class="st0" width="98.7" height="107.1"/>
	<rect x="806.5" y="176.2" class="st0" width="98.7" height="107.1"/>
	<rect x="524.8" y="302.7" class="st0" width="98.7" height="107.1"/>
	<rect x="665.7" y="302.7" class="st0" width="98.7" height="107.1"/>
	<rect x="806.5" y="302.7" class="st0" width="98.7" height="107.1"/>
	<path class="st1" d="M689.4,330.1l18-7.2l2,35.6c0,0,3.7,10.9,2.5,15.1c0,0,0.8,7.2-1.2,7.6c-2,0.4-7.9,1.2-8.4,0.8
		c-0.5-0.4-0.4-1.7-0.4-1.7s-4.2,2.9-4.7,6.4c0,0-17.6,5.5-18,0.4c-0.4-5,8.8-9.2,8.8-9.2l7.2-10.9L689.4,330.1z"/>
	<path class="st1" d="M727.7,330.1l18-7.2l2,35.6c0,0,3.7,10.9,2.5,15.1c0,0,0.8,7.2-1.2,7.6c-2,0.4-7.9,1.2-8.4,0.8
		c-0.5-0.4-0.4-1.7-0.4-1.7s-4.2,2.9-4.7,6.4c0,0-17.6,5.5-18,0.4c-0.4-5,8.8-9.2,8.8-9.2l7.2-10.9L727.7,330.1z"/>
	<path class="st8" d="M729.4,192.5c0,0-3.8,10.7,0.6,15.6l-3.7,12.8c0,0,13.2,39.5,9.4,45.1c0,0-14,7.1-42.1-2.5l11.4-44.3
		l-1.7-18.7l2.3-8.8l5-0.5c0,0-3,11.3,2.5,13.1c5.5,1.8,10.9-12.8,10.9-12.8L729.4,192.5z"/>
	<path class="st1" d="M552.1,261.7l4.8,2l23.2-30.4l7.3,35.8l4.8-1c3.1-30.8,5.6-62.1,2.5-76.9l-17.9-0.7l-8.2,26l-4,17.6
		L552.1,261.7z"/>
	<path class="st1" d="M846.2,190.8c0,0-6.6,9.2-6.4,12.8c0.4,3.7,4.4,64.2,4.4,64.2l9.8,0.5l-2.9-43.6l2.4-11.8l6,54.8l12.1,0.4
		L861,197.1l-2-6.4L846.2,190.8z"/>
	<path class="st8" d="M883.5,339c-1.8-2-4.8-3.2-7.7-4c0.1-0.2-8.8-2-9-1.8l-3.4-2.6l-10.3,5.4l-5.8-4l-2.6,1c0.1-0.5-8.4,1-8.4,1
		c-1.6,0.1-3.6,0.1-6,0.4c-8,0.6-8.8,21.6-8.8,21.6c3.7-1.4,7.7-2.3,11.8-2.5l2.2,25.1c11.3-1,23,0.1,35.3,2.9l5.8-19.7l13.3-5.3
		C889.9,356.6,887.7,343.9,883.5,339z"/>
	<path class="st1" d="M596.9,327c-1.4-1.8-4-2.6-6.4-3.1c0.1-0.2-7.2-1.8-7.4-1.4l-2.8-2.3l-8.5,4.4l-4.7-3.2l-2.3,0.7
		c0.1-0.4-6.8,0.8-6.8,0.8c-1.3,0.1-3.1,0.1-4.9,0.2c-6.6,0.5-7.2,17.8-7.2,17.8c3.1-1.2,6.4-1.9,9.6-2l1.8,50.5
		c9.2-0.8,19,0.1,29,2.4l4.7-46.2l11-4.3C602.2,341.5,600.3,331.2,596.9,327z"/>
	<polygon class="st0" points="956,618.4 889.3,632.1 887.7,631.9 829.1,626 829.1,551.6 900.9,539.5 953,545.6 953,546 953,546.1 	
		"/>
	<polygon class="st9" points="956,618.4 889.3,632.1 887.7,631.9 887.7,555.7 953,546 	"/>
	<polygon class="st10" points="953,546.1 953,546.1 887.7,555.7 829.1,551.6 900.9,539.5 953,545.6 953,546 	"/>
	
		<rect x="847.2" y="568" transform="matrix(6.512341e-02 -0.9979 0.9979 6.512341e-02 213.8893 1404.991)" class="st1" width="19.1" height="40.7"/>
	
		<rect x="853.5" y="577.7" transform="matrix(6.512341e-02 -0.9979 0.9979 6.512341e-02 213.8146 1405.1584)" class="st11" width="6.6" height="21.6"/>
	<polygon class="st2" points="1046.5,618.4 979.8,632.1 978.2,631.9 919.5,626 919.5,551.6 991.4,539.5 1043.5,545.6 1043.5,546 
		1043.5,546.1 	"/>
	<polygon class="st9" points="1046.5,618.4 979.8,632.1 978.2,631.9 978.2,555.7 1043.5,546 	"/>
	<polygon class="st10" points="1043.5,546.1 1043.5,546.1 978.2,555.7 919.5,551.6 991.4,539.5 1043.5,545.6 1043.5,546 	"/>
	
		<rect x="937.7" y="568" transform="matrix(6.512341e-02 -0.9979 0.9979 6.512341e-02 298.4621 1495.2975)" class="st1" width="19.1" height="40.7"/>
	
		<rect x="944" y="577.6" transform="matrix(6.512341e-02 -0.9979 0.9979 6.512341e-02 298.5142 1495.361)" class="st11" width="6.6" height="21.6"/>
	<path class="st5" d="M1094.8,247.3c0,0,11.8,30.5-9.8,30.5c-21.6,0,33.4,30.5,54.9,12.8c21.6-17.6,8.8-18.7,8.8-18.7
		s-28.4,2.9-27.5-22.6L1094.8,247.3z"/>
	<circle class="st7" cx="1110.2" cy="221.8" r="34.7"/>
	<path class="st7" d="M1088.9,374l-37.3,96.2c0,0-18.7,29.5-11.8,58.9c6.8,29.4,25.7,83,25.7,83s14.3,3.6,13.3-9.1
		c-1-12.8,0.6-74.6-14.2-91.3l59.5-68l2,77.5c0,0-4,35.4-2.9,51.1c1,15.7,2.9,42.1,2.9,42.1l11.8-2c0,0,15.8-72.3,13.9-95.9
		c0,0,36.5-114.5-0.8-141.9L1088.9,374z"/>
	<path class="st7" d="M1069.6,612c0,0-4.8-1.2-5.4,3.1s-10.7,24-0.1,25c10.6,1,14.2-8.9,16-15.8c1.8-7,2.4-7.3,4-8.6
		c1.4-1.3,5-8.6,0.6-9.1c-4.4-0.5-6.6-4.9-6.6-4.9S1076.6,613.8,1069.6,612z"/>
	<path class="st7" d="M1133.9,608.5c0,0-8.9-1.2-8.3,1.9c0.6,3.1-1.2,16.6,0,17.9c1.2,1.3,3.8,3.8,3.8,5.8c0,1.9,0.7,8.3,11.4,6.4
		c10.7-1.9,8.3-11.4,7.7-12.7c-0.7-1.2-8.3-7.7-7.7-11.4C1141.6,612.4,1137.8,606.1,1133.9,608.5z"/>
	<circle class="st5" cx="1110.5" cy="236.3" r="24.1"/>
	<path class="st6" d="M1133.6,269.4c0,0,8.4,16.6-16.8,17.2c-7.8,0.1-17-5.5-20.9-12.2c-2.3-4-2.9,1.4-6.5,1.1
		c-6.8-0.7-14.2,2-20.9,5.5c-1.8,1-2.5,3-2,4.9c5,16.6,19.3,96.2,21.5,100.5c5.6,11,66.5-7.4,66.5-7.4c0.8-30.1-10.1-72.3,9.1-102.9
		C1155,269.5,1144,267.1,1133.6,269.4z"/>
	<polygon class="st7" points="1133.1,217.8 1115.5,208.6 1091.1,212.3 1086.1,234.5 1098.7,234 1102.1,225.9 1102.1,233.9 
		1107.9,233.7 1111.3,220.7 1113.3,234.5 1133.9,234.2 	"/>
	<circle class="st7" cx="1112" cy="182.2" r="14"/>
	<path class="st7" d="M1094.3,177.9c0-6.8,5-12.8,11.9-13.9c-7.7-1.2-14.8,4.1-16,11.8c-1.2,7.7,4.1,14.8,11.8,16
		c1.4,0.2,2.9,0.2,4.2,0C1099.4,190.7,1094.3,184.8,1094.3,177.9z"/>
	<polygon class="st0" points="1175.2,511.3 1108.4,525 1106.8,524.8 1048.3,519 1048.3,444.6 1120,432.5 1172.1,438.5 1172.2,438.8 
		1172.2,438.9 	"/>
	<polygon class="st9" points="1175.2,511.3 1108.4,525 1106.8,524.8 1106.8,448.7 1172.2,438.8 	"/>
	<polygon class="st10" points="1172.2,438.9 1172.1,438.9 1106.8,448.7 1048.3,444.6 1120,432.5 1172.1,438.5 1172.2,438.8 	"/>
	
		<rect x="1066.5" y="461" transform="matrix(6.512341e-02 -0.9979 0.9979 6.512341e-02 525.6137 1523.689)" class="st1" width="19.1" height="40.7"/>
	
		<rect x="1072.6" y="470.5" transform="matrix(6.512341e-02 -0.9979 0.9979 6.512341e-02 525.5616 1523.6256)" class="st11" width="6.6" height="21.6"/>
	<path class="st5" d="M1071.2,425.5c0,0-24.6,19.6-13.8,26.5c10.8,7,23.6-26.5,23.6-26.5H1071.2z"/>
	<path class="st6" d="M1072.3,280c-1.2-1.4-17.4,6.7-15,17.4l1.1,73.9c0,0-5.9,60.8,8.8,60.8c14.6,0,13,2,15-2.9
		c2-4.9,2.5-46.4,2.5-46.4L1072.3,280z"/>
	<path class="st5" d="M1148.1,418.8c0,0,12.8,33.4,23.6,26.5c10.8-6.8-13.8-26.5-13.8-26.5H1148.1z"/>
	<path class="st6" d="M1151.1,377.2c0,0-6.1,40.8-4.2,45.7c2,4.9,0.2,2.9,15,2.9c14.6,0,8.8-60.8,8.8-60.8l1.1-73.9
		c2.4-10.7-13.7-18.8-15-17.4l-14,47.9L1151.1,377.2z"/>
</g>
</svg>
