<?xml version="1.0" encoding="utf-8"?>
<!-- Generator: Adobe Illustrator 24.3.0, SVG Export Plug-In . SVG Version: 6.00 Build 0)  -->
<svg version="1.1" id="aced5027-7764-4d9c-85f3-702f4c5cb940"
	 xmlns="http://www.w3.org/2000/svg" xmlns:xlink="http://www.w3.org/1999/xlink" x="0px" y="0px" viewBox="0 0 1200 800"
	 style="enable-background:new 0 0 1200 800;" xml:space="preserve">
<style type="text/css">
	.st0{fill:#3F3D56;}
	.st1{fill:#8EF9F3;}
	.st2{fill:#FFA000;}
	.st3{fill:#D0CDE1;}
	.st4{fill:#FFB8B8;}
	.st5{fill:#2F2E41;}
	.st6{opacity:0.1;enable-background:new    ;}
	.st7{fill:#E6E6E6;}
	.st8{opacity:0.1;fill:#8EF9F3;enable-background:new    ;}
	.st9{fill:url(#SVGID_1_);}
	.st10{opacity:0.2;fill:#FFFFFF;enable-background:new    ;}
	.st11{opacity:7.000000e-02;fill:#FFFFFF;enable-background:new    ;}
	.st12{fill:#535461;}
	.st13{fill:#774E55;}
	.st14{opacity:0.2;enable-background:new    ;}
	.st15{opacity:0.2;fill:#8EF9F3;enable-background:new    ;}
	.st16{fill:#FF6D00;}
	.st17{fill:#5C3D53;}
	.st18{opacity:5.000000e-02;enable-background:new    ;}
	.st19{fill:#F8BDC5;}
	.st20{opacity:0.1;}
	.st21{fill:none;stroke:#535461;stroke-width:2;stroke-miterlimit:10;}
</style>
<g>
	<rect y="798.3" class="st0" width="299" height="2"/>
	<g>
		<path class="st0" d="M198.8,717.5l-0.5-1.1c-0.1-0.2-10.3-23-3.6-45s27.6-35.5,27.8-35.6l1-0.6l0.5,1.1c0.1,0.2,10.3,23,3.6,45
			s-27.6,35.5-27.8,35.6L198.8,717.5z M196.6,672c-5.5,18.6,1.2,37.8,3.1,42.6c4.1-2.9,20.5-15.2,26-33.9
			c5.5-18.6-1.2-37.8-3.1-42.6C218.4,641,202.1,653.4,196.6,672z"/>
		<path class="st1" d="M204.9,673c5.5,22.2-5.7,44.1-5.7,44.1s-20.3-14.1-25.8-36.3c-5.5-22.3,5.7-44.1,5.7-44.1
			S199.3,650.8,204.9,673z"/>
		<path class="st0" d="M923.7,646.3H435.2c-2.7,0-5-2.2-5-5V340.8c0-2.7,2.2-5,5-5h488.6c2.7,0,5,2.2,5,5v300.6
			C928.7,644.1,926.4,646.3,923.7,646.3z M435.2,337.5c-1.8,0-3.3,1.5-3.3,3.3v300.6c0,1.8,1.5,3.3,3.3,3.3h488.6
			c1.8,0,3.3-1.5,3.3-3.3V340.8c0-1.8-1.5-3.3-3.3-3.3H435.2z"/>
		<path class="st2" d="M926.1,314.3H432.7c-2.3,0-4.1,1.8-4.1,4.1v28.2h501.8v-28.2C930.3,316.1,928.4,314.3,926.1,314.3z"/>
		<circle class="st3" cx="870.1" cy="330" r="5.1"/>
		<circle class="st3" cx="886.4" cy="330" r="5.1"/>
		<circle class="st3" cx="902.8" cy="330" r="5.1"/>
		<path class="st0" d="M692.7,561H462.5V392.1h230.2V561z M464.1,559.4H691V393.8H464.1V559.4L464.1,559.4z"/>
		<rect x="746.5" y="432.7" class="st0" width="53" height="9.1"/>
		<rect x="790.4" y="518.8" class="st0" width="53" height="9.1"/>
		<rect x="746.5" y="459.2" class="st0" width="149.1" height="9.1"/>
		<rect x="746.5" y="474.1" class="st0" width="149.1" height="9.1"/>
		<rect x="746.5" y="489" class="st0" width="149.1" height="9.1"/>
		<path class="st0" d="M891.8,612.8c4.3-3.8,11.3-7.4,17-9.4c-5.6-2.1-12.7-5.6-17-9.4l3.1,8.4h-15.8v2h15.7L891.8,612.8z"/>
		<rect x="358.7" y="644.7" class="st0" width="641.3" height="1.7"/>
		<rect x="529.8" y="440.8" class="st2" width="99" height="92.5"/>
		<rect x="568.9" y="438.3" class="st0" width="20.8" height="98"/>
		<path class="st0" d="M576.3,419.8c6.6,5.7,4.6,19,4.6,19s-12.8,4.1-19.5-1.7c-6.7-5.7-4.6-19-4.6-19S569.6,414.1,576.3,419.8z"/>
		<path class="st0" d="M598.3,435.8c-5.6,6.6-19,4.6-19,4.6s-4.1-12.8,1.7-19.4c5.8-6.6,19-4.6,19-4.6S603.9,429.2,598.3,435.8z"/>
		<polygon class="st4" points="256.7,695.6 257.5,703 250.1,702.2 250.1,693.1 		"/>
		<polygon class="st4" points="334.5,695.6 333.7,703 341.2,702.2 341.2,693.1 		"/>
		<path class="st5" d="M255.9,534.9l-3.3,85.3c0,0-10.8,63.8-8.3,65.4c2.5,1.7,0,10.8,0,10.8l14.1,1.7c0,0,0-6.6,3.3-9.1
			c3.3-2.5,34-119.2,34-119.2l31.5,112.6c0,0-0.8,6.6,1.7,6.6s3.3,9.1,3.3,9.1h14.1V689c0,0,4.1-0.8,1.7-7.5
			c-2.5-6.6-11.6-146.6-11.6-146.6H255.9L255.9,534.9z"/>
		<path class="st5" d="M251.7,695.6c0,0-4.1-2.5-5.8-0.8C244.2,696.5,231,713,231,713s-18.2,11.6-1.7,14.9
			c16.6,3.3,29-12.4,29.8-14.1c0.8-1.7-0.8-14.9-1.7-13.2c-0.8,1.7-3.3,0.8-4.1,0C252.6,699.7,251.7,695.6,251.7,695.6z"/>
		<path class="st5" d="M339.5,695.6c0,0,4.1-2.5,5.8-0.8c1.7,1.7,14.9,18.2,14.9,18.2s18.2,11.6,1.7,14.9
			c-16.6,3.3-29-12.4-29.8-14.1c-0.8-1.7,0.8-14.9,1.7-13.2c0.8,1.7,3.3,0.8,4.1,0C338.7,699.7,339.5,695.6,339.5,695.6z"/>
		<circle class="st4" cx="306" cy="395.4" r="17"/>
		<polygon class="st4" points="294.8,404.9 292.3,430.6 312.2,434.8 317.2,404.1 		"/>
		<path class="st2" d="M315.5,424.8c0,0-5,10.8-23.2-0.8l-34,111c0,0,45.5,27.3,74.5,6.6l-9.9-111.8L315.5,424.8z"/>
		<path class="st5" d="M295.6,412.4l-15.7-2.5l-1.7,10.8c0,0-21.5,2.5-24,10.8l2.5,61.3c0,0-7.5,13.2-0.8,21.5
			c0,0-10.8,22.4-2.5,26.5c0,0,19-9.1,30.6-6.6c0,0,6.6-1.7,6.6-6.6S295.6,412.4,295.6,412.4z"/>
		<path class="st5" d="M314.7,414.1l9.1,2.5l0.8,11.6c0,0,22.4,14.1,23.2,22.4c0.8,8.3-16.6,48-16.6,48s6.6,11.6,4.1,19
			c0,0,10.8,21.5,4.1,27.3c0,0-12.4,3.3-14.1-1.7s-16.6-62.1-9.9-89.4C315.5,453.8,308.9,419,314.7,414.1z"/>
		<path class="st0" d="M324.2,441h-0.3v-8.5c0-2.7-2.2-5-5-5l0,0h-18.1c-2.7,0-5,2.2-5,5l0,0v46.9c0,2.7,2.2,5,5,5l0,0h18.1
			c2.7,0,5-2.2,5-5l0,0v-32.2h0.3V441z"/>
		<path class="st4" d="M332.1,474.5c0,0-6.6-21.5-16.6-14.9c-9.9,6.6,6.6,24.8,6.6,24.8L332.1,474.5z"/>
		<path class="st4" d="M286.5,458.8c0,0,11.6-14.1,17.4-7.5s-9.9,21.5-9.9,21.5L286.5,458.8z"/>
		<path class="st5" d="M256.7,430.6c0,0-4.1-0.8-6.6,6.6c-2.5,7.5-11.6,35.6-11.6,40.6s3.3,24.8,21.5,21.5
			c18.2-3.3,39.7-26.5,39.7-26.5l-11.6-17.4l-24.8,14.9L256.7,430.6z"/>
		<polygon class="st6" points="260.3,452.1 263.7,469.9 289.4,455 265.4,464.1 260.1,451 		"/>
		<polygon class="st6" points="333.3,469.9 336.6,472.4 338.3,460.8 		"/>
		<path class="st6" d="M256.3,501.4c0,0,24.3-6.6,35.8-21.1C292.1,480.3,280.3,499.8,256.3,501.4z"/>
		<path class="st6" d="M317.6,486.5c0,0,5.1,25.1,18.3,25.8C335.9,512.3,320,517.1,317.6,486.5z"/>
		<path class="st5" d="M344.5,447.2c0,0,2.5,1.7,4.1,9.1c1.7,7.5,12.4,35.6,8.3,42.2c-4.1,6.6-10.8,21.5-24.8,11.6L318,484.4
			l14.1-13.2l5.8,4.1L344.5,447.2z"/>
		<path class="st5" d="M289.7,399.7c0,0-14.2-23.1,0.9-24.3c5.1-0.3,10-1.7,14.6-4c5.1-2.6,11.3-4.5,14.7-0.6
			c1.5,1.8,3.1,3.4,5.1,4.7c3,2,6.4,5.1,4.5,8.5l-3.1,5.6l-4.4,11.2c1-4.8,1.1-8.9-1.6-10.8c0,0-14.5,6.1-21.8-5
			C290.5,379,287.9,398.2,289.7,399.7z"/>
		<circle class="st1" cx="310.1" cy="444.3" r="4.1"/>
	</g>
</g>
<g>
	<path class="st7" d="M280.9,79.7c-1,0-1.9-0.1-2.9-0.1v-1c1,0,2,0,2.9,0.1V79.7z"/>
	<path class="st7" d="M278.1,249.8c-1.3,0-2.6,0-3.9-0.1l0.1-1c1.9,0.1,3.9,0.1,5.8,0.1v1C279.4,249.8,278.7,249.8,278.1,249.8z
		 M286,249.4l-0.1-1c1.9-0.2,3.9-0.4,5.8-0.7l0.2,1C289.8,248.9,287.9,249.2,286,249.4z M268.4,249.2c-2-0.2-3.9-0.5-5.8-0.8
		l0.2-0.9c1.9,0.3,3.8,0.7,5.8,0.8L268.4,249.2z M297.5,247.5l-0.2-0.9c1.9-0.4,3.8-0.9,5.6-1.5l0.2,0.9
		C301.3,246.6,299.4,247.1,297.5,247.5z M256.8,247.1c-1.9-0.5-3.8-1.1-5.6-1.6l0.3-0.9c1.8,0.6,3.7,1.2,5.6,1.6L256.8,247.1z
		 M308.7,244.1l-0.3-0.9c1.8-0.7,3.6-1.5,5.3-2.2l0.4,0.9C312.4,242.6,310.6,243.4,308.7,244.1L308.7,244.1z M245.7,243.4
		c-1.8-0.7-3.6-1.6-5.3-2.4l0.4-0.8c1.7,0.8,3.5,1.6,5.3,2.4L245.7,243.4z M319.4,239.2l-0.5-0.8c1.6-0.9,3.4-1.9,4.9-3l0.5,0.8
		C322.7,237.2,321,238.3,319.4,239.2z M235.2,238.3c-1.7-1-3.4-2.1-4.9-3.1l0.6-0.8c1.6,1.1,3.2,2.1,4.9,3L235.2,238.3z
		 M329.1,232.8l-0.6-0.7c1.6-1.2,3-2.4,4.5-3.6l0.7,0.7C332.3,230.4,330.7,231.7,329.1,232.8L329.1,232.8z M225.5,231.7
		c-1.6-1.2-3-2.5-4.5-3.8l0.7-0.7c1.4,1.3,3,2.5,4.4,3.7L225.5,231.7z M338,225.2l-0.7-0.7c1.4-1.3,2.7-2.8,4-4.2l0.7,0.7
		C340.8,222.4,339.4,223.9,338,225.2z M216.8,223.9c-1.4-1.4-2.7-2.9-3.9-4.4l0.7-0.7c1.2,1.5,2.5,2.9,3.9,4.3L216.8,223.9z
		 M345.8,216.5l-0.7-0.6c1.2-1.6,2.3-3.1,3.4-4.7l0.8,0.5C348.1,213.2,347,214.9,345.8,216.5L345.8,216.5z M209.1,214.9
		c-1.2-1.6-2.3-3.2-3.3-4.9l0.8-0.5c1.1,1.6,2.1,3.2,3.3,4.8L209.1,214.9z M352.3,206.7l-0.8-0.5c1-1.6,1.9-3.4,2.7-5.1l0.9,0.4
		C354.2,203.2,353.3,204.9,352.3,206.7L352.3,206.7z M202.9,205c-0.9-1.7-1.8-3.5-2.6-5.3l0.9-0.4c0.8,1.7,1.6,3.5,2.5,5.2
		L202.9,205z M357.4,196.1l-0.9-0.3c0.7-1.8,1.4-3.6,2-5.4l0.9,0.3C358.9,192.4,358.2,194.3,357.4,196.1z M198,194.3
		c-0.7-1.8-1.3-3.7-1.9-5.6l0.9-0.2c0.6,1.8,1.2,3.7,1.9,5.5L198,194.3z M361.1,184.9l-0.9-0.2c0.5-1.9,0.9-3.8,1.2-5.7l1,0.2
		C362,181.2,361.6,183.1,361.1,184.9z M194.7,183.1c-0.4-1.9-0.8-3.9-1.1-5.8l1-0.2c0.3,1.9,0.7,3.8,1.1,5.7L194.7,183.1z
		 M363.1,173.4l-1-0.1c0.2-1.9,0.3-3.9,0.4-5.8h1C363.5,169.5,363.4,171.5,363.1,173.4z M192.8,171.5c-0.2-2-0.2-3.9-0.3-5.8h1
		c0,1.9,0.2,3.9,0.3,5.8L192.8,171.5z M362.6,161.8c-0.1-1.9-0.2-3.9-0.3-5.8l1-0.1c0.2,2,0.3,3.9,0.3,5.8H362.6z M361.6,150.2
		c-0.3-1.9-0.7-3.8-1.2-5.7l0.9-0.2c0.4,1.9,0.8,3.8,1.2,5.8L361.6,150.2z M358.8,139c-0.6-1.8-1.2-3.7-1.9-5.4l0.9-0.3
		c0.7,1.8,1.4,3.7,2,5.5L358.8,139z M354.6,128.1c-0.8-1.7-1.7-3.5-2.6-5.2l0.8-0.5c1,1.7,1.8,3.5,2.7,5.2L354.6,128.1z M349,118.1
		c-1.1-1.6-2.1-3.2-3.3-4.8l0.7-0.6c1.2,1.6,2.3,3.1,3.4,4.8L349,118.1z M342,108.8c-1.2-1.5-2.5-2.9-3.9-4.3l0.7-0.7
		c1.4,1.4,2.7,2.8,4,4.3L342,108.8z M333.8,100.6c-1.5-1.2-3-2.5-4.5-3.7l0.6-0.7c1.6,1.2,3,2.5,4.5,3.7L333.8,100.6z M324.6,93.6
		c-1.6-1.1-3.3-2.1-4.9-3l0.5-0.8c1.7,1,3.4,2,5,3L324.6,93.6z M314.5,87.8c-1.7-0.8-3.5-1.6-5.3-2.3l0.3-0.9
		c1.8,0.7,3.6,1.5,5.3,2.4L314.5,87.8z M303.7,83.5c-1.8-0.6-3.7-1.1-5.6-1.6l0.2-0.9c1.9,0.5,3.8,1,5.7,1.6L303.7,83.5z
		 M292.5,80.8c-1.9-0.3-3.9-0.6-5.8-0.8l0.1-1c2,0.2,3.9,0.5,5.8,0.8L292.5,80.8z"/>
	<path class="st7" d="M193.6,159.7l-1-0.1c0.1-1,0.1-2,0.2-2.9l1,0.1C193.8,157.8,193.7,158.8,193.6,159.7z"/>
	<polygon class="st0" points="351.4,329 108.7,329 108.7,220.8 230,275.3 351.4,220.8 	"/>
	<polygon class="st2" points="108.7,220.8 351.4,220.8 230.3,283.2 	"/>
	<circle class="st7" cx="230.3" cy="283.2" r="10.1"/>
	<path class="st0" d="M48.7,328.7c-0.1-0.2-2.7-4.5-3.6-13.6c-0.8-8.3-0.3-22.2,6.9-41.7c13.7-36.9-3.1-66.5-3.3-66.9l0.8-0.5
		c0.1,0.1,4.4,7.6,7,19.7c3.4,16,2.1,32.7-3.5,48c-13.7,36.8-3.5,54.2-3.4,54.4L48.7,328.7z"/>
	<circle class="st1" cx="43.3" cy="198.2" r="6.3"/>
	<circle class="st1" cx="63" cy="221.3" r="6.3"/>
	<circle class="st1" cx="49.6" cy="236.7" r="6.3"/>
	<circle class="st1" cx="65.9" cy="249.6" r="6.3"/>
	<circle class="st1" cx="44.7" cy="269.8" r="6.3"/>
	<path class="st0" d="M52.4,329c0,0-6.3-15.4,12.5-26.9L52.4,329z"/>
	<path class="st0" d="M44.8,328.7c0,0-2.9-16.4-24.8-16.2L44.8,328.7z"/>
	<path class="st0" d="M150.7,92.7c0-13.2,4.4-26,12.5-36.4c-32.3-4.8-62.4,17.6-67.1,49.8c-4.8,32.3,17.6,62.4,49.8,67.1
		c8.3,1.2,16.8,0.7,24.9-1.6c11.2,4.9,23.4,6.8,35.6,5.7L187.6,164c5.2-3.5,9.7-7.7,13.6-12.7C172.2,146.9,150.7,122,150.7,92.7z"/>
	<path class="st1" d="M284.8,86.5c0-32.7-26.5-59.1-59.1-59.1c-18.2,0-35.4,8.4-46.6,22.7c32.3,4.8,54.6,34.9,49.8,67.1
		c-1.5,10.1-5.6,19.7-11.8,27.7c8.4,1.2,16.9,0.7,25-1.6c11.2,4.9,23.4,6.8,35.6,5.7l-18.9-13.4C275,124.5,284.8,106.1,284.8,86.5z"
		/>
	<path class="st7" d="M170.9,53c-20.1,25.7-15.5,62.9,10.2,83c8.1,6.3,17.6,10.4,27.7,11.8c20.1-25.7,15.5-62.8-10.2-83
		C190.5,58.6,181,54.5,170.9,53z"/>
	<rect x="16.9" y="329" class="st0" width="456.1" height="1"/>
	<path class="st4" d="M404.3,103.5l-2.9,19l-32.6,22c0,0-17.1,8.2-16,13.3c1,4.5,14.1,4,18.3-3l39-17.7l13-25.8L404.3,103.5z"/>
	<polygon class="st4" points="404.5,294.8 405.9,315 419.9,314 417.5,294.8 	"/>
	<path class="st5" d="M408.4,308.7c0,0-1.9-7.2-3.9-6.7l-2.9,5.3c0,0-13,12-16.9,12.5c0,0-12.5,3.9,0,9.6h14.4c0,0,9.6-0.5,11.5,0
		c1.9,0.5,13,0.5,13.5-2.4c0.5-2.9-1.5-8.6-1.5-8.6s-1.8-14.1-3.8-11.4c-1.1,1.5-2.2,2.9-3.5,4.2L408.4,308.7z"/>
	<polygon class="st4" points="440.5,295.1 442,315.2 455.9,314.3 453.5,295.1 	"/>
	<path class="st5" d="M444.4,309c0,0-1.9-7.2-3.9-6.7l-2.9,5.3c0,0-13,12-16.9,12.5c0,0-12.5,3.9,0,9.6h14.4c0,0,9.6-1,11.5-0.5
		c1.9,0.5,13,0.5,13.5-2.4c0.5-2.9-1.5-8.1-1.5-8.1s-1.8-14.1-3.8-11.4c-1.1,1.5-2.2,2.9-3.5,4.2L444.4,309z"/>
	<path class="st5" d="M385.7,171l-2.4,3.4v6.7l15.4,57.2l2.9,12.5c0,0,0,48,2.9,48s15.9,1.5,15.9-1.5c0-3-1-68.3-1-68.3l13,24.5
		c0,0,5.8,43.3,7.6,43.8c1.9,0.5,15.4,0,16.4-2.9l-2.9-27.4c0,0,0.5-30.8-7.6-37.5c0,0-1.5-8.1-2.9-11.5c-1.5-3.4-3.9-5.3-2.4-7.6
		c1.5-2.4-1.9-28.9-1.9-28.9s1-8.1-1-10.6C435.8,168.7,385.7,171,385.7,171z"/>
	<circle class="st4" cx="416.5" cy="47.1" r="14.9"/>
	<path class="st4" d="M425.9,56l-1,9.6l3.9,3.4l-24.5,11.5c6-10.3,7.8-19.7,4.8-26.4L425.9,56z"/>
	<path class="st2" d="M409,70.4c0,0-3.9,7.6,1,5.8l14.9-10.6c0,0,16.4,6.3,22.1,13.5l-4.8,50.9l-3.9,36c0,0,2.4,4.4,1.9,4.8
		c-0.5,0.5-1-0.5-0.5,1c0.5,1.5,1.9,0,0.5,1.5c-1.4,1.5-2.9,0-1.5,1.5c1.5,1.5,0,1.9,0,1.9s-1.9-11.5-18.8-2.9
		c-16.9,8.6-24,11-36.5,0.5l14.4-54.8l1.2-20.6c0.4-6.9,1.6-13.7,3.6-20.3c1.1-3.5,3-7.1,6.3-9L409,70.4L409,70.4L409,70.4z"/>
	<path class="st4" d="M434.8,112.4l7.2,17.8l-16.9,35.5c0,0-3.9,4.4-1.5,9.6c1.2,2.8,2.7,5.6,4.4,8.1c0,0,4.4-1.9,4.4-10.1
		l24.5-35.1l-1.9-28.9L434.8,112.4z"/>
	<path class="st2" d="M433.8,80.7c0,0-6.7,6.7-3.9,17.3c2.9,10.6,5.3,18.8,5.3,18.8s11.5-8.6,21.1-3.4c0,0-1.5-31.3-9.6-34.1
		S433.8,80.7,433.8,80.7z"/>
	<path class="st5" d="M428.8,34.3c0,0-4.5-9.9-13.2-7.6c-8.7,2.3-13.7,5.7-14.1,9.1s0.2,8.6,0.2,8.6s1-7,7-5.5
		c6.1,1.5,15.5,0.4,15.5,0.4l1.5,13.7c0,0,2.5-2.8,4.5-1.2C432.1,53.2,434.8,37.3,428.8,34.3z"/>
	<path class="st0" d="M353.4,141.4L353.4,141.4l8.9-2.1c0.9-0.2,1.8,0.2,2.2,1.1l9,18.8c0.4,0.7,0.1,1.7-0.7,2.1
		c-0.1,0-0.2,0.1-0.2,0.1l-9,2.5c-1,0.2-2.1-0.2-2.5-1.2l-5.8-13.5l-0.2,0.1l-1.1-2.5l0.2-0.1l-1.6-3.8c-0.2-0.6,0-1.3,0.7-1.6
		C353.2,141.5,353.3,141.4,353.4,141.4z"/>
	<path class="st1" d="M361.1,140.1l1.1-0.2c0.6-0.2,1.2,0.2,1.5,0.7l8.9,18.8c0.2,0.4,0,0.9-0.4,1.1c0,0-0.1,0-0.1,0.1l-9,2.7
		c-0.5,0.2-1.1-0.1-1.3-0.6l-8.4-19.5c-0.2-0.5,0-1.1,0.5-1.2c0.1,0,0.1,0,0.2-0.1l1-0.2c0.2-0.1,0.4,0.1,0.5,0.2l0,0
		c0.1,0.2,0.2,0.2,0.4,0.2l4.7-1.1C361,140.8,361.2,140.4,361.1,140.1L361.1,140.1z"/>
</g>
<g>
	<path class="st8" d="M963.9,456.7h35.9c1.5,0,2.7,1.2,2.7,2.7v10.1c0,1.5-1.2,2.7-2.7,2.7h-35.9c-1.5,0-2.7-1.2-2.7-2.7v-10.1
		C961.3,458,962.5,456.7,963.9,456.7z"/>
	<path class="st8" d="M1086.5,442.9h35.9c1.5,0,2.7,1.2,2.7,2.7v10.1c0,1.5-1.2,2.7-2.7,2.7h-35.9c-1.5,0-2.7-1.2-2.7-2.7v-10.1
		C1083.8,444.1,1085,442.9,1086.5,442.9z"/>
	<path class="st8" d="M1063.7,599.8h35.9c1.5,0,2.7,1.2,2.7,2.7v10.1c0,1.5-1.2,2.7-2.7,2.7h-35.9c-1.5,0-2.7-1.2-2.7-2.7v-10.1
		C1061.1,601,1062.3,599.8,1063.7,599.8z"/>
	<path class="st8" d="M1082.3,616.8h35.9c1.5,0,2.7,1.2,2.7,2.7v10.1c0,1.5-1.2,2.7-2.7,2.7h-35.9c-1.5,0-2.7-1.2-2.7-2.7v-10.1
		C1079.6,618,1080.9,616.8,1082.3,616.8z"/>
	<path class="st8" d="M1192.4,609.1h35.9c1.5,0,2.7,1.2,2.7,2.7v10.1c0,1.5-1.2,2.7-2.7,2.7h-35.9c-1.5,0-2.7-1.2-2.7-2.7v-10.2
		C1189.8,610.3,1190.9,609.1,1192.4,609.1z"/>
	<path class="st8" d="M857.4,621.5h35.9c1.5,0,2.7,1.2,2.7,2.7v10.1c0,1.5-1.2,2.7-2.7,2.7h-35.9c-1.5,0-2.7-1.2-2.7-2.7v-10.1
		C854.8,622.6,856,621.5,857.4,621.5z"/>
	<path class="st8" d="M1050.9,633.8h35.9c1.5,0,2.7,1.2,2.7,2.7v10.1c0,1.5-1.2,2.7-2.7,2.7h-35.9c-1.5,0-2.7-1.2-2.7-2.7v-10.1
		C1048.3,635,1049.4,633.8,1050.9,633.8z"/>
	
		<linearGradient id="SVGID_1_" gradientUnits="userSpaceOnUse" x1="1134.6499" y1="-638.7111" x2="1134.6499" y2="-273.9999" gradientTransform="matrix(1 0 0 -1 -63 143.5)">
		<stop  offset="0" style="stop-color:#808080;stop-opacity:0.25"/>
		<stop  offset="0.54" style="stop-color:#808080;stop-opacity:0.12"/>
		<stop  offset="1" style="stop-color:#808080;stop-opacity:0.1"/>
	</linearGradient>
	<path class="st9" d="M1161.4,510.9l-18.9-54.7l-6.8,1l-6.1,0.7c0.2-2.1,0.4-9.5-3.3-13.3c-0.3-1.3-1.3-2.8-3.2-4.5
		c-9-8.2-10.9,8.7-10.9,8.7s-2.1,3.6-4.9,8.6l-1.5-0.2l-0.4,3.7c-6.2,11.1-14.6,26.1-14.6,27.5c0,2.2-1.2,5.2-1.2,5.2
		s-6.4,10.6-8.7,15.8c-1.3,3.1-3.2,5.9-5.7,8.2c0,0-0.6,0.4-1.4,1c0.1-1,0.2-2,0.5-2.9c0.8-2.7,2.7-5,3.2-7.7c0.1-0.7,0.2-1.3,0.2-2
		c0.1-3.2-1.5-6.4-2.1-9.6c-0.7-3.7-0.3-7.9-2.3-11.1c-1.6-2.5-4.2-4.1-7.2-4.7c-2.6-0.7-5.2-0.4-7.8-0.7c-2.4-0.2-4.7-1.3-7.2-1.7
		c-1.3-0.2-2.7-0.2-3.9,0c-4.1,1.2-5.4,6.3-8.6,9.2c-1.2,1-2.5,1.7-3.6,2.8c-1.5,1.7-2,3.9-1.9,6.2c0,0.7,0,1.5,0.2,2.2
		c0.4,2.7,1.4,5.2,2.1,7.9c0.5,1.9,0.7,4,0.7,6c0,0.4,0,0.9,0,1.3c0,0.9-0.2,1.8-0.7,2.6c-0.6,0.7-1.5,1.2-2.3,1.7
		c-2.7-2.2-4.8-5.1-5.9-8.4c0,0-0.2,0.2-0.4,0.5v-0.5c0,0-5.2-7.6-5.9-13.7l1.8,0.2l4.1-57.9l-10.5-1.6c-0.3-3-1.1-7.3-3.2-10.5
		c1.7-3.5,2.7-8.2-5.1-8.7c-9.1-0.6-8.5,6.5-7.6,10.4c-0.4,2.1-0.6,4.2-0.5,6.4l-9.2-1.3l-0.1,0.7h-2l-6.7,59.1l5.7-0.2l21,2.2
		c1.7,15.3,4.3,34.2,7.5,38.7c0.1,0.2,0.2,0.3,0.3,0.4v27c0,0-0.4,35-6.7,40.6c3.9-1.4,8.1-2.1,12.2-1.9c-0.1,0.2-0.2,0.5-0.2,0.7
		c-0.9,3.5-1.6,7-1.9,10.6c-0.1,0.7-0.2,1.6-0.2,2.5c-0.6,7.8-0.5,15.7,0.3,23.5c2.7,27.9,6.7,47.7,6.7,47.7l1.2,16.1
		c0,0-1.2,27.5,1.9,36.5c1.2,1.1,2.4,1.9,3.8,2.5c0,0.2,0.1,0.5,0.1,0.7s0.1,0.7,0.1,1.1c-1.3,0.6-3.8,3.1-4.4,12.6
		c0,0,0.7,7.2-1.2,10.6c-1.9,3.4-0.7,13.1,4.9,14.3c3.6,0.7,7.3,0.7,10.9,0c0,0,2.7,0,0.7-9.4l-0.3-2.4c0-4.7,0.2-9.6,1.1-11.1
		c1.9-3-0.7-6-0.7-6s-0.2,0.1-0.5,0.2c-0.5-2.6-1.1-6.8-0.9-10.1c0-0.2,0.1-0.5,0.1-0.8c1.2-0.6,2.2-1.3,3.2-2.2v-35.7
		c0,0-0.4-54.9,3.7-56.1c0,0,1.9,20,1.2,29.7c-0.7,9.7,1.2,20.3,1.2,20.3l0.7,39.8c0,0,0.7,0.3,1.9,0.7l-0.1,0.7
		c-0.5,4.4-1.2,11.1-1.8,15.2c-0.9,0.3-1.6,1.2-1.8,2.1c-1.2,3.7-0.4,13.1-2.7,15.8c-1.3,1.6-2.9,4.7-2.2,6.9
		c-0.5,1.9-0.2,5,5.5,5.5c8.7,0.7,12.4-3.7,12.4-3.7s1.2-1.9,0-5.2c-1.2-3.4,0.4-9.4,0.4-9.4s0.8-5.1-0.5-5.7c-0.1-0.6-0.2-1-0.2-1
		c0-1.2-0.4-2.2-1.2-3.2c0-3.9,0.2-11.2,1.5-16.1c0.1-0.2,0.2-0.5,0.2-0.8c1.1-0.2,2.2-0.6,3.2-1.1c0,0-0.4-8.7,2.2-14.6
		c2.7-6,1.2-30.1,1.2-30.1s-1.2-6.3,0.5-11.5c1.8-5.7,3.2-11.5,4.1-17.4l2.2-15.6c0,0,5.8-18.9-1.8-38.3c-0.3-0.8-0.7-1.6-1-2.4
		c-0.7-1.4-1.3-2.8-2.2-4.2c-0.1-0.2-0.2-0.4-0.4-0.7c0.8-0.2,1.2-0.3,1.2-0.3s-10.1-23.7-3.7-35.7c0,0,3.6-3.6,4.1-7.6
		c0.7-5.2,1.3-10.5,2.5-15.6l0.2-0.9c0,0,0-0.2,0.1-0.5c0.2-0.1,0.2-0.2,0.4-0.3c10.8-7.9,20.2-40.9,20.2-40.9l3-5.7l1.4-3
		l-2.9,25.6l23,5.7l14.6-1.2v-3.2l11.1-0.8L1161.4,510.9z M1016,436.3l-4.1-0.6c-0.7-3.7-1.2-6.1-1.2-6.1c0.8-1.1,1.6-2.2,2.2-3.4
		C1014.9,429.2,1015.7,433.4,1016,436.3L1016,436.3z M1000.8,428.4c0.2,1,0.5,1.6,0.5,1.6l0.5,4.2l-1.4-0.2
		C1000.4,432.1,1000.4,430.2,1000.8,428.4L1000.8,428.4z M1129.3,458.1l-5.5,0.7c0.7-2.2,1.7-6,1.2-9.4c1.1-1,1.7-2.5,1.5-3.9
		C1129.8,449.3,1129.5,456.2,1129.3,458.1L1129.3,458.1z M1120.1,452.2c1.7-0.6,3.2-1.4,4.5-2.5c0.5,3.3-0.5,7-1.2,9.2l-5.2,0.7
		l-1.4-0.2L1120.1,452.2z"/>
	<polygon class="st1" points="1160.4,511.9 1147,517.5 1131.4,463.1 1135,458.7 1141.8,457.7 	"/>
	<polygon class="st10" points="1160.4,511.9 1147,517.5 1131.4,463.1 1135,458.7 1141.8,457.7 	"/>
	<polygon class="st1" points="1135,458.7 1111.7,461.7 1123.7,519.3 1147,517.5 	"/>
	<polygon class="st11" points="1135,458.7 1111.7,461.7 1123.7,519.3 1147,517.5 	"/>
	<path class="st12" d="M1129,460.1l-0.3-0.1c0-0.2,1.6-13.7-7-15.5l0.1-0.3C1130.6,446,1129,459.9,1129,460.1z"/>
	<rect x="1042.9" y="499.7" class="st13" width="25.7" height="37.6"/>
	<rect x="1042.9" y="499.7" class="st14" width="25.7" height="37.6"/>
	<polygon class="st1" points="1136,521.5 1121.5,522.5 1123.7,466.1 1128.5,463.1 1135.3,464.2 	"/>
	<polygon class="st14" points="1136,521.5 1121.5,522.5 1123.7,466.1 1128.5,463.1 1135.3,464.2 	"/>
	<polygon class="st1" points="1128.5,463.1 1105.5,458.6 1098.8,517 1121.5,522.5 	"/>
	<polygon class="st1" points="992.8,435.2 989.5,435.2 982.7,493.6 997.6,492.8 	"/>
	<polygon class="st15" points="992.8,435.2 989.5,435.2 982.7,493.6 997.6,492.8 	"/>
	<polygon class="st16" points="991.7,434.5 987.6,493.2 1023.3,496.9 1027.4,439.6 	"/>
	<path class="st17" d="M1034.8,739.4c0,0-4.5-0.3-5.2,12.6c0,0,0.7,7.1-1.1,10.4c-1.8,3.3-0.7,13.1,4.8,14.1c3.6,0.7,7.2,0.7,10.8,0
		c0,0,2.6,0,0.7-9.3l-3.7-27.1L1034.8,739.4z"/>
	<path class="st18" d="M1034.8,739.4c0,0-4.5-0.3-5.2,12.6c0,0,0.7,7.1-1.1,10.4c-1.8,3.3-0.7,13.1,4.8,14.1c3.6,0.7,7.2,0.7,10.8,0
		c0,0,2.6,0,0.7-9.3l-3.7-27.1L1034.8,739.4z"/>
	<path class="st19" d="M1058.3,524.6c-0.3,5.6,0.7,8.7,0.7,8.7l-9.6,2.6c0,0-16,2.2-9.6-4.1c2.2-2.2,3.2-5.9,3.7-9.9
		c0.3-2.7,0.4-5.4,0.2-8.2c-0.1-2.6-0.3-5.1-0.7-7.7c0,0,23.5-8.2,18.2,5.2c-0.9,2.4-1.7,4.9-2.2,7.5
		C1058.6,520.8,1058.3,522.7,1058.3,524.6z"/>
	<path class="st6" d="M1061.3,511.4c-0.9,2.4-1.7,4.9-2.2,7.5c-5.7,1.2-11.5-0.7-15.3-5.1c-0.1-2.6-0.3-5.1-0.7-7.7
		C1043,506.2,1066.4,498,1061.3,511.4z"/>
	<circle class="st19" cx="1055.7" cy="502.5" r="16"/>
	<path class="st19" d="M1027.4,510.3v4.8l-8.2,21.2l-2.2-2.2c-0.1-0.2-0.2-0.2-0.3-0.4c-5.4-7.7-9.3-58.7-9.3-58.7l-5.2-43.2
		c0,0-5.6-13.4,6.7-12.6c12.2,0.7,2.6,12.3,2.6,12.3s8.2,40.9,7.1,42.4c-1.1,1.5,0,6,0,6s3.3,8.6,3,14.9
		C1021.1,501,1027.4,510.3,1027.4,510.3z"/>
	<path class="st19" d="M1119.6,453.8l-19.3,40.9l-3,5.6c0,0-9.2,32.7-20,40.5c-0.6,0.5-1.2,0.8-2,1.2l-2.2-17.9l2.1-5.2l0.2-0.4
		c2.4-2.3,4.2-5.1,5.6-8.2c2.2-5.2,8.6-15.6,8.6-15.6s1.1-3,1.1-5.2s21.2-39.1,21.2-39.1s1.8-16.7,10.8-8.6
		C1131.5,450,1119.6,453.8,1119.6,453.8z"/>
	<path class="st19" d="M1044.9,750.6c0,0-12.6,5.2-11.1,0.3c0.9-2.9,0.6-8.5,0.2-12.3c-0.2-2.5-0.6-4.4-0.6-4.4l10.8,1.1
		c-0.4,0.9-0.6,1.9-0.6,3C1043.2,743.2,1044.9,750.6,1044.9,750.6z"/>
	<path class="st19" d="M1064.6,736.1c-1.9,6.7-1.4,18.6-1.4,18.6s-11.6,1.5-10.4-1.5c0.7-2.1,1.9-12.2,2.5-18.2
		c0.2-2.6,0.4-4.4,0.4-4.4l10.4,2.2C1065.3,733.8,1064.8,734.9,1064.6,736.1z"/>
	<path class="st6" d="M1033.3,734.3l10.8,1.1c-0.4,0.9-0.6,1.9-0.6,3c-3,1.6-6.6,1.7-9.6,0.3
		C1033.6,736.1,1033.3,734.3,1033.3,734.3z"/>
	<path class="st6" d="M1066.1,732.8c-0.7,1-1.2,2.2-1.6,3.4c-3.5,0.6-7.2-0.4-9.3-1.2c0.2-2.6,0.4-4.4,0.4-4.4L1066.1,732.8z"/>
	<path class="st0" d="M1078,646.1l-2.2,15.4c-0.9,5.8-2.2,11.6-4.1,17.2c-1.6,5.1-0.5,11.3-0.5,11.3s1.5,23.8-1.1,29.8
		c-2.6,6-2.2,14.5-2.2,14.5c-6,3.3-14.5-0.7-14.5-0.7l-0.7-39.4c0,0-1.8-10.4-1.1-20s-1.1-29.4-1.1-29.4c-4.1,1.1-3.7,55.4-3.7,55.4
		v35.4c-8.9,7.8-16.7,0-16.7,0c-3-8.9-1.8-36.1-1.8-36.1l-1.1-16c0,0-4.1-19.7-6.7-47.2c-0.8-7.7-0.9-15.6-0.3-23.3
		c0.1-0.8,0.2-1.7,0.2-2.4c0.3-3.5,1-7,1.9-10.4c0.3-1.2,0.7-2.2,1.2-3.3l39.9,1.8l2.3,0.1l5.7,0.2c0.6,0.9,1.2,1.9,1.7,2.8
		c0.7,1.4,1.5,2.7,2.1,4.1c0.3,0.8,0.7,1.6,1,2.4C1083.8,627.4,1078,646.1,1078,646.1z"/>
	<path class="st6" d="M1034,600.3c0,0-1.7,17.5-14.1,12.4c0.1-0.8,0.2-1.7,0.2-2.4c2.9,0.7,10.9,1.9,11.2-10H1034z"/>
	<path class="st6" d="M1076.1,608.1c-8.6,3.1-11.7-5.1-12.9-9.7l2.3,0.1c1.2,7.3,6.4,7.7,9.5,7.2
		C1075.5,606.6,1075.8,607.4,1076.1,608.1z"/>
	<path class="st17" d="M1038.1,748.6c-1.9-0.3-4.8-1.3-3.9-5c0,0-3.5-1.2-3.2,13.3c0,0-0.3,7.1-1.1,8.6c-0.7,1.5,0,10.4,7.8,9.6
		c0,0,5.6,1.8,7.1-1.1c0,0-1.1-17.1,0.7-20c1.8-3-0.7-6-0.7-6s-2.7,1.5-4.5,1C1039.6,748.8,1038.9,748.7,1038.1,748.6z"/>
	<path class="st17" d="M1047.4,772.9c0,0-3.7,6.3,4.8,7.1c8.6,0.7,12.3-3.7,12.3-3.7s1.1-1.8,0-5.2c-1.1-3.3,0.3-9.3,0.3-9.3
		s1.1-7.1-1.5-5.6S1047.4,772.9,1047.4,772.9z"/>
	<path class="st18" d="M1047.4,772.9c0,0-3.7,6.3,4.8,7.1c8.6,0.7,12.3-3.7,12.3-3.7s1.1-1.8,0-5.2c-1.1-3.3,0.3-9.3,0.3-9.3
		s1.1-7.1-1.5-5.6S1047.4,772.9,1047.4,772.9z"/>
	<path class="st17" d="M1057.2,750.2c0,0-4.5-1.8-5.6,1.8c-1.1,3.7-0.3,13.1-2.6,15.6c-2.2,2.6-5.2,9.6,3.7,9.3
		c8.9-0.3,10.8-3.3,10.8-3.3s-0.3-9.3,0.7-11.9c1.1-2.6,0-6.7,0-6.7S1064.6,749.8,1057.2,750.2z"/>
	<circle class="st14" cx="1001.4" cy="439.6" r="0.7"/>
	<circle class="st14" cx="1017" cy="441.5" r="0.7"/>
	<path class="st12" d="M1017.2,441.5h-0.3c0-0.2,0.2-15.9-8.7-17.3c-1.7-0.2-3.2,0.1-4.3,1.2c-3.7,3.7-2.2,14.1-2.2,14.2l-0.3,0.1
		c-0.1-0.4-1.6-10.7,2.2-14.6c1.2-1.2,2.7-1.6,4.7-1.3C1017.4,425.3,1017.2,441.4,1017.2,441.5z"/>
	<path class="st12" d="M1122.4,462.4l-0.3-0.2c0.1-0.1,5.8-12.6-1.7-16.9l0.2-0.3C1128.3,449.5,1122.5,462.2,1122.4,462.4z"/>
	<path class="st6" d="M1059,533.4l-9.6,2.6c0,0-16,2.2-9.6-4.1c2.2-2.2,3.2-5.9,3.7-9.9c2.5,4,5.6,2.8,5.6,2.8l9.2-0.2l0,0
		C1057.9,530.2,1059,533.4,1059,533.4z"/>
	<path class="st6" d="M1077.4,540.8c-0.6,0.5-1.2,0.8-2,1.2l-2.2-17.9l2.1-5.2l0.5-0.4C1080.4,519.8,1078,536.9,1077.4,540.8z"/>
	<path class="st6" d="M1027.4,510.3v4.8l-8.2,21.2l-2.2-2.2c-0.1-0.2-0.2-0.2-0.3-0.4C1017.6,522.6,1027.4,510.3,1027.4,510.3z"/>
	<path class="st6" d="M1073,601.7c-5.2,1.3-32.4,7.7-40.4,1.7c-3.2-2.4-6.9-3.2-10.4-3.4c0.3-1.2,0.7-2.2,1.2-3.3l39.9,1.8l2.3,0.1
		l5.7,0.2C1071.9,599.7,1072.5,600.7,1073,601.7z"/>
	<path class="st19" d="M1003,422.3c0,0,5.6,9.3,9.3,0"/>
	<path class="st19" d="M1117.7,441.5c0,0-2.2,11.1,6.7,6"/>
	<g class="st20">
		<path d="M1048.7,648.2c-0.2-2.2-0.3-3.7-0.3-3.7c-4.1,1.1-3.7,55.4-3.7,55.4v35.4c-2.6,2.2-5.2,3.2-7.4,3.4
			c2.7,0.2,5.9-0.5,9.2-3.4v-35.4C1046.5,700,1046.3,660.6,1048.7,648.2z"/>
		<path d="M1076,608.1c-0.3-0.8-0.7-1.6-1-2.4c-0.7-1.4-1.3-2.7-2.1-4.1c-0.5-0.9-1.1-1.9-1.7-2.8l-5.7-0.2l-2.3-0.1l-39.9-1.8v0.1
			l38.2,1.7l2.3,0.1l5.7,0.2c0.6,0.9,1.2,1.9,1.7,2.8c0.7,1.4,1.5,2.7,2.1,4.1c0.3,0.8,0.7,1.6,1,2.4c7.6,19.2,1.8,37.9,1.8,37.9
			l-2.2,15.4c-0.9,5.8-2.2,11.6-4.1,17.2c-1.6,5.1-0.5,11.3-0.5,11.3s1.5,23.8-1.1,29.8c-2.6,6-2.2,14.5-2.2,14.5
			c-1.4,0.7-3,1.2-4.7,1.2c2.2,0.2,4.5-0.2,6.5-1.2c0,0-0.3-8.6,2.2-14.5c2.6-6,1.1-29.8,1.1-29.8s-1.1-6.2,0.5-11.3
			c1.8-5.7,3.2-11.4,4.1-17.2l2.2-15.4C1077.8,646.1,1083.5,627.4,1076,608.1z"/>
	</g>
	<path class="st16" d="M1058.2,525.4c5.2,2.4,17.2-6.9,17.2-6.9c5.2,1.5,1.5,23,1.5,23l-0.2,0.9c-1.2,5.1-1.8,10.2-2.4,15.5
		c-0.5,3.9-4.1,7.5-4.1,7.5c-6.3,11.9,3.7,35.4,3.7,35.4s-32.4,8.6-41.3,1.8c-8.9-6.7-22.3-1.5-22.3-1.5c6.3-5.6,6.7-40.2,6.7-40.2
		v-26.8c0.7-11.1,10.8-23.8,10.8-23.8c4.1,11.6,15.6,12.3,15.6,12.3c2.5,4.1,5.7,3,5.7,3L1058.2,525.4z"/>
	<path class="st6" d="M1051.5,480c-1.2-0.2-2.6-0.2-3.9,0c-4.1,1.1-5.3,6.2-8.4,9c-1.1,1-2.5,1.7-3.5,2.8c-1.8,2-2.2,4.9-1.8,7.6
		c0.3,2.7,1.4,5.2,2.1,7.8c0.7,2.6,0.9,5.3,0.7,8c0,0.9-0.2,1.7-0.7,2.5c-0.7,1-2.1,1.3-3.1,2.2c-3,2.6-0.5,7.8-2.7,11.1
		c-0.9,1.4-2.7,2.3-3,4c-0.2,1.2,0.2,2.3,0.8,3.4c1.4,2.8,2.8,5.7,5.2,7.8c2.3,2.1,5.2,3.2,8.1,4.2c0.8,0.3,2,0.6,2.7,0
		c0.8-0.8,0.2-2.2-0.3-3.2c-0.9-1.6-1.6-3.4-1.1-5.2c0.5-1.7,2.2-2.9,3.3-4.3c2.9-3.7,2-9.2,0.5-13.6c-0.6-1.9-1.3-3.9-0.7-5.9
		c0.2-0.8,0.7-1.6,0.9-2.4c1.2-3.7-0.8-7.7-0.2-11.5c0.3-1.5,0.8-2.9,1.6-4.2l3.2-7c0.3-0.8,0.8-1.6,1.4-2.2c1-0.8,2.3-1.2,3.6-1.1
		c2.7,0.1,5.2,1.2,7,3.2c3.5,3.9,3.2,9.8,2.8,15l-0.3,3.7c-0.2,2.7-0.5,5.6-2.2,7.7c-1.3,1.7-3.5,2.7-4,4.7
		c-0.5,1.7,0.4,3.7-0.1,5.4c-0.7,2.6-3.9,3.6-5.7,5.7c-1.5,1.9-1.7,4.5-0.4,6.5c0.7,1,1.7,2.1,1.6,3.2c-0.1,1-1,1.7-1,2.7
		c0.1,0.9,0.7,1.7,1.6,1.9c0.8,0.2,1.7,0.2,2.6,0.1l9.2-0.8c0.6,0,1.2-0.2,1.7-0.4c0.7-0.5,0.8-1.3,0.9-2.1c0.3-3.2-0.5-6.9,1.2-9.7
		c0.5-0.9,1.2-1.7,1.8-2.6c3.2-4.9,0-11.6,1.7-17.2c0.8-2.7,2.7-4.9,3.2-7.7c0.7-3.7-1.2-7.2-2-10.8c-0.7-3.7-0.3-7.8-2.3-11.1
		c-1.5-2.5-4.2-4-7.1-4.7c-2.6-0.7-5.2-0.4-7.7-0.7C1056.2,481.4,1053.9,480.4,1051.5,480z"/>
	<path class="st13" d="M1051.5,479.2c-1.2-0.2-2.6-0.2-3.9,0c-4.1,1.1-5.3,6.2-8.4,9c-1.1,1-2.5,1.7-3.5,2.8c-1.8,2-2.2,4.9-1.8,7.6
		s1.4,5.2,2.1,7.8c0.7,2.6,0.9,5.3,0.7,8c0,0.9-0.2,1.7-0.7,2.5c-0.7,1-2.1,1.3-3.1,2.2c-3,2.6-0.5,7.8-2.7,11.1
		c-0.9,1.4-2.7,2.3-3,4c-0.2,1.2,0.2,2.3,0.8,3.4c1.4,2.8,2.8,5.7,5.2,7.8c2.3,2.1,5.2,3.2,8.1,4.2c0.8,0.3,2,0.6,2.7,0
		c0.8-0.8,0.2-2.2-0.3-3.2c-0.9-1.6-1.6-3.4-1.1-5.2c0.5-1.7,2.2-2.9,3.3-4.3c2.9-3.7,2-9.2,0.5-13.6c-0.6-1.9-1.3-3.9-0.7-5.9
		c0.2-0.8,0.7-1.6,0.9-2.4c1.2-3.7-0.8-7.7-0.2-11.5c0.3-1.5,0.8-2.9,1.6-4.2l3.2-7c0.3-0.8,0.8-1.6,1.4-2.2c1-0.8,2.3-1.2,3.6-1.1
		c2.7,0.1,5.2,1.2,7,3.2c3.5,3.9,3.2,9.8,2.8,15l-0.3,3.7c-0.2,2.7-0.5,5.6-2.2,7.7c-1.3,1.7-3.5,2.7-4,4.7
		c-0.5,1.7,0.4,3.7-0.1,5.4c-0.7,2.6-3.9,3.6-5.7,5.7c-1.5,1.9-1.7,4.5-0.4,6.5c0.7,1,1.7,2.1,1.6,3.2c-0.1,1-1,1.7-1,2.7
		c0.1,0.9,0.7,1.7,1.6,1.9c0.8,0.2,1.7,0.2,2.6,0.1l9.2-0.8c0.6,0,1.2-0.2,1.7-0.4c0.7-0.5,0.8-1.3,0.9-2.1c0.3-3.2-0.5-6.9,1.2-9.7
		c0.5-0.9,1.2-1.7,1.8-2.6c3.2-4.9,0-11.6,1.7-17.2c0.8-2.7,2.7-4.9,3.2-7.7c0.7-3.7-1.2-7.2-2-10.8c-0.7-3.7-0.3-7.8-2.3-11.1
		c-1.5-2.5-4.2-4-7.1-4.7c-2.6-0.7-5.2-0.4-7.7-0.7C1056.2,480.6,1053.9,479.6,1051.5,479.2z"/>
	<path class="st6" d="M1031.6,564.4c0,0,7.4,2.2,18.2-2.6h5.6c0,0,0.3,5.2,14.9,3"/>
	<ellipse class="st8" cx="1067.8" cy="772.2" rx="276.3" ry="25.2"/>
	<path class="st8" d="M923.8,549.9h35.9c1.5,0,2.7,1.2,2.7,2.7v10.1c0,1.5-1.2,2.7-2.7,2.7h-35.9c-1.5,0-2.7-1.2-2.7-2.7v-10.1
		C921.2,551.1,922.3,549.9,923.8,549.9z"/>
	<path class="st8" d="M942.4,566.9h35.9c1.5,0,2.7,1.2,2.7,2.7v10.1c0,1.5-1.2,2.7-2.7,2.7h-35.9c-1.5,0-2.7-1.2-2.7-2.7v-10.1
		C939.7,568,940.9,566.9,942.4,566.9z"/>
	<path class="st8" d="M1104.4,550.9h35.9c1.5,0,2.7,1.2,2.7,2.7v10.1c0,1.5-1.2,2.7-2.7,2.7h-35.9c-1.5,0-2.7-1.2-2.7-2.7v-10.1
		C1101.8,552.2,1102.9,550.9,1104.4,550.9z"/>
	<path class="st8" d="M1123,567.9h35.9c1.5,0,2.7,1.2,2.7,2.7v10.1c0,1.5-1.2,2.7-2.7,2.7H1123c-1.5,0-2.7-1.2-2.7-2.7v-10.1
		C1120.3,569.1,1121.5,567.9,1123,567.9z"/>
	<path class="st8" d="M910.9,583.9h35.9c1.5,0,2.7,1.2,2.7,2.7v10.1c0,1.5-1.2,2.7-2.7,2.7h-35.9c-1.5,0-2.7-1.2-2.7-2.7v-10.1
		C908.3,585.1,909.5,583.9,910.9,583.9z"/>
	<path class="st8" d="M952.1,644.1H988c1.5,0,2.7,1.2,2.7,2.7v10.1c0,1.5-1.2,2.7-2.7,2.7h-35.9c-1.5,0-2.7-1.2-2.7-2.7v-10.2
		C949.5,645.2,950.6,644.1,952.1,644.1z"/>
	<path class="st8" d="M970.7,661h35.9c1.5,0,2.7,1.2,2.7,2.7v10.1c0,1.5-1.2,2.7-2.7,2.7h-35.9c-1.5,0-2.7-1.2-2.7-2.7v-10.1
		C968,662.2,969.2,661,970.7,661z"/>
	<path class="st8" d="M939.2,678h35.9c1.5,0,2.7,1.2,2.7,2.7v10.1c0,1.5-1.2,2.7-2.7,2.7h-35.9c-1.5,0-2.7-1.2-2.7-2.7v-10.1
		C936.6,679.3,937.8,678,939.2,678z"/>
	<path class="st8" d="M1117.8,687.3h35.9c1.5,0,2.7,1.2,2.7,2.7v10.1c0,1.5-1.2,2.7-2.7,2.7h-35.9c-1.5,0-2.7-1.2-2.7-2.7V690
		C1115.2,688.5,1116.3,687.3,1117.8,687.3z"/>
	<path class="st8" d="M1086.5,704.3h35.9c1.5,0,2.7,1.2,2.7,2.7v10.1c0,1.5-1.2,2.7-2.7,2.7h-35.9c-1.5,0-2.7-1.2-2.7-2.7V707
		C1083.8,705.5,1085,704.3,1086.5,704.3z"/>
	<g class="st20">
		<path class="st21" d="M1277.9,758.5c0,0-7.5-37.8,7.9-63.6c6.5-10.8,9.3-23.5,8.1-36c-0.7-6-1.8-11.8-3.6-17.6"/>
		<path class="st1" d="M1299.8,624.9c-0.4,4.5-9.8,16.8-9.8,16.8s-7-13.8-6.6-18.3c0.5-4.5,4.6-7.7,9.1-7.2
			C1296.9,616.7,1300.1,620.6,1299.8,624.9L1299.8,624.9z"/>
		<path class="st1" d="M1311,651.1c-2.8,3.6-17.3,8.8-17.3,8.8s1.7-15.4,4.5-19c2.7-3.7,7.7-4.5,11.4-1.8s4.5,7.7,1.8,11.4
			C1311.3,650.8,1311.1,651,1311,651.1L1311,651.1z"/>
		<path class="st1" d="M1306.5,693.7c-4.2,1.7-19.4-1.2-19.4-1.2s9.2-12.4,13.4-14.1c4.2-1.6,9,0.6,10.6,4.8
			C1312.6,687.4,1310.6,692.1,1306.5,693.7z"/>
		<path class="st1" d="M1295.8,725.2c-3.9,2.3-19.3,2.2-19.3,2.2s7-13.8,10.8-16.1c3.8-2.4,8.9-1.2,11.3,2.6
			c2.4,3.8,1.2,8.9-2.6,11.3C1296,725.1,1295.9,725.2,1295.8,725.2L1295.8,725.2z"/>
		<path class="st1" d="M1276.5,659.2c2.9,3.4,17.7,8.1,17.7,8.1s-2.3-15.3-5.2-18.7c-2.9-3.5-8.1-4-11.6-1.1s-4,8.1-1.1,11.6
			C1276.4,659.1,1276.4,659.2,1276.5,659.2z"/>
		<path class="st1" d="M1264.5,696.2c3.8,2.4,19.3,2.4,19.3,2.4s-6.8-13.9-10.6-16.3c-3.8-2.4-8.9-1.3-11.3,2.4
			c-2.4,3.8-1.3,8.9,2.4,11.3C1264.3,696.2,1264.4,696.2,1264.5,696.2z"/>
		<path class="st1" d="M1257.7,733.8c3.4,3,18.6,5.7,18.6,5.7s-4.3-14.8-7.7-17.9c-3.2-3.2-8.5-3-11.6,0.2c-3.2,3.2-3,8.5,0.2,11.6
			C1257.4,733.5,1257.6,733.6,1257.7,733.8z"/>
	</g>
	<g class="st20">
		<path class="st21" d="M1213.2,750.2c0,0-4-20.3,4.2-34.2c3.5-5.8,5-12.6,4.3-19.3c-0.3-3.2-1-6.3-1.9-9.4"/>
		<path class="st1" d="M1225,678.5c-0.2,2.4-5.2,9.1-5.2,9.1s-3.7-7.4-3.5-9.8c0.3-2.4,2.6-4.1,5-3.7
			C1223.5,674.4,1225,676.3,1225,678.5L1225,678.5z"/>
		<path class="st1" d="M1231,692.6c-1.5,1.9-9.3,4.7-9.3,4.7s0.9-8.2,2.4-10.1c1.6-1.8,4.3-2.1,6.2-0.6
			C1232.1,688.1,1232.4,690.7,1231,692.6z"/>
		<path class="st1" d="M1228.6,715.5c-2.2,0.9-10.4-0.6-10.4-0.6s4.9-6.7,7.2-7.6c2.2-0.8,4.8,0.3,5.7,2.7
			C1231.8,712.1,1230.8,714.5,1228.6,715.5L1228.6,715.5z"/>
		<path class="st1" d="M1222.9,732.3c-2.1,1.2-10.4,1.2-10.4,1.2s3.7-7.4,5.8-8.7s4.7-0.7,6.1,1.3c1.3,2.1,0.7,4.7-1.3,6.1
			C1223,732.3,1223,732.3,1222.9,732.3z"/>
		<path class="st1" d="M1212.5,696.9c1.6,1.8,9.5,4.3,9.5,4.3s-1.2-8.2-2.8-10.1c-1.6-1.8-4.3-2.1-6.2-0.5
			C1211.1,692.3,1210.9,695.1,1212.5,696.9L1212.5,696.9L1212.5,696.9z"/>
		<path class="st1" d="M1206,716.8c2.1,1.2,10.4,1.3,10.4,1.3s-3.7-7.5-5.7-8.7s-4.8-0.6-6.1,1.5
			C1203.4,712.9,1204,715.5,1206,716.8L1206,716.8z"/>
		<path class="st1" d="M1202.4,736.9c1.8,1.6,10,3,10,3s-2.3-8-4.1-9.6c-1.8-1.6-4.7-1.4-6.2,0.5
			C1200.5,732.6,1200.7,735.3,1202.4,736.9L1202.4,736.9z"/>
	</g>
	<g class="st20">
		<path class="st21" d="M887.6,753.3c0,0-4-20.3,4.2-34.2c3.5-5.8,5-12.6,4.3-19.3c-0.3-3.2-1-6.3-1.9-9.4"/>
		<path class="st1" d="M899.3,681.6c-0.2,2.4-5.2,9.1-5.2,9.1s-3.7-7.4-3.5-9.8c0.3-2.4,2.6-4.1,5-3.7
			C897.7,677.4,899.4,679.3,899.3,681.6L899.3,681.6z"/>
		<path class="st1" d="M905.3,695.7c-1.5,1.9-9.3,4.7-9.3,4.7s0.9-8.2,2.4-10.1c1.6-1.8,4.3-2.1,6.2-0.6
			C906.4,691.2,906.7,693.8,905.3,695.7z"/>
		<path class="st1" d="M902.9,718.5c-2.2,0.9-10.4-0.6-10.4-0.6s4.9-6.7,7.2-7.6c2.2-0.8,4.8,0.3,5.7,2.7
			C906,715.2,905,717.6,902.9,718.5L902.9,718.5z"/>
		<path class="st1" d="M897.1,735.4c-2.1,1.2-10.4,1.2-10.4,1.2s3.7-7.4,5.8-8.7c2.1-1.3,4.7-0.7,6.1,1.3c1.3,2.1,0.7,4.7-1.3,6.1
			C897.3,735.3,897.2,735.4,897.1,735.4z"/>
		<path class="st1" d="M886.7,700c1.6,1.8,9.5,4.3,9.5,4.3s-1.2-8.2-2.8-10.1c-1.6-1.9-4.3-2.1-6.2-0.5
			C885.4,695.4,885.1,698.1,886.7,700L886.7,700z"/>
		<path class="st1" d="M880.3,719.9c2.1,1.2,10.4,1.3,10.4,1.3s-3.7-7.5-5.7-8.7c-2.1-1.2-4.8-0.6-6.1,1.5
			C877.7,716,878.3,718.5,880.3,719.9L880.3,719.9z"/>
		<path class="st1" d="M876.7,740c1.8,1.6,10,3,10,3s-2.3-8-4.1-9.6s-4.7-1.4-6.2,0.5C874.8,735.7,875,738.4,876.7,740L876.7,740z"
			/>
	</g>
</g>
</svg>
